<svg width="551" height="551" viewBox="0 0 551 551" fill="none" xmlns="http://www.w3.org/2000/svg">
<path d="M294.484 353.452C305.313 366.738 317.338 381.321 325.774 391.518C335.155 363.833 322.626 325.149 308.65 296.229C305.313 314.211 300.654 333.244 294.484 353.452Z" fill="#7A76FF"/>
<path d="M228.506 250.994C214.592 264.095 202.127 288.566 211.507 326.817C219.944 326.137 231.906 325.21 242.734 324.222C236.564 297.032 231.906 272.746 228.506 250.994Z" fill="#5F5AFF"/>
<path opacity="0.2" d="M258.473 387.253C180.657 93.972 244.685 69.0685 268.861 59.0576C293.036 96.5057 357.001 193.895 279.123 398.933L258.473 387.253Z" fill="url(#paint0_linear_533_8948)"/>
<path opacity="0.2" d="M281.386 370.383C203.571 77.1637 267.536 52.1984 291.774 42.1875C315.95 79.6355 379.915 177.025 302.036 382.063L281.386 370.383Z" fill="url(#paint1_linear_533_8948)"/>
<path opacity="0.15" d="M279.121 398.933C357 193.895 293.035 96.5057 268.859 59.0576V393.124L279.121 398.933Z" fill="url(#paint2_linear_533_8948)"/>
<path opacity="0.8" d="M292.027 162.318C292.027 180.177 281.325 188.581 268.104 181.104C254.882 173.627 244.18 153.049 244.18 135.19C244.18 117.331 254.882 108.927 268.104 116.404C281.325 123.881 292.027 144.459 292.027 162.318Z" fill="#FAF7FE"/>
<path opacity="0.1" d="M277.408 423.027C274.942 419.076 273.751 414.067 272.702 409.671C271.483 404.606 270.463 400.293 267.911 399.208C264.991 397.956 263.687 401.128 261.845 405.525C260.767 408.112 259.492 411.173 257.621 413.983C255.608 411.897 253.482 410.171 251.242 408.919C241.859 403.605 234.035 408.196 232.192 419.159C230.916 418.213 229.641 417.35 228.337 416.599C213.284 408.085 201.094 417.74 201.094 438.219C201.094 458.671 213.284 482.156 228.308 490.67C242.908 498.934 254.843 490.058 255.523 470.831C258.273 475.839 261.93 480.041 265.984 482.322C267.033 482.907 268.053 483.352 269.017 483.63C274.857 496.235 283.56 507.087 293.283 512.596C310.859 522.558 325.119 511.316 325.147 487.498C325.147 463.679 310.888 436.272 293.312 426.31C287.5 423.027 282.086 422.025 277.408 423.027Z" fill="url(#paint3_linear_533_8948)"/>
<path opacity="0.2" d="M350.203 262.983L520.629 359.569L520.692 446.763L365.313 358.704L350.266 363.524L350.203 262.983Z" fill="url(#paint4_linear_533_8948)"/>
<path d="M471.082 374.894V351.227L535.425 387.686V411.354L471.082 374.894Z" fill="#7A76FF"/>
<path opacity="0.8" d="M394.02 309.021L431.353 330.155V337.817L394.02 316.683V309.021Z" fill="#FAF7FE"/>
<path opacity="0.8" d="M394.082 324.346L461.447 362.535V370.198L394.082 332.008V324.346Z" fill="#FAF7FE"/>
<path opacity="0.8" d="M394.082 339.67L481.278 389.107V396.769L394.082 347.333V339.67Z" fill="#FAF7FE"/>
<path d="M384.828 311.801C384.828 318.969 380.484 322.368 375.133 319.34C369.782 316.312 365.438 308.032 365.438 300.863C365.438 293.695 369.782 290.296 375.133 293.324C380.547 296.352 384.828 304.633 384.828 311.801Z" fill="#7A76FF"/>
<path opacity="0.2" d="M201.031 139.886L30.6055 43.3613L30.6684 130.555L186.048 218.551L201.094 240.427L201.031 139.886Z" fill="url(#paint5_linear_533_8948)"/>
<path d="M14.5742 77.2878V53.6201L78.9168 90.0794V113.747L14.5742 77.2878Z" fill="#5F5AFF"/>
<path opacity="0.8" d="M159.377 136.24L122.043 115.106V122.769L159.377 143.903V136.24Z" fill="#FAF7FE"/>
<path opacity="0.8" d="M159.375 151.566L87.4141 110.781V118.443L159.375 159.228V151.566Z" fill="#FAF7FE"/>
<path opacity="0.8" d="M159.376 166.891L72.1797 117.455V125.117L159.376 174.554V166.891Z" fill="#FAF7FE"/>
<path d="M168.57 149.402C168.57 156.571 172.914 164.851 178.266 167.879C183.617 170.907 187.961 167.508 187.961 160.34C187.961 153.172 183.617 144.891 178.266 141.863C172.914 138.897 168.57 142.234 168.57 149.402Z" fill="#5F5AFF"/>
<path opacity="0.2" d="M180.529 232.889L78.7266 175.233V227.265L180.529 284.92V232.889Z" fill="url(#paint6_linear_533_8948)"/>
<path opacity="0.8" d="M104.793 202.485L139.671 222.259V228.501L104.793 208.726V202.485Z" fill="#FAF7FE"/>
<path opacity="0.8" d="M104.793 215.029L170.017 251.983V258.286L104.793 221.332V215.029Z" fill="#FAF7FE"/>
<path d="M99.4397 204.339C99.4397 208.603 96.8584 210.642 93.6476 208.85C90.4367 207.058 87.8555 202.114 87.8555 197.788C87.8555 193.525 90.4367 191.485 93.6476 193.277C96.7954 195.131 99.4397 200.075 99.4397 204.339Z" fill="#5F5AFF"/>
<path opacity="0.2" d="M482.853 272.19L381.051 214.535V266.566L482.853 324.283V272.19Z" fill="url(#paint7_linear_533_8948)"/>
<path opacity="0.8" d="M407.113 241.849L441.992 261.624V267.865L407.113 248.09V241.849Z" fill="#FAF7FE"/>
<path opacity="0.8" d="M407.18 254.393L472.404 291.347V297.65L407.18 260.696V254.393Z" fill="#FAF7FE"/>
<path d="M401.764 243.703C401.764 247.966 399.183 250.006 395.972 248.214C392.761 246.422 390.18 241.478 390.18 237.152C390.18 232.888 392.761 230.849 395.972 232.641C399.183 234.495 401.764 239.439 401.764 243.703Z" fill="#7A76FF"/>
<defs>
<linearGradient id="paint0_linear_533_8948" x1="279.573" y1="168.57" x2="212.552" y2="204.37" gradientUnits="userSpaceOnUse">
<stop stop-color="#5C00E7"/>
<stop offset="1" stop-color="#5C00E7" stop-opacity="0.2"/>
</linearGradient>
<linearGradient id="paint1_linear_533_8948" x1="302.481" y1="151.7" x2="235.454" y2="187.509" gradientUnits="userSpaceOnUse">
<stop stop-color="#5C00E7"/>
<stop offset="1" stop-color="#5C00E7" stop-opacity="0.2"/>
</linearGradient>
<linearGradient id="paint2_linear_533_8948" x1="323.082" y1="142.025" x2="176.271" y2="411.907" gradientUnits="userSpaceOnUse">
<stop stop-color="white" stop-opacity="0"/>
<stop offset="1" stop-color="white"/>
</linearGradient>
<linearGradient id="paint3_linear_533_8948" x1="287.118" y1="422.809" x2="250.11" y2="488.132" gradientUnits="userSpaceOnUse">
<stop stop-color="white"/>
<stop offset="1" stop-color="white" stop-opacity="0"/>
</linearGradient>
<linearGradient id="paint4_linear_533_8948" x1="454.633" y1="322.199" x2="417.225" y2="388.197" gradientUnits="userSpaceOnUse">
<stop stop-color="#5C00E7"/>
<stop offset="1" stop-color="#5C00E7" stop-opacity="0.2"/>
</linearGradient>
<linearGradient id="paint5_linear_533_8948" x1="135.036" y1="106.858" x2="93.5344" y2="175.14" gradientUnits="userSpaceOnUse">
<stop stop-color="#5C00E7"/>
<stop offset="1" stop-color="#5C00E7" stop-opacity="0.2"/>
</linearGradient>
<linearGradient id="paint6_linear_533_8948" x1="141.084" y1="210.576" x2="118.762" y2="249.975" gradientUnits="userSpaceOnUse">
<stop stop-color="#5C00E7"/>
<stop offset="1" stop-color="#5C00E7" stop-opacity="0.2"/>
</linearGradient>
<linearGradient id="paint7_linear_533_8948" x1="443.408" y1="249.897" x2="421.067" y2="289.308" gradientUnits="userSpaceOnUse">
<stop stop-color="#5C00E7"/>
<stop offset="1" stop-color="#5C00E7" stop-opacity="0.2"/>
</linearGradient>
</defs>
</svg>
