<svg width="424" height="185" viewBox="0 0 424 185" fill="none" xmlns="http://www.w3.org/2000/svg">
<rect x="359.246" y="87.0732" width="63.5729" height="55.1469" rx="4.41478" fill="#EDF0F6"/>
<rect x="359.246" y="57.3125" width="63.5729" height="19.2577" rx="4.41478" fill="#EDF0F6"/>
<rect x="359.246" y="29.3008" width="63.5729" height="19.2577" rx="4.41478" fill="#EDF0F6"/>
<rect opacity="0.6" x="359.246" y="0.414062" width="17.6591" height="16.6316" rx="4.41478" fill="#B756FE"/>
<rect opacity="0.6" x="383.086" y="0.414062" width="16.7762" height="16.6316" rx="4.41478" fill="#7214FF"/>
<rect opacity="0.6" x="406.043" y="0.414062" width="17.6591" height="16.6316" rx="4.41478" fill="#32CAFD"/>
<rect x="0.765625" y="0.414062" width="139.507" height="76.1553" rx="4.41478" fill="#EDF0F6"/>
<rect x="13.127" y="11.7939" width="13.2444" height="13.1302" rx="3.53183" fill="#A2A2A2"/>
<rect x="13.127" y="52.0596" width="13.2444" height="13.1302" rx="3.53183" fill="#A2A2A2"/>
<rect opacity="0.4" x="36.084" y="11.7939" width="92.7105" height="13.1302" rx="3.53183" fill="#2D55FB"/>
<rect opacity="0.4" x="36.084" y="31.9268" width="92.7105" height="13.1302" rx="3.53183" fill="#32CAFD"/>
<rect opacity="0.4" x="36.084" y="52.0596" width="92.7105" height="13.1302" rx="3.53183" fill="#B756FE"/>
<rect x="150.867" y="0.414062" width="84.7639" height="76.1553" rx="4.41478" fill="#EDF0F6"/>
<line x1="168.527" y1="17.0071" x2="216.207" y2="17.0071" stroke="#A2A2A2" stroke-width="8.82957" stroke-linecap="round"/>
<line x1="168.527" y1="37.1399" x2="216.207" y2="37.1399" stroke="#A2A2A2" stroke-width="8.82957" stroke-linecap="round"/>
<line x1="192.807" y1="60.3252" x2="214.881" y2="60.3252" stroke="#A2A2A2" stroke-width="11.4784" stroke-linecap="round"/>
<rect x="0.765625" y="87.0732" width="234.867" height="55.1469" rx="4.41478" fill="#EDF0F6"/>
<line x1="15.7761" y1="101.916" x2="61.6899" y2="101.916" stroke="#A2A2A2" stroke-width="8.82957" stroke-linecap="round"/>
<line x1="13.5687" y1="117.254" x2="213.117" y2="117.254" stroke="#A2A2A2" stroke-width="4.41478" stroke-linecap="round"/>
<line x1="13.5687" y1="128.633" x2="179.565" y2="128.633" stroke="#A2A2A2" stroke-width="4.41478" stroke-linecap="round"/>
<rect x="0.765625" y="152.725" width="234.867" height="55.1469" rx="4.41478" fill="#EDF0F6"/>
<line x1="15.7761" y1="167.568" x2="61.6899" y2="167.568" stroke="#A2A2A2" stroke-width="8.82957" stroke-linecap="round"/>
<line x1="13.5687" y1="182.905" x2="213.117" y2="182.905" stroke="#A2A2A2" stroke-width="4.41478" stroke-linecap="round"/>
<rect x="246.227" y="152.725" width="176.591" height="55.1469" rx="4.41478" fill="#EDF0F6"/>
<line x1="261.237" y1="167.568" x2="307.151" y2="167.568" stroke="#A2A2A2" stroke-width="8.82957" stroke-linecap="round"/>
<rect x="246.227" y="0.414062" width="102.423" height="141.806" rx="4.41478" fill="#EDF0F6"/>
<line x1="263.886" y1="16.1321" x2="328.342" y2="16.1321" stroke="#A2A2A2" stroke-width="8.82957" stroke-linecap="round"/>
<line x1="261.679" y1="39.3473" x2="266.094" y2="39.3473" stroke="#A2A2A2" stroke-width="4.41478" stroke-linecap="round"/>
<line x1="280.222" y1="62.1071" x2="330.551" y2="62.1071" stroke="#A2A2A2" stroke-width="4.41478" stroke-linecap="round"/>
<line x1="261.679" y1="62.1071" x2="266.094" y2="62.1071" stroke="#A2A2A2" stroke-width="4.41478" stroke-linecap="round"/>
<line x1="280.222" y1="50.7272" x2="330.551" y2="50.7272" stroke="#A2A2A2" stroke-width="4.41478" stroke-linecap="round"/>
<line x1="261.679" y1="50.7272" x2="266.094" y2="50.7272" stroke="#A2A2A2" stroke-width="4.41478" stroke-linecap="round"/>
<line x1="280.222" y1="73.486" x2="330.551" y2="73.486" stroke="#A2A2A2" stroke-width="4.41478" stroke-linecap="round"/>
<line x1="261.679" y1="73.486" x2="266.094" y2="73.486" stroke="#A2A2A2" stroke-width="4.41478" stroke-linecap="round"/>
<line x1="319.072" y1="128.633" x2="330.55" y2="128.633" stroke="#A2A2A2" stroke-width="4.41478" stroke-linecap="round"/>
<line x1="261.679" y1="128.633" x2="305.827" y2="128.633" stroke="#A2A2A2" stroke-width="4.41478" stroke-linecap="round"/>
</svg>
