<svg width="24" height="24" viewBox="0 0 24 24" fill="none" xmlns="http://www.w3.org/2000/svg">
<path d="M8.19348 18.6584H7.71286C3.86783 18.6584 1.94531 17.6971 1.94531 12.8908V8.08456C1.94531 4.23953 3.86783 2.31702 7.71286 2.31702H15.4029C19.2479 2.31702 21.1705 4.23953 21.1705 8.08456V12.8908C21.1705 16.7359 19.2479 18.6584 15.4029 18.6584H14.9223C14.6243 18.6584 14.3359 18.8026 14.1533 19.0429L12.7114 20.9654C12.077 21.8113 11.0388 21.8113 10.4044 20.9654L8.96248 19.0429C8.80868 18.8314 8.46264 18.6584 8.19348 18.6584Z" stroke="white" stroke-width="1.44189" stroke-miterlimit="10" stroke-linecap="round" stroke-linejoin="round"/>
<path d="M7.71237 8.78613L5.79004 10.7085L7.71237 12.6308" stroke="white" stroke-width="1.44189" stroke-miterlimit="10" stroke-linecap="round" stroke-linejoin="round"/>
<path d="M15.4062 8.78613L17.3286 10.7085L15.4062 12.6308" stroke="white" stroke-width="1.44189" stroke-miterlimit="10" stroke-linecap="round" stroke-linejoin="round"/>
<path d="M12.5219 8.46887L10.5996 12.9479" stroke="white" stroke-width="1.44189" stroke-miterlimit="10" stroke-linecap="round" stroke-linejoin="round"/>
</svg>
