<svg width="12" height="21" viewBox="0 0 12 21" fill="none" xmlns="http://www.w3.org/2000/svg">
<g clip-path="url(#clip0_548_1210)">
<path d="M9.64676 0.178711V3.12514H7.89453C7.25465 3.12514 6.8231 3.25907 6.59989 3.52693C6.37667 3.79478 6.26507 4.19657 6.26507 4.73228V6.84166H9.53516L9.09989 10.1452H6.26507V18.6162H2.84989V10.1452H0.00390625V6.84166H2.84989V4.40862C2.84989 3.02469 3.23679 1.9514 4.0106 1.18876C4.78441 0.426105 5.81492 0.0447826 7.10212 0.0447826C8.19587 0.0447826 9.04409 0.0894241 9.64676 0.178711Z" fill="#4E4E4E"/>
<path d="M9.64676 0.178711V3.12514H7.89453C7.25465 3.12514 6.8231 3.25907 6.59989 3.52693C6.37667 3.79478 6.26507 4.19657 6.26507 4.73228V6.84166H9.53516L9.09989 10.1452H6.26507V18.6162H2.84989V10.1452H0.00390625V6.84166H2.84989V4.40862C2.84989 3.02469 3.23679 1.9514 4.0106 1.18876C4.78441 0.426105 5.81492 0.0447826 7.10212 0.0447826C8.19587 0.0447826 9.04409 0.0894241 9.64676 0.178711Z" fill="#C4CAD6"/>
</g>
<defs>
<clipPath id="clip0_548_1210">
<rect width="11.44" height="20" fill="white" transform="matrix(1 0 0 -1 0 20.0449)"/>
</clipPath>
</defs>
</svg>
