<svg width="10" height="20" viewBox="0 0 10 20" fill="none" xmlns="http://www.w3.org/2000/svg">
<path d="M9.64676 0.678711V3.62514H7.89453C7.25465 3.62514 6.8231 3.75907 6.59989 4.02693C6.37667 4.29478 6.26507 4.69657 6.26507 5.23228V7.34166H9.53516L9.09989 10.6452H6.26507V19.1162H2.84989V10.6452H0.00390625V7.34166H2.84989V4.90862C2.84989 3.52469 3.23679 2.4514 4.0106 1.68876C4.78441 0.926105 5.81492 0.544783 7.10212 0.544783C8.19587 0.544783 9.04409 0.589424 9.64676 0.678711Z" fill="#4E4E4E"/>
<path d="M9.64676 0.678711V3.62514H7.89453C7.25465 3.62514 6.8231 3.75907 6.59989 4.02693C6.37667 4.29478 6.26507 4.69657 6.26507 5.23228V7.34166H9.53516L9.09989 10.6452H6.26507V19.1162H2.84989V10.6452H0.00390625V7.34166H2.84989V4.90862C2.84989 3.52469 3.23679 2.4514 4.0106 1.68876C4.78441 0.926105 5.81492 0.544783 7.10212 0.544783C8.19587 0.544783 9.04409 0.589424 9.64676 0.678711Z" fill="#4E4E4E"/>
</svg>
