<svg width="18" height="21" viewBox="0 0 18 21" fill="none" xmlns="http://www.w3.org/2000/svg">
<g clip-path="url(#clip0_548_1216)">
<path d="M3.92243 7.02079V18.0811H0.239397V7.02079H3.92243ZM4.15681 3.60561C4.16425 4.14876 3.97638 4.60263 3.59319 4.96722C3.21001 5.3318 2.70591 5.51409 2.08091 5.51409H2.05859C1.44847 5.51409 0.957403 5.3318 0.585379 4.96722C0.213356 4.60263 0.0273438 4.14876 0.0273438 3.60561C0.0273438 3.05501 0.218936 2.59928 0.602121 2.23842C0.985305 1.87756 1.48568 1.69713 2.10324 1.69713C2.7208 1.69713 3.21559 1.87756 3.58761 2.23842C3.95964 2.59928 4.14937 3.05501 4.15681 3.60561ZM17.1702 11.7418V18.0811H13.4983V12.1659C13.4983 11.3846 13.3477 10.7726 13.0463 10.3299C12.745 9.88723 12.2744 9.66588 11.6345 9.66588C11.1657 9.66588 10.7733 9.79422 10.457 10.0509C10.1408 10.3076 9.90458 10.6257 9.74833 11.0052C9.66648 11.2284 9.62556 11.5297 9.62556 11.9092V18.0811H5.95368C5.96856 15.1123 5.976 12.7053 5.976 10.8601C5.976 9.01483 5.97228 7.91364 5.96484 7.5565L5.95368 7.02079H9.62556V8.62793H9.60324C9.75205 8.38983 9.90458 8.1815 10.0608 8.00293C10.2171 7.82436 10.4273 7.63091 10.6914 7.42257C10.9555 7.21424 11.2792 7.05241 11.6624 6.93708C12.0456 6.82175 12.4715 6.76409 12.9403 6.76409C14.2126 6.76409 15.2357 7.18634 16.0095 8.03083C16.7833 8.87533 17.1702 10.1123 17.1702 11.7418Z" fill="#4E4E4E"/>
<path d="M3.92243 7.02079V18.0811H0.239397V7.02079H3.92243ZM4.15681 3.60561C4.16425 4.14876 3.97638 4.60263 3.59319 4.96722C3.21001 5.3318 2.70591 5.51409 2.08091 5.51409H2.05859C1.44847 5.51409 0.957403 5.3318 0.585379 4.96722C0.213356 4.60263 0.0273438 4.14876 0.0273438 3.60561C0.0273438 3.05501 0.218936 2.59928 0.602121 2.23842C0.985305 1.87756 1.48568 1.69713 2.10324 1.69713C2.7208 1.69713 3.21559 1.87756 3.58761 2.23842C3.95964 2.59928 4.14937 3.05501 4.15681 3.60561ZM17.1702 11.7418V18.0811H13.4983V12.1659C13.4983 11.3846 13.3477 10.7726 13.0463 10.3299C12.745 9.88723 12.2744 9.66588 11.6345 9.66588C11.1657 9.66588 10.7733 9.79422 10.457 10.0509C10.1408 10.3076 9.90458 10.6257 9.74833 11.0052C9.66648 11.2284 9.62556 11.5297 9.62556 11.9092V18.0811H5.95368C5.96856 15.1123 5.976 12.7053 5.976 10.8601C5.976 9.01483 5.97228 7.91364 5.96484 7.5565L5.95368 7.02079H9.62556V8.62793H9.60324C9.75205 8.38983 9.90458 8.1815 10.0608 8.00293C10.2171 7.82436 10.4273 7.63091 10.6914 7.42257C10.9555 7.21424 11.2792 7.05241 11.6624 6.93708C12.0456 6.82175 12.4715 6.76409 12.9403 6.76409C14.2126 6.76409 15.2357 7.18634 16.0095 8.03083C16.7833 8.87533 17.1702 10.1123 17.1702 11.7418Z" fill="#C4CAD6"/>
</g>
<defs>
<clipPath id="clip0_548_1216">
<rect width="17.16" height="20" fill="white" transform="matrix(1 0 0 -1 0.0195312 20.0449)"/>
</clipPath>
</defs>
</svg>
