<svg width="78" height="79" viewBox="0 0 78 79" fill="none" xmlns="http://www.w3.org/2000/svg">
<path fill-rule="evenodd" clip-rule="evenodd" d="M55.9531 61.8186L60.9551 64.4059L60.9544 64.3799C61.4527 64.6365 61.6436 65.244 61.3838 65.7363C61.1241 66.2287 60.5091 66.4198 60.0108 66.1632L54.969 63.555L52.525 62.2142C51.3269 61.5229 50.2745 60.6142 49.4236 59.5327C48.533 58.3778 48.0558 56.9638 48.0664 55.5104V55.2093C45.559 57.6682 42.1871 59.0745 38.6537 59.1373C35.2263 59.0823 31.9473 57.7546 29.4662 55.4162V55.5104C29.4794 56.9638 29.0023 58.3778 28.109 59.5327C27.2581 60.6142 26.2058 61.5229 25.0077 62.2142L22.6537 63.555L17.5564 66.1972C17.0581 66.4538 16.4431 66.2627 16.1833 65.7704C15.9235 65.2781 16.1144 64.6706 16.6154 64.414L21.6571 61.8058L23.9632 60.465C24.9414 59.8994 25.8029 59.1531 26.4947 58.2653C27.1124 57.4771 27.449 56.5082 27.4517 55.5105V53.2636C26.06 51.5091 24.9467 49.553 24.1541 47.4659C20.7135 45.5542 18.6777 42.9749 18.6777 40.0917V25.3433C18.6512 24.3901 19.0303 23.4683 19.7221 22.8032C20.7798 21.7688 22.5584 21.2215 24.9203 20.9387C27.7676 16.0995 33.0053 13.1221 38.6726 13.1221C44.3375 13.1221 49.5754 16.0994 52.425 20.9387H52.4223C54.975 21.2137 56.8756 21.7636 57.981 22.8504C58.6595 23.5051 59.0333 24.4059 59.0121 25.3434V40.1126C59.0121 43.1135 56.7722 45.7898 53.1089 47.7066C52.3667 49.5947 51.3647 51.3728 50.1294 52.9885V55.5103C50.1347 56.5159 50.4793 57.49 51.1076 58.2782C51.7914 59.1633 52.637 59.9096 53.6046 60.4779L55.9531 61.8186ZM56.9763 25.343C56.9896 24.945 56.8279 24.5626 56.5363 24.2903C55.6748 23.6382 54.6436 23.2375 53.5648 23.138C54.1851 24.594 54.5986 26.1286 54.7921 27.6972C56.2156 26.9115 56.9763 26.0815 56.9763 25.343ZM38.6757 15.1591C43.0839 15.1853 47.2192 17.2619 49.8379 20.7657C50.3495 21.4256 50.8028 22.1274 51.1951 22.8632C51.9135 24.2381 52.4145 25.715 52.6742 27.239C52.7511 27.6868 52.8068 28.132 52.8439 28.5798C52.3588 28.7631 51.8339 28.9385 51.2693 29.1035C47.227 30.2007 43.0468 30.7245 38.8531 30.659C34.5536 30.7323 30.2703 30.1798 26.1349 29.0171C25.5597 28.839 25.0296 28.6531 24.5392 28.4619C24.5736 28.0534 24.6346 27.6449 24.7009 27.2417L24.7035 27.239C24.9633 25.7202 25.4616 24.2485 26.1773 22.8763C26.567 22.1352 27.0203 21.4282 27.5345 20.7657C30.1482 17.2671 34.2755 15.1905 38.6757 15.1591ZM23.7733 23.1985C22.819 23.3112 21.9125 23.683 21.1544 24.2696C20.8601 24.5498 20.7011 24.9399 20.7143 25.3432C20.7143 26.0136 21.3664 26.7992 22.607 27.5298C22.8005 26.0398 23.1928 24.5838 23.7733 23.1985ZM23.1902 44.3809C21.6236 43.1083 20.7144 41.647 20.7144 40.0968V28.6949C21.2525 29.0904 21.8277 29.436 22.4294 29.7267C22.7899 29.9022 23.161 30.0698 23.564 30.2295C23.9642 30.3892 24.1683 30.4652 24.4864 30.5778C24.6689 30.6439 24.8653 30.7065 25.0586 30.7682C25.2024 30.814 25.3444 30.8593 25.4778 30.9051V30.9077C29.825 32.1254 34.326 32.7172 38.8454 32.6701C43.2562 32.712 47.6535 32.1516 51.9083 31.002C52.1424 30.9343 52.3725 30.8599 52.5994 30.7864C52.6884 30.7576 52.7771 30.7289 52.8653 30.7009C53.178 30.6013 53.5438 30.473 53.8301 30.3526C53.9068 30.3203 53.996 30.2838 54.0923 30.2443C54.3556 30.1363 54.6721 30.0066 54.9302 29.8838L54.9276 29.8812C55.6459 29.5513 56.3272 29.1532 56.9633 28.6871V40.0917C56.9633 41.7754 55.8925 43.3571 54.0661 44.7031C53.2603 45.2871 52.3988 45.7925 51.4948 46.2115C47.5055 47.9424 43.1875 48.804 38.8323 48.7333C34.3512 48.7333 28.5336 47.4734 25.7694 46.0098C25.0239 45.6151 23.5471 44.7032 23.1902 44.3809ZM29.4748 52.5538C31.9588 55.3951 35.1662 57.1182 38.6758 57.1182C43.5029 57.1182 47.422 53.1669 48.2845 52.1113C49.0211 51.2098 49.7693 50.0493 50.3547 48.9008C46.6598 50.1682 42.7712 50.7941 38.8587 50.7495C34.7973 50.7993 30.7577 50.1185 26.9433 48.7384C27.4682 49.7806 28.0884 50.7732 28.7962 51.7028C28.823 51.7381 28.8484 51.7714 28.8724 51.8029C29.1264 52.137 29.2344 52.2789 29.4748 52.5538Z" fill="#3873FF"/>
<path d="M57.3215 57.6381C55.7354 61.2611 48.0388 64.0097 38.7831 64.0097C28.3793 64.0097 19.9453 60.5369 19.9453 56.253C19.9453 53.9374 22.4095 51.8588 26.3169 50.4375" stroke="white" stroke-width="1.66216" stroke-linecap="round" stroke-linejoin="round"/>
<path fill-rule="evenodd" clip-rule="evenodd" d="M58.1746 57.7232C59.7045 57.7232 60.9448 56.4829 60.9448 54.9529C60.9448 53.4229 59.7045 52.1826 58.1746 52.1826C56.6446 52.1826 55.4043 53.4229 55.4043 54.9529C55.4043 56.4829 56.6446 57.7232 58.1746 57.7232Z" stroke="white" stroke-width="1.66216"/>
<path d="M28.9509 51.906C28.9263 51.8737 28.9004 51.8396 28.8727 51.8032L28.7964 51.7029C28.1791 50.8921 27.6283 50.0335 27.1494 49.1357H24.8506C25.3712 50.212 25.9694 51.179 26.4607 51.906H28.9509Z" fill="#3873FF"/>
<path d="M24.9326 41.071V33.8478C27.3004 34.7507 30.3784 36.1051 38.6656 36.1051C46.0056 36.1051 50.5043 34.7507 52.6353 33.6221V41.071C50.2676 43.554 44.9164 45.2572 38.6656 45.2572C32.4147 45.2572 26.59 43.3283 24.9326 41.071Z" fill="url(#paint0_linear_481_2171)"/>
<rect opacity="0.1" x="9.97363" y="27.5278" width="5.75161" height="5.75161" fill="#3CE1CD"/>
<rect opacity="0.4" x="9.97363" y="35.0049" width="5.75161" height="5.75161" fill="#3CE1CD"/>
<rect opacity="0.7" x="9.97363" y="42.4819" width="5.75161" height="5.75161" fill="#3CE1CD"/>
<rect x="9.97363" y="49.959" width="5.75161" height="5.75161" fill="#3CE1CD"/>
<rect opacity="0.1" x="62.0547" y="10.3521" width="5.75161" height="5.75161" fill="#3CE1CD"/>
<rect opacity="0.4" x="62.0547" y="17.8291" width="5.75161" height="5.75161" fill="#3CE1CD"/>
<rect opacity="0.7" x="62.0547" y="25.3062" width="5.75161" height="5.75161" fill="#3CE1CD"/>
<rect x="62.0547" y="32.7832" width="5.75161" height="5.75161" fill="#3CE1CD"/>
<defs>
<linearGradient id="paint0_linear_481_2171" x1="38.784" y1="33.6221" x2="38.784" y2="45.2572" gradientUnits="userSpaceOnUse">
<stop stop-color="#3873FF"/>
<stop offset="1" stop-color="#3873FF" stop-opacity="0"/>
</linearGradient>
</defs>
</svg>
