<svg width="53" height="58" viewBox="0 0 53 58" fill="none" xmlns="http://www.w3.org/2000/svg">
<path d="M20.3564 53.6494H1.51855V3.78455H20.3564" stroke="white" stroke-width="1.66216" stroke-linecap="round" stroke-linejoin="round"/>
<path d="M48.6133 6.55475V50.6021" stroke="white" stroke-width="1.66216" stroke-linecap="round" stroke-linejoin="round"/>
<path fill-rule="evenodd" clip-rule="evenodd" d="M23.1262 56.4194C21.5962 56.4194 20.3559 55.1792 20.3559 53.6492C20.3559 52.1192 21.5962 50.8789 23.1262 50.8789C24.6562 50.8789 25.8965 52.1192 25.8965 53.6492C25.8965 55.1792 24.6562 56.4194 23.1262 56.4194Z" stroke="white" stroke-width="1.66216"/>
<path fill-rule="evenodd" clip-rule="evenodd" d="M23.1262 6.5547C21.5962 6.5547 20.3559 5.31441 20.3559 3.78443C20.3559 2.25445 21.5962 1.01416 23.1262 1.01416C24.6562 1.01416 25.8965 2.25445 25.8965 3.78443C25.8965 5.31441 24.6562 6.5547 23.1262 6.5547Z" stroke="white" stroke-width="1.66216"/>
<path fill-rule="evenodd" clip-rule="evenodd" d="M48.6125 6.5547C47.0826 6.5547 45.8423 5.31441 45.8423 3.78443C45.8423 2.25445 47.0826 1.01416 48.6125 1.01416C50.1425 1.01416 51.3828 2.25445 51.3828 3.78443C51.3828 5.31441 50.1425 6.5547 48.6125 6.5547Z" stroke="white" stroke-width="1.66216"/>
<path fill-rule="evenodd" clip-rule="evenodd" d="M48.6125 56.4194C47.0826 56.4194 45.8423 55.1792 45.8423 53.6492C45.8423 52.1192 47.0826 50.8789 48.6125 50.8789C50.1425 50.8789 51.3828 52.1192 51.3828 53.6492C51.3828 55.1792 50.1425 56.4194 48.6125 56.4194Z" stroke="white" stroke-width="1.66216"/>
</svg>
