<svg width="1232" height="464" viewBox="0 0 1232 464" fill="none" xmlns="http://www.w3.org/2000/svg">
<path d="M1075.88 464.332C970.67 381.167 922.068 351.233 834.947 404.352C736.043 341.016 698.657 362.317 592.503 428.367C539.444 376.605 519.09 355.116 494.505 387.5C433.97 317.115 400.7 294.08 349.983 355.38C344.486 362.009 337.194 366.921 328.979 369.527C320.763 372.134 311.969 372.327 303.647 370.083C227.288 349.386 153.913 436.057 109.125 464.332H1075.88Z" fill="#7214FF" fill-opacity="0.05"/>
<path d="M1002.27 452.186C1000.76 450.867 998.418 450.188 995.623 450.188C993.252 450.225 990.899 450.606 988.637 451.319L987.126 451.809C987.172 450.716 987.043 449.621 986.749 448.567C985.918 445.249 983.728 442.535 980.442 440.688C975.533 437.898 968.622 437.446 962.013 439.444C960.722 439.826 959.457 440.305 958.237 440.876C957.671 439.042 956.885 437.282 955.896 435.636C949.967 425.683 937.656 419.84 928.441 422.63C924.514 423.798 921.568 426.475 920.171 430.094C918.358 434.769 919.151 440.537 922.399 445.966C927.195 454.071 936.409 459.651 944.868 459.688C944.944 460.179 945.02 460.669 945.133 461.121C945.378 462.023 945.718 462.895 946.153 463.722H947.021C946.511 462.851 946.13 461.912 945.888 460.933C945.748 460.388 945.646 459.833 945.586 459.274C945.579 459.181 945.533 459.094 945.461 459.031C945.393 458.969 945.303 458.934 945.208 458.934H944.944C936.712 458.934 927.724 453.468 923.041 445.589C919.944 440.348 919.151 434.807 920.851 430.358C922.172 426.965 924.967 424.477 928.668 423.346C937.542 420.669 949.476 426.362 955.254 436.013C956.273 437.742 957.074 439.591 957.633 441.517C957.678 441.618 957.757 441.698 957.859 441.743C957.958 441.781 958.063 441.781 958.161 441.743C959.476 441.106 960.839 440.576 962.24 440.16C968.66 438.237 975.306 438.652 980.064 441.329C983.161 443.101 985.238 445.664 986.031 448.756C986.341 449.922 986.443 451.135 986.333 452.337C986.337 452.466 986.39 452.587 986.484 452.676C986.537 452.72 986.601 452.746 986.666 452.753C986.734 452.76 986.802 452.746 986.862 452.714L988.863 452.035C994.377 450.377 999.324 450.641 1001.78 452.752C1003.1 453.845 1003.63 455.391 1003.36 457.2C1003.1 459.01 1001.85 461.573 999.928 463.722H1000.91C1002.69 461.611 1003.86 459.387 1004.12 457.313C1004.38 455.24 1003.78 453.43 1002.27 452.186Z" fill="#808AFF"/>
<path d="M41.0522 429.415C74.0201 412.827 97.3204 425.683 97.3204 425.683C113.634 420.631 127.985 424.175 135.424 429.943C140.031 433.562 129.684 432.921 106.459 432.921H41.9207C41.43 432.921 40.9593 432.727 40.6123 432.38C40.2652 432.034 40.0703 431.564 40.0703 431.074C40.0733 430.736 40.1657 430.404 40.3381 430.113C40.5105 429.822 40.7568 429.581 41.0522 429.415Z" fill="#020E92" fill-opacity="0.2"/>
<path d="M1233.89 263.841C1233.83 260.568 1232.64 257.415 1230.52 254.92C1228.4 252.424 1225.48 250.742 1222.25 250.159C1219.02 249.576 1215.69 250.129 1212.83 251.724C1209.97 253.318 1207.74 255.856 1206.55 258.903C1205.49 258.674 1204.42 258.56 1203.34 258.563C1201.17 258.557 1199.03 259.026 1197.06 259.938C1195.1 260.851 1193.36 262.183 1191.97 263.841H1233.89Z" fill="#5865F2" fill-opacity="0.2"/>
<path d="M42.4857 0.933105C40.2202 0.934236 37.9891 1.48352 35.9831 2.53383C33.9771 3.58452 32.2558 5.10495 30.9677 6.96505C25.9266 4.67254 20.3326 3.87293 14.8497 4.6616C9.36712 5.45028 4.2267 7.79369 0.0390625 11.4136H56.0429C55.2589 8.41762 53.504 5.76469 51.0516 3.86915C48.5993 1.97324 45.5872 0.941022 42.4857 0.933105Z" fill="#5865F2" fill-opacity="0.2"/>
<path d="M1247.81 81.8373C1248.76 81.8475 1249.7 81.6481 1250.56 81.2534C1251.42 80.8583 1252.19 80.2777 1252.8 79.5531C1253.41 78.8289 1253.85 77.9784 1254.09 77.063C1254.33 76.1477 1254.37 75.1905 1254.2 74.2597C1252.39 64.5166 1247.45 55.6263 1240.13 48.9308C1232.81 42.2353 1223.51 38.0985 1213.63 37.1451C1203.75 36.1913 1193.83 38.4729 1185.36 43.6449C1176.9 48.8169 1170.34 56.5985 1166.7 65.815C1163.32 65.0877 1159.88 64.7209 1156.42 64.7217C1149.79 64.7107 1143.22 66.0834 1137.15 68.7514C1131.08 71.4194 1125.63 75.3243 1121.15 80.2162C1121.03 80.3569 1120.95 80.5288 1120.93 80.7124C1120.9 80.896 1120.92 81.0837 1121 81.2537C1121.07 81.4234 1121.19 81.5685 1121.35 81.6718C1121.5 81.7751 1121.69 81.8324 1121.87 81.8373H1247.81Z" fill="#5865F2" fill-opacity="0.2"/>
<path d="M389.794 463.858H389.039C389.341 455.338 387.755 449.796 384.167 446.968C380.58 444.141 374.575 443.953 366.154 446.554C366.052 446.58 365.943 446.566 365.852 446.516C365.757 446.455 365.69 446.36 365.663 446.252C365.429 444.737 364.806 443.307 363.85 442.104C362.899 440.902 361.649 439.967 360.225 439.391C356.6 437.921 352.106 438.75 348.254 441.577C338.888 448.401 339.908 460.616 339.908 460.729C339.908 460.807 339.889 460.883 339.848 460.95C339.81 461.017 339.75 461.07 339.682 461.106C339.614 461.142 339.538 461.154 339.462 461.141C339.387 461.127 339.315 461.088 339.266 461.03C334.395 456.695 330.996 454.999 328.239 455.489C325.482 455.979 322.99 458.919 320.158 463.858H319.289C322.348 458.505 324.84 455.3 328.088 454.735C331.336 454.169 334.395 455.828 339.115 459.9C339.077 456.884 339.606 446.969 347.801 440.974C351.879 437.996 356.638 437.129 360.489 438.712C361.974 439.29 363.288 440.232 364.311 441.451C365.335 442.67 366.033 444.127 366.343 445.687C374.802 443.161 380.769 443.387 384.621 446.403C388.472 449.419 390.096 455.074 389.794 463.858Z" fill="#808AFF"/>
<path d="M242.642 33.0626C241.811 33.6146 241.106 34.3544 240.574 35.2285C240.044 36.1032 239.7 37.0908 239.57 38.1218L239.04 41.7194C239.027 41.7987 238.988 41.8706 238.93 41.9223C238.872 41.974 238.798 42.0016 238.722 42.0005C238.646 42.0016 238.572 41.974 238.514 41.9223C238.456 41.8706 238.417 41.7987 238.405 41.7194L237.875 38.1218C237.734 37.0942 237.386 36.1105 236.856 35.2381C236.326 34.3651 235.626 33.6231 234.802 33.0626L234.379 32.7816C234.328 32.7579 234.285 32.7186 234.256 32.668C234.228 32.6174 234.215 32.5589 234.22 32.5005C234.215 32.442 234.228 32.383 234.256 32.333C234.285 32.2824 234.328 32.2425 234.379 32.2194L234.802 31.9384C235.623 31.3605 236.32 30.6072 236.849 29.7258C237.378 28.845 237.728 27.8562 237.875 26.823L238.405 23.2816C238.417 23.2023 238.456 23.1304 238.514 23.0786C238.572 23.0269 238.646 22.9994 238.722 23.0005C238.798 22.9994 238.872 23.0269 238.93 23.0786C238.988 23.1304 239.027 23.2023 239.04 23.2816L239.57 26.823C239.707 27.859 240.052 28.8523 240.582 29.7348C241.112 30.6173 241.815 31.3689 242.642 31.9384L243.066 32.2194C243.117 32.2425 243.159 32.2824 243.188 32.333C243.217 32.383 243.229 32.442 243.225 32.5005C243.229 32.5589 243.217 32.6174 243.188 32.668C243.159 32.7186 243.117 32.7579 243.066 32.7816L242.642 33.0626Z" fill="#91FFAD"/>
<path d="M1050.33 54.9538C1049.6 54.5095 1048.99 53.9238 1048.52 53.2357C1048.04 52.5479 1047.74 51.7733 1047.61 50.9642L1047.17 48.1663C1047.15 48.1023 1047.12 48.0451 1047.06 48.0031C1047.01 47.9611 1046.94 47.9365 1046.87 47.9331C1046.8 47.9321 1046.73 47.9549 1046.67 47.9976C1046.61 48.0401 1046.58 48.1 1046.57 48.1663L1046.12 50.9642C1045.99 51.7751 1045.68 52.5502 1045.21 53.238C1044.73 53.9259 1044.11 54.5108 1043.37 54.9538L1042.99 55.187C1042.95 55.2139 1042.91 55.2487 1042.89 55.2891C1042.87 55.3292 1042.85 55.374 1042.85 55.4202C1042.85 55.4668 1042.87 55.5121 1042.89 55.5528C1042.91 55.5935 1042.95 55.6279 1042.99 55.6533L1043.37 55.8865C1044.11 56.3349 1044.73 56.9246 1045.21 57.6165C1045.68 58.3087 1045.99 59.0878 1046.12 59.902L1046.57 62.6999C1046.58 62.7662 1046.61 62.8261 1046.67 62.8688C1046.73 62.9113 1046.8 62.9341 1046.87 62.9331C1046.94 62.9297 1047.01 62.9051 1047.06 62.8634C1047.12 62.8214 1047.15 62.7642 1047.17 62.6999L1047.61 59.902C1047.74 59.0893 1048.04 58.3111 1048.52 57.6188C1048.98 56.9266 1049.6 56.3362 1050.33 55.8865L1050.75 55.6533C1050.78 55.6266 1050.81 55.5914 1050.83 55.5505C1050.85 55.5095 1050.86 55.4647 1050.86 55.4202C1050.86 55.3759 1050.85 55.3318 1050.83 55.2914C1050.81 55.251 1050.78 55.2152 1050.75 55.187L1050.33 54.9538Z" fill="#3F99F2"/>
<path d="M1186.27 365.227C1185.46 364.701 1184.77 364.009 1184.25 363.196C1183.73 362.383 1183.39 361.47 1183.25 360.515L1182.72 357.235C1182.72 357.155 1182.69 357.078 1182.63 357.021C1182.58 356.965 1182.5 356.933 1182.42 356.933C1182.33 356.933 1182.25 356.963 1182.19 357.019C1182.13 357.074 1182.08 357.151 1182.08 357.235L1181.59 360.515C1181.44 361.472 1181.09 362.387 1180.57 363.2C1180.04 364.012 1179.34 364.703 1178.53 365.227L1178.11 365.491C1178.07 365.522 1178.03 365.562 1178.01 365.607C1177.98 365.653 1177.96 365.703 1177.96 365.755C1177.96 365.808 1177.97 365.861 1178 365.907C1178.03 365.954 1178.07 365.992 1178.11 366.019L1178.53 366.283C1179.34 366.81 1180.03 367.502 1180.56 368.314C1181.08 369.126 1181.44 370.039 1181.59 370.995L1182.08 374.275C1182.08 374.358 1182.13 374.435 1182.19 374.491C1182.25 374.547 1182.33 374.577 1182.42 374.577C1182.5 374.577 1182.58 374.545 1182.63 374.488C1182.69 374.432 1182.72 374.355 1182.72 374.275L1183.25 370.995C1183.39 370.042 1183.74 369.129 1184.26 368.318C1184.78 367.506 1185.46 366.812 1186.27 366.283L1186.68 366.019C1186.73 365.996 1186.78 365.958 1186.8 365.911C1186.83 365.863 1186.84 365.809 1186.84 365.755C1186.84 365.701 1186.82 365.649 1186.79 365.603C1186.77 365.556 1186.73 365.518 1186.68 365.491L1186.27 365.227Z" fill="#404EED"/>
<path d="M381.433 339.897C381.126 339.702 380.866 339.442 380.67 339.136C380.474 338.83 380.348 338.485 380.3 338.125L380.111 336.918C380.111 336.888 380.099 336.859 380.078 336.838C380.057 336.817 380.028 336.805 379.998 336.805C379.968 336.805 379.939 336.817 379.918 336.838C379.897 336.859 379.885 336.888 379.885 336.918L379.696 338.125C379.648 338.485 379.522 338.83 379.326 339.136C379.13 339.442 378.87 339.702 378.563 339.897L378.374 340.01C378.337 340.01 378.337 340.085 378.337 340.123C378.335 340.143 378.337 340.164 378.344 340.183C378.35 340.203 378.36 340.221 378.374 340.236L378.563 340.311C378.862 340.515 379.116 340.777 379.311 341.081C379.506 341.386 379.637 341.727 379.696 342.083L379.885 343.327C379.885 343.357 379.897 343.386 379.918 343.407C379.939 343.428 379.968 343.44 379.998 343.44C380.028 343.44 380.057 343.428 380.078 343.407C380.099 343.386 380.111 343.357 380.111 343.327L380.3 342.083C380.36 341.727 380.49 341.386 380.685 341.081C380.88 340.777 381.134 340.515 381.433 340.311L381.622 340.236C381.636 340.221 381.646 340.203 381.653 340.183C381.659 340.164 381.661 340.143 381.66 340.123C381.66 340.085 381.66 340.01 381.622 340.01L381.433 339.897Z" fill="#FF78B9"/>
<path d="M495.008 403.441C494.851 403.348 494.716 403.222 494.612 403.073C494.508 402.923 494.437 402.753 494.404 402.574L494.328 401.933H494.215L494.102 402.574C494.075 402.751 494.011 402.92 493.913 403.069C493.815 403.219 493.686 403.346 493.535 403.441L493.46 403.516C493.449 403.516 493.44 403.521 493.433 403.528C493.426 403.535 493.422 403.544 493.422 403.554C493.422 403.564 493.426 403.574 493.433 403.581C493.44 403.588 493.449 403.592 493.46 403.592L493.535 403.667C493.686 403.763 493.815 403.89 493.913 404.039C494.011 404.189 494.075 404.358 494.102 404.534L494.215 405.175H494.328L494.404 404.534C494.437 404.355 494.508 404.185 494.612 404.036C494.716 403.886 494.851 403.761 495.008 403.667L495.083 403.592L495.008 403.441Z" fill="#FFC619"/>
<path d="M624.404 384.721C624.064 384.492 623.777 384.197 623.558 383.853C623.335 383.51 623.188 383.125 623.12 382.723L622.931 381.366C622.931 381.29 622.856 381.252 622.78 381.252C622.765 381.252 622.75 381.255 622.735 381.261C622.723 381.267 622.712 381.275 622.701 381.286C622.69 381.296 622.682 381.309 622.674 381.322C622.671 381.336 622.667 381.351 622.667 381.366L622.44 382.723C622.387 383.126 622.251 383.513 622.036 383.857C621.821 384.202 621.534 384.497 621.194 384.721L621.005 384.834C620.967 384.834 620.93 384.872 620.93 384.947C620.93 384.985 620.967 385.022 621.005 385.06L621.194 385.173C621.526 385.395 621.81 385.684 622.025 386.022C622.24 386.359 622.38 386.738 622.44 387.134L622.667 388.491C622.667 388.521 622.678 388.55 622.701 388.571C622.72 388.592 622.75 388.604 622.78 388.604C622.856 388.604 622.931 388.566 622.931 388.491L623.12 387.134C623.192 386.738 623.343 386.361 623.562 386.024C623.785 385.687 624.068 385.398 624.404 385.173L624.593 385.06C624.608 385.045 624.615 385.027 624.623 385.007C624.631 384.988 624.631 384.967 624.631 384.947C624.631 384.872 624.631 384.834 624.593 384.834L624.404 384.721Z" fill="#91FFAD"/>
<path d="M90.5837 384.721C90.2438 384.492 89.9568 384.197 89.7378 383.853C89.515 383.51 89.3677 383.125 89.2997 382.723L89.1109 381.366C89.1109 381.29 89.0353 381.252 88.9598 381.252C88.9447 381.252 88.9296 381.255 88.9145 381.261C88.9032 381.267 88.8919 381.275 88.8805 381.286C88.8692 381.296 88.8616 381.309 88.8541 381.322C88.8503 381.336 88.8465 381.351 88.8465 381.366L88.6199 382.723C88.5671 383.126 88.4311 383.513 88.2159 383.857C88.0006 384.202 87.7136 384.497 87.3737 384.721L87.1849 384.834C87.1472 384.834 87.1094 384.872 87.1094 384.947C87.1094 384.985 87.1472 385.022 87.1849 385.06L87.3737 385.173C87.7061 385.395 87.9893 385.684 88.2045 386.022C88.4198 386.359 88.5595 386.738 88.6199 387.134L88.8465 388.491C88.8465 388.521 88.8579 388.55 88.8805 388.571C88.8994 388.592 88.9296 388.604 88.9598 388.604C89.0353 388.604 89.1109 388.566 89.1109 388.491L89.2997 387.134C89.3714 386.738 89.5225 386.361 89.7415 386.024C89.9643 385.687 90.2476 385.398 90.5837 385.173L90.7725 385.06C90.7876 385.045 90.7951 385.027 90.8027 385.007C90.8102 384.988 90.8103 384.967 90.8103 384.947C90.8103 384.872 90.8103 384.834 90.7725 384.834L90.5837 384.721Z" fill="#91FFAD"/>
<path d="M233.28 366.741C232.917 366.496 232.609 366.178 232.375 365.808C232.141 365.439 231.986 365.024 231.921 364.592L231.694 363.084C231.656 363.009 231.619 362.933 231.543 362.933C231.503 362.933 231.465 362.949 231.436 362.977C231.408 363.005 231.392 363.044 231.392 363.084L231.166 364.592C231.093 365.027 230.932 365.442 230.691 365.812C230.451 366.182 230.136 366.498 229.768 366.741L229.542 366.854C229.504 366.892 229.504 366.929 229.504 367.005C229.504 367.042 229.504 367.118 229.542 367.118L229.768 367.269C230.14 367.508 230.456 367.824 230.697 368.194C230.938 368.564 231.098 368.981 231.166 369.417L231.392 370.925C231.392 371.001 231.468 371.039 231.543 371.039C231.619 371.039 231.656 371.001 231.694 370.925L231.921 369.417C231.982 368.984 232.135 368.568 232.369 368.197C232.603 367.827 232.914 367.51 233.28 367.269L233.507 367.118C233.545 367.118 233.582 367.042 233.582 367.005C233.582 366.976 233.576 366.947 233.562 366.921C233.549 366.894 233.53 366.872 233.507 366.854L233.28 366.741Z" fill="#FF78B9"/>
<path d="M358.093 277.741C357.73 277.496 357.421 277.178 357.188 276.808C356.953 276.439 356.799 276.024 356.733 275.592L356.507 274.084C356.469 274.009 356.431 273.933 356.356 273.933C356.316 273.933 356.277 273.949 356.249 273.977C356.22 274.005 356.205 274.044 356.205 274.084L355.978 275.592C355.906 276.027 355.744 276.442 355.504 276.812C355.263 277.182 354.949 277.498 354.581 277.741L354.354 277.854C354.316 277.892 354.316 277.929 354.316 278.005C354.316 278.042 354.316 278.118 354.354 278.118L354.581 278.269C354.952 278.508 355.269 278.824 355.51 279.194C355.75 279.564 355.91 279.981 355.978 280.417L356.205 281.925C356.205 282.001 356.28 282.039 356.356 282.039C356.431 282.039 356.469 282.001 356.507 281.925L356.733 280.417C356.794 279.984 356.947 279.568 357.182 279.197C357.416 278.827 357.726 278.51 358.093 278.269L358.319 278.118C358.357 278.118 358.395 278.042 358.395 278.005C358.395 277.976 358.388 277.947 358.375 277.921C358.362 277.894 358.343 277.872 358.319 277.854L358.093 277.741Z" fill="#B756FE"/>
<path d="M1196.75 409.741C1196.38 409.496 1196.07 409.178 1195.84 408.808C1195.61 408.439 1195.45 408.024 1195.39 407.592L1195.16 406.084C1195.12 406.009 1195.08 405.933 1195.01 405.933C1194.97 405.933 1194.93 405.949 1194.9 405.977C1194.87 406.005 1194.86 406.044 1194.86 406.084L1194.63 407.592C1194.56 408.027 1194.4 408.442 1194.16 408.812C1193.92 409.182 1193.6 409.498 1193.23 409.741L1193.01 409.854C1192.97 409.892 1192.97 409.929 1192.97 410.005C1192.97 410.042 1192.97 410.118 1193.01 410.118L1193.23 410.269C1193.6 410.508 1193.92 410.824 1194.16 411.194C1194.4 411.564 1194.56 411.981 1194.63 412.417L1194.86 413.925C1194.86 414.001 1194.93 414.039 1195.01 414.039C1195.08 414.039 1195.12 414.001 1195.16 413.925L1195.39 412.417C1195.45 411.984 1195.6 411.568 1195.83 411.197C1196.07 410.827 1196.38 410.51 1196.75 410.269L1196.97 410.118C1197.01 410.118 1197.05 410.042 1197.05 410.005C1197.05 409.976 1197.04 409.947 1197.03 409.921C1197.01 409.894 1197 409.872 1196.97 409.854L1196.75 409.741Z" fill="#B756FE"/>
</svg>
