<svg width="46" height="54" viewBox="0 0 46 54" fill="none" xmlns="http://www.w3.org/2000/svg">
<path fill-rule="evenodd" clip-rule="evenodd" d="M39.9531 48.8186L44.9551 51.4059L44.9544 51.3799C45.4527 51.6365 45.6436 52.244 45.3838 52.7363C45.1241 53.2287 44.5091 53.4198 44.0108 53.1632L38.969 50.555L36.525 49.2142C35.3269 48.5229 34.2745 47.6142 33.4236 46.5327C32.533 45.3778 32.0558 43.9638 32.0664 42.5104V42.2093C29.559 44.6682 26.1871 46.0745 22.6537 46.1373C19.2263 46.0823 15.9473 44.7546 13.4662 42.4162V42.5104C13.4794 43.9638 13.0023 45.3778 12.109 46.5327C11.2581 47.6142 10.2058 48.5229 9.00765 49.2142L6.65375 50.555L1.55637 53.1972C1.05807 53.4538 0.443073 53.2627 0.1833 52.7704C-0.0764513 52.2781 0.114383 51.6706 0.615374 51.414L5.65711 48.8058L7.96324 47.465C8.94137 46.8994 9.80291 46.1531 10.4947 45.2653C11.1124 44.4771 11.449 43.5082 11.4517 42.5105V40.2636C10.06 38.5091 8.94673 36.553 8.15413 34.4659C4.71346 32.5542 2.67769 29.9749 2.67769 27.0917V12.3433C2.65122 11.3901 3.03028 10.4683 3.72211 9.80318C4.77976 8.76885 6.55842 8.22153 8.92026 7.93872C11.7676 3.0995 17.0053 0.12207 22.6726 0.12207C28.3375 0.12207 33.5754 3.09937 36.425 7.93872H36.4223C38.975 8.21371 40.8756 8.76362 41.981 9.85038C42.6595 10.5051 43.0333 11.4059 43.0121 12.3434V27.1126C43.0121 30.1135 40.7722 32.7898 37.1089 34.7066C36.3667 36.5947 35.3647 38.3728 34.1294 39.9885V42.5103C34.1347 43.5159 34.4793 44.49 35.1076 45.2782C35.7914 46.1633 36.637 46.9096 37.6046 47.4779L39.9531 48.8186ZM40.9763 12.343C40.9896 11.945 40.8279 11.5626 40.5363 11.2903C39.6748 10.6382 38.6436 10.2375 37.5648 10.138C38.1851 11.594 38.5986 13.1286 38.7921 14.6972C40.2156 13.9115 40.9763 13.0815 40.9763 12.343ZM22.6757 2.15908C27.0839 2.18527 31.2192 4.26187 33.8379 7.76568C34.3495 8.42559 34.8028 9.12736 35.1951 9.86324C35.9135 11.2381 36.4145 12.715 36.6742 14.239C36.7511 14.6868 36.8068 15.132 36.8439 15.5798C36.3588 15.7631 35.8339 15.9385 35.2693 16.1035C31.227 17.2007 27.0468 17.7245 22.8531 17.659C18.5536 17.7323 14.2703 17.1798 10.1349 16.0171C9.55972 15.839 9.02958 15.6531 8.53916 15.4619C8.57362 15.0534 8.63459 14.6449 8.70086 14.2417L8.70351 14.239C8.96328 12.7202 9.46163 11.2485 10.1773 9.87633C10.567 9.13522 11.0203 8.42817 11.5345 7.7657C14.1482 4.26711 18.2755 2.19052 22.6757 2.15908ZM7.77333 10.1985C6.81903 10.3112 5.9125 10.683 5.15437 11.2696C4.86013 11.5498 4.70105 11.9399 4.7143 12.3432C4.7143 13.0136 5.36643 13.7992 6.60697 14.5298C6.8005 13.0398 7.19282 11.5838 7.77333 10.1985ZM7.19019 31.3809C5.6236 30.1083 4.71442 28.647 4.71442 27.0968V15.6949C5.25252 16.0904 5.82772 16.436 6.42942 16.7267C6.78993 16.9022 7.16101 17.0698 7.56396 17.2295C7.96422 17.3892 8.16833 17.4652 8.48644 17.5778C8.66888 17.6439 8.86527 17.7065 9.05861 17.7682C9.20236 17.814 9.34442 17.8593 9.4778 17.9051V17.9077C13.825 19.1254 18.326 19.7172 22.8454 19.6701C27.2562 19.712 31.6535 19.1516 35.9083 18.002C36.1424 17.9343 36.3725 17.8599 36.5994 17.7864C36.6884 17.7576 36.7771 17.7289 36.8653 17.7009C37.178 17.6013 37.5438 17.473 37.8301 17.3526C37.9068 17.3203 37.996 17.2838 38.0923 17.2443C38.3556 17.1363 38.6721 17.0066 38.9302 16.8838L38.9276 16.8812C39.6459 16.5513 40.3272 16.1532 40.9633 15.6871V27.0917C40.9633 28.7754 39.8925 30.3571 38.0661 31.7031C37.2603 32.2871 36.3988 32.7925 35.4948 33.2115C31.5055 34.9424 27.1875 35.804 22.8323 35.7333C18.3512 35.7333 12.5336 34.4734 9.76939 33.0098C9.02387 32.6151 7.54711 31.7032 7.19019 31.3809ZM13.4748 39.5538C15.9588 42.3951 19.1662 44.1182 22.6758 44.1182C27.5029 44.1182 31.422 40.1669 32.2845 39.1113C33.0211 38.2098 33.7693 37.0493 34.3547 35.9008C30.6598 37.1682 26.7712 37.7941 22.8587 37.7495C18.7973 37.7993 14.7577 37.1185 10.9433 35.7384C11.4682 36.7806 12.0884 37.7732 12.7962 38.7028C12.823 38.7381 12.8484 38.7714 12.8724 38.8029C13.1264 39.137 13.2344 39.2789 13.4748 39.5538Z" fill="#3873FF"/>
<path d="M8.93262 28.071V20.8478C11.3004 21.7507 14.3784 23.1051 22.6656 23.1051C30.0056 23.1051 34.5043 21.7507 36.6353 20.6221V28.071C34.2676 30.554 28.9164 32.2572 22.6656 32.2572C16.4147 32.2572 10.59 30.3283 8.93262 28.071Z" fill="url(#paint0_linear_0_1)"/>
<defs>
<linearGradient id="paint0_linear_0_1" x1="22.784" y1="20.6221" x2="22.784" y2="32.2572" gradientUnits="userSpaceOnUse">
<stop stop-color="#3873FF"/>
<stop offset="1" stop-color="#3873FF" stop-opacity="0"/>
</linearGradient>
</defs>
</svg>
