<svg width="41" height="41" viewBox="0 0 41 41" fill="none" xmlns="http://www.w3.org/2000/svg">
<path d="M20.375 9.82129C19.875 9.82129 19.5 10.2588 19.5 10.6963V30.9463C19.5 31.4463 19.875 31.8213 20.375 31.8213C20.5625 31.8213 20.6875 31.7588 20.875 31.6963L35.25 21.2588C35.375 21.1338 35.5 21.0088 35.5 20.8213C35.5 20.6963 35.375 20.5088 35.25 20.4463L20.875 10.0088C20.6875 9.88379 20.5625 9.82129 20.375 9.82129ZM20.375 8.82129C20.75 8.82129 21.125 8.94629 21.4375 9.19629L35.875 19.6338C36.25 19.9463 36.5 20.3838 36.5 20.8213C36.5 21.3213 36.25 21.7588 35.875 22.0713L21.4375 32.5088C21.125 32.6963 20.75 32.8213 20.375 32.8213C19.3125 32.8213 18.5 32.0088 18.5 30.9463V24.5088L7.4375 32.5088C7.125 32.6963 6.75 32.8213 6.375 32.8213C5.3125 32.8213 4.5 32.0088 4.5 30.9463V10.6963C4.5 9.69629 5.3125 8.82129 6.375 8.82129C6.75 8.82129 7.125 8.94629 7.4375 9.19629L18.5 17.1963V10.6963C18.5 9.69629 19.3125 8.82129 20.375 8.82129ZM18.5 23.2588V18.4463L6.875 10.0088C6.6875 9.88379 6.5625 9.82129 6.375 9.82129C5.875 9.82129 5.5 10.2588 5.5 10.6963V30.9463C5.5 31.4463 5.875 31.8213 6.375 31.8213C6.5625 31.8213 6.6875 31.8213 6.875 31.6963L18.5 23.2588Z" fill="#7B78FF"/>
</svg>
