<svg width="101" height="100" viewBox="0 0 101 100" fill="none" xmlns="http://www.w3.org/2000/svg">
<g clip-path="url(#clip0_539_10193)">
<path d="M59.4258 44.5322H68.8745V46.2762H65.1263V55.4511H63.2521V46.2762H59.4258V44.5322Z" fill="#0E1330"/>
<path d="M43.8862 44.5322V46.2762H36.3124V49.0818H42.4032V50.8257H36.3124V53.7071H43.8862V55.4511H34.4383V46.2762H34.4375V44.5322H43.8862Z" fill="#0E1330"/>
<path d="M48.605 44.5371H46.1523L54.9372 55.456H57.397L53.004 50.0003L57.39 44.5454L54.9372 44.5492L51.776 48.4753L48.605 44.5371Z" fill="#0E1330"/>
<path d="M51.121 52.3357L49.8927 50.8086L46.1445 55.4635H48.6042L51.121 52.3357Z" fill="#0E1330"/>
<path fill-rule="evenodd" clip-rule="evenodd" d="M34.5026 55.4508L25.7059 44.5273H23.3633V55.4462H25.2374V46.8612L32.1482 55.4508H34.5026Z" fill="#0E1330"/>
<path d="M69.2974 55.3837C69.1602 55.3837 69.0434 55.3361 68.9456 55.241C68.8479 55.1459 68.7996 55.0308 68.8008 54.8944C68.7996 54.7618 68.8479 54.6479 68.9456 54.5528C69.0434 54.4577 69.1602 54.4102 69.2974 54.4102C69.4295 54.4102 69.545 54.4577 69.6427 54.5528C69.7418 54.6479 69.7913 54.7618 69.7927 54.8944C69.7913 54.9845 69.7684 55.0671 69.7227 55.1409C69.6758 55.216 69.6162 55.2748 69.5411 55.3174C69.4675 55.3612 69.3862 55.3837 69.2974 55.3837Z" fill="#0E1330"/>
<path d="M72.4939 50.7842H73.3243V53.9838C73.3231 54.2778 73.2595 54.5294 73.1352 54.7408C73.0095 54.9523 72.8354 55.1137 72.612 55.2276C72.3898 55.3402 72.1294 55.3978 71.8335 55.3978C71.563 55.3978 71.3205 55.349 71.1047 55.2539C70.8888 55.1588 70.7174 55.0161 70.5917 54.8284C70.4646 54.6407 70.4023 54.4067 70.4023 54.1264H71.2342C71.2355 54.2491 71.2634 54.3554 71.3167 54.4443C71.37 54.5331 71.4436 54.6007 71.5377 54.6482C71.6328 54.6958 71.7421 54.7195 71.8652 54.7195C71.9986 54.7195 72.1129 54.692 72.2055 54.6357C72.2982 54.5806 72.3694 54.4981 72.419 54.3879C72.4671 54.2791 72.4926 54.1439 72.4939 53.9838V50.7842Z" fill="#0E1330"/>
<path d="M76.742 52.0353C76.7217 51.8413 76.6328 51.6899 76.4779 51.5823C76.3216 51.4734 76.1198 51.4196 75.8721 51.4196C75.6982 51.4196 75.5484 51.4459 75.4239 51.4972C75.2995 51.5498 75.203 51.6198 75.1369 51.7087C75.0709 51.7975 75.0379 51.8989 75.0353 52.0128C75.0353 52.1079 75.0581 52.1904 75.1026 52.2593C75.1471 52.3293 75.2067 52.3882 75.2842 52.4357C75.3603 52.4845 75.4454 52.5245 75.5382 52.5571C75.6321 52.5896 75.7261 52.6171 75.82 52.6397L76.2531 52.746C76.4271 52.7861 76.596 52.8399 76.7572 52.9087C76.9185 52.9763 77.0645 53.0626 77.1927 53.1665C77.321 53.2703 77.4226 53.3954 77.4975 53.5419C77.5724 53.6883 77.6106 53.8597 77.6106 54.0574C77.6106 54.3239 77.542 54.5579 77.4035 54.7606C77.2651 54.9621 77.0658 55.1197 76.8042 55.2336C76.5438 55.3462 76.229 55.4038 75.8582 55.4038C75.5001 55.4038 75.1877 55.3488 74.9248 55.2386C74.6608 55.1298 74.4549 54.9696 74.3064 54.7594C74.1578 54.5492 74.0778 54.2926 74.0664 53.9911H74.8893C74.9007 54.1487 74.9516 54.2801 75.0379 54.3865C75.1254 54.4916 75.2397 54.5692 75.3795 54.6217C75.5205 54.673 75.6778 54.6993 75.8519 54.6993C76.0335 54.6993 76.1934 54.6718 76.3318 54.618C76.4689 54.5642 76.5769 54.4891 76.6544 54.3915C76.7331 54.2951 76.7725 54.1813 76.7738 54.0511C76.7725 53.9323 76.7369 53.8334 76.6683 53.7558C76.5985 53.6782 76.502 53.6132 76.3788 53.5606C76.2544 53.5081 76.1096 53.4605 75.9445 53.4192L75.4188 53.2866C75.0391 53.1902 74.7381 53.0438 74.5184 52.8474C74.2976 52.6509 74.1883 52.3907 74.1883 52.0641C74.1883 51.7963 74.2619 51.561 74.4106 51.3596C74.5578 51.1581 74.7598 51.0017 75.015 50.8903C75.2715 50.7777 75.5611 50.7227 75.8835 50.7227C76.2112 50.7227 76.4981 50.7777 76.7458 50.8903C76.9934 51.0017 77.1878 51.1569 77.3286 51.3546C77.4696 51.5523 77.5433 51.7788 77.5471 52.0353H76.742Z" fill="#0E1330"/>
</g>
<rect x="1.31641" y="0.791016" width="98.6431" height="98.6431" rx="12.4342" stroke="#DEDEDE"/>
<defs>
<clipPath id="clip0_539_10193">
<rect width="54.2461" height="11.0144" fill="white" transform="translate(23.3633 44.5273)"/>
</clipPath>
</defs>
</svg>
