<svg width="342" height="230" viewBox="0 0 342 230" fill="none" xmlns="http://www.w3.org/2000/svg">
<rect width="342" height="230" rx="4" fill="#F3F3F3"/>
<g clip-path="url(#clip0_525_2529)">
<rect x="25.5586" y="184.688" width="91" height="190.543" rx="7" transform="rotate(-98.5684 25.5586 184.688)" fill="white"/>
<g opacity="0.4">
<path d="M-11.8301 148.387C-12.4475 147.482 -12.6188 146.344 -12.2957 145.297L1.26723 101.335C1.59034 100.288 2.37277 99.4446 3.39304 99.0442L46.2201 82.2385C47.2404 81.8381 48.3874 81.9241 49.3366 82.4722L89.1781 105.478C90.1272 106.026 90.7751 106.976 90.9384 108.06L97.7929 153.553C97.9562 154.636 97.6171 155.736 96.8716 156.539L65.5775 190.262C64.8319 191.066 63.7612 191.486 62.6682 191.404L16.7906 187.964C15.6977 187.882 14.7016 187.306 14.0842 186.401L-11.8301 148.387Z" fill="url(#paint0_linear_525_2529)" fill-opacity="0.3"/>
<path d="M62.0036 38.8422C62.2782 37.7815 63.0211 36.9034 64.022 36.4565L106.012 17.7067C107.013 17.2598 108.163 17.2926 109.137 17.7961L149.978 38.9122C150.952 39.4156 151.643 40.3349 151.856 41.4097L160.796 86.4908C161.009 87.5655 160.721 88.6787 160.013 89.5154L130.318 124.615C129.61 125.451 128.56 125.921 127.464 125.889L81.496 124.576C80.4 124.545 79.3781 124.016 78.7194 123.14L51.0931 86.4037C50.4344 85.5279 50.2107 84.3999 50.4853 83.3391L62.0036 38.8422Z" fill="url(#paint1_linear_525_2529)" fill-opacity="0.15"/>
<path d="M18.0302 117.219C17.4129 116.314 17.2415 115.176 17.5646 114.129L31.1276 70.1671C31.4507 69.1198 32.2331 68.2766 33.2534 67.8763L76.0804 51.0705C77.1007 50.6701 78.2478 50.7562 79.1969 51.3042L119.038 74.3095C119.988 74.8576 120.635 75.808 120.799 76.8918L127.653 122.385C127.817 123.469 127.477 124.568 126.732 125.371L95.4378 159.094C94.6923 159.898 93.6215 160.318 92.5286 160.236L46.651 156.796C45.558 156.714 44.5619 156.138 43.9446 155.233L18.0302 117.219Z" fill="url(#paint2_linear_525_2529)" fill-opacity="0.1"/>
</g>
<path d="M39.0278 154.7C38.6495 154.757 38.3047 154.724 37.9933 154.602C37.685 154.476 37.4274 154.274 37.2204 153.997C37.0171 153.72 36.8858 153.385 36.8266 152.992C36.7674 152.599 36.7944 152.241 36.9075 151.92C37.0237 151.595 37.2105 151.326 37.4678 151.115C37.7289 150.902 38.0485 150.768 38.4268 150.711C38.8088 150.653 39.1539 150.688 39.4622 150.814C39.7741 150.94 40.0317 151.141 40.2351 151.419C40.4378 151.692 40.5688 152.026 40.628 152.419C40.6872 152.812 40.6606 153.171 40.548 153.496C40.4354 153.821 40.2487 154.089 39.9876 154.301C39.7297 154.509 39.4098 154.642 39.0278 154.7ZM38.9664 154.292C39.2492 154.249 39.4877 154.149 39.6819 153.992C39.8792 153.831 40.019 153.624 40.1011 153.372C40.1863 153.115 40.204 152.821 40.1542 152.49C40.1044 152.16 40.0012 151.886 39.8446 151.669C39.6916 151.452 39.4974 151.297 39.2619 151.205C39.0295 151.108 38.7719 151.081 38.4891 151.124C38.2063 151.167 37.9662 151.269 37.7689 151.43C37.5747 151.587 37.4347 151.792 37.3489 152.045C37.2668 152.298 37.2506 152.59 37.3004 152.92C37.3502 153.251 37.4519 153.527 37.6054 153.748C37.762 153.964 37.9565 154.121 38.1889 154.217C38.4244 154.31 38.6836 154.334 38.9664 154.292ZM41.7412 155.463L41.1469 151.518L41.5656 151.455L41.6777 151.9C41.746 151.755 41.8528 151.616 41.9984 151.486C42.1476 151.354 42.349 151.269 42.6024 151.231C42.8742 151.19 43.1205 151.217 43.3413 151.311C43.5621 151.406 43.7439 151.553 43.8868 151.753C44.0333 151.953 44.1273 152.19 44.1688 152.466C44.2103 152.741 44.1905 152.996 44.1092 153.23C44.0312 153.459 43.8987 153.652 43.7118 153.808C43.5281 153.96 43.3003 154.056 43.0285 154.097C42.8045 154.131 42.5974 154.115 42.4073 154.05C42.2208 153.984 42.0692 153.875 41.9525 153.724L42.204 155.393L41.7412 155.463ZM42.9183 153.702C43.102 153.674 43.2572 153.608 43.3841 153.502C43.5103 153.393 43.6023 153.255 43.6598 153.089C43.7174 152.922 43.7307 152.736 43.6997 152.531C43.6687 152.325 43.6012 152.151 43.4971 152.009C43.3931 151.867 43.2649 151.764 43.1126 151.701C42.9598 151.634 42.7915 151.614 42.6079 151.642C42.4242 151.669 42.2693 151.738 42.143 151.847C42.0162 151.952 41.924 152.088 41.8664 152.255C41.8088 152.421 41.7955 152.607 41.8265 152.813C41.8575 153.019 41.925 153.193 42.0291 153.335C42.1331 153.477 42.2616 153.581 42.4144 153.648C42.5667 153.712 42.7347 153.73 42.9183 153.702ZM46.2565 153.61C45.9958 153.65 45.7555 153.626 45.5358 153.539C45.3156 153.448 45.1306 153.305 44.981 153.11C44.835 152.914 44.7402 152.671 44.6965 152.381C44.6533 152.094 44.6726 151.836 44.7544 151.606C44.8356 151.372 44.9683 151.181 45.1526 151.033C45.34 150.881 45.5678 150.784 45.8359 150.744C46.1004 150.704 46.3372 150.73 46.5465 150.823C46.7588 150.911 46.9311 151.045 47.0633 151.224C47.1954 151.403 47.2784 151.605 47.3122 151.829C47.3182 151.869 47.3225 151.91 47.3249 151.951C47.331 151.991 47.3379 152.037 47.3457 152.088L45.1695 152.416C45.2121 152.624 45.2861 152.791 45.3916 152.918C45.5002 153.041 45.6241 153.127 45.7631 153.178C45.9059 153.228 46.0507 153.241 46.1976 153.219C46.3886 153.19 46.5417 153.122 46.657 153.015C46.7723 152.907 46.8479 152.774 46.884 152.614L47.3413 152.545C47.306 152.81 47.1964 153.042 47.0125 153.243C46.8317 153.439 46.5798 153.562 46.2565 153.61ZM45.8838 151.137C45.6635 151.17 45.4772 151.268 45.3251 151.429C45.176 151.587 45.108 151.796 45.1211 152.057L46.8399 151.798C46.7918 151.554 46.6783 151.374 46.4994 151.258C46.3204 151.142 46.1152 151.102 45.8838 151.137ZM48.1546 153.257L47.7429 150.524L48.1616 150.461L48.263 150.947C48.3252 150.761 48.4314 150.606 48.5818 150.482C48.7321 150.358 48.9119 150.28 49.1213 150.249C49.4445 150.2 49.7165 150.261 49.9374 150.43C50.1614 150.596 50.3041 150.882 50.3655 151.29L50.6062 152.887L50.1435 152.957L49.9102 151.409C49.8244 150.84 49.5465 150.591 49.0764 150.661C48.8413 150.697 48.6578 150.813 48.5259 151.009C48.3971 151.201 48.3565 151.455 48.4041 151.771L48.6174 153.187L48.1546 153.257ZM54.4942 152.369C54.1159 152.426 53.7766 152.393 53.4762 152.269C53.179 152.141 52.9327 151.94 52.7373 151.665C52.5413 151.386 52.4134 151.049 52.3537 150.652C52.2945 150.259 52.3177 149.903 52.4235 149.582C52.5287 149.258 52.7045 148.992 52.9508 148.782C53.2008 148.571 53.515 148.438 53.8933 148.381C54.334 148.314 54.7082 148.367 55.0157 148.538C55.3264 148.705 55.5488 148.972 55.6829 149.339L55.1706 149.416C55.0758 149.186 54.9258 149.014 54.7206 148.898C54.5185 148.778 54.2632 148.742 53.9547 148.788C53.6792 148.83 53.4483 148.93 53.262 149.09C53.0752 149.246 52.9428 149.452 52.8649 149.707C52.7901 149.959 52.7777 150.25 52.8275 150.581C52.8773 150.911 52.9752 151.188 53.1214 151.41C53.2707 151.628 53.4578 151.785 53.6829 151.883C53.9074 151.977 54.1574 152.003 54.4328 151.962C54.7413 151.915 54.9751 151.808 55.134 151.642C55.2961 151.471 55.3888 151.263 55.4121 151.02L55.9245 150.942C55.9032 151.325 55.7688 151.642 55.5212 151.893C55.2773 152.144 54.935 152.303 54.4942 152.369ZM57.6495 151.894C57.4218 151.928 57.2269 151.918 57.0647 151.864C56.9024 151.809 56.7749 151.723 56.6821 151.606C56.5893 151.488 56.5315 151.354 56.5088 151.204C56.4668 150.924 56.5409 150.694 56.7312 150.511C56.9216 150.328 57.2004 150.209 57.5677 150.154L58.3059 150.043L58.3009 150.01C58.265 149.771 58.1754 149.6 58.0323 149.498C57.8886 149.392 57.7121 149.355 57.5027 149.386C57.3227 149.413 57.1736 149.483 57.0552 149.594C56.9399 149.702 56.8787 149.844 56.8717 150.022L56.3979 150.093C56.3864 149.892 56.4273 149.715 56.5207 149.562C56.6178 149.409 56.7473 149.284 56.9094 149.188C57.071 149.089 57.2491 149.024 57.4438 148.995C57.8257 148.937 58.1277 148.997 58.3497 149.174C58.5748 149.347 58.7128 149.602 58.7637 149.94L59.0169 151.62L58.6037 151.682L58.5023 151.196C58.4484 151.362 58.3544 151.512 58.2205 151.644C58.0896 151.773 57.8993 151.856 57.6495 151.894ZM57.6622 151.492C57.8385 151.465 57.9822 151.397 58.0932 151.286C58.2079 151.175 58.2873 151.041 58.3313 150.884C58.3752 150.727 58.385 150.568 58.3607 150.406L58.3599 150.401L57.6602 150.506C57.3884 150.547 57.2028 150.624 57.1033 150.737C57.007 150.845 56.9693 150.969 56.9903 151.109C57.0119 151.252 57.0808 151.36 57.1969 151.432C57.3161 151.501 57.4712 151.521 57.6622 151.492ZM59.7111 151.516L59.2994 148.783L59.7181 148.72L59.8355 149.237C59.8929 149.045 59.9999 148.882 60.1564 148.75C60.313 148.617 60.518 148.532 60.7714 148.494L60.8445 148.978L60.7178 148.997C60.5562 149.022 60.4118 149.074 60.2848 149.153C60.1572 149.228 60.0633 149.34 60.0029 149.488C59.9426 149.636 59.9304 149.83 59.9664 150.069L60.1739 151.446L59.7111 151.516ZM63.1825 151.06C62.9584 151.094 62.7513 151.078 62.5612 151.013C62.3747 150.947 62.2231 150.838 62.1064 150.687L62.1312 151.151L61.7125 151.214L61.1149 147.247L61.5777 147.178L61.8317 148.863C61.8999 148.718 62.0068 148.58 62.1523 148.449C62.3016 148.317 62.5029 148.233 62.7563 148.195C63.0281 148.154 63.2744 148.18 63.4952 148.275C63.7161 148.369 63.8979 148.516 64.0407 148.717C64.1872 148.916 64.2812 149.154 64.3227 149.429C64.3642 149.705 64.3444 149.959 64.2632 150.193C64.1851 150.423 64.0526 150.615 63.8658 150.771C63.682 150.923 63.4542 151.019 63.1825 151.06ZM63.0723 150.665C63.2559 150.638 63.4112 150.571 63.538 150.466C63.6643 150.357 63.7562 150.219 63.8138 150.052C63.8713 149.886 63.8846 149.7 63.8536 149.494C63.8226 149.288 63.7551 149.115 63.6511 148.972C63.547 148.83 63.4189 148.728 63.2666 148.664C63.1137 148.597 62.9455 148.577 62.7618 148.605C62.5782 148.633 62.4232 148.701 62.2969 148.81C62.1701 148.916 62.0779 149.052 62.0203 149.218C61.9628 149.385 61.9495 149.571 61.9805 149.776C62.0115 149.982 62.079 150.156 62.183 150.298C62.2871 150.44 62.4155 150.545 62.5684 150.612C62.7207 150.675 62.8886 150.693 63.0723 150.665ZM66.427 150.571C66.1699 150.61 65.9297 150.586 65.7063 150.5C65.4829 150.413 65.2946 150.272 65.1413 150.078C64.9911 149.879 64.8941 149.634 64.8504 149.344C64.8067 149.054 64.8294 148.793 64.9185 148.562C65.007 148.327 65.1453 148.135 65.3333 147.987C65.5249 147.837 65.7493 147.744 66.0064 147.705C66.2635 147.666 66.5037 147.69 66.7271 147.777C66.9505 147.863 67.1373 148.006 67.2875 148.205C67.4408 148.4 67.5393 148.642 67.583 148.932C67.6267 149.222 67.6043 149.485 67.5157 149.72C67.4266 149.951 67.2863 150.141 67.0946 150.29C66.9066 150.439 66.6841 150.533 66.427 150.571ZM66.3672 150.175C66.5252 150.151 66.6663 150.09 66.7906 149.993C66.9148 149.895 67.0076 149.763 67.0688 149.596C67.13 149.429 67.1435 149.231 67.1092 149.004C67.0749 148.776 67.0039 148.591 66.8962 148.45C66.7921 148.308 66.6663 148.208 66.5188 148.152C66.3713 148.095 66.2204 148.078 66.0662 148.101C65.9082 148.125 65.7671 148.186 65.6428 148.284C65.5186 148.381 65.4258 148.513 65.3646 148.68C65.3034 148.847 65.2899 149.045 65.3242 149.273C65.3585 149.5 65.4295 149.685 65.5372 149.826C65.645 149.968 65.7707 150.067 65.9146 150.125C66.0621 150.181 66.213 150.198 66.3672 150.175ZM68.4323 150.202L68.0206 147.469L68.4393 147.406L68.5407 147.892C68.6029 147.706 68.7091 147.551 68.8594 147.427C69.0098 147.303 69.1896 147.225 69.399 147.194C69.7222 147.145 69.9942 147.205 70.2151 147.375C70.4391 147.54 70.5818 147.827 70.6432 148.234L70.8839 149.832L70.4212 149.902L70.1879 148.354C70.1021 147.784 69.8242 147.535 69.3541 147.606C69.119 147.642 68.9355 147.757 68.8036 147.954C68.6748 148.146 68.6342 148.4 68.6818 148.716L68.8951 150.132L68.4323 150.202ZM74.7719 149.314C74.3936 149.371 74.0543 149.338 73.7539 149.214C73.4567 149.086 73.2104 148.884 73.0149 148.61C72.819 148.331 72.6911 147.994 72.6313 147.597C72.5721 147.204 72.5954 146.847 72.7012 146.527C72.8064 146.203 72.9821 145.936 73.2285 145.726C73.4785 145.516 73.7926 145.382 74.1709 145.325C74.6117 145.259 74.9858 145.311 75.2934 145.483C75.6041 145.65 75.8265 145.917 75.9606 146.284L75.4482 146.361C75.3535 146.131 75.2035 145.958 74.9983 145.843C74.7962 145.723 74.5409 145.686 74.2324 145.733C73.9569 145.774 73.726 145.875 73.5397 146.035C73.3528 146.19 73.2205 146.396 73.1426 146.652C73.0678 146.904 73.0553 147.195 73.1051 147.525C73.1549 147.856 73.2529 148.132 73.3991 148.354C73.5484 148.572 73.7355 148.73 73.9606 148.828C74.1851 148.922 74.435 148.948 74.7105 148.906C75.019 148.86 75.2527 148.753 75.4117 148.587C75.5737 148.416 75.6664 148.208 75.6898 147.964L76.2022 147.887C76.1809 148.27 76.0465 148.587 75.7989 148.838C75.555 149.089 75.2127 149.248 74.7719 149.314ZM77.0082 148.909L76.5965 146.177L77.0152 146.114L77.1326 146.631C77.19 146.439 77.297 146.276 77.4535 146.143C77.6101 146.011 77.8151 145.926 78.0685 145.887L78.1416 146.372L78.0149 146.391C77.8533 146.416 77.7089 146.467 77.5819 146.547C77.4543 146.622 77.3603 146.734 77.3 146.882C77.2397 147.03 77.2275 147.224 77.2635 147.462L77.471 148.84L77.0082 148.909ZM80.1459 148.504C79.8852 148.544 79.6449 148.52 79.4252 148.433C79.2049 148.342 79.02 148.199 78.8704 148.003C78.7244 147.808 78.6296 147.565 78.5859 147.274C78.5427 146.988 78.562 146.73 78.6437 146.499C78.725 146.266 78.8577 146.075 79.042 145.927C79.2294 145.774 79.4572 145.678 79.7253 145.638C79.9897 145.598 80.2266 145.624 80.4358 145.717C80.6482 145.805 80.8205 145.939 80.9527 146.118C81.0848 146.297 81.1678 146.498 81.2015 146.723C81.2076 146.763 81.2119 146.804 81.2143 146.845C81.2204 146.885 81.2273 146.931 81.235 146.982L79.0589 147.31C79.1015 147.518 79.1755 147.685 79.281 147.812C79.3896 147.935 79.5135 148.021 79.6525 148.071C79.7953 148.121 79.9401 148.135 80.087 148.113C80.278 148.084 80.4311 148.016 80.5464 147.909C80.6616 147.801 80.7373 147.668 80.7734 147.508L81.2307 147.439C81.1954 147.704 81.0858 147.936 80.9019 148.137C80.7211 148.333 80.4691 148.456 80.1459 148.504ZM79.7732 146.031C79.5529 146.064 79.3666 146.161 79.2144 146.323C79.0654 146.481 78.9974 146.69 79.0104 146.951L80.7293 146.692C80.6812 146.448 80.5677 146.268 80.3887 146.152C80.2098 146.036 80.0046 145.996 79.7732 146.031ZM83.2936 148.03C83.0218 148.071 82.7736 148.044 82.5491 147.951C82.3283 147.856 82.1447 147.709 81.9981 147.51C81.8553 147.31 81.7631 147.072 81.7216 146.796C81.6801 146.521 81.7003 146.268 81.782 146.038C81.8632 145.804 81.9957 145.611 82.1794 145.46C82.3626 145.304 82.592 145.206 82.8674 145.164C83.0915 145.131 83.2967 145.147 83.4832 145.212C83.6696 145.278 83.8231 145.387 83.9435 145.537L83.6886 143.846L84.1514 143.776L84.7491 147.743L84.3304 147.806L84.2182 147.361C84.15 147.507 84.0413 147.645 83.892 147.776C83.7428 147.908 83.5433 147.992 83.2936 148.03ZM83.2825 147.62C83.4662 147.593 83.6214 147.526 83.7483 147.421C83.8782 147.311 83.9702 147.173 84.024 147.007C84.0816 146.841 84.0949 146.655 84.0639 146.449C84.0329 146.243 83.9654 146.069 83.8613 145.927C83.761 145.785 83.6328 145.682 83.4768 145.619C83.324 145.552 83.1557 145.532 82.9721 145.56C82.7921 145.587 82.6372 145.655 82.5072 145.765C82.3804 145.871 82.2882 146.007 82.2306 146.173C82.1767 146.339 82.1653 146.525 82.1963 146.73C82.2273 146.936 82.2929 147.11 82.3933 147.253C82.4973 147.395 82.6258 147.5 82.7786 147.567C82.9346 147.63 83.1026 147.647 83.2825 147.62ZM85.2814 144.248C85.1896 144.262 85.108 144.245 85.0367 144.195C84.9685 144.142 84.9275 144.069 84.9137 143.977C84.9004 143.889 84.9187 143.811 84.9686 143.743C85.0222 143.675 85.0949 143.634 85.1868 143.62C85.2749 143.607 85.3546 143.625 85.4259 143.675C85.4972 143.724 85.5395 143.793 85.5528 143.881C85.5666 143.973 85.547 144.054 85.494 144.126C85.4404 144.194 85.3695 144.235 85.2814 144.248ZM85.553 147.622L85.1413 144.889L85.6041 144.82L86.0158 147.552L85.553 147.622ZM87.9014 147.268C87.6516 147.306 87.446 147.275 87.2845 147.175C87.123 147.075 87.0185 146.868 86.9709 146.552L86.7442 145.048L86.2705 145.119L86.2115 144.728L86.6853 144.657L86.6471 143.992L87.0493 143.931L87.1481 144.587L87.9524 144.466L88.0114 144.857L87.207 144.978L87.4336 146.482C87.4596 146.655 87.5122 146.767 87.5914 146.819C87.6701 146.867 87.7975 146.878 87.9738 146.852L88.2603 146.808L88.3201 147.205L87.9014 147.268Z" fill="#4E4E4E"/>
<path d="M39.4374 162.74L39.3643 161.717L38.6312 162.415L38.339 162.047L39.1972 161.505L38.2251 161.246L38.3845 160.823L39.3042 161.273L39.0592 160.275L39.5088 160.207L39.562 161.234L40.3017 160.534L40.5711 160.886L39.7205 161.433L40.7002 161.698L40.5408 162.121L39.6287 161.677L39.8737 162.674L39.4374 162.74ZM42.5944 162.264L42.5214 161.241L41.7882 161.94L41.4961 161.571L42.3543 161.029L41.3822 160.77L41.5416 160.347L42.4612 160.797L42.2163 159.799L42.6658 159.732L42.7191 160.758L43.4588 160.058L43.7281 160.41L42.8775 160.957L43.8572 161.222L43.6978 161.645L42.7858 161.201L43.0308 162.199L42.5944 162.264ZM45.7515 161.789L45.6784 160.765L44.9453 161.464L44.6531 161.095L45.5113 160.554L44.5392 160.294L44.6986 159.872L45.6183 160.321L45.3733 159.324L45.8229 159.256L45.8761 160.282L46.6158 159.583L46.8852 159.934L46.0346 160.482L47.0143 160.746L46.8549 161.169L45.9429 160.725L46.1878 161.723L45.7515 161.789ZM48.9085 161.313L48.8355 160.289L48.1023 160.988L47.8102 160.62L48.6684 160.078L47.6963 159.819L47.8557 159.396L48.7753 159.846L48.5304 158.848L48.9799 158.78L49.0332 159.807L49.7729 159.107L50.0422 159.459L49.1917 160.006L50.1714 160.271L50.012 160.694L49.0999 160.25L49.3449 161.247L48.9085 161.313ZM52.0656 160.837L51.9925 159.814L51.2594 160.512L50.9673 160.144L51.8254 159.602L50.8533 159.343L51.0127 158.92L51.9324 159.37L51.6874 158.372L52.137 158.305L52.1902 159.331L52.93 158.631L53.1993 158.983L52.3487 159.53L53.3284 159.795L53.169 160.218L52.257 159.774L52.5019 160.772L52.0656 160.837ZM55.2226 160.362L55.1496 159.338L54.4165 160.037L54.1243 159.668L54.9825 159.127L54.0104 158.867L54.1698 158.445L55.0894 158.894L54.8445 157.897L55.294 157.829L55.3473 158.855L56.087 158.156L56.3563 158.507L55.5058 159.055L56.4855 159.319L56.3261 159.742L55.414 159.298L55.659 160.296L55.2226 160.362ZM60.8647 161.945C60.565 161.991 60.3183 161.953 60.1245 161.834C59.9307 161.714 59.8052 161.465 59.7481 161.086L59.4762 159.281L58.9076 159.367L58.8369 158.897L59.4055 158.812L59.3596 158.014L59.8423 157.941L59.9608 158.728L60.926 158.583L60.9967 159.052L60.0315 159.198L60.3035 161.002C60.3347 161.21 60.3978 161.344 60.4928 161.407C60.5872 161.464 60.7401 161.477 60.9517 161.446L61.2955 161.394L61.3672 161.87L60.8647 161.945ZM64.2002 161.524C63.7463 161.592 63.3391 161.552 62.9786 161.404C62.6219 161.25 62.3263 161.009 62.0918 160.679C61.8567 160.345 61.7032 159.94 61.6315 159.464C61.5605 158.992 61.5884 158.564 61.7153 158.18C61.8416 157.791 62.0525 157.471 62.3481 157.219C62.6481 156.967 63.0251 156.806 63.479 156.738C64.0079 156.658 64.4569 156.721 64.826 156.927C65.1988 157.128 65.4657 157.448 65.6266 157.888L65.0118 157.981C64.8981 157.705 64.7181 157.498 64.4719 157.359C64.2293 157.215 63.923 157.171 63.5528 157.227C63.2222 157.277 62.9451 157.397 62.7216 157.589C62.4973 157.776 62.3385 158.023 62.245 158.33C62.1553 158.632 62.1403 158.981 62.2001 159.378C62.2598 159.775 62.3774 160.106 62.5528 160.373C62.7319 160.634 62.9565 160.823 63.2266 160.941C63.496 161.053 63.796 161.085 64.1265 161.035C64.4967 160.979 64.7772 160.851 64.9679 160.651C65.1624 160.446 65.2736 160.197 65.3017 159.904L65.9165 159.812C65.891 160.271 65.7297 160.651 65.4326 160.953C65.1399 161.254 64.7291 161.444 64.2002 161.524ZM69.0311 160.796C68.5772 160.865 68.1634 160.826 67.7897 160.679C67.4198 160.527 67.1106 160.285 66.8622 159.953C66.6183 159.62 66.4608 159.218 66.3897 158.747C66.3187 158.275 66.351 157.846 66.4867 157.461C66.6262 157.07 66.8503 156.748 67.1592 156.494C67.4724 156.24 67.856 156.078 68.3099 156.01C68.7683 155.941 69.1825 155.982 69.5524 156.134C69.9267 156.285 70.2358 156.526 70.4798 156.859C70.7231 157.188 70.8803 157.588 70.9514 158.059C71.0224 158.531 70.9904 158.962 70.8553 159.352C70.7203 159.742 70.4961 160.064 70.1829 160.318C69.8734 160.568 69.4895 160.727 69.0311 160.796ZM68.9574 160.307C69.2968 160.256 69.583 160.136 69.816 159.948C70.0528 159.754 70.2205 159.506 70.319 159.203C70.4213 158.894 70.4426 158.542 70.3828 158.145C70.323 157.748 70.1992 157.42 70.0112 157.16C69.8277 156.899 69.5946 156.713 69.312 156.603C69.0331 156.487 68.724 156.454 68.3847 156.506C68.0453 156.557 67.7572 156.679 67.5204 156.872C67.2874 157.061 67.1194 157.307 67.0164 157.611C66.9179 157.914 66.8985 158.264 66.9583 158.661C67.018 159.058 67.14 159.389 67.3242 159.654C67.5122 159.914 67.7456 160.102 68.0244 160.218C68.3071 160.328 68.618 160.358 68.9574 160.307ZM71.9187 160.28L71.8599 159.89C72.1356 159.596 72.3934 159.302 72.6332 159.009C72.8768 158.711 73.0879 158.423 73.2667 158.143C73.4499 157.863 73.5853 157.595 73.6728 157.338C73.7648 157.081 73.7941 156.842 73.7609 156.622C73.7364 156.459 73.6848 156.311 73.6063 156.179C73.5321 156.046 73.427 155.946 73.291 155.881C73.1543 155.812 72.9802 155.793 72.7686 155.825C72.5659 155.855 72.4032 155.927 72.2805 156.04C72.1572 156.149 72.0715 156.284 72.0236 156.444C71.98 156.604 71.9712 156.77 71.9971 156.942L71.4616 157.022C71.4158 156.718 71.4405 156.449 71.5358 156.213C71.6304 155.974 71.7793 155.78 71.9824 155.632C72.1855 155.484 72.4259 155.39 72.7035 155.348C73.1134 155.286 73.466 155.352 73.7612 155.547C74.0602 155.736 74.2442 156.06 74.3133 156.518C74.3544 156.792 74.327 157.073 74.2308 157.362C74.1341 157.647 73.9988 157.931 73.8251 158.215C73.6507 158.493 73.4586 158.759 73.2488 159.011C73.0433 159.263 72.8499 159.491 72.6687 159.694L74.9033 159.357L74.973 159.82L71.9187 160.28ZM77.1181 159.578C76.8052 159.625 76.5169 159.596 76.2532 159.492C75.9889 159.383 75.767 159.211 75.5874 158.977C75.4123 158.742 75.2985 158.45 75.246 158.102C75.1942 157.758 75.2174 157.448 75.3155 157.172C75.4129 156.891 75.5722 156.662 75.7934 156.485C76.0183 156.302 76.2916 156.186 76.6133 156.138C76.9307 156.09 77.2149 156.122 77.466 156.233C77.7208 156.338 77.9276 156.499 78.0862 156.714C78.2448 156.929 78.3443 157.171 78.3848 157.44C78.3921 157.488 78.3972 157.537 78.4001 157.586C78.4074 157.635 78.4157 157.69 78.425 157.751L75.8136 158.145C75.8647 158.394 75.9536 158.595 76.0802 158.747C76.2105 158.894 76.3591 158.998 76.526 159.058C76.6973 159.118 76.8711 159.135 77.0474 159.108C77.2766 159.074 77.4603 158.992 77.5986 158.863C77.737 158.734 77.8278 158.574 77.871 158.382L78.4198 158.3C78.3774 158.617 78.2459 158.896 78.0253 159.137C77.8083 159.372 77.5059 159.519 77.1181 159.578ZM76.6708 156.609C76.4064 156.649 76.1829 156.766 76.0003 156.961C75.8215 157.15 75.7399 157.401 75.7555 157.714L77.8182 157.403C77.7605 157.11 77.6242 156.894 77.4095 156.755C77.1947 156.616 76.9485 156.567 76.6708 156.609Z" fill="#4E4E4E"/>
<path d="M143.774 138.849L143.193 134.992L143.655 134.922L144.181 138.41L145.977 138.139L146.033 138.508L143.774 138.849ZM147.777 138.313C147.52 138.352 147.28 138.328 147.057 138.241C146.833 138.155 146.645 138.014 146.492 137.819C146.341 137.62 146.244 137.376 146.201 137.086C146.157 136.795 146.18 136.535 146.269 136.303C146.357 136.068 146.496 135.877 146.684 135.728C146.875 135.579 147.1 135.485 147.357 135.446C147.614 135.408 147.854 135.432 148.077 135.518C148.301 135.605 148.488 135.748 148.638 135.946C148.791 136.141 148.89 136.384 148.933 136.674C148.977 136.964 148.955 137.227 148.866 137.462C148.777 137.693 148.637 137.883 148.445 138.032C148.257 138.181 148.034 138.274 147.777 138.313ZM147.718 137.916C147.876 137.893 148.017 137.832 148.141 137.734C148.265 137.637 148.358 137.504 148.419 137.337C148.48 137.17 148.494 136.973 148.46 136.745C148.425 136.518 148.354 136.333 148.247 136.191C148.142 136.049 148.017 135.95 147.869 135.893C147.722 135.837 147.571 135.82 147.417 135.843C147.259 135.867 147.117 135.928 146.993 136.025C146.869 136.123 146.776 136.255 146.715 136.422C146.654 136.589 146.64 136.786 146.675 137.014C146.709 137.242 146.78 137.427 146.888 137.568C146.995 137.71 147.121 137.809 147.265 137.866C147.412 137.923 147.563 137.94 147.718 137.916ZM151.049 137.82C150.788 137.859 150.544 137.836 150.317 137.75C150.093 137.66 149.904 137.517 149.751 137.323C149.601 137.124 149.504 136.881 149.461 136.594C149.418 136.308 149.439 136.049 149.525 135.819C149.613 135.584 149.751 135.392 149.939 135.243C150.13 135.091 150.356 134.995 150.617 134.955C150.94 134.907 151.225 134.95 151.471 135.086C151.72 135.221 151.896 135.426 151.997 135.7L151.523 135.771C151.461 135.608 151.351 135.491 151.194 135.42C151.037 135.347 150.862 135.324 150.671 135.353C150.517 135.376 150.378 135.436 150.254 135.534C150.129 135.632 150.037 135.764 149.975 135.931C149.914 136.098 149.901 136.295 149.935 136.523C149.969 136.751 150.04 136.935 150.148 137.077C150.256 137.218 150.384 137.319 150.532 137.38C150.679 137.436 150.83 137.453 150.984 137.43C151.175 137.401 151.335 137.33 151.465 137.216C151.594 137.099 151.664 136.952 151.674 136.774L152.148 136.702C152.134 136.986 152.029 137.231 151.831 137.437C151.633 137.644 151.372 137.771 151.049 137.82ZM152.925 137.47L152.327 133.503L152.79 133.433L153.149 135.819L154.094 134.499L154.662 134.413L153.635 135.83L155.228 137.123L154.638 137.212L153.174 135.984L153.387 137.4L152.925 137.47ZM156.74 136.963C156.479 137.002 156.239 136.978 156.02 136.891C155.799 136.8 155.614 136.657 155.465 136.462C155.319 136.266 155.224 136.023 155.18 135.733C155.137 135.446 155.156 135.188 155.238 134.958C155.319 134.724 155.452 134.533 155.636 134.385C155.824 134.233 156.052 134.136 156.32 134.096C156.584 134.056 156.821 134.082 157.03 134.175C157.243 134.263 157.415 134.397 157.547 134.576C157.679 134.755 157.762 134.957 157.796 135.181C157.802 135.221 157.806 135.262 157.809 135.303C157.815 135.343 157.822 135.389 157.829 135.441L155.653 135.768C155.696 135.976 155.77 136.143 155.875 136.27C155.984 136.393 156.108 136.479 156.247 136.53C156.39 136.58 156.534 136.593 156.681 136.571C156.872 136.543 157.025 136.474 157.141 136.367C157.256 136.259 157.332 136.126 157.368 135.966L157.825 135.898C157.79 136.162 157.68 136.395 157.496 136.595C157.315 136.791 157.063 136.914 156.74 136.963ZM156.368 134.489C156.147 134.522 155.961 134.62 155.809 134.782C155.66 134.939 155.592 135.149 155.605 135.409L157.324 135.151C157.276 134.906 157.162 134.726 156.983 134.61C156.804 134.494 156.599 134.454 156.368 134.489ZM159.888 136.488C159.616 136.529 159.368 136.503 159.143 136.409C158.923 136.314 158.739 136.167 158.592 135.968C158.45 135.768 158.357 135.53 158.316 135.255C158.274 134.979 158.295 134.726 158.376 134.496C158.458 134.262 158.59 134.069 158.774 133.918C158.957 133.763 159.186 133.664 159.462 133.623C159.686 133.589 159.891 133.605 160.078 133.671C160.264 133.737 160.417 133.845 160.538 133.996L160.283 132.304L160.746 132.235L161.343 136.201L160.925 136.264L160.813 135.819C160.744 135.965 160.636 136.103 160.486 136.235C160.337 136.366 160.138 136.451 159.888 136.488ZM159.877 136.079C160.061 136.051 160.216 135.984 160.343 135.879C160.473 135.769 160.564 135.631 160.618 135.465C160.676 135.299 160.689 135.113 160.658 134.907C160.627 134.702 160.56 134.528 160.456 134.386C160.355 134.243 160.227 134.14 160.071 134.077C159.918 134.01 159.75 133.99 159.566 134.018C159.386 134.045 159.232 134.114 159.102 134.223C158.975 134.329 158.883 134.465 158.825 134.631C158.771 134.797 158.76 134.983 158.791 135.189C158.822 135.394 158.887 135.569 158.988 135.711C159.092 135.853 159.22 135.958 159.373 136.025C159.529 136.088 159.697 136.106 159.877 136.079ZM165.285 135.675C164.906 135.732 164.567 135.699 164.267 135.575C163.969 135.447 163.723 135.246 163.528 134.971C163.332 134.692 163.204 134.355 163.144 133.958C163.085 133.565 163.108 133.208 163.214 132.888C163.319 132.564 163.495 132.298 163.741 132.088C163.991 131.877 164.305 131.743 164.684 131.686C165.124 131.62 165.499 131.673 165.806 131.844C166.117 132.011 166.339 132.278 166.473 132.645L165.961 132.722C165.866 132.492 165.716 132.32 165.511 132.204C165.309 132.084 165.054 132.048 164.745 132.094C164.47 132.136 164.239 132.236 164.052 132.396C163.866 132.552 163.733 132.757 163.655 133.013C163.581 133.265 163.568 133.556 163.618 133.887C163.668 134.217 163.766 134.494 163.912 134.716C164.061 134.934 164.248 135.091 164.473 135.189C164.698 135.283 164.948 135.309 165.223 135.267C165.532 135.221 165.765 135.114 165.924 134.948C166.086 134.777 166.179 134.569 166.203 134.325L166.715 134.248C166.694 134.631 166.559 134.948 166.312 135.199C166.068 135.45 165.725 135.609 165.285 135.675ZM168.44 135.2C168.212 135.234 168.017 135.224 167.855 135.17C167.693 135.115 167.565 135.029 167.472 134.912C167.38 134.794 167.322 134.66 167.299 134.51C167.257 134.23 167.331 133.999 167.522 133.817C167.712 133.634 167.991 133.515 168.358 133.46L169.096 133.349L169.091 133.315C169.055 133.077 168.966 132.906 168.823 132.804C168.679 132.698 168.502 132.66 168.293 132.692C168.113 132.719 167.964 132.789 167.846 132.9C167.73 133.008 167.669 133.15 167.662 133.328L167.188 133.399C167.177 133.198 167.218 133.021 167.311 132.868C167.408 132.715 167.538 132.59 167.7 132.494C167.861 132.395 168.039 132.33 168.234 132.301C168.616 132.243 168.918 132.303 169.14 132.48C169.365 132.653 169.503 132.908 169.554 133.246L169.807 134.926L169.394 134.988L169.293 134.502C169.239 134.668 169.145 134.817 169.011 134.95C168.88 135.079 168.69 135.162 168.44 135.2ZM168.453 134.798C168.629 134.771 168.773 134.703 168.884 134.592C168.998 134.481 169.078 134.347 169.122 134.19C169.166 134.033 169.175 133.874 169.151 133.712L169.15 133.707L168.451 133.812C168.179 133.853 167.993 133.93 167.894 134.042C167.797 134.151 167.76 134.275 167.781 134.414C167.802 134.558 167.871 134.666 167.987 134.738C168.107 134.807 168.262 134.827 168.453 134.798ZM170.502 134.821L170.09 132.089L170.509 132.026L170.626 132.543C170.683 132.351 170.79 132.188 170.947 132.056C171.103 131.923 171.308 131.838 171.562 131.799L171.635 132.284L171.508 132.303C171.347 132.328 171.202 132.38 171.075 132.459C170.948 132.534 170.854 132.646 170.793 132.794C170.733 132.942 170.721 133.136 170.757 133.374L170.964 134.752L170.502 134.821ZM173.973 134.366C173.749 134.4 173.542 134.384 173.352 134.319C173.165 134.253 173.014 134.144 172.897 133.993L172.922 134.457L172.503 134.52L171.905 130.553L172.368 130.484L172.622 132.169C172.69 132.024 172.797 131.886 172.943 131.755C173.092 131.623 173.293 131.539 173.547 131.5C173.818 131.459 174.065 131.486 174.286 131.581C174.506 131.675 174.688 131.822 174.831 132.022C174.978 132.222 175.072 132.46 175.113 132.735C175.155 133.01 175.135 133.265 175.054 133.499C174.975 133.729 174.843 133.921 174.656 134.077C174.472 134.229 174.245 134.325 173.973 134.366ZM173.863 133.971C174.046 133.944 174.202 133.877 174.328 133.772C174.455 133.662 174.547 133.525 174.604 133.358C174.662 133.192 174.675 133.006 174.644 132.8C174.613 132.594 174.546 132.42 174.441 132.278C174.337 132.136 174.209 132.034 174.057 131.97C173.904 131.903 173.736 131.883 173.552 131.911C173.369 131.939 173.214 132.007 173.087 132.116C172.96 132.222 172.868 132.358 172.811 132.524C172.753 132.691 172.74 132.877 172.771 133.082C172.802 133.288 172.869 133.462 172.973 133.604C173.077 133.746 173.206 133.851 173.359 133.918C173.511 133.981 173.679 133.999 173.863 133.971ZM177.217 133.877C176.96 133.916 176.72 133.892 176.497 133.805C176.273 133.719 176.085 133.578 175.932 133.384C175.781 133.185 175.685 132.94 175.641 132.65C175.597 132.36 175.62 132.099 175.709 131.868C175.797 131.633 175.936 131.441 176.124 131.292C176.315 131.143 176.54 131.049 176.797 131.011C177.054 130.972 177.294 130.996 177.517 131.082C177.741 131.169 177.928 131.312 178.078 131.511C178.231 131.705 178.33 131.948 178.373 132.238C178.417 132.528 178.395 132.791 178.306 133.026C178.217 133.257 178.077 133.447 177.885 133.596C177.697 133.745 177.474 133.838 177.217 133.877ZM177.158 133.481C177.316 133.457 177.457 133.396 177.581 133.298C177.705 133.201 177.798 133.069 177.859 132.902C177.92 132.735 177.934 132.537 177.9 132.309C177.865 132.082 177.794 131.897 177.687 131.756C177.582 131.614 177.457 131.514 177.309 131.458C177.162 131.401 177.011 131.384 176.857 131.407C176.699 131.431 176.558 131.492 176.433 131.589C176.309 131.687 176.216 131.819 176.155 131.986C176.094 132.153 176.08 132.351 176.115 132.578C176.149 132.806 176.22 132.991 176.328 133.132C176.435 133.274 176.561 133.373 176.705 133.43C176.852 133.487 177.003 133.504 177.158 133.481ZM179.223 133.507L178.811 130.775L179.23 130.712L179.331 131.198C179.393 131.012 179.499 130.857 179.65 130.733C179.8 130.609 179.98 130.531 180.189 130.5C180.513 130.451 180.785 130.511 181.005 130.681C181.229 130.846 181.372 131.133 181.434 131.54L181.674 133.138L181.212 133.208L180.978 131.66C180.893 131.09 180.615 130.841 180.144 130.912C179.909 130.947 179.726 131.063 179.594 131.26C179.465 131.452 179.425 131.706 179.472 132.022L179.685 133.438L179.223 133.507ZM185.562 132.62C185.184 132.677 184.845 132.643 184.544 132.52C184.247 132.392 184.001 132.19 183.805 131.915C183.609 131.637 183.481 131.299 183.422 130.903C183.363 130.51 183.386 130.153 183.492 129.833C183.597 129.509 183.773 129.242 184.019 129.032C184.269 128.822 184.583 128.688 184.961 128.631C185.402 128.565 185.776 128.617 186.084 128.789C186.394 128.956 186.617 129.223 186.751 129.59L186.239 129.667C186.144 129.437 185.994 129.264 185.789 129.149C185.587 129.029 185.331 128.992 185.023 129.039C184.747 129.08 184.516 129.181 184.33 129.34C184.143 129.496 184.011 129.702 183.933 129.958C183.858 130.21 183.846 130.501 183.896 130.831C183.945 131.162 184.043 131.438 184.189 131.66C184.339 131.878 184.526 132.036 184.751 132.134C184.975 132.227 185.225 132.254 185.501 132.212C185.809 132.166 186.043 132.059 186.202 131.892C186.364 131.722 186.457 131.514 186.48 131.27L186.993 131.193C186.971 131.576 186.837 131.893 186.589 132.144C186.345 132.395 186.003 132.553 185.562 132.62ZM187.799 132.215L187.387 129.483L187.806 129.42L187.923 129.937C187.98 129.744 188.087 129.582 188.244 129.449C188.4 129.317 188.605 129.231 188.859 129.193L188.932 129.678L188.805 129.697C188.644 129.722 188.499 129.773 188.372 129.853C188.245 129.928 188.151 130.04 188.09 130.188C188.03 130.336 188.018 130.53 188.054 130.768L188.261 132.146L187.799 132.215ZM190.936 131.81C190.676 131.849 190.435 131.826 190.216 131.738C189.995 131.648 189.81 131.505 189.661 131.309C189.515 131.113 189.42 130.87 189.376 130.58C189.333 130.294 189.352 130.035 189.434 129.805C189.515 129.571 189.648 129.381 189.832 129.233C190.02 129.08 190.248 128.984 190.516 128.944C190.78 128.904 191.017 128.93 191.226 129.023C191.439 129.111 191.611 129.244 191.743 129.424C191.875 129.603 191.958 129.804 191.992 130.028C191.998 130.069 192.002 130.109 192.005 130.15C192.011 130.191 192.018 130.237 192.025 130.288L189.849 130.616C189.892 130.824 189.966 130.991 190.071 131.118C190.18 131.24 190.304 131.327 190.443 131.377C190.586 131.427 190.73 131.441 190.877 131.419C191.068 131.39 191.222 131.322 191.337 131.215C191.452 131.107 191.528 130.974 191.564 130.814L192.021 130.745C191.986 131.01 191.876 131.242 191.692 131.443C191.512 131.639 191.26 131.761 190.936 131.81ZM190.564 129.336C190.343 129.37 190.157 129.467 190.005 129.629C189.856 129.787 189.788 129.996 189.801 130.257L191.52 129.998C191.472 129.754 191.358 129.574 191.179 129.458C191 129.342 190.795 129.302 190.564 129.336ZM194.084 131.336C193.812 131.377 193.564 131.35 193.34 131.256C193.119 131.162 192.935 131.015 192.789 130.816C192.646 130.615 192.554 130.378 192.512 130.102C192.471 129.827 192.491 129.574 192.572 129.344C192.654 129.11 192.786 128.917 192.97 128.765C193.153 128.61 193.382 128.512 193.658 128.47C193.882 128.436 194.087 128.453 194.274 128.518C194.46 128.584 194.613 128.692 194.734 128.843L194.479 127.152L194.942 127.082L195.539 131.049L195.121 131.112L195.009 130.667C194.94 130.812 194.832 130.951 194.682 131.082C194.533 131.214 194.334 131.298 194.084 131.336ZM194.073 130.926C194.257 130.899 194.412 130.832 194.539 130.726C194.669 130.617 194.761 130.479 194.814 130.313C194.872 130.147 194.885 129.961 194.854 129.755C194.823 129.549 194.756 129.375 194.652 129.233C194.551 129.091 194.423 128.988 194.267 128.925C194.114 128.858 193.946 128.838 193.762 128.866C193.583 128.893 193.428 128.961 193.298 129.071C193.171 129.177 193.079 129.313 193.021 129.479C192.967 129.645 192.956 129.831 192.987 130.036C193.018 130.242 193.083 130.416 193.184 130.559C193.288 130.701 193.416 130.805 193.569 130.873C193.725 130.935 193.893 130.953 194.073 130.926ZM196.072 127.554C195.98 127.568 195.898 127.55 195.827 127.501C195.759 127.448 195.718 127.375 195.704 127.283C195.691 127.195 195.709 127.117 195.759 127.049C195.813 126.981 195.885 126.94 195.977 126.926C196.065 126.913 196.145 126.931 196.216 126.98C196.288 127.03 196.33 127.099 196.343 127.187C196.357 127.279 196.337 127.36 196.284 127.432C196.231 127.5 196.16 127.541 196.072 127.554ZM196.343 130.928L195.932 128.195L196.394 128.126L196.806 130.858L196.343 130.928ZM198.692 130.574C198.442 130.612 198.236 130.581 198.075 130.481C197.913 130.381 197.809 130.174 197.761 129.858L197.535 128.354L197.061 128.425L197.002 128.034L197.476 127.963L197.438 127.298L197.84 127.237L197.938 127.893L198.743 127.772L198.802 128.163L197.997 128.284L198.224 129.788C198.25 129.961 198.303 130.073 198.382 130.125C198.46 130.173 198.588 130.184 198.764 130.157L199.051 130.114L199.11 130.511L198.692 130.574Z" fill="#DEDEDE"/>
<path d="M146.957 149.054C146.653 149.1 146.371 149.086 146.112 149.012C145.853 148.934 145.637 148.806 145.466 148.629C145.299 148.447 145.196 148.224 145.156 147.959C145.113 147.677 145.157 147.412 145.286 147.162C145.42 146.912 145.617 146.729 145.879 146.613C145.616 146.567 145.401 146.462 145.237 146.298C145.072 146.133 144.973 145.941 144.94 145.72C144.906 145.495 144.935 145.282 145.026 145.078C145.117 144.871 145.264 144.696 145.467 144.552C145.671 144.409 145.927 144.314 146.236 144.267C146.544 144.221 146.817 144.236 147.054 144.313C147.291 144.39 147.483 144.514 147.631 144.686C147.778 144.853 147.868 145.049 147.902 145.274C147.935 145.49 147.897 145.703 147.789 145.913C147.68 146.119 147.506 146.282 147.268 146.404C147.552 146.438 147.793 146.555 147.99 146.755C148.191 146.954 148.313 147.195 148.356 147.477C148.396 147.742 148.36 147.986 148.25 148.21C148.143 148.429 147.977 148.614 147.752 148.765C147.526 148.912 147.261 149.008 146.957 149.054ZM146.544 146.31C146.826 146.268 147.038 146.164 147.179 145.998C147.325 145.827 147.38 145.625 147.345 145.392C147.306 145.132 147.195 144.948 147.012 144.84C146.829 144.732 146.594 144.7 146.308 144.743C146.021 144.787 145.806 144.887 145.663 145.043C145.524 145.199 145.475 145.408 145.514 145.668C145.549 145.901 145.659 146.078 145.844 146.199C146.028 146.316 146.262 146.353 146.544 146.31ZM146.883 148.565C147.231 148.512 147.48 148.394 147.628 148.209C147.779 148.019 147.835 147.792 147.795 147.528C147.75 147.228 147.621 147.016 147.408 146.89C147.196 146.764 146.931 146.725 146.613 146.773C146.296 146.821 146.054 146.936 145.888 147.119C145.722 147.302 145.661 147.543 145.706 147.843C145.746 148.107 145.864 148.308 146.061 148.445C146.261 148.577 146.535 148.617 146.883 148.565ZM151.27 148.404C150.86 148.466 150.49 148.42 150.161 148.267C149.835 148.109 149.566 147.863 149.353 147.53C149.14 147.192 148.998 146.786 148.926 146.31C148.854 145.834 148.871 145.405 148.976 145.024C149.08 144.639 149.265 144.325 149.53 144.082C149.799 143.834 150.139 143.679 150.549 143.618C150.958 143.556 151.326 143.604 151.652 143.762C151.977 143.916 152.247 144.162 152.46 144.499C152.672 144.832 152.814 145.237 152.886 145.713C152.958 146.189 152.941 146.62 152.837 147.005C152.732 147.386 152.547 147.7 152.283 147.947C152.017 148.19 151.68 148.342 151.27 148.404ZM151.196 147.915C151.465 147.874 151.694 147.763 151.883 147.581C152.076 147.395 152.21 147.151 152.287 146.851C152.367 146.546 152.377 146.195 152.317 145.799C152.258 145.402 152.145 145.072 151.979 144.808C151.817 144.544 151.617 144.354 151.379 144.236C151.144 144.114 150.892 144.073 150.623 144.113C150.35 144.155 150.119 144.268 149.931 144.454C149.742 144.636 149.607 144.877 149.526 145.178C149.445 145.479 149.435 145.827 149.494 146.224C149.554 146.621 149.667 146.953 149.834 147.221C150 147.484 150.2 147.677 150.435 147.8C150.669 147.918 150.923 147.956 151.196 147.915ZM153.479 148.795L153.643 147.276L154.218 147.189L153.863 148.737L153.479 148.795ZM156.829 147.566C156.419 147.628 156.049 147.583 155.719 147.429C155.393 147.271 155.124 147.025 154.912 146.692C154.699 146.355 154.556 145.948 154.485 145.472C154.413 144.996 154.429 144.568 154.534 144.187C154.639 143.801 154.823 143.487 155.089 143.245C155.358 142.997 155.697 142.842 156.107 142.78C156.517 142.718 156.885 142.767 157.211 142.925C157.536 143.079 157.805 143.324 158.018 143.662C158.231 143.995 158.373 144.399 158.445 144.875C158.516 145.351 158.5 145.782 158.396 146.167C158.291 146.548 158.106 146.862 157.841 147.11C157.576 147.352 157.238 147.505 156.829 147.566ZM156.755 147.077C157.024 147.037 157.253 146.926 157.442 146.744C157.634 146.557 157.769 146.314 157.845 146.014C157.926 145.709 157.936 145.358 157.876 144.961C157.816 144.564 157.703 144.234 157.538 143.971C157.376 143.707 157.176 143.516 156.938 143.399C156.703 143.276 156.451 143.235 156.182 143.276C155.909 143.317 155.678 143.431 155.49 143.617C155.301 143.799 155.166 144.04 155.085 144.34C155.004 144.641 154.993 144.99 155.053 145.386C155.113 145.783 155.226 146.115 155.393 146.383C155.559 146.647 155.759 146.84 155.994 146.962C156.228 147.08 156.482 147.118 156.755 147.077ZM161.412 146.876C161.002 146.938 160.633 146.892 160.303 146.739C159.977 146.58 159.708 146.335 159.496 146.002C159.283 145.664 159.14 145.257 159.068 144.781C158.997 144.305 159.013 143.877 159.118 143.496C159.222 143.111 159.407 142.797 159.673 142.554C159.942 142.306 160.281 142.151 160.691 142.089C161.101 142.028 161.469 142.076 161.795 142.234C162.12 142.388 162.389 142.634 162.602 142.971C162.815 143.304 162.957 143.709 163.028 144.185C163.1 144.661 163.084 145.091 162.98 145.477C162.875 145.858 162.69 146.172 162.425 146.419C162.16 146.662 161.822 146.814 161.412 146.876ZM161.339 146.387C161.608 146.346 161.836 146.235 162.025 146.053C162.218 145.866 162.353 145.623 162.429 145.323C162.509 145.018 162.52 144.667 162.46 144.27C162.4 143.874 162.287 143.544 162.121 143.28C161.96 143.016 161.76 142.825 161.521 142.708C161.287 142.586 161.035 142.545 160.766 142.585C160.493 142.626 160.262 142.74 160.074 142.926C159.885 143.108 159.75 143.349 159.669 143.65C159.588 143.95 159.577 144.299 159.637 144.696C159.697 145.092 159.81 145.425 159.977 145.693C160.142 145.956 160.343 146.149 160.578 146.271C160.812 146.389 161.065 146.428 161.339 146.387ZM165.996 146.185C165.586 146.247 165.217 146.201 164.887 146.048C164.561 145.89 164.292 145.644 164.08 145.311C163.866 144.974 163.724 144.567 163.652 144.091C163.581 143.615 163.597 143.186 163.702 142.805C163.806 142.42 163.991 142.106 164.256 141.863C164.526 141.615 164.865 141.46 165.275 141.399C165.685 141.337 166.053 141.385 166.379 141.543C166.704 141.697 166.973 141.943 167.186 142.28C167.399 142.614 167.541 143.018 167.612 143.494C167.684 143.97 167.668 144.401 167.564 144.786C167.459 145.167 167.274 145.481 167.009 145.728C166.744 145.971 166.406 146.123 165.996 146.185ZM165.923 145.696C166.191 145.655 166.42 145.544 166.609 145.363C166.802 145.176 166.937 144.932 167.013 144.632C167.093 144.327 167.104 143.976 167.044 143.58C166.984 143.183 166.871 142.853 166.705 142.59C166.544 142.325 166.344 142.135 166.105 142.017C165.87 141.895 165.619 141.854 165.35 141.895C165.077 141.936 164.846 142.049 164.657 142.236C164.468 142.417 164.333 142.658 164.253 142.959C164.172 143.26 164.161 143.608 164.221 144.005C164.281 144.402 164.394 144.734 164.56 145.002C164.726 145.265 164.927 145.458 165.161 145.581C165.396 145.699 165.649 145.737 165.923 145.696ZM171.776 145.233C171.476 145.278 171.229 145.241 171.035 145.122C170.842 145.002 170.716 144.753 170.659 144.374L170.387 142.569L169.819 142.655L169.748 142.185L170.316 142.1L170.271 141.302L170.753 141.229L170.872 142.016L171.837 141.87L171.908 142.34L170.942 142.485L171.214 144.29C171.246 144.497 171.309 144.632 171.404 144.694C171.498 144.752 171.651 144.765 171.863 144.733L172.206 144.682L172.278 145.158L171.776 145.233ZM175.111 144.812C174.657 144.88 174.25 144.84 173.89 144.692C173.533 144.538 173.237 144.296 173.003 143.967C172.768 143.632 172.614 143.227 172.542 142.751C172.471 142.28 172.499 141.852 172.626 141.468C172.752 141.079 172.963 140.759 173.259 140.507C173.559 140.254 173.936 140.094 174.39 140.025C174.919 139.946 175.368 140.009 175.737 140.215C176.11 140.415 176.377 140.736 176.538 141.176L175.923 141.268C175.809 140.993 175.629 140.785 175.383 140.647C175.14 140.503 174.834 140.459 174.464 140.515C174.133 140.564 173.856 140.685 173.632 140.876C173.408 141.064 173.249 141.311 173.156 141.618C173.066 141.92 173.051 142.269 173.111 142.666C173.171 143.062 173.288 143.394 173.464 143.66C173.643 143.922 173.867 144.111 174.137 144.228C174.407 144.341 174.707 144.372 175.037 144.323C175.408 144.267 175.688 144.139 175.879 143.939C176.073 143.734 176.185 143.485 176.213 143.192L176.827 143.1C176.802 143.559 176.641 143.939 176.344 144.241C176.051 144.542 175.64 144.732 175.111 144.812ZM179.942 144.084C179.488 144.152 179.074 144.113 178.701 143.967C178.331 143.815 178.022 143.573 177.773 143.241C177.529 142.908 177.372 142.506 177.301 142.034C177.23 141.563 177.262 141.134 177.398 140.749C177.537 140.358 177.761 140.036 178.07 139.782C178.383 139.527 178.767 139.366 179.221 139.298C179.679 139.228 180.093 139.27 180.463 139.421C180.838 139.572 181.147 139.814 181.391 140.147C181.634 140.475 181.791 140.875 181.862 141.347C181.933 141.819 181.901 142.249 181.766 142.639C181.631 143.029 181.407 143.352 181.094 143.606C180.784 143.856 180.4 144.015 179.942 144.084ZM179.868 143.595C180.208 143.544 180.494 143.424 180.727 143.235C180.964 143.042 181.131 142.794 181.23 142.49C181.332 142.182 181.353 141.829 181.294 141.433C181.234 141.036 181.11 140.708 180.922 140.447C180.739 140.187 180.506 140.001 180.223 139.89C179.944 139.775 179.635 139.742 179.296 139.793C178.956 139.844 178.668 139.967 178.431 140.16C178.198 140.349 178.03 140.595 177.927 140.899C177.829 141.202 177.809 141.552 177.869 141.949C177.929 142.345 178.051 142.676 178.235 142.942C178.423 143.202 178.656 143.39 178.935 143.505C179.218 143.616 179.529 143.646 179.868 143.595ZM182.83 143.568L182.771 143.178C183.047 142.884 183.304 142.59 183.544 142.297C183.788 141.999 183.999 141.71 184.178 141.431C184.361 141.151 184.496 140.883 184.584 140.626C184.676 140.369 184.705 140.13 184.672 139.91C184.647 139.746 184.596 139.599 184.517 139.466C184.443 139.333 184.338 139.234 184.202 139.169C184.065 139.099 183.891 139.081 183.68 139.113C183.477 139.143 183.314 139.215 183.191 139.328C183.068 139.437 182.982 139.571 182.934 139.732C182.891 139.892 182.882 140.058 182.908 140.229L182.373 140.31C182.327 140.006 182.351 139.736 182.447 139.501C182.541 139.261 182.69 139.068 182.893 138.92C183.096 138.772 183.337 138.677 183.614 138.636C184.024 138.574 184.377 138.64 184.672 138.835C184.971 139.024 185.155 139.348 185.224 139.806C185.265 140.079 185.238 140.361 185.142 140.65C185.045 140.935 184.91 141.219 184.736 141.502C184.562 141.781 184.37 142.047 184.16 142.299C183.954 142.551 183.761 142.778 183.58 142.981L185.814 142.645L185.884 143.108L182.83 143.568ZM188.029 142.865C187.716 142.913 187.428 142.884 187.164 142.779C186.9 142.67 186.678 142.499 186.498 142.264C186.323 142.029 186.209 141.738 186.157 141.39C186.105 141.046 186.128 140.736 186.226 140.46C186.324 140.179 186.483 139.95 186.704 139.772C186.929 139.59 187.203 139.474 187.524 139.426C187.842 139.378 188.126 139.409 188.377 139.52C188.632 139.626 188.838 139.787 188.997 140.002C189.156 140.217 189.255 140.459 189.296 140.727C189.303 140.776 189.308 140.825 189.311 140.874C189.318 140.922 189.327 140.977 189.336 141.039L186.725 141.433C186.776 141.682 186.864 141.883 186.991 142.035C187.121 142.182 187.27 142.286 187.437 142.346C187.608 142.406 187.782 142.423 187.958 142.396C188.187 142.362 188.371 142.28 188.51 142.151C188.648 142.022 188.739 141.862 188.782 141.67L189.331 141.588C189.288 141.905 189.157 142.184 188.936 142.425C188.719 142.66 188.417 142.807 188.029 142.865ZM187.582 139.897C187.317 139.937 187.094 140.054 186.911 140.248C186.732 140.437 186.651 140.689 186.666 141.002L188.729 140.691C188.671 140.398 188.535 140.182 188.32 140.043C188.106 139.904 187.859 139.855 187.582 139.897Z" fill="#F1F1F1"/>
<path d="M140.033 103.876C139.689 103.927 139.38 103.898 139.107 103.787C138.836 103.672 138.612 103.491 138.436 103.243C138.259 102.992 138.145 102.69 138.091 102.336C138.037 101.979 138.058 101.656 138.153 101.367C138.248 101.076 138.408 100.835 138.633 100.646C138.862 100.455 139.148 100.335 139.492 100.283C139.899 100.221 140.247 100.271 140.534 100.43C140.822 100.59 141.028 100.843 141.151 101.19L140.566 101.278C140.489 101.083 140.366 100.938 140.196 100.842C140.025 100.745 139.813 100.716 139.558 100.755C139.211 100.807 138.954 100.968 138.788 101.236C138.622 101.502 138.57 101.841 138.632 102.255C138.694 102.665 138.843 102.972 139.081 103.177C139.318 103.381 139.61 103.457 139.957 103.405C140.212 103.366 140.407 103.28 140.542 103.144C140.678 103.009 140.754 102.84 140.771 102.638L141.356 102.55C141.339 102.904 141.215 103.198 140.987 103.432C140.758 103.667 140.44 103.814 140.033 103.876ZM142.914 103.442C142.706 103.473 142.529 103.464 142.383 103.415C142.236 103.366 142.122 103.29 142.039 103.188C141.955 103.082 141.903 102.961 141.883 102.826C141.847 102.587 141.911 102.385 142.075 102.218C142.24 102.051 142.494 101.942 142.838 101.89L143.483 101.793L143.476 101.748C143.447 101.556 143.373 101.42 143.252 101.34C143.135 101.26 142.994 101.232 142.829 101.257C142.683 101.279 142.561 101.334 142.463 101.424C142.368 101.509 142.319 101.623 142.317 101.765L141.791 101.845C141.78 101.663 141.817 101.502 141.901 101.361C141.987 101.216 142.105 101.099 142.253 101.009C142.405 100.915 142.577 100.853 142.769 100.824C143.113 100.772 143.393 100.823 143.609 100.977C143.824 101.127 143.955 101.358 144.002 101.669L144.23 103.182L143.774 103.251L143.666 102.836C143.617 102.982 143.533 103.111 143.414 103.224C143.296 103.337 143.129 103.409 142.914 103.442ZM142.954 102.999C143.097 102.978 143.211 102.927 143.297 102.846C143.385 102.762 143.448 102.659 143.484 102.539C143.523 102.418 143.539 102.288 143.532 102.151L142.946 102.239C142.738 102.27 142.594 102.329 142.516 102.415C142.441 102.501 142.412 102.599 142.428 102.708C142.445 102.82 142.5 102.903 142.593 102.957C142.688 103.007 142.809 103.021 142.954 102.999ZM144.844 103.09L144.473 100.628L144.944 100.557L145.059 101.017C145.121 100.842 145.221 100.697 145.359 100.581C145.5 100.462 145.68 100.386 145.898 100.353L145.981 100.904L145.837 100.925C145.692 100.947 145.565 100.992 145.456 101.059C145.351 101.122 145.272 101.217 145.22 101.343C145.171 101.466 145.161 101.628 145.192 101.83L145.37 103.011L144.844 103.09ZM148.122 102.657C147.931 102.686 147.754 102.673 147.594 102.62C147.437 102.566 147.305 102.475 147.198 102.349L147.2 102.735L146.729 102.806L146.191 99.2328L146.717 99.1536L146.942 100.647C147.004 100.52 147.097 100.401 147.223 100.29C147.348 100.18 147.52 100.108 147.739 100.076C147.977 100.04 148.195 100.064 148.394 100.149C148.593 100.234 148.759 100.367 148.891 100.546C149.026 100.726 149.112 100.939 149.15 101.188C149.187 101.436 149.167 101.665 149.091 101.876C149.017 102.084 148.898 102.257 148.733 102.397C148.567 102.534 148.364 102.62 148.122 102.657ZM147.964 102.214C148.189 102.18 148.363 102.076 148.486 101.902C148.608 101.724 148.65 101.511 148.613 101.263C148.588 101.101 148.534 100.962 148.449 100.847C148.363 100.731 148.258 100.647 148.132 100.595C148.005 100.54 147.865 100.523 147.713 100.546C147.488 100.58 147.315 100.686 147.192 100.863C147.074 101.04 147.033 101.251 147.07 101.496C147.107 101.744 147.208 101.935 147.374 102.069C147.543 102.199 147.739 102.248 147.964 102.214ZM151.063 102.214C150.829 102.249 150.609 102.228 150.404 102.151C150.203 102.069 150.033 101.941 149.895 101.766C149.756 101.587 149.667 101.368 149.628 101.11C149.59 100.852 149.61 100.619 149.691 100.411C149.774 100.199 149.901 100.025 150.074 99.8911C150.246 99.7535 150.448 99.6673 150.68 99.6324C150.915 99.597 151.133 99.6199 151.335 99.7012C151.539 99.7786 151.711 99.9067 151.849 100.085C151.991 100.26 152.081 100.477 152.12 100.735C152.159 100.993 152.136 101.228 152.053 101.44C151.973 101.649 151.847 101.822 151.675 101.959C151.502 102.093 151.298 102.178 151.063 102.214ZM150.995 101.762C151.121 101.743 151.232 101.694 151.329 101.615C151.428 101.536 151.502 101.43 151.55 101.298C151.597 101.162 151.607 101.002 151.579 100.816C151.551 100.631 151.495 100.482 151.41 100.37C151.328 100.254 151.228 100.172 151.109 100.126C150.994 100.079 150.873 100.065 150.748 100.084C150.622 100.103 150.509 100.152 150.41 100.231C150.313 100.31 150.241 100.417 150.194 100.553C150.146 100.685 150.136 100.844 150.164 101.03C150.192 101.215 150.249 101.365 150.334 101.481C150.419 101.594 150.519 101.673 150.634 101.72C150.749 101.767 150.87 101.781 150.995 101.762ZM152.874 101.88L152.503 99.4185L152.97 99.3483L153.074 99.774C153.127 99.6104 153.22 99.4746 153.353 99.3666C153.488 99.2549 153.652 99.1845 153.844 99.1556C154.142 99.1108 154.389 99.1682 154.586 99.3281C154.785 99.4874 154.913 99.7507 154.968 100.118L155.182 101.532L154.66 101.611L154.456 100.251C154.384 99.7746 154.153 99.5659 153.762 99.6247C153.567 99.6541 153.416 99.748 153.307 99.9064C153.203 100.064 153.17 100.272 153.209 100.53L153.4 101.801L152.874 101.88ZM158.629 101.074C158.285 101.126 157.976 101.096 157.702 100.985C157.431 100.87 157.207 100.689 157.031 100.442C156.855 100.191 156.74 99.8883 156.686 99.5343C156.632 99.177 156.653 98.8542 156.748 98.5657C156.843 98.274 157.003 98.0334 157.228 97.8438C157.457 97.6537 157.743 97.5328 158.087 97.4809C158.494 97.4196 158.842 97.4688 159.13 97.6284C159.418 97.788 159.623 98.0412 159.746 98.3881L159.161 98.4763C159.084 98.2815 158.961 98.136 158.791 98.0398C158.62 97.9436 158.408 97.9147 158.153 97.9531C157.806 98.0055 157.549 98.1659 157.383 98.4345C157.217 98.6998 157.165 99.0393 157.227 99.4528C157.289 99.8631 157.439 100.17 157.676 100.375C157.913 100.579 158.205 100.655 158.553 100.603C158.807 100.565 159.002 100.478 159.138 100.342C159.273 100.207 159.349 100.038 159.366 99.836L159.951 99.7478C159.934 100.102 159.811 100.397 159.582 100.631C159.353 100.865 159.036 101.013 158.629 101.074ZM160.667 100.706L160.296 98.2444L160.767 98.1734L160.882 98.6331C160.944 98.458 161.044 98.3127 161.182 98.1972C161.323 98.0778 161.503 98.0017 161.721 97.9688L161.804 98.5196L161.66 98.5413C161.515 98.5632 161.388 98.6077 161.279 98.6748C161.174 98.7381 161.095 98.8328 161.043 98.9591C160.994 99.0815 160.984 99.2437 161.015 99.4455L161.193 100.627L160.667 100.706ZM163.644 100.318C163.403 100.354 163.18 100.334 162.975 100.256C162.774 100.175 162.605 100.047 162.471 99.8707C162.336 99.6948 162.249 99.4794 162.211 99.2247C162.172 98.9666 162.189 98.7323 162.262 98.5216C162.339 98.3105 162.461 98.1364 162.63 97.9993C162.802 97.8617 163.012 97.7742 163.261 97.7368C163.502 97.7004 163.72 97.7234 163.915 97.8056C164.11 97.8846 164.27 98.0059 164.397 98.1696C164.523 98.3333 164.602 98.5227 164.634 98.7377C164.639 98.7708 164.643 98.8074 164.646 98.8476C164.651 98.884 164.656 98.9256 164.66 98.9724L162.744 99.2611C162.797 99.4968 162.902 99.667 163.06 99.7718C163.22 99.8728 163.393 99.9093 163.579 99.8814C163.727 99.8589 163.847 99.8072 163.936 99.7261C164.028 99.6411 164.09 99.537 164.122 99.4138L164.648 99.3345C164.617 99.5761 164.514 99.7895 164.339 99.9749C164.167 100.16 163.936 100.274 163.644 100.318ZM163.321 98.1693C163.145 98.1957 162.998 98.2721 162.878 98.3984C162.758 98.5214 162.699 98.6893 162.7 98.9023L164.09 98.6929C164.051 98.5025 163.96 98.3605 163.817 98.267C163.675 98.1734 163.509 98.1409 163.321 98.1693ZM166.513 99.8859C166.274 99.9218 166.056 99.8972 165.857 99.8122C165.658 99.7271 165.493 99.5947 165.361 99.4149C165.229 99.2352 165.144 99.0213 165.107 98.7731C165.069 98.525 165.087 98.2973 165.161 98.0899C165.234 97.8793 165.354 97.7057 165.519 97.5691C165.687 97.4287 165.891 97.3405 166.129 97.3046C166.324 97.2752 166.5 97.2876 166.657 97.3418C166.818 97.3954 166.949 97.4855 167.053 97.612L166.829 96.1232L167.355 96.044L167.893 99.617L167.422 99.688L167.31 99.3141C167.248 99.4419 167.154 99.5609 167.028 99.6712C166.903 99.7814 166.731 99.853 166.513 99.8859ZM166.538 99.4152C166.763 99.3813 166.935 99.2758 167.054 99.0989C167.176 98.9215 167.219 98.7104 167.182 98.4655C167.144 98.2174 167.041 98.0282 166.873 97.898C166.707 97.7639 166.512 97.7138 166.287 97.7477C166.062 97.7816 165.888 97.8873 165.766 98.0647C165.644 98.2388 165.601 98.45 165.638 98.6981C165.663 98.8602 165.718 98.9991 165.803 99.1149C165.888 99.2306 165.994 99.3162 166.12 99.3715C166.25 99.423 166.389 99.4376 166.538 99.4152ZM168.413 96.5443C168.314 96.5593 168.227 96.5419 168.151 96.4924C168.079 96.439 168.036 96.366 168.022 96.2733C168.008 96.1807 168.028 96.0999 168.082 96.0308C168.139 95.958 168.217 95.9141 168.316 95.8992C168.415 95.8842 168.501 95.9034 168.573 95.9568C168.648 96.0064 168.693 96.0775 168.707 96.1701C168.721 96.2628 168.699 96.3455 168.643 96.4183C168.589 96.4874 168.512 96.5293 168.413 96.5443ZM168.591 99.5118L168.22 97.0504L168.746 96.9712L169.117 99.4326L168.591 99.5118ZM170.844 99.1724C170.602 99.2088 170.402 99.1798 170.242 99.0855C170.082 98.9878 169.979 98.7884 169.934 98.4874L169.75 97.2716L169.329 97.3351L169.262 96.8934L169.684 96.8299L169.654 96.1949L170.116 96.1253L170.21 96.7506L170.905 96.6459L170.971 97.0876L170.277 97.1923L170.46 98.4081C170.48 98.5438 170.522 98.6338 170.587 98.6783C170.654 98.7189 170.758 98.7285 170.901 98.7071L171.183 98.6645L171.251 99.1111L170.844 99.1724ZM173.799 98.7323L172.336 95.3949L172.902 95.3096L174.026 98.084L174.386 95.0861L174.967 94.9986L176.17 97.761L176.426 94.7788L176.991 94.6935L176.562 98.3109L175.947 98.4036L174.777 95.7935L174.403 98.6361L173.799 98.7323ZM178.559 98.0709C178.35 98.1024 178.173 98.0935 178.027 98.0445C177.881 97.9955 177.766 97.9197 177.683 97.8172C177.599 97.7113 177.547 97.5906 177.527 97.455C177.491 97.2168 177.555 97.0142 177.72 96.8474C177.884 96.6805 178.138 96.5711 178.482 96.5193L179.127 96.4221L179.121 96.3774C179.092 96.1855 179.017 96.0496 178.897 95.9696C178.78 95.8891 178.638 95.8613 178.473 95.8863C178.327 95.9082 178.206 95.9638 178.107 96.053C178.012 96.1384 177.963 96.2524 177.961 96.3948L177.435 96.4741C177.424 96.2929 177.461 96.1318 177.545 95.9906C177.631 95.8456 177.749 95.7281 177.898 95.638C178.049 95.5441 178.221 95.4827 178.413 95.4538C178.757 95.4019 179.037 95.4528 179.253 95.6063C179.469 95.7566 179.6 95.9872 179.647 96.2982L179.875 97.8118L179.418 97.8805L179.31 97.4655C179.261 97.6116 179.177 97.7409 179.059 97.8535C178.94 97.9661 178.774 98.0385 178.559 98.0709ZM178.598 97.6285C178.741 97.607 178.855 97.556 178.941 97.4754C179.03 97.3909 179.092 97.2885 179.128 97.168C179.167 97.0471 179.183 96.9178 179.176 96.7801L178.591 96.8684C178.382 96.8998 178.239 96.9586 178.16 97.0448C178.085 97.1306 178.056 97.2281 178.072 97.3372C178.089 97.4497 178.144 97.5328 178.237 97.5865C178.332 97.6364 178.453 97.6504 178.598 97.6285ZM180.488 97.7193L179.95 94.1463L180.476 94.067L181.014 97.6401L180.488 97.7193ZM181.68 97.5397L181.142 93.9667L181.668 93.8874L182.206 97.4605L181.68 97.5397ZM184.033 97.2462C183.791 97.2826 183.568 97.262 183.364 97.1846C183.162 97.1033 182.994 96.9747 182.859 96.7988C182.724 96.6228 182.637 96.4075 182.599 96.1528C182.56 95.8947 182.577 95.6604 182.65 95.4497C182.727 95.2386 182.85 95.0644 183.018 94.9273C183.19 94.7898 183.401 94.7023 183.649 94.6649C183.89 94.6285 184.109 94.6514 184.304 94.7337C184.498 94.8126 184.659 94.934 184.785 95.0977C184.911 95.2614 184.99 95.4507 185.023 95.6658C185.028 95.6989 185.031 95.7355 185.034 95.7757C185.04 95.8121 185.044 95.8537 185.048 95.9005L183.132 96.1891C183.185 96.4248 183.29 96.5951 183.448 96.6999C183.609 96.8008 183.782 96.8374 183.967 96.8095C184.116 96.787 184.235 96.7353 184.324 96.6541C184.416 96.5692 184.478 96.4651 184.51 96.3418L185.036 96.2626C185.005 96.5041 184.902 96.7176 184.727 96.903C184.555 97.0879 184.324 97.2023 184.033 97.2462ZM183.709 95.0974C183.533 95.1238 183.386 95.2002 183.266 95.3265C183.146 95.4495 183.087 95.6174 183.088 95.8303L184.478 95.621C184.439 95.4306 184.348 95.2886 184.206 95.1951C184.063 95.1015 183.897 95.069 183.709 95.0974ZM186.74 96.7774C186.498 96.8138 186.297 96.7848 186.138 96.6904C185.978 96.5928 185.875 96.3934 185.829 96.0924L185.646 94.8765L185.224 94.9401L185.158 94.4984L185.58 94.4349L185.55 93.7998L186.011 93.7303L186.106 94.3556L186.8 94.2509L186.867 94.6926L186.172 94.7973L186.355 96.0131C186.376 96.1487 186.418 96.2388 186.482 96.2832C186.549 96.3239 186.654 96.3335 186.796 96.3121L187.079 96.2695L187.147 96.7161L186.74 96.7774Z" fill="#4E4E4E"/>
<path d="M137.226 95.6564L136.703 92.1826L138.852 91.8589L138.903 92.2013L137.171 92.4623L137.354 93.6731L138.937 93.4346L138.988 93.7721L137.405 94.0106L137.592 95.2512L139.324 94.9903L139.375 95.3327L137.226 95.6564ZM140.955 95.1556C140.66 95.2 140.404 95.1624 140.187 95.043C139.969 94.9235 139.824 94.7389 139.753 94.4891L140.18 94.4248C140.226 94.5499 140.31 94.6521 140.434 94.7316C140.56 94.8073 140.718 94.8309 140.906 94.8025C141.082 94.7761 141.205 94.7203 141.277 94.635C141.348 94.5465 141.376 94.4509 141.361 94.3484C141.338 94.1995 141.269 94.1084 141.152 94.0753C141.039 94.0416 140.882 94.0196 140.68 94.0093C140.544 94.0028 140.406 93.9847 140.266 93.955C140.126 93.9253 140.005 93.8725 139.902 93.7967C139.799 93.7175 139.736 93.6035 139.714 93.4546C139.681 93.2395 139.734 93.0522 139.873 92.8927C140.014 92.7293 140.222 92.6269 140.496 92.5855C140.758 92.5462 140.981 92.5802 141.166 92.6876C141.355 92.7912 141.48 92.9618 141.543 93.1993L141.131 93.2613C141.096 93.1381 141.026 93.0487 140.923 92.9932C140.823 92.9339 140.697 92.9157 140.544 92.9386C140.396 92.9611 140.285 93.0099 140.211 93.0853C140.141 93.1601 140.114 93.2488 140.13 93.3513C140.145 93.4506 140.208 93.5206 140.319 93.5614C140.433 93.6017 140.582 93.6282 140.767 93.641C140.924 93.6512 141.074 93.6708 141.217 93.7C141.363 93.7254 141.487 93.7796 141.587 93.8626C141.69 93.9417 141.755 94.0707 141.782 94.2493C141.819 94.4705 141.762 94.6668 141.612 94.8383C141.465 95.006 141.246 95.1117 140.955 95.1556ZM143.624 94.7533C143.39 94.7887 143.17 94.7677 142.965 94.6902C142.764 94.609 142.594 94.4806 142.456 94.3052C142.32 94.126 142.233 93.9073 142.194 93.6493C142.156 93.3912 142.175 93.1583 142.252 92.9504C142.331 92.7388 142.456 92.5661 142.625 92.4323C142.797 92.2947 143.001 92.2082 143.236 92.1728C143.527 92.1289 143.783 92.1681 144.005 92.2904C144.229 92.4122 144.387 92.5965 144.479 92.8432L144.052 92.9075C143.996 92.7603 143.897 92.6551 143.756 92.5918C143.614 92.5253 143.457 92.5049 143.285 92.5309C143.146 92.5518 143.02 92.6062 142.908 92.6941C142.796 92.7821 142.713 92.9012 142.658 93.0516C142.602 93.2021 142.59 93.3798 142.621 93.585C142.652 93.7901 142.716 93.9564 142.813 94.0839C142.91 94.2113 143.025 94.3023 143.159 94.3566C143.292 94.4076 143.427 94.4227 143.566 94.4017C143.738 94.3758 143.883 94.3118 143.999 94.2096C144.115 94.1042 144.178 93.9712 144.188 93.8107L144.615 93.7464C144.602 94.002 144.507 94.2228 144.329 94.4087C144.15 94.5946 143.916 94.7095 143.624 94.7533ZM145.314 94.4378L144.943 91.9764L145.321 91.9196L145.426 92.3858C145.478 92.2122 145.574 92.0657 145.715 91.9464C145.856 91.827 146.041 91.7501 146.269 91.7157L146.335 92.1524L146.221 92.1696C146.075 92.1916 145.945 92.2382 145.831 92.3096C145.716 92.3777 145.631 92.4784 145.577 92.6118C145.523 92.7451 145.512 92.9193 145.544 93.1344L145.731 94.375L145.314 94.4378ZM148.156 94.0706C147.924 94.1055 147.708 94.084 147.506 94.0061C147.305 93.9281 147.135 93.8014 146.997 93.626C146.862 93.4467 146.775 93.2264 146.735 92.9651C146.696 92.7037 146.716 92.4689 146.797 92.2605C146.876 92.0489 147.001 91.8762 147.17 91.7424C147.343 91.6081 147.545 91.5235 147.777 91.4886C148.008 91.4537 148.225 91.4753 148.426 91.5532C148.627 91.6312 148.795 91.7598 148.931 91.939C149.069 92.1144 149.157 92.3328 149.197 92.5942C149.236 92.8556 149.216 93.0921 149.136 93.3037C149.056 93.512 148.929 93.6834 148.757 93.8176C148.588 93.9514 148.387 94.0358 148.156 94.0706ZM148.102 93.7133C148.244 93.6919 148.371 93.6372 148.483 93.5493C148.595 93.4614 148.678 93.3422 148.734 93.1918C148.789 93.0414 148.801 92.8636 148.77 92.6585C148.739 92.4534 148.675 92.2871 148.578 92.1596C148.484 92.0316 148.371 91.9421 148.238 91.8911C148.105 91.84 147.969 91.825 147.83 91.8459C147.688 91.8674 147.561 91.922 147.449 92.01C147.337 92.0979 147.254 92.217 147.198 92.3675C147.143 92.5179 147.131 92.6956 147.162 92.9008C147.193 93.1059 147.257 93.2722 147.354 93.3997C147.451 93.5272 147.564 93.6167 147.694 93.6682C147.827 93.7192 147.963 93.7343 148.102 93.7133ZM150.366 93.6767L149.276 91.3237L149.692 91.2609L150.504 93.1128L150.789 91.0956L151.261 91.0246L152.132 92.8675L152.357 90.8593L152.779 90.7958L152.43 93.3656L152.004 93.4299L151.092 91.4915L150.793 93.6124L150.366 93.6767ZM153.371 91.9298L153.318 91.5774L155.283 91.2813L155.336 91.6337L153.371 91.9298ZM156.747 92.7153L156.275 89.5839L155.238 89.7402L155.186 89.3977L157.677 89.0224L157.729 89.3648L156.692 89.5211L157.164 92.6525L156.747 92.7153ZM159.355 92.3832C159.12 92.4186 158.904 92.3971 158.706 92.3186C158.507 92.2369 158.341 92.108 158.206 91.9321C158.074 91.7557 157.989 91.5368 157.95 91.2754C157.911 91.0173 157.928 90.7847 158.002 90.5773C158.075 90.3667 158.194 90.1947 158.36 90.0614C158.529 89.9243 158.734 89.8376 158.976 89.8012C159.214 89.7653 159.428 89.789 159.616 89.8722C159.807 89.9517 159.962 90.0721 160.082 90.2335C160.201 90.3949 160.275 90.5765 160.306 90.7783C160.311 90.8147 160.315 90.8513 160.317 90.8882C160.323 90.9246 160.329 90.966 160.336 91.0123L158.376 91.3076C158.414 91.4947 158.481 91.6454 158.576 91.7596C158.674 91.8701 158.785 91.948 158.91 91.9934C159.039 92.0383 159.169 92.0508 159.302 92.0309C159.474 92.005 159.612 91.9436 159.716 91.8467C159.819 91.7499 159.888 91.6296 159.92 91.486L160.332 91.424C160.3 91.6622 160.201 91.8716 160.036 92.0522C159.873 92.229 159.646 92.3394 159.355 92.3832ZM159.019 90.155C158.821 90.1849 158.653 90.2728 158.516 90.4187C158.382 90.5607 158.32 90.7492 158.332 90.9843L159.88 90.751C159.837 90.5309 159.735 90.3686 159.574 90.2644C159.412 90.1601 159.228 90.1236 159.019 90.155ZM162.205 91.9538C161.97 91.9892 161.75 91.9681 161.546 91.8907C161.344 91.8094 161.174 91.6811 161.036 91.5056C160.901 91.3264 160.814 91.1078 160.775 90.8497C160.736 90.5916 160.755 90.3587 160.832 90.1509C160.912 89.9392 161.036 89.7665 161.206 89.6327C161.378 89.4951 161.581 89.4086 161.816 89.3732C162.107 89.3294 162.364 89.3686 162.585 89.4909C162.81 89.6126 162.968 89.7969 163.059 90.0437L162.632 90.108C162.576 89.9608 162.478 89.8556 162.336 89.7923C162.194 89.7257 162.037 89.7054 161.865 89.7313C161.726 89.7522 161.601 89.8067 161.489 89.8946C161.377 89.9825 161.293 90.1017 161.238 90.2521C161.183 90.4025 161.171 90.5803 161.202 90.7854C161.233 90.9905 161.297 91.1568 161.394 91.2843C161.491 91.4118 161.606 91.5027 161.739 91.557C161.872 91.6081 162.008 91.6231 162.147 91.6022C162.319 91.5763 162.463 91.5122 162.58 91.4101C162.696 91.3046 162.759 91.1717 162.768 91.0112L163.195 90.9469C163.183 91.2025 163.088 91.4232 162.909 91.6091C162.731 91.795 162.496 91.9099 162.205 91.9538ZM163.895 91.6383L163.356 88.0652L163.773 88.0024L164.004 89.5359C164.064 89.3712 164.164 89.2361 164.304 89.1304C164.443 89.0215 164.602 88.9535 164.78 88.9266C165.065 88.8838 165.307 88.9387 165.506 89.0914C165.704 89.2408 165.831 89.4992 165.886 89.8664L166.103 91.3055L165.691 91.3676L165.481 89.9731C165.404 89.4603 165.158 89.2351 164.745 89.2974C164.53 89.3298 164.361 89.4347 164.239 89.6121C164.117 89.7863 164.077 90.0156 164.12 90.3001L164.312 91.5755L163.895 91.6383Z" fill="#4E4E4E"/>
<path d="M34.8914 127.2L34.7761 125.585L33.6192 126.687L33.1582 126.106L34.5124 125.251L32.9784 124.842L33.23 124.175L34.6812 124.884L34.2946 123.31L35.004 123.203L35.088 124.823L36.2553 123.719L36.6803 124.274L35.3381 125.138L36.8841 125.555L36.6326 126.223L35.1934 125.522L35.5799 127.096L34.8914 127.2ZM39.8732 126.449L39.7579 124.834L38.601 125.937L38.14 125.356L39.4942 124.501L37.9602 124.092L38.2118 123.424L39.663 124.134L39.2764 122.56L39.9858 122.453L40.0698 124.073L41.2371 122.968L41.6621 123.523L40.3199 124.387L41.8659 124.805L41.6144 125.472L40.1752 124.771L40.5617 126.346L39.8732 126.449ZM44.855 125.699L44.7397 124.084L43.5828 125.186L43.1218 124.605L44.476 123.75L42.942 123.341L43.1936 122.674L44.6448 123.383L44.2582 121.809L44.9676 121.702L45.0516 123.322L46.2189 122.218L46.6439 122.773L45.3017 123.636L46.8477 124.054L46.5962 124.722L45.157 124.021L45.5435 125.595L44.855 125.699ZM49.8368 124.948L49.7215 123.333L48.5646 124.436L48.1036 123.854L49.4578 122.999L47.9239 122.59L48.1754 121.923L49.6266 122.633L49.24 121.058L49.9494 120.952L50.0334 122.571L51.2007 121.467L51.6257 122.022L50.2835 122.886L51.8295 123.304L51.578 123.971L50.1388 123.27L50.5253 124.844L49.8368 124.948ZM54.8186 124.197L54.7033 122.582L53.5464 123.685L53.0854 123.104L54.4396 122.249L52.9057 121.84L53.1572 121.172L54.6084 121.882L54.2218 120.308L54.9312 120.201L55.0152 121.821L56.1825 120.717L56.6075 121.271L55.2653 122.135L56.8113 122.553L56.5598 123.22L55.1206 122.52L55.5071 124.094L54.8186 124.197ZM59.8004 123.447L59.6851 121.832L58.5282 122.934L58.0672 122.353L59.4214 121.498L57.8875 121.089L58.139 120.422L59.5902 121.131L59.2036 119.557L59.913 119.45L59.997 121.07L61.1643 119.966L61.5893 120.521L60.2471 121.384L61.7931 121.802L61.5416 122.47L60.1024 121.769L60.4889 123.343L59.8004 123.447ZM68.7036 125.946C68.2306 126.018 67.8413 125.959 67.5354 125.77C67.2296 125.582 67.0316 125.188 66.9415 124.59L66.5124 121.742L65.6152 121.877L65.5036 121.137L66.4008 121.001L66.3285 119.743L67.0901 119.628L67.2771 120.869L68.8002 120.64L68.9118 121.381L67.3887 121.61L67.8178 124.458C67.8671 124.785 67.9667 124.998 68.1166 125.096C68.2656 125.187 68.5069 125.208 68.8408 125.157L69.3832 125.076L69.4964 125.827L68.7036 125.946ZM73.9669 125.281C73.2506 125.389 72.608 125.326 72.0392 125.092C71.4764 124.849 71.0099 124.468 70.6399 123.947C70.2688 123.42 70.0267 122.781 69.9135 122.03C69.8014 121.286 69.8455 120.61 70.0457 120.004C70.245 119.391 70.5778 118.885 71.0443 118.488C71.5177 118.089 72.1125 117.836 72.8289 117.728C73.6635 117.603 74.372 117.702 74.9543 118.027C75.5426 118.344 75.9638 118.849 76.2178 119.544L75.2476 119.69C75.0682 119.254 74.7842 118.927 74.3956 118.709C74.0129 118.482 73.5294 118.412 72.9452 118.5C72.4236 118.579 71.9864 118.769 71.6336 119.071C71.2798 119.367 71.0291 119.756 70.8816 120.241C70.74 120.717 70.7164 121.269 70.8107 121.895C70.905 122.521 71.0905 123.044 71.3673 123.464C71.65 123.877 72.0044 124.176 72.4305 124.361C72.8556 124.538 73.329 124.588 73.8506 124.509C74.4348 124.421 74.8774 124.219 75.1783 123.904C75.4852 123.58 75.6608 123.187 75.705 122.726L76.6752 122.579C76.635 123.304 76.3804 123.904 75.9116 124.38C75.4497 124.855 74.8015 125.156 73.9669 125.281ZM81.59 124.133C80.8737 124.241 80.2207 124.179 79.631 123.948C79.0473 123.709 78.5595 123.327 78.1676 122.803C77.7826 122.277 77.534 121.643 77.4219 120.899C77.3098 120.154 77.3608 119.478 77.575 118.87C77.7951 118.253 78.1488 117.745 78.6361 117.344C79.1303 116.942 79.7357 116.688 80.452 116.58C81.1753 116.471 81.8288 116.536 82.4125 116.775C83.0032 117.013 83.4911 117.395 83.876 117.92C84.26 118.439 84.508 119.07 84.6201 119.814C84.7323 120.558 84.6818 121.238 84.4686 121.853C84.2555 122.469 83.9018 122.977 83.4075 123.379C82.9192 123.772 82.3133 124.024 81.59 124.133ZM81.4737 123.361C82.0092 123.28 82.4609 123.091 82.8286 122.794C83.2023 122.489 83.4668 122.097 83.6223 121.618C83.7837 121.131 83.8173 120.575 83.723 119.949C83.6287 119.323 83.4332 118.805 83.1366 118.394C82.847 117.983 82.4792 117.69 82.0333 117.515C81.5932 117.332 81.1054 117.281 80.5699 117.362C80.0344 117.443 79.5798 117.636 79.2061 117.941C78.8384 118.238 78.5733 118.627 78.4108 119.106C78.2553 119.585 78.2248 120.137 78.3191 120.763C78.4134 121.389 78.6059 121.911 78.8965 122.33C79.1931 122.741 79.5614 123.037 80.0015 123.22C80.4474 123.394 80.9382 123.441 81.4737 123.361ZM86.1465 123.318L86.0538 122.703C86.4889 122.239 86.8956 121.776 87.2741 121.313C87.6584 120.843 87.9916 120.387 88.2737 119.946C88.5628 119.504 88.7764 119.081 88.9145 118.676C89.0596 118.27 89.106 117.893 89.0536 117.546C89.0148 117.288 88.9335 117.055 88.8095 116.846C88.6925 116.636 88.5267 116.48 88.3121 116.377C88.0964 116.267 87.8216 116.238 87.4878 116.288C87.1679 116.336 86.9111 116.449 86.7175 116.628C86.5229 116.8 86.3877 117.012 86.3121 117.265C86.2434 117.517 86.2295 117.779 86.2703 118.05L85.4253 118.178C85.353 117.698 85.392 117.272 85.5424 116.901C85.6917 116.523 85.9266 116.217 86.2471 115.984C86.5676 115.751 86.9469 115.601 87.385 115.535C88.0318 115.438 88.5882 115.542 89.0541 115.849C89.5258 116.148 89.8162 116.659 89.9252 117.382C89.9902 117.813 89.9468 118.257 89.7951 118.714C89.6424 119.164 89.429 119.612 89.1549 120.059C88.8797 120.499 88.5766 120.918 88.2454 121.316C87.9212 121.714 87.6161 122.072 87.3301 122.393L90.8562 121.862L90.9662 122.592L86.1465 123.318ZM94.3512 122.21C93.8574 122.284 93.4025 122.239 92.9864 122.074C92.5693 121.902 92.2191 121.631 91.9358 121.262C91.6594 120.891 91.4798 120.431 91.397 119.881C91.3153 119.339 91.3518 118.849 91.5067 118.414C91.6604 117.971 91.9118 117.609 92.2608 117.329C92.6157 117.041 93.047 116.859 93.5547 116.782C94.0554 116.707 94.5039 116.756 94.9001 116.931C95.3023 117.098 95.6285 117.352 95.8788 117.691C96.129 118.03 96.2861 118.412 96.3501 118.836C96.3616 118.913 96.3696 118.99 96.3742 119.067C96.3857 119.144 96.3988 119.231 96.4135 119.328L92.2928 119.949C92.3734 120.342 92.5136 120.659 92.7133 120.899C92.919 121.131 93.1535 121.295 93.4169 121.391C93.6871 121.485 93.9614 121.511 94.2396 121.469C94.6012 121.415 94.8912 121.286 95.1095 121.082C95.3277 120.879 95.471 120.626 95.5393 120.324L96.4052 120.193C96.3384 120.694 96.1309 121.135 95.7827 121.514C95.4404 121.886 94.9632 122.118 94.3512 122.21ZM93.6454 117.526C93.2281 117.589 92.8754 117.773 92.5873 118.08C92.3051 118.379 92.1764 118.775 92.201 119.269L95.4559 118.779C95.3648 118.316 95.1498 117.975 94.811 117.756C94.4721 117.536 94.0836 117.46 93.6454 117.526Z" fill="#4E4E4E"/>
<path d="M32.3765 114.141L31.7331 109.871L30.2935 110.088L30.2034 109.49L33.8129 108.946L33.903 109.544L32.4703 109.76L33.1137 114.03L32.3765 114.141ZM36.2098 113.649C35.8806 113.699 35.5726 113.669 35.286 113.561C35.0033 113.447 34.7652 113.267 34.5717 113.021C34.3774 112.771 34.2531 112.465 34.1986 112.103C34.1441 111.741 34.1731 111.414 34.2856 111.123C34.402 110.825 34.5812 110.582 34.8231 110.394C35.0643 110.201 35.3472 110.081 35.6718 110.032C36.001 109.982 36.3069 110.014 36.5896 110.128C36.8763 110.237 37.1167 110.416 37.3109 110.667C37.5091 110.912 37.6354 111.215 37.6899 111.577C37.7444 111.939 37.7134 112.268 37.597 112.565C37.4845 112.857 37.3077 113.1 37.0664 113.293C36.8245 113.481 36.5389 113.6 36.2098 113.649ZM36.1144 113.016C36.2906 112.99 36.4462 112.921 36.5813 112.811C36.7211 112.7 36.8244 112.551 36.8912 112.366C36.9574 112.176 36.971 111.951 36.9318 111.691C36.8927 111.431 36.8139 111.223 36.6953 111.065C36.5806 110.902 36.4402 110.788 36.2739 110.723C36.1123 110.658 35.9433 110.638 35.7672 110.665C35.591 110.691 35.433 110.76 35.2933 110.871C35.1582 110.982 35.0575 111.132 34.9914 111.322C34.9245 111.508 34.9106 111.73 34.9497 111.99C34.9888 112.249 35.068 112.46 35.1873 112.623C35.3059 112.78 35.446 112.892 35.6076 112.958C35.7693 113.023 35.9382 113.043 36.1144 113.016ZM40.0578 112.984C39.7193 113.035 39.4382 112.994 39.2144 112.862C38.9899 112.725 38.8458 112.446 38.7822 112.024L38.5255 110.32L37.9343 110.409L37.8411 109.79L38.4322 109.701L38.3906 108.811L39.0374 108.714L39.1695 109.59L40.1431 109.443L40.2364 110.062L39.2627 110.209L39.5194 111.913C39.5481 112.103 39.6074 112.229 39.6974 112.292C39.7913 112.349 39.938 112.362 40.1374 112.332L40.5338 112.272L40.6281 112.898L40.0578 112.984ZM42.604 112.686C42.3119 112.73 42.0635 112.717 41.8587 112.649C41.6539 112.58 41.4933 112.474 41.3768 112.33C41.2596 112.182 41.1867 112.013 41.1581 111.823C41.1078 111.489 41.1978 111.205 41.4281 110.971C41.6584 110.737 42.0147 110.584 42.4969 110.511L43.401 110.375L43.3916 110.312C43.351 110.043 43.2465 109.853 43.0778 109.741C42.9138 109.628 42.7159 109.589 42.4841 109.624C42.2801 109.655 42.1093 109.733 41.9716 109.858C41.8379 109.977 41.7695 110.137 41.7664 110.337L41.0292 110.448C41.0147 110.194 41.066 109.968 41.1832 109.77C41.3043 109.567 41.4691 109.402 41.6777 109.276C41.8902 109.145 42.131 109.058 42.3999 109.018C42.8821 108.945 43.2745 109.017 43.5773 109.232C43.8793 109.442 44.0631 109.765 44.1288 110.201L44.4484 112.323L43.8085 112.419L43.6569 111.837C43.5881 112.042 43.4708 112.223 43.3049 112.381C43.139 112.539 42.9054 112.64 42.604 112.686ZM42.6599 112.066C42.8593 112.036 43.0192 111.964 43.1397 111.851C43.2642 111.733 43.3516 111.589 43.402 111.42C43.4571 111.251 43.4796 111.07 43.4695 110.877L42.6488 111C42.3567 111.044 42.1557 111.127 42.0459 111.248C41.9407 111.368 41.8997 111.505 41.9227 111.658C41.9465 111.815 42.0233 111.932 42.1532 112.007C42.287 112.077 42.4559 112.096 42.6599 112.066ZM45.3079 112.193L44.5535 107.186L45.2907 107.074L46.0452 112.082L45.3079 112.193ZM48.7588 111.673L48.0253 106.805L49.8614 106.528C50.3668 106.452 50.7671 106.513 51.0624 106.71C51.3577 106.907 51.5322 107.184 51.586 107.541C51.6328 107.852 51.5867 108.113 51.4477 108.323C51.3081 108.529 51.1249 108.683 50.8982 108.783C51.0893 108.792 51.265 108.842 51.4255 108.931C51.5907 109.02 51.7275 109.142 51.8361 109.296C51.9447 109.45 52.0137 109.625 52.0431 109.82C52.0808 110.07 52.0524 110.307 51.958 110.53C51.8675 110.747 51.7127 110.932 51.4937 111.083C51.2747 111.235 50.9937 111.336 50.6506 111.388L48.7588 111.673ZM49.0769 108.78L50.0853 108.628C50.3682 108.586 50.574 108.488 50.7028 108.336C50.8309 108.179 50.8775 107.985 50.8426 107.753C50.8083 107.526 50.7069 107.356 50.5383 107.244C50.3743 107.131 50.1439 107.097 49.8472 107.142L48.8526 107.292L49.0769 108.78ZM49.4049 110.957L50.462 110.798C50.7588 110.753 50.9778 110.649 51.1191 110.485C51.2651 110.321 51.3192 110.114 51.2815 109.863C51.2437 109.613 51.1283 109.429 50.9351 109.311C50.7412 109.188 50.4982 109.149 50.206 109.193L49.1628 109.35L49.4049 110.957ZM54.2044 110.938C53.9123 110.982 53.6639 110.97 53.4591 110.901C53.2544 110.832 53.0937 110.726 52.9773 110.582C52.8601 110.434 52.7872 110.265 52.7585 110.075C52.7082 109.741 52.7982 109.457 53.0285 109.223C53.2588 108.989 53.6151 108.836 54.0973 108.763L55.0014 108.627L54.992 108.565C54.9515 108.296 54.8469 108.105 54.6783 107.993C54.5143 107.88 54.3164 107.841 54.0845 107.876C53.8805 107.907 53.7097 107.985 53.5721 108.11C53.4384 108.23 53.37 108.389 53.3668 108.589L52.6296 108.7C52.6151 108.446 52.6664 108.22 52.7836 108.022C52.9047 107.819 53.0696 107.655 53.2782 107.528C53.4907 107.397 53.7314 107.311 54.0003 107.27C54.4825 107.197 54.875 107.269 55.1777 107.484C55.4797 107.694 55.6635 108.018 55.7292 108.453L56.0488 110.575L55.409 110.671L55.2573 110.089C55.1886 110.294 55.0713 110.475 54.9054 110.633C54.7395 110.791 54.5058 110.893 54.2044 110.938ZM54.2604 110.318C54.4597 110.288 54.6197 110.216 54.7402 110.103C54.8646 109.985 54.952 109.841 55.0025 109.673C55.0575 109.503 55.08 109.322 55.0699 109.129L54.2492 109.253C53.9571 109.297 53.7562 109.379 53.6464 109.5C53.5412 109.62 53.5001 109.757 53.5232 109.91C53.5469 110.067 53.6237 110.184 53.7536 110.259C53.8875 110.329 54.0564 110.349 54.2604 110.318ZM56.9084 110.445L56.1539 105.438L56.8911 105.327L57.6456 110.334L56.9084 110.445ZM59.7602 110.101C59.4681 110.145 59.2196 110.133 59.0148 110.064C58.8101 109.995 58.6495 109.889 58.533 109.745C58.4158 109.597 58.3429 109.428 58.3142 109.238C58.2639 108.904 58.3539 108.62 58.5842 108.386C58.8145 108.152 59.1708 107.999 59.653 107.926L60.5571 107.79L60.5477 107.727C60.5072 107.459 60.4026 107.268 60.234 107.156C60.07 107.043 59.8721 107.004 59.6402 107.039C59.4362 107.07 59.2654 107.148 59.1278 107.273C58.9941 107.393 58.9257 107.552 58.9226 107.752L58.1853 107.863C58.1708 107.609 58.2221 107.383 58.3393 107.185C58.4604 106.982 58.6253 106.817 58.8339 106.691C59.0464 106.56 59.2871 106.474 59.556 106.433C60.0382 106.36 60.4307 106.432 60.7334 106.647C61.0354 106.857 61.2192 107.181 61.2849 107.616L61.6045 109.738L60.9647 109.834L60.813 109.252C60.7443 109.457 60.627 109.638 60.4611 109.796C60.2952 109.954 60.0615 110.055 59.7602 110.101ZM59.8161 109.481C60.0155 109.451 60.1754 109.379 60.2959 109.266C60.4203 109.148 60.5077 109.004 60.5582 108.835C60.6132 108.666 60.6357 108.485 60.6256 108.292L59.805 108.416C59.5129 108.46 59.3119 108.542 59.2021 108.663C59.0969 108.783 59.0558 108.92 59.0789 109.073C59.1026 109.23 59.1795 109.347 59.3093 109.422C59.4432 109.492 59.6121 109.511 59.8161 109.481ZM62.4641 109.608L61.9443 106.159L62.5981 106.06L62.7449 106.657C62.8194 106.427 62.9496 106.237 63.1354 106.086C63.3252 105.929 63.5546 105.831 63.8235 105.79C64.2408 105.727 64.5872 105.808 64.8628 106.032C65.143 106.255 65.3219 106.624 65.3994 107.139L65.6981 109.121L64.9678 109.231L64.6807 107.325C64.5801 106.658 64.2563 106.365 63.7091 106.447C63.4356 106.489 63.2231 106.62 63.0716 106.842C62.9247 107.063 62.8786 107.355 62.933 107.717L63.2013 109.497L62.4641 109.608ZM68.2133 108.827C67.8748 108.878 67.5596 108.847 67.2677 108.735C66.9803 108.622 66.7399 108.442 66.5464 108.196C66.3568 107.945 66.2351 107.641 66.1813 107.284C66.1275 106.927 66.1545 106.603 66.2624 106.312C66.3742 106.015 66.5507 105.77 66.7919 105.577C67.0378 105.384 67.3299 105.262 67.6684 105.211C68.095 105.146 68.4688 105.204 68.7898 105.383C69.1154 105.562 69.3486 105.835 69.4893 106.202L68.7173 106.319C68.6423 106.136 68.518 106.003 68.3443 105.92C68.1705 105.837 67.977 105.811 67.7638 105.844C67.5829 105.871 67.423 105.942 67.284 106.058C67.1442 106.169 67.0413 106.32 66.9751 106.51C66.9082 106.696 66.894 106.916 66.9324 107.171C66.9708 107.426 67.0497 107.635 67.169 107.797C67.2875 107.954 67.4303 108.068 67.5973 108.138C67.7643 108.207 67.9382 108.229 68.119 108.201C68.3323 108.169 68.5097 108.088 68.6513 107.957C68.7929 107.827 68.8722 107.661 68.8892 107.459L69.6612 107.343C69.6382 107.726 69.4978 108.053 69.24 108.324C68.9821 108.595 68.6399 108.763 68.2133 108.827ZM72.2607 108.217C71.9223 108.268 71.6097 108.24 71.3231 108.131C71.0404 108.017 70.8046 107.837 70.6157 107.59C70.4268 107.344 70.3055 107.042 70.2517 106.685C70.1972 106.323 70.2212 105.995 70.3237 105.7C70.4309 105.404 70.6027 105.16 70.8393 104.968C71.0806 104.775 71.3751 104.652 71.7228 104.6C72.0613 104.549 72.3672 104.581 72.6406 104.696C72.9134 104.807 73.1381 104.977 73.315 105.206C73.4918 105.436 73.6029 105.701 73.6483 106.003C73.6553 106.049 73.6607 106.1 73.6644 106.157C73.6721 106.208 73.6785 106.266 73.6837 106.332L70.9991 106.736C71.0726 107.066 71.22 107.305 71.4412 107.452C71.6665 107.593 71.9089 107.644 72.1685 107.605C72.3772 107.574 72.5441 107.501 72.6692 107.388C72.7983 107.269 72.8853 107.123 72.9304 106.95L73.6676 106.839C73.6238 107.177 73.4792 107.477 73.2339 107.736C72.9931 107.996 72.6688 108.156 72.2607 108.217ZM71.807 105.206C71.5613 105.243 71.3545 105.35 71.1868 105.527C71.0183 105.699 70.9353 105.935 70.9376 106.233L72.8849 105.94C72.8305 105.673 72.7033 105.474 72.5033 105.343C72.3034 105.212 72.0713 105.166 71.807 105.206Z" fill="#4E4E4E"/>
</g>
<rect x="25.9785" y="184.119" width="90" height="189.543" rx="6.5" transform="rotate(-98.5684 25.9785 184.119)" stroke="#282D45"/>
<rect x="25.9785" y="184.119" width="90" height="189.543" rx="6.5" transform="rotate(-98.5684 25.9785 184.119)" stroke="#DEDEDE"/>
<rect x="169.639" y="31.6182" width="164.66" height="131.522" rx="9.75999" transform="rotate(13.3229 169.639 31.6182)" fill="white" stroke="#DEDEDE" stroke-width="1.02737"/>
<path d="M181.309 59.6448C179.444 59.2031 178.542 57.6207 179.017 55.6152C179.488 53.6271 181.053 52.6013 182.927 53.0451C184.442 53.4039 185.363 54.556 185.256 55.9828L184.074 55.7028C184.031 54.9066 183.495 54.3173 182.646 54.1161C181.464 53.8361 180.516 54.5181 180.192 55.8843C179.871 57.2418 180.417 58.2959 181.59 58.5738C182.457 58.7791 183.231 58.4814 183.609 57.8217L184.774 58.0976C184.209 59.3882 182.824 60.0036 181.309 59.6448ZM186.29 60.8337C185.371 60.6159 184.937 59.949 185.13 59.1345C185.318 58.3375 186.015 57.9752 187.058 58.139L188.377 58.3497L188.4 58.2533C188.539 57.6665 188.244 57.3471 187.701 57.2185C187.071 57.0692 186.658 57.249 186.55 57.7044L185.64 57.4887C185.861 56.5516 186.777 56.1211 187.951 56.399C189.116 56.6748 189.684 57.4755 189.4 58.6753L188.778 61.3026L187.841 61.0807L187.914 60.4227C187.624 60.8258 186.965 60.9934 186.29 60.8337ZM186.831 60.1109C187.488 60.2665 188.002 59.9719 188.16 59.3063L188.213 59.0786L187.295 58.9351C186.615 58.8388 186.309 58.9976 186.226 59.3479C186.133 59.742 186.35 59.9969 186.831 60.1109ZM193.571 57.8502L193.337 58.8399L192.943 58.7465C192.172 58.564 191.593 58.8616 191.394 59.7023L190.896 61.8042L189.828 61.5512L190.85 57.2336L191.857 57.4721L191.769 58.1172C192.055 57.7316 192.535 57.5401 193.113 57.6769C193.262 57.7122 193.407 57.765 193.571 57.8502ZM194.256 62.5997L193.266 62.3654L194.809 55.8496L195.877 56.1026L195.21 58.9226C195.604 58.5073 196.25 58.3552 196.907 58.5107C198.142 58.8031 198.667 59.9448 198.343 61.3111C198.028 62.6422 196.996 63.3689 195.752 63.0744C195.104 62.921 194.621 62.5013 194.485 61.942L194.256 62.5997ZM194.86 60.4398C194.675 61.2192 195.03 61.8675 195.766 62.0417C196.519 62.2201 197.094 61.7829 197.277 61.0122C197.459 60.2415 197.143 59.584 196.39 59.4056C195.654 59.2314 195.044 59.6603 194.86 60.4398ZM198.949 61.4173C199.268 60.0686 200.46 59.3705 201.8 59.6878C203.14 60.0052 203.892 61.1637 203.573 62.5124C203.253 63.8611 202.061 64.5592 200.721 64.2419C199.381 63.9246 198.629 62.766 198.949 61.4173ZM200.017 61.6704C199.83 62.4586 200.212 63.1131 200.947 63.2873C201.683 63.4615 202.318 63.0476 202.504 62.2594C202.691 61.4712 202.309 60.8166 201.574 60.6424C200.838 60.4682 200.204 60.8822 200.017 61.6704ZM204.974 65.1379L203.905 64.8849L204.93 60.5585L205.919 60.7929L205.874 61.3741C206.249 61.0005 206.835 60.871 207.422 61.0099C208.508 61.2671 208.909 62.0742 208.643 63.1952L208.013 65.8575L206.944 65.6045L207.515 63.1961C207.687 62.4692 207.411 62.0339 206.859 61.9032C206.202 61.7477 205.691 62.1077 205.525 62.8083L204.974 65.1379ZM214.262 67.4484C212.396 67.0067 211.495 65.4243 211.97 63.4188C212.44 61.4308 214.006 60.4049 215.88 60.8487C217.395 61.2075 218.316 62.3596 218.209 63.7864L217.027 63.5064C216.984 62.7102 216.448 62.1209 215.599 61.9197C214.417 61.6397 213.469 62.3217 213.145 63.6879C212.824 65.0454 213.37 66.0995 214.543 66.3774C215.41 66.5827 216.184 66.285 216.562 65.6254L217.727 65.9012C217.162 67.1918 215.777 67.8072 214.262 67.4484ZM221.812 64.5379L221.577 65.5275L221.183 65.4342C220.413 65.2517 219.833 65.5492 219.634 66.39L219.137 68.4918L218.068 68.2388L219.091 63.9212L220.098 64.1597L220.01 64.8048C220.295 64.4192 220.775 64.2277 221.353 64.3646C221.502 64.3998 221.647 64.4526 221.812 64.5379ZM223.269 69.5908C221.982 69.2859 221.302 68.1352 221.619 66.7953C221.941 65.4378 223.047 64.7102 224.317 65.0109C225.613 65.3178 226.231 66.3798 225.912 67.7285L225.835 68.0526L222.575 67.2898C222.473 68.0704 222.785 68.5511 223.494 68.7191C224.081 68.8581 224.52 68.7216 224.74 68.3391L225.73 68.5734C225.322 69.4757 224.399 69.8583 223.269 69.5908ZM224.118 65.8888C223.488 65.7394 223.022 65.9897 222.763 66.6129L224.935 67.1273C225.076 66.5317 224.758 66.0402 224.118 65.8888ZM227.987 70.7079C226.734 70.4113 226.173 69.3072 226.49 67.9672C226.809 66.6185 227.826 65.8418 229.131 66.1508C229.735 66.2939 230.209 66.6744 230.379 67.1678L231.028 64.4267L232.088 64.6776L230.545 71.1934L229.564 70.9611L229.653 70.2702C229.273 70.7071 228.644 70.8634 227.987 70.7079ZM228.455 69.783C229.2 69.9593 229.808 69.5391 229.993 68.7597C230.177 67.9802 229.824 67.3232 229.08 67.1469C228.335 66.9706 227.749 67.4145 227.567 68.1852C227.384 68.9559 227.711 69.6067 228.455 69.783ZM233.422 66.3902C233.054 66.3031 232.834 65.9457 232.919 65.5866C233.004 65.2275 233.359 65.0157 233.727 65.1028C234.077 65.1858 234.3 65.5345 234.215 65.8935C234.13 66.2526 233.773 66.4732 233.422 66.3902ZM231.658 71.4571L232.683 67.1307L233.751 67.3837L232.727 71.7101L231.658 71.4571ZM235.302 72.3199L234.233 72.0669L235.046 68.6339L234.214 68.4368L234.426 67.5435L235.258 67.7406L235.577 66.3919L236.646 66.6449L236.326 67.9936L237.167 68.1927L236.956 69.086L236.115 68.8869L235.302 72.3199ZM245.925 71.4506C245.465 73.3948 243.863 74.4583 242.024 74.0227C240.193 73.5893 239.254 71.9332 239.716 69.9802C240.177 68.036 241.77 66.9705 243.6 67.4039C245.431 67.8374 246.388 69.4976 245.925 71.4506ZM244.743 71.1706C245.067 69.8044 244.519 68.759 243.345 68.4811C242.172 68.2032 241.213 68.8919 240.89 70.2581C240.566 71.6243 241.114 72.6697 242.288 72.9476C243.461 73.2255 244.424 72.5193 244.743 71.1706ZM247.278 75.1561L246.586 70.4232L247.725 70.6928L248.007 72.8592C248.069 73.4195 248.112 73.9014 248.108 74.1503C248.234 73.8933 248.499 73.4752 248.795 73.0459L250.054 71.2445L251.158 71.5058L248.329 75.4049L247.278 75.1561ZM252.442 76.4992C251.155 76.1943 250.475 75.0436 250.792 73.7037C251.113 72.3462 252.22 71.6186 253.49 71.9193C254.786 72.2263 255.404 73.2882 255.084 74.6369L255.008 74.961L251.748 74.1982C251.646 74.9788 251.958 75.4596 252.667 75.6275C253.254 75.7665 253.693 75.63 253.913 75.2475L254.903 75.4818C254.495 76.3841 253.572 76.7667 252.442 76.4992ZM253.291 72.7972C252.66 72.6478 252.194 72.8981 251.936 73.5213L254.108 74.0357C254.249 73.4401 253.93 72.9486 253.291 72.7972ZM259.152 73.3805L258.918 74.3701L258.524 74.2768C257.753 74.0943 257.174 74.3918 256.975 75.2326L256.477 77.3344L255.409 77.0814L256.431 72.7638L257.438 73.0023L257.35 73.6474C257.636 73.2618 258.116 73.0703 258.694 73.2072C258.843 73.2424 258.987 73.2952 259.152 73.3805ZM260.201 78.2163L259.509 73.4835L260.648 73.7531L260.93 75.9195C260.991 76.4798 261.035 76.9617 261.031 77.2106C261.157 76.9536 261.422 76.5355 261.718 76.1061L262.977 74.3048L264.081 74.5661L261.252 78.4652L260.201 78.2163ZM265.434 73.971C265.066 73.8839 264.846 73.5265 264.931 73.1674C265.016 72.8083 265.371 72.5965 265.739 72.6836C266.09 72.7666 266.312 73.1153 266.227 73.4744C266.142 73.8334 265.785 74.054 265.434 73.971ZM263.67 79.0379L264.695 74.7115L265.763 74.9646L264.739 79.2909L263.67 79.0379ZM267.751 80.1245C266.464 79.8197 265.784 78.669 266.101 77.329C266.422 75.9716 267.529 75.2439 268.799 75.5447C270.095 75.8516 270.713 76.9136 270.393 78.2623L270.317 78.5863L267.057 77.8236C266.955 78.6042 267.267 79.0849 267.976 79.2529C268.563 79.3918 269.002 79.2554 269.222 78.8728L270.212 79.1072C269.804 80.0095 268.881 80.3921 267.751 80.1245ZM268.6 76.4225C267.969 76.2732 267.503 76.5235 267.245 77.1467L269.417 77.661C269.558 77.0655 269.239 76.5739 268.6 76.4225ZM271.484 80.8883L271.107 76.2301L272.219 76.4935L272.349 78.4849C272.365 78.8493 272.363 79.2466 272.346 79.6682C272.525 79.2664 272.668 79.0136 272.91 78.6177L273.945 76.9021L275.031 77.1592L275.169 79.1528C275.18 79.3403 275.202 80.0299 275.186 80.3314C275.333 80.0239 275.595 79.5404 275.738 79.2876L276.756 77.5678L277.886 77.8353L275.364 81.807L274.365 81.5706L274.214 79.5554C274.173 78.9447 274.174 78.5102 274.191 78.283C274.1 78.4741 273.948 78.7619 273.561 79.4194L272.526 81.1351L271.484 80.8883Z" fill="#4E4E4E"/>
<line x1="190.745" y1="80.5247" x2="307.931" y2="108.276" stroke="#DEDEDE" stroke-width="0.80823"/>
<line x1="185.16" y1="104.119" x2="302.345" y2="131.87" stroke="#DEDEDE" stroke-width="0.80823"/>
<line x1="179.57" y1="127.713" x2="296.755" y2="155.464" stroke="#DEDEDE" stroke-width="0.80823"/>
<line x1="173.984" y1="151.308" x2="291.169" y2="179.059" stroke="#DEDEDE" stroke-width="0.80823"/>
<path d="M177.464 78.6072L175.634 80.1625L174.355 79.8597L176.371 78.1821C176.203 78.1885 176.031 78.1754 175.873 78.1381C174.551 77.8249 173.877 76.685 174.184 75.3889C174.508 74.0227 175.75 73.3086 177.116 73.6322C178.499 73.9599 179.292 75.2205 178.981 76.5342C178.799 77.3048 178.412 77.8052 177.464 78.6072ZM177.836 76.2537C178.021 75.4743 177.632 74.8089 176.879 74.6306C176.144 74.4563 175.498 74.877 175.314 75.6564C175.131 76.4271 175.521 77.0837 176.257 77.2579C177.019 77.4383 177.653 77.0244 177.836 76.2537ZM179.438 77.6966C179.908 75.7086 181.296 74.6129 182.934 75.0008C184.572 75.3886 185.33 76.9924 184.859 78.9804C184.39 80.9597 183.061 82.0415 181.362 81.6392C179.663 81.2368 178.969 79.6759 179.438 77.6966ZM180.541 77.9579C180.191 79.438 180.589 80.411 181.596 80.6495C182.612 80.8901 183.405 80.1991 183.755 78.7191C184.114 77.204 183.716 76.231 182.7 75.9904C181.692 75.7519 180.9 76.4428 180.541 77.9579Z" fill="#4E4E4E"/>
<path d="M169.498 98.8536L171.328 97.2984L172.607 97.6012L170.591 99.2788C170.759 99.2724 170.932 99.2855 171.089 99.3228C172.412 99.636 173.085 100.776 172.778 102.072C172.455 103.438 171.213 104.152 169.846 103.829C168.463 103.501 167.67 102.24 167.981 100.927C168.163 100.156 168.55 99.6557 169.498 98.8536ZM169.126 101.207C168.942 101.987 169.33 102.652 170.083 102.83C170.81 103.002 171.464 102.584 171.648 101.804C171.831 101.034 171.441 100.377 170.705 100.203C169.943 100.023 169.309 100.436 169.126 101.207ZM173.703 101.255C174.174 99.2672 175.562 98.1715 177.2 98.5593C178.837 98.9472 179.595 100.551 179.124 102.539C178.656 104.518 177.327 105.6 175.628 105.198C173.929 104.795 173.235 103.234 173.703 101.255ZM174.807 101.517C174.456 102.997 174.855 103.97 175.862 104.208C176.878 104.449 177.67 103.758 178.021 102.278C178.38 100.763 177.981 99.7896 176.965 99.549C175.958 99.3105 175.166 100.001 174.807 101.517Z" fill="#4E4E4E"/>
<path d="M164.387 124.816L163.607 124.632L163.779 123.905L165.784 122.78L163.122 122.149L163.356 121.16L167.42 122.122L167.209 123.015L165.31 124.082C166.245 124.507 166.837 125.406 166.569 126.536C166.258 127.849 165.036 128.439 163.74 128.132C162.488 127.835 161.698 126.834 162.026 125.451L163.129 125.712C162.955 126.448 163.311 126.976 163.994 127.137C164.695 127.303 165.267 126.958 165.435 126.249C165.588 125.6 165.28 125.028 164.387 124.816ZM167.485 125.532C167.956 123.544 169.344 122.448 170.981 122.836C172.619 123.224 173.377 124.827 172.906 126.816C172.437 128.795 171.108 129.877 169.409 129.474C167.71 129.072 167.016 127.511 167.485 125.532ZM168.589 125.793C168.238 127.273 168.637 128.246 169.644 128.485C170.66 128.725 171.452 128.034 171.803 126.554C172.161 125.039 171.763 124.066 170.747 123.825C169.74 123.587 168.947 124.278 168.589 125.793Z" fill="#4E4E4E"/>
<path d="M162.229 150.036C162.7 148.048 164.088 146.952 165.726 147.34C167.363 147.727 168.121 149.331 167.651 151.319C167.182 153.299 165.853 154.38 164.154 153.978C162.455 153.576 161.761 152.015 162.229 150.036ZM163.333 150.297C162.982 151.777 163.381 152.75 164.388 152.988C165.404 153.229 166.197 152.538 166.547 151.058C166.906 149.543 166.507 148.57 165.491 148.329C164.484 148.091 163.692 148.782 163.333 150.297Z" fill="#4E4E4E"/>
<path d="M177.313 142.544C181.211 145.958 190.051 150.815 196.509 149.166C205.791 146.796 212.623 139.582 219.357 126.337C224.634 115.958 228.795 112.791 238.998 113.546C254.803 114.716 260.161 120.634 263.255 125.104C266.349 129.575 267.012 135.546 276.449 137.781C285.887 140.015 294.413 116.286 301.585 117.569" stroke="#32CAFD"/>
<path d="M177.313 142.544C181.211 145.958 190.051 150.815 196.509 149.166C205.791 146.796 212.623 139.582 219.357 126.337C224.634 115.958 228.795 112.791 238.998 113.546C254.803 114.716 260.161 120.634 263.255 125.104C266.349 129.575 267.012 135.546 276.449 137.781C285.887 140.015 294.413 116.286 301.585 117.569" stroke="#32CAFD" stroke-width="6" stroke-linecap="round" stroke-linejoin="round" stroke-dasharray="1 10000"/>
<path d="M177.313 142.544C181.211 145.958 190.051 150.815 196.509 149.166C205.791 146.796 212.623 139.582 219.357 126.337C224.634 115.958 228.795 112.791 238.998 113.546C254.803 114.716 260.161 120.634 263.255 125.104C266.349 129.575 267.012 135.546 276.449 137.781C285.887 140.015 294.413 116.286 301.585 117.569" stroke="white" stroke-width="4" stroke-linecap="round" stroke-linejoin="round" stroke-dasharray="1 10000"/>
<path d="M179.733 132.32C188.812 131.978 208.067 134.378 212.455 146.713C217.94 162.132 226.462 162.706 230.276 160.901C234.953 158.686 240.582 138.424 252.4 142.883C264.218 147.343 281.271 131.448 282.906 121.037C284.541 110.627 297.693 104.19 306.179 108.691" stroke="#5C00E7"/>
<path d="M179.733 132.32C188.812 131.978 208.067 134.378 212.455 146.713C217.94 162.132 226.462 162.706 230.276 160.901C234.953 158.686 240.582 138.424 252.4 142.883C264.218 147.343 281.271 131.448 282.906 121.037C284.541 110.627 297.693 104.19 306.179 108.691" stroke="#5C00E7" stroke-width="6" stroke-linecap="round" stroke-linejoin="round" stroke-dasharray="1 10000"/>
<path d="M179.733 132.32C188.812 131.978 208.067 134.378 212.455 146.713C217.94 162.132 226.462 162.706 230.276 160.901C234.953 158.686 240.582 138.424 252.4 142.883C264.218 147.343 281.271 131.448 282.906 121.037C284.541 110.627 297.693 104.19 306.179 108.691" stroke="white" stroke-width="4" stroke-linecap="round" stroke-linejoin="round" stroke-dasharray="1 10000"/>
<defs>
<linearGradient id="paint0_linear_525_2529" x1="-12.807" y1="146.954" x2="99.9488" y2="129.965" gradientUnits="userSpaceOnUse">
<stop stop-color="#E1E1E1" stop-opacity="0.882353"/>
<stop offset="1" stop-color="#FBFBFB" stop-opacity="0"/>
<stop offset="1" stop-color="#E1E1E1" stop-opacity="0"/>
</linearGradient>
<linearGradient id="paint1_linear_525_2529" x1="62.4381" y1="37.1637" x2="149.43" y2="110.76" gradientUnits="userSpaceOnUse">
<stop stop-color="#E1E1E1"/>
<stop offset="1" stop-color="#EEEEEE" stop-opacity="0"/>
</linearGradient>
<linearGradient id="paint2_linear_525_2529" x1="17.0533" y1="115.786" x2="129.809" y2="98.797" gradientUnits="userSpaceOnUse">
<stop stop-color="#E1E1E1"/>
<stop offset="1" stop-color="#E1E1E1" stop-opacity="0"/>
</linearGradient>
<clipPath id="clip0_525_2529">
<rect x="25.5586" y="184.688" width="91" height="190.543" rx="7" transform="rotate(-98.5684 25.5586 184.688)" fill="white"/>
</clipPath>
</defs>
</svg>
