<svg width="342" height="230" viewBox="0 0 342 230" fill="none" xmlns="http://www.w3.org/2000/svg">
<rect width="342" height="230" rx="4" fill="#020723"/>
<g clip-path="url(#clip0_481_1617)">
<rect x="25.5586" y="184.687" width="91" height="190.543" rx="7" transform="rotate(-98.5684 25.5586 184.687)" fill="#0E1330"/>
<g opacity="0.4">
<path d="M-11.8301 148.387C-12.4475 147.481 -12.6188 146.344 -12.2957 145.296L1.26723 101.335C1.59034 100.287 2.37277 99.444 3.39304 99.0437L46.2201 82.2379C47.2404 81.8376 48.3874 81.9236 49.3366 82.4716L89.1781 105.477C90.1272 106.025 90.7751 106.975 90.9384 108.059L97.7929 153.552C97.9562 154.636 97.6171 155.735 96.8716 156.538L65.5775 190.262C64.8319 191.065 63.7612 191.485 62.6682 191.404L16.7906 187.963C15.6977 187.881 14.7016 187.306 14.0842 186.4L-11.8301 148.387Z" fill="url(#paint0_linear_481_1617)" fill-opacity="0.3"/>
<path d="M62.0036 38.8412C62.2782 37.7805 63.0211 36.9025 64.022 36.4555L106.012 17.7058C107.013 17.2588 108.163 17.2917 109.137 17.7951L149.978 38.9112C150.952 39.4146 151.643 40.3339 151.856 41.4087L160.796 86.4898C161.009 87.5645 160.721 88.6778 160.013 89.5145L130.318 124.614C129.61 125.45 128.56 125.92 127.464 125.888L81.496 124.575C80.4 124.544 79.3781 124.015 78.7194 123.139L51.0931 86.4027C50.4344 85.5269 50.2107 84.3989 50.4853 83.3381L62.0036 38.8412Z" fill="url(#paint1_linear_481_1617)" fill-opacity="0.15"/>
<path d="M18.0302 117.218C17.4129 116.313 17.2415 115.175 17.5646 114.128L31.1276 70.1662C31.4507 69.1189 32.2331 68.2758 33.2534 67.8754L76.0804 51.0696C77.1007 50.6693 78.2478 50.7553 79.1969 51.3034L119.038 74.3087C119.988 74.8567 120.635 75.8072 120.799 76.8909L127.653 122.384C127.817 123.468 127.477 124.567 126.732 125.37L95.4378 159.094C94.6923 159.897 93.6215 160.317 92.5286 160.235L46.651 156.795C45.558 156.713 44.5619 156.138 43.9446 155.232L18.0302 117.218Z" fill="url(#paint2_linear_481_1617)" fill-opacity="0.1"/>
</g>
<path d="M39.0278 154.699C38.6495 154.756 38.3047 154.723 37.9933 154.601C37.685 154.475 37.4274 154.273 37.2204 153.996C37.0171 153.719 36.8858 153.384 36.8266 152.991C36.7674 152.598 36.7944 152.24 36.9075 151.919C37.0237 151.594 37.2105 151.325 37.4678 151.113C37.7289 150.901 38.0485 150.767 38.4268 150.71C38.8088 150.652 39.1539 150.687 39.4622 150.813C39.7741 150.939 40.0317 151.14 40.2351 151.418C40.4378 151.691 40.5688 152.025 40.628 152.418C40.6872 152.811 40.6606 153.17 40.548 153.495C40.4354 153.82 40.2487 154.088 39.9876 154.3C39.7297 154.508 39.4098 154.641 39.0278 154.699ZM38.9664 154.291C39.2492 154.248 39.4877 154.148 39.6819 153.991C39.8792 153.83 40.019 153.623 40.1011 153.371C40.1863 153.114 40.204 152.82 40.1542 152.489C40.1044 152.159 40.0012 151.885 39.8446 151.668C39.6916 151.451 39.4974 151.296 39.2619 151.204C39.0295 151.107 38.7719 151.08 38.4891 151.123C38.2063 151.166 37.9662 151.268 37.7689 151.429C37.5747 151.586 37.4347 151.791 37.3489 152.044C37.2668 152.297 37.2506 152.589 37.3004 152.919C37.3502 153.25 37.4519 153.526 37.6054 153.747C37.762 153.963 37.9565 154.12 38.1889 154.216C38.4244 154.309 38.6836 154.333 38.9664 154.291ZM41.7412 155.462L41.1469 151.517L41.5656 151.454L41.6777 151.899C41.746 151.754 41.8528 151.615 41.9984 151.484C42.1476 151.353 42.349 151.268 42.6024 151.23C42.8742 151.189 43.1205 151.216 43.3413 151.31C43.5621 151.405 43.7439 151.552 43.8868 151.752C44.0333 151.952 44.1273 152.189 44.1688 152.465C44.2103 152.74 44.1905 152.995 44.1092 153.229C44.0312 153.458 43.8987 153.651 43.7118 153.807C43.5281 153.958 43.3003 154.055 43.0285 154.096C42.8045 154.129 42.5974 154.114 42.4073 154.048C42.2208 153.983 42.0692 153.874 41.9525 153.723L42.204 155.392L41.7412 155.462ZM42.9183 153.701C43.102 153.673 43.2572 153.607 43.3841 153.501C43.5103 153.392 43.6023 153.254 43.6598 153.088C43.7174 152.921 43.7307 152.735 43.6997 152.53C43.6687 152.324 43.6012 152.15 43.4971 152.008C43.3931 151.866 43.2649 151.763 43.1126 151.7C42.9598 151.633 42.7915 151.613 42.6079 151.641C42.4242 151.668 42.2693 151.737 42.143 151.846C42.0162 151.951 41.924 152.087 41.8664 152.254C41.8088 152.42 41.7955 152.606 41.8265 152.812C41.8575 153.018 41.925 153.191 42.0291 153.334C42.1331 153.476 42.2616 153.58 42.4144 153.647C42.5667 153.711 42.7347 153.729 42.9183 153.701ZM46.2565 153.609C45.9958 153.649 45.7555 153.625 45.5358 153.538C45.3156 153.447 45.1306 153.304 44.981 153.109C44.835 152.913 44.7402 152.67 44.6965 152.379C44.6533 152.093 44.6726 151.835 44.7544 151.605C44.8356 151.371 44.9683 151.18 45.1526 151.032C45.34 150.88 45.5678 150.783 45.8359 150.743C46.1004 150.703 46.3372 150.729 46.5465 150.822C46.7588 150.91 46.9311 151.044 47.0633 151.223C47.1954 151.402 47.2784 151.604 47.3122 151.828C47.3182 151.868 47.3225 151.909 47.3249 151.95C47.331 151.99 47.3379 152.036 47.3457 152.087L45.1695 152.415C45.2121 152.623 45.2861 152.79 45.3916 152.917C45.5002 153.04 45.6241 153.126 45.7631 153.177C45.9059 153.226 46.0507 153.24 46.1976 153.218C46.3886 153.189 46.5417 153.121 46.657 153.014C46.7723 152.906 46.8479 152.773 46.884 152.613L47.3413 152.544C47.306 152.809 47.1964 153.041 47.0125 153.242C46.8317 153.438 46.5798 153.561 46.2565 153.609ZM45.8838 151.136C45.6635 151.169 45.4772 151.266 45.3251 151.428C45.176 151.586 45.108 151.795 45.1211 152.056L46.8399 151.797C46.7918 151.553 46.6783 151.373 46.4994 151.257C46.3204 151.141 46.1152 151.101 45.8838 151.136ZM48.1546 153.256L47.7429 150.523L48.1616 150.46L48.263 150.946C48.3252 150.76 48.4314 150.605 48.5818 150.481C48.7321 150.357 48.9119 150.279 49.1213 150.248C49.4445 150.199 49.7165 150.26 49.9374 150.429C50.1614 150.594 50.3041 150.881 50.3655 151.289L50.6062 152.886L50.1435 152.956L49.9102 151.408C49.8244 150.839 49.5465 150.589 49.0764 150.66C48.8413 150.696 48.6578 150.812 48.5259 151.008C48.3971 151.2 48.3565 151.454 48.4041 151.77L48.6174 153.186L48.1546 153.256ZM54.4942 152.368C54.1159 152.425 53.7766 152.392 53.4762 152.268C53.179 152.14 52.9327 151.939 52.7373 151.664C52.5413 151.385 52.4134 151.048 52.3537 150.651C52.2945 150.258 52.3177 149.901 52.4235 149.581C52.5287 149.257 52.7045 148.991 52.9508 148.781C53.2008 148.57 53.515 148.436 53.8933 148.379C54.334 148.313 54.7082 148.366 55.0157 148.537C55.3264 148.704 55.5488 148.971 55.6829 149.338L55.1706 149.415C55.0758 149.185 54.9258 149.013 54.7206 148.897C54.5185 148.777 54.2632 148.741 53.9547 148.787C53.6792 148.829 53.4483 148.929 53.262 149.089C53.0752 149.245 52.9428 149.45 52.8649 149.706C52.7901 149.958 52.7777 150.249 52.8275 150.58C52.8773 150.91 52.9752 151.187 53.1214 151.409C53.2707 151.627 53.4578 151.784 53.6829 151.882C53.9074 151.976 54.1574 152.002 54.4328 151.96C54.7413 151.914 54.9751 151.807 55.134 151.641C55.2961 151.47 55.3888 151.262 55.4121 151.018L55.9245 150.941C55.9032 151.324 55.7688 151.641 55.5212 151.892C55.2773 152.143 54.935 152.302 54.4942 152.368ZM57.6495 151.893C57.4218 151.927 57.2269 151.917 57.0647 151.863C56.9024 151.808 56.7749 151.722 56.6821 151.605C56.5893 151.487 56.5315 151.353 56.5088 151.203C56.4668 150.923 56.5409 150.693 56.7312 150.51C56.9216 150.327 57.2004 150.208 57.5677 150.153L58.3059 150.042L58.3009 150.009C58.265 149.77 58.1754 149.599 58.0323 149.497C57.8886 149.391 57.7121 149.354 57.5027 149.385C57.3227 149.412 57.1736 149.482 57.0552 149.593C56.9399 149.701 56.8787 149.843 56.8717 150.021L56.3979 150.092C56.3864 149.891 56.4273 149.714 56.5207 149.561C56.6178 149.408 56.7473 149.283 56.9094 149.187C57.071 149.088 57.2491 149.023 57.4438 148.994C57.8257 148.936 58.1277 148.996 58.3497 149.173C58.5748 149.346 58.7128 149.601 58.7637 149.939L59.0169 151.619L58.6037 151.681L58.5023 151.195C58.4484 151.361 58.3544 151.51 58.2205 151.643C58.0896 151.772 57.8993 151.855 57.6495 151.893ZM57.6622 151.491C57.8385 151.464 57.9822 151.396 58.0932 151.285C58.2079 151.174 58.2873 151.04 58.3313 150.883C58.3752 150.726 58.385 150.567 58.3607 150.405L58.3599 150.4L57.6602 150.505C57.3884 150.546 57.2028 150.623 57.1033 150.736C57.007 150.844 56.9693 150.968 56.9903 151.107C57.0119 151.251 57.0808 151.359 57.1969 151.431C57.3161 151.5 57.4712 151.52 57.6622 151.491ZM59.7111 151.515L59.2994 148.782L59.7181 148.719L59.8355 149.236C59.8929 149.044 59.9999 148.881 60.1564 148.749C60.313 148.616 60.518 148.531 60.7714 148.493L60.8445 148.977L60.7178 148.996C60.5562 149.021 60.4118 149.073 60.2848 149.152C60.1572 149.227 60.0633 149.339 60.0029 149.487C59.9426 149.635 59.9304 149.829 59.9664 150.067L60.1739 151.445L59.7111 151.515ZM63.1825 151.059C62.9584 151.093 62.7513 151.077 62.5612 151.012C62.3747 150.946 62.2231 150.837 62.1064 150.686L62.1312 151.15L61.7125 151.213L61.1149 147.246L61.5777 147.177L61.8317 148.862C61.8999 148.717 62.0068 148.579 62.1523 148.448C62.3016 148.316 62.5029 148.232 62.7563 148.193C63.0281 148.153 63.2744 148.179 63.4952 148.274C63.7161 148.368 63.8979 148.515 64.0407 148.716C64.1872 148.915 64.2812 149.153 64.3227 149.428C64.3642 149.703 64.3444 149.958 64.2632 150.192C64.1851 150.422 64.0526 150.614 63.8658 150.77C63.682 150.922 63.4542 151.018 63.1825 151.059ZM63.0723 150.664C63.2559 150.637 63.4112 150.57 63.538 150.465C63.6643 150.355 63.7562 150.218 63.8138 150.051C63.8713 149.885 63.8846 149.699 63.8536 149.493C63.8226 149.287 63.7551 149.114 63.6511 148.971C63.547 148.829 63.4189 148.727 63.2666 148.663C63.1137 148.596 62.9455 148.576 62.7618 148.604C62.5782 148.632 62.4232 148.7 62.2969 148.809C62.1701 148.915 62.0779 149.051 62.0203 149.217C61.9628 149.384 61.9495 149.57 61.9805 149.775C62.0115 149.981 62.079 150.155 62.183 150.297C62.2871 150.439 62.4155 150.544 62.5684 150.611C62.7207 150.674 62.8886 150.692 63.0723 150.664ZM66.427 150.57C66.1699 150.609 65.9297 150.585 65.7063 150.499C65.4829 150.412 65.2946 150.271 65.1413 150.077C64.9911 149.878 64.8941 149.633 64.8504 149.343C64.8067 149.053 64.8294 148.792 64.9185 148.561C65.007 148.326 65.1453 148.134 65.3333 147.985C65.5249 147.836 65.7493 147.743 66.0064 147.704C66.2635 147.665 66.5037 147.689 66.7271 147.775C66.9505 147.862 67.1373 148.005 67.2875 148.204C67.4408 148.399 67.5393 148.641 67.583 148.931C67.6267 149.221 67.6043 149.484 67.5157 149.719C67.4266 149.95 67.2863 150.14 67.0946 150.289C66.9066 150.438 66.6841 150.532 66.427 150.57ZM66.3672 150.174C66.5252 150.15 66.6663 150.089 66.7906 149.991C66.9148 149.894 67.0076 149.762 67.0688 149.595C67.13 149.428 67.1435 149.23 67.1092 149.003C67.0749 148.775 67.0039 148.59 66.8962 148.449C66.7921 148.307 66.6663 148.207 66.5188 148.151C66.3713 148.094 66.2204 148.077 66.0662 148.1C65.9082 148.124 65.7671 148.185 65.6428 148.283C65.5186 148.38 65.4258 148.512 65.3646 148.679C65.3034 148.846 65.2899 149.044 65.3242 149.271C65.3585 149.499 65.4295 149.684 65.5372 149.825C65.645 149.967 65.7707 150.066 65.9146 150.123C66.0621 150.18 66.213 150.197 66.3672 150.174ZM68.4323 150.2L68.0206 147.468L68.4393 147.405L68.5407 147.891C68.6029 147.705 68.7091 147.55 68.8594 147.426C69.0098 147.302 69.1896 147.224 69.399 147.193C69.7222 147.144 69.9942 147.204 70.2151 147.374C70.4391 147.539 70.5818 147.826 70.6432 148.233L70.8839 149.831L70.4212 149.901L70.1879 148.353C70.1021 147.783 69.8242 147.534 69.3541 147.605C69.119 147.64 68.9355 147.756 68.8036 147.953C68.6748 148.145 68.6342 148.399 68.6818 148.715L68.8951 150.131L68.4323 150.2ZM74.7719 149.313C74.3936 149.37 74.0543 149.337 73.7539 149.213C73.4567 149.085 73.2104 148.883 73.0149 148.609C72.819 148.33 72.6911 147.992 72.6313 147.596C72.5721 147.203 72.5954 146.846 72.7012 146.526C72.8064 146.202 72.9821 145.935 73.2285 145.725C73.4785 145.515 73.7926 145.381 74.1709 145.324C74.6117 145.258 74.9858 145.31 75.2934 145.482C75.6041 145.649 75.8265 145.916 75.9606 146.283L75.4482 146.36C75.3535 146.13 75.2035 145.957 74.9983 145.842C74.7962 145.722 74.5409 145.685 74.2324 145.732C73.9569 145.773 73.726 145.874 73.5397 146.033C73.3528 146.189 73.2205 146.395 73.1426 146.651C73.0678 146.903 73.0553 147.194 73.1051 147.524C73.1549 147.855 73.2529 148.131 73.3991 148.353C73.5484 148.571 73.7355 148.729 73.9606 148.827C74.1851 148.921 74.435 148.947 74.7105 148.905C75.019 148.859 75.2527 148.752 75.4117 148.585C75.5737 148.415 75.6664 148.207 75.6898 147.963L76.2022 147.886C76.1809 148.269 76.0465 148.586 75.7989 148.837C75.555 149.088 75.2127 149.247 74.7719 149.313ZM77.0082 148.908L76.5965 146.176L77.0152 146.113L77.1326 146.63C77.19 146.438 77.297 146.275 77.4535 146.142C77.6101 146.01 77.8151 145.925 78.0685 145.886L78.1416 146.371L78.0149 146.39C77.8533 146.415 77.7089 146.466 77.5819 146.546C77.4543 146.621 77.3603 146.733 77.3 146.881C77.2397 147.029 77.2275 147.223 77.2635 147.461L77.471 148.839L77.0082 148.908ZM80.1459 148.503C79.8852 148.542 79.6449 148.519 79.4252 148.431C79.2049 148.341 79.02 148.198 78.8704 148.002C78.7244 147.807 78.6296 147.563 78.5859 147.273C78.5427 146.987 78.562 146.729 78.6437 146.498C78.725 146.264 78.8577 146.074 79.042 145.926C79.2294 145.773 79.4572 145.677 79.7253 145.637C79.9897 145.597 80.2266 145.623 80.4358 145.716C80.6482 145.804 80.8205 145.937 80.9527 146.117C81.0848 146.296 81.1678 146.497 81.2015 146.721C81.2076 146.762 81.2119 146.803 81.2143 146.844C81.2204 146.884 81.2273 146.93 81.235 146.981L79.0589 147.309C79.1015 147.517 79.1755 147.684 79.281 147.811C79.3896 147.934 79.5135 148.02 79.6525 148.07C79.7953 148.12 79.9401 148.134 80.087 148.112C80.278 148.083 80.4311 148.015 80.5464 147.908C80.6616 147.8 80.7373 147.667 80.7734 147.507L81.2307 147.438C81.1954 147.703 81.0858 147.935 80.9019 148.136C80.7211 148.332 80.4691 148.455 80.1459 148.503ZM79.7732 146.03C79.5529 146.063 79.3666 146.16 79.2144 146.322C79.0654 146.48 78.9974 146.689 79.0104 146.95L80.7293 146.691C80.6812 146.447 80.5677 146.267 80.3887 146.151C80.2098 146.035 80.0046 145.995 79.7732 146.03ZM83.2936 148.029C83.0218 148.07 82.7736 148.043 82.5491 147.95C82.3283 147.855 82.1447 147.708 81.9981 147.509C81.8553 147.308 81.7631 147.071 81.7216 146.795C81.6801 146.52 81.7003 146.267 81.782 146.037C81.8632 145.803 81.9957 145.61 82.1794 145.459C82.3626 145.303 82.592 145.205 82.8674 145.163C83.0915 145.13 83.2967 145.146 83.4832 145.211C83.6696 145.277 83.8231 145.386 83.9435 145.536L83.6886 143.845L84.1514 143.775L84.7491 147.742L84.3304 147.805L84.2182 147.36C84.15 147.506 84.0413 147.644 83.892 147.775C83.7428 147.907 83.5433 147.991 83.2936 148.029ZM83.2825 147.619C83.4662 147.592 83.6214 147.525 83.7483 147.42C83.8782 147.31 83.9702 147.172 84.024 147.006C84.0816 146.84 84.0949 146.654 84.0639 146.448C84.0329 146.242 83.9654 146.068 83.8613 145.926C83.761 145.784 83.6328 145.681 83.4768 145.618C83.324 145.551 83.1557 145.531 82.9721 145.559C82.7921 145.586 82.6372 145.654 82.5072 145.764C82.3804 145.87 82.2882 146.006 82.2306 146.172C82.1767 146.338 82.1653 146.524 82.1963 146.729C82.2273 146.935 82.2929 147.109 82.3933 147.252C82.4973 147.394 82.6258 147.499 82.7786 147.566C82.9346 147.629 83.1026 147.646 83.2825 147.619ZM85.2814 144.247C85.1896 144.261 85.108 144.244 85.0367 144.194C84.9685 144.141 84.9275 144.068 84.9137 143.976C84.9004 143.888 84.9187 143.81 84.9686 143.742C85.0222 143.674 85.0949 143.633 85.1868 143.619C85.2749 143.606 85.3546 143.624 85.4259 143.673C85.4972 143.723 85.5395 143.792 85.5528 143.88C85.5666 143.972 85.547 144.053 85.494 144.125C85.4404 144.193 85.3695 144.234 85.2814 144.247ZM85.553 147.621L85.1413 144.888L85.6041 144.819L86.0158 147.551L85.553 147.621ZM87.9014 147.267C87.6516 147.305 87.446 147.274 87.2845 147.174C87.123 147.074 87.0185 146.867 86.9709 146.551L86.7442 145.047L86.2705 145.118L86.2115 144.727L86.6853 144.656L86.6471 143.991L87.0493 143.93L87.1481 144.586L87.9524 144.465L88.0114 144.856L87.207 144.977L87.4336 146.481C87.4596 146.654 87.5122 146.766 87.5914 146.818C87.6701 146.866 87.7975 146.877 87.9738 146.85L88.2603 146.807L88.3201 147.204L87.9014 147.267Z" fill="#DEDEDE"/>
<path d="M39.4374 162.739L39.3643 161.716L38.6312 162.415L38.339 162.046L39.1972 161.504L38.2251 161.245L38.3845 160.822L39.3042 161.272L39.0592 160.274L39.5088 160.207L39.562 161.233L40.3017 160.533L40.5711 160.885L39.7205 161.432L40.7002 161.697L40.5408 162.12L39.6287 161.676L39.8737 162.674L39.4374 162.739ZM42.5944 162.264L42.5214 161.24L41.7882 161.939L41.4961 161.57L42.3543 161.029L41.3822 160.769L41.5416 160.347L42.4612 160.796L42.2163 159.799L42.6658 159.731L42.7191 160.757L43.4588 160.058L43.7281 160.409L42.8775 160.957L43.8572 161.221L43.6978 161.644L42.7858 161.2L43.0308 162.198L42.5944 162.264ZM45.7515 161.788L45.6784 160.764L44.9453 161.463L44.6531 161.095L45.5113 160.553L44.5392 160.294L44.6986 159.871L45.6183 160.321L45.3733 159.323L45.8229 159.255L45.8761 160.282L46.6158 159.582L46.8852 159.934L46.0346 160.481L47.0143 160.746L46.8549 161.169L45.9429 160.725L46.1878 161.722L45.7515 161.788ZM48.9085 161.312L48.8355 160.289L48.1023 160.987L47.8102 160.619L48.6684 160.077L47.6963 159.818L47.8557 159.395L48.7753 159.845L48.5304 158.847L48.9799 158.78L49.0332 159.806L49.7729 159.106L50.0422 159.458L49.1917 160.005L50.1714 160.27L50.012 160.693L49.0999 160.249L49.3449 161.247L48.9085 161.312ZM52.0656 160.837L51.9925 159.813L51.2594 160.512L50.9673 160.143L51.8254 159.602L50.8533 159.342L51.0127 158.92L51.9324 159.369L51.6874 158.372L52.137 158.304L52.1902 159.33L52.93 158.631L53.1993 158.982L52.3487 159.53L53.3284 159.794L53.169 160.217L52.257 159.773L52.5019 160.771L52.0656 160.837ZM55.2226 160.361L55.1496 159.337L54.4165 160.036L54.1243 159.668L54.9825 159.126L54.0104 158.867L54.1698 158.444L55.0894 158.894L54.8445 157.896L55.294 157.828L55.3473 158.855L56.087 158.155L56.3563 158.507L55.5058 159.054L56.4855 159.319L56.3261 159.742L55.414 159.298L55.659 160.295L55.2226 160.361ZM60.8647 161.945C60.565 161.99 60.3183 161.953 60.1245 161.833C59.9307 161.714 59.8052 161.464 59.7481 161.085L59.4762 159.281L58.9076 159.366L58.8369 158.897L59.4055 158.811L59.3596 158.013L59.8423 157.941L59.9608 158.727L60.926 158.582L60.9967 159.051L60.0315 159.197L60.3035 161.002C60.3347 161.209 60.3978 161.344 60.4928 161.406C60.5872 161.464 60.7401 161.477 60.9517 161.445L61.2955 161.393L61.3672 161.869L60.8647 161.945ZM64.2002 161.523C63.7463 161.592 63.3391 161.552 62.9786 161.403C62.6219 161.25 62.3263 161.008 62.0918 160.678C61.8567 160.344 61.7032 159.939 61.6315 159.463C61.5605 158.991 61.5884 158.563 61.7153 158.179C61.8416 157.791 62.0525 157.47 62.3481 157.218C62.6481 156.966 63.0251 156.805 63.479 156.737C64.0079 156.657 64.4569 156.72 64.826 156.926C65.1988 157.127 65.4657 157.447 65.6266 157.887L65.0118 157.98C64.8981 157.704 64.7181 157.497 64.4719 157.358C64.2293 157.214 63.923 157.17 63.5528 157.226C63.2222 157.276 62.9451 157.397 62.7216 157.588C62.4973 157.775 62.3385 158.022 62.245 158.329C62.1553 158.631 62.1403 158.981 62.2001 159.377C62.2598 159.774 62.3774 160.105 62.5528 160.372C62.7319 160.634 62.9565 160.823 63.2266 160.94C63.496 161.053 63.796 161.084 64.1265 161.034C64.4967 160.978 64.7772 160.85 64.9679 160.65C65.1624 160.445 65.2736 160.196 65.3017 159.904L65.9165 159.811C65.891 160.27 65.7297 160.651 65.4326 160.952C65.1399 161.253 64.7291 161.444 64.2002 161.523ZM69.0311 160.796C68.5772 160.864 68.1634 160.825 67.7897 160.678C67.4198 160.527 67.1106 160.285 66.8622 159.953C66.6183 159.62 66.4608 159.218 66.3897 158.746C66.3187 158.274 66.351 157.846 66.4867 157.46C66.6262 157.07 66.8503 156.747 67.1592 156.493C67.4724 156.239 67.856 156.077 68.3099 156.009C68.7683 155.94 69.1825 155.981 69.5524 156.133C69.9267 156.284 70.2358 156.526 70.4798 156.859C70.7231 157.187 70.8803 157.587 70.9514 158.059C71.0224 158.53 70.9904 158.961 70.8553 159.351C70.7203 159.741 70.4961 160.063 70.1829 160.318C69.8734 160.567 69.4895 160.726 69.0311 160.796ZM68.9574 160.306C69.2968 160.255 69.583 160.135 69.816 159.947C70.0528 159.754 70.2205 159.505 70.319 159.202C70.4213 158.894 70.4426 158.541 70.3828 158.144C70.323 157.748 70.1992 157.419 70.0112 157.159C69.8277 156.898 69.5946 156.713 69.312 156.602C69.0331 156.486 68.724 156.454 68.3847 156.505C68.0453 156.556 67.7572 156.678 67.5204 156.872C67.2874 157.06 67.1194 157.306 67.0164 157.61C66.9179 157.914 66.8985 158.264 66.9583 158.66C67.018 159.057 67.14 159.388 67.3242 159.653C67.5122 159.913 67.7456 160.101 68.0244 160.217C68.3071 160.328 68.618 160.357 68.9574 160.306ZM71.9187 160.279L71.8599 159.889C72.1356 159.595 72.3934 159.302 72.6332 159.009C72.8768 158.711 73.0879 158.422 73.2667 158.143C73.4499 157.862 73.5853 157.594 73.6728 157.338C73.7648 157.08 73.7941 156.842 73.7609 156.621C73.7364 156.458 73.6848 156.31 73.6063 156.178C73.5321 156.045 73.427 155.946 73.291 155.881C73.1543 155.811 72.9802 155.792 72.7686 155.824C72.5659 155.855 72.4032 155.926 72.2805 156.04C72.1572 156.148 72.0715 156.283 72.0236 156.443C71.98 156.603 71.9712 156.769 71.9971 156.941L71.4616 157.022C71.4158 156.718 71.4405 156.448 71.5358 156.213C71.6304 155.973 71.7793 155.779 71.9824 155.632C72.1855 155.484 72.4259 155.389 72.7035 155.347C73.1134 155.285 73.466 155.352 73.7612 155.546C74.0602 155.735 74.2442 156.059 74.3133 156.518C74.3544 156.791 74.327 157.072 74.2308 157.362C74.1341 157.647 73.9988 157.931 73.8251 158.214C73.6507 158.493 73.4586 158.758 73.2488 159.011C73.0433 159.262 72.8499 159.49 72.6687 159.693L74.9033 159.356L74.973 159.819L71.9187 160.279ZM77.1181 159.577C76.8052 159.624 76.5169 159.596 76.2532 159.491C75.9889 159.382 75.767 159.21 75.5874 158.976C75.4123 158.741 75.2985 158.449 75.246 158.101C75.1942 157.757 75.2174 157.447 75.3155 157.171C75.4129 156.891 75.5722 156.662 75.7934 156.484C76.0183 156.301 76.2916 156.186 76.6133 156.137C76.9307 156.089 77.2149 156.121 77.466 156.232C77.7208 156.338 77.9276 156.498 78.0862 156.713C78.2448 156.928 78.3443 157.17 78.3848 157.439C78.3921 157.487 78.3972 157.536 78.4001 157.585C78.4074 157.634 78.4157 157.689 78.425 157.751L75.8136 158.144C75.8647 158.393 75.9536 158.594 76.0802 158.746C76.2105 158.893 76.3591 158.997 76.526 159.058C76.6973 159.118 76.8711 159.134 77.0474 159.108C77.2766 159.073 77.4603 158.991 77.5986 158.862C77.737 158.733 77.8278 158.573 77.871 158.382L78.4198 158.299C78.3774 158.617 78.2459 158.896 78.0253 159.136C77.8083 159.372 77.5059 159.519 77.1181 159.577ZM76.6708 156.609C76.4064 156.649 76.1829 156.766 76.0003 156.96C75.8215 157.149 75.7399 157.4 75.7555 157.713L77.8182 157.403C77.7605 157.109 77.6242 156.893 77.4095 156.754C77.1947 156.615 76.9485 156.567 76.6708 156.609Z" fill="#F1F1F1"/>
<path d="M143.774 138.848L143.193 134.992L143.655 134.922L144.181 138.409L145.977 138.139L146.033 138.508L143.774 138.848ZM147.777 138.312C147.52 138.351 147.28 138.327 147.057 138.241C146.833 138.154 146.645 138.014 146.492 137.819C146.341 137.62 146.244 137.375 146.201 137.085C146.157 136.795 146.18 136.534 146.269 136.303C146.357 136.068 146.496 135.876 146.684 135.728C146.875 135.579 147.1 135.485 147.357 135.446C147.614 135.407 147.854 135.431 148.077 135.518C148.301 135.604 148.488 135.747 148.638 135.946C148.791 136.141 148.89 136.383 148.933 136.673C148.977 136.963 148.955 137.226 148.866 137.461C148.777 137.692 148.637 137.882 148.445 138.032C148.257 138.18 148.034 138.274 147.777 138.312ZM147.718 137.916C147.876 137.892 148.017 137.831 148.141 137.734C148.265 137.636 148.358 137.504 148.419 137.337C148.48 137.17 148.494 136.972 148.46 136.745C148.425 136.517 148.354 136.332 148.247 136.191C148.142 136.049 148.017 135.949 147.869 135.893C147.722 135.836 147.571 135.819 147.417 135.843C147.259 135.866 147.117 135.927 146.993 136.025C146.869 136.122 146.776 136.255 146.715 136.422C146.654 136.589 146.64 136.786 146.675 137.014C146.709 137.241 146.78 137.426 146.888 137.568C146.995 137.709 147.121 137.808 147.265 137.866C147.412 137.922 147.563 137.939 147.718 137.916ZM151.049 137.82C150.788 137.859 150.544 137.835 150.317 137.749C150.093 137.659 149.904 137.517 149.751 137.322C149.601 137.123 149.504 136.88 149.461 136.594C149.418 136.307 149.439 136.049 149.525 135.818C149.613 135.583 149.751 135.391 149.939 135.243C150.13 135.09 150.356 134.994 150.617 134.955C150.94 134.906 151.225 134.95 151.471 135.085C151.72 135.22 151.896 135.425 151.997 135.699L151.523 135.77C151.461 135.607 151.351 135.49 151.194 135.42C151.037 135.346 150.862 135.323 150.671 135.352C150.517 135.375 150.378 135.436 150.254 135.533C150.129 135.631 150.037 135.763 149.975 135.93C149.914 136.097 149.901 136.295 149.935 136.522C149.969 136.75 150.04 136.935 150.148 137.076C150.256 137.218 150.384 137.319 150.532 137.379C150.679 137.436 150.83 137.452 150.984 137.429C151.175 137.4 151.335 137.329 151.465 137.216C151.594 137.099 151.664 136.951 151.674 136.773L152.148 136.702C152.134 136.985 152.029 137.231 151.831 137.437C151.633 137.643 151.372 137.771 151.049 137.82ZM152.925 137.469L152.327 133.503L152.79 133.433L153.149 135.818L154.094 134.498L154.662 134.413L153.635 135.83L155.228 137.122L154.638 137.211L153.174 135.984L153.387 137.4L152.925 137.469ZM156.74 136.962C156.479 137.001 156.239 136.977 156.02 136.89C155.799 136.799 155.614 136.656 155.465 136.461C155.319 136.265 155.224 136.022 155.18 135.732C155.137 135.446 155.156 135.187 155.238 134.957C155.319 134.723 155.452 134.532 155.636 134.384C155.824 134.232 156.052 134.136 156.32 134.095C156.584 134.056 156.821 134.082 157.03 134.174C157.243 134.263 157.415 134.396 157.547 134.575C157.679 134.755 157.762 134.956 157.796 135.18C157.802 135.221 157.806 135.261 157.809 135.302C157.815 135.343 157.822 135.389 157.829 135.44L155.653 135.768C155.696 135.976 155.77 136.143 155.875 136.27C155.984 136.392 156.108 136.479 156.247 136.529C156.39 136.579 156.534 136.593 156.681 136.571C156.872 136.542 157.025 136.474 157.141 136.366C157.256 136.259 157.332 136.125 157.368 135.966L157.825 135.897C157.79 136.162 157.68 136.394 157.496 136.595C157.315 136.791 157.063 136.913 156.74 136.962ZM156.368 134.488C156.147 134.522 155.961 134.619 155.809 134.781C155.66 134.939 155.592 135.148 155.605 135.409L157.324 135.15C157.276 134.906 157.162 134.725 156.983 134.61C156.804 134.494 156.599 134.453 156.368 134.488ZM159.888 136.488C159.616 136.529 159.368 136.502 159.143 136.408C158.923 136.314 158.739 136.167 158.592 135.967C158.45 135.767 158.357 135.529 158.316 135.254C158.274 134.979 158.295 134.726 158.376 134.496C158.458 134.262 158.59 134.069 158.774 133.917C158.957 133.762 159.186 133.664 159.462 133.622C159.686 133.588 159.891 133.604 160.078 133.67C160.264 133.736 160.417 133.844 160.538 133.995L160.283 132.304L160.746 132.234L161.343 136.201L160.925 136.264L160.813 135.819C160.744 135.964 160.636 136.103 160.486 136.234C160.337 136.366 160.138 136.45 159.888 136.488ZM159.877 136.078C160.061 136.05 160.216 135.984 160.343 135.878C160.473 135.769 160.564 135.631 160.618 135.465C160.676 135.298 160.689 135.112 160.658 134.907C160.627 134.701 160.56 134.527 160.456 134.385C160.355 134.242 160.227 134.14 160.071 134.077C159.918 134.01 159.75 133.99 159.566 134.018C159.386 134.045 159.232 134.113 159.102 134.223C158.975 134.328 158.883 134.464 158.825 134.631C158.771 134.797 158.76 134.982 158.791 135.188C158.822 135.394 158.887 135.568 158.988 135.711C159.092 135.853 159.22 135.957 159.373 136.024C159.529 136.087 159.697 136.105 159.877 136.078ZM165.285 135.675C164.906 135.732 164.567 135.698 164.267 135.574C163.969 135.446 163.723 135.245 163.528 134.97C163.332 134.692 163.204 134.354 163.144 133.957C163.085 133.564 163.108 133.208 163.214 132.888C163.319 132.564 163.495 132.297 163.741 132.087C163.991 131.877 164.305 131.743 164.684 131.686C165.124 131.619 165.499 131.672 165.806 131.844C166.117 132.011 166.339 132.278 166.473 132.645L165.961 132.722C165.866 132.492 165.716 132.319 165.511 132.204C165.309 132.084 165.054 132.047 164.745 132.094C164.47 132.135 164.239 132.236 164.052 132.395C163.866 132.551 163.733 132.757 163.655 133.013C163.581 133.264 163.568 133.556 163.618 133.886C163.668 134.217 163.766 134.493 163.912 134.715C164.061 134.933 164.248 135.091 164.473 135.188C164.698 135.282 164.948 135.308 165.223 135.267C165.532 135.22 165.765 135.114 165.924 134.947C166.086 134.776 166.179 134.569 166.203 134.325L166.715 134.248C166.694 134.63 166.559 134.947 166.312 135.199C166.068 135.45 165.725 135.608 165.285 135.675ZM168.44 135.199C168.212 135.233 168.017 135.223 167.855 135.169C167.693 135.115 167.565 135.029 167.472 134.911C167.38 134.794 167.322 134.66 167.299 134.509C167.257 134.23 167.331 133.999 167.522 133.816C167.712 133.634 167.991 133.515 168.358 133.459L169.096 133.348L169.091 133.315C169.055 133.076 168.966 132.906 168.823 132.803C168.679 132.697 168.502 132.66 168.293 132.691C168.113 132.719 167.964 132.788 167.846 132.9C167.73 133.007 167.669 133.15 167.662 133.327L167.188 133.399C167.177 133.198 167.218 133.021 167.311 132.868C167.408 132.714 167.538 132.589 167.7 132.494C167.861 132.394 168.039 132.33 168.234 132.3C168.616 132.243 168.918 132.302 169.14 132.479C169.365 132.652 169.503 132.907 169.554 133.245L169.807 134.926L169.394 134.988L169.293 134.502C169.239 134.667 169.145 134.817 169.011 134.95C168.88 135.078 168.69 135.162 168.44 135.199ZM168.453 134.797C168.629 134.771 168.773 134.702 168.884 134.591C168.998 134.48 169.078 134.346 169.122 134.189C169.166 134.032 169.175 133.873 169.151 133.712L169.15 133.706L168.451 133.812C168.179 133.852 167.993 133.929 167.894 134.042C167.797 134.15 167.76 134.274 167.781 134.414C167.802 134.557 167.871 134.665 167.987 134.738C168.107 134.806 168.262 134.826 168.453 134.797ZM170.502 134.821L170.09 132.088L170.509 132.025L170.626 132.543C170.683 132.35 170.79 132.188 170.947 132.055C171.103 131.922 171.308 131.837 171.562 131.799L171.635 132.284L171.508 132.303C171.347 132.327 171.202 132.379 171.075 132.458C170.948 132.534 170.854 132.646 170.793 132.794C170.733 132.942 170.721 133.135 170.757 133.374L170.964 134.751L170.502 134.821ZM173.973 134.366C173.749 134.399 173.542 134.384 173.352 134.318C173.165 134.252 173.014 134.144 172.897 133.992L172.922 134.456L172.503 134.519L171.905 130.553L172.368 130.483L172.622 132.169C172.69 132.023 172.797 131.885 172.943 131.754C173.092 131.623 173.293 131.538 173.547 131.5C173.818 131.459 174.065 131.486 174.286 131.58C174.506 131.675 174.688 131.822 174.831 132.022C174.978 132.221 175.072 132.459 175.113 132.734C175.155 133.01 175.135 133.265 175.054 133.498C174.975 133.728 174.843 133.921 174.656 134.077C174.472 134.228 174.245 134.325 173.973 134.366ZM173.863 133.971C174.046 133.943 174.202 133.877 174.328 133.771C174.455 133.662 174.547 133.524 174.604 133.358C174.662 133.191 174.675 133.005 174.644 132.799C174.613 132.594 174.546 132.42 174.441 132.278C174.337 132.136 174.209 132.033 174.057 131.97C173.904 131.902 173.736 131.883 173.552 131.91C173.369 131.938 173.214 132.006 173.087 132.116C172.96 132.221 172.868 132.357 172.811 132.524C172.753 132.69 172.74 132.876 172.771 133.082C172.802 133.287 172.869 133.461 172.973 133.603C173.077 133.745 173.206 133.85 173.359 133.917C173.511 133.981 173.679 133.998 173.863 133.971ZM177.217 133.877C176.96 133.915 176.72 133.891 176.497 133.805C176.273 133.718 176.085 133.578 175.932 133.383C175.781 133.184 175.685 132.939 175.641 132.649C175.597 132.359 175.62 132.098 175.709 131.867C175.797 131.632 175.936 131.44 176.124 131.292C176.315 131.143 176.54 131.049 176.797 131.01C177.054 130.971 177.294 130.995 177.517 131.082C177.741 131.168 177.928 131.311 178.078 131.51C178.231 131.705 178.33 131.947 178.373 132.238C178.417 132.528 178.395 132.79 178.306 133.025C178.217 133.257 178.077 133.447 177.885 133.596C177.697 133.744 177.474 133.838 177.217 133.877ZM177.158 133.48C177.316 133.456 177.457 133.395 177.581 133.298C177.705 133.2 177.798 133.068 177.859 132.901C177.92 132.734 177.934 132.537 177.9 132.309C177.865 132.081 177.794 131.897 177.687 131.755C177.582 131.613 177.457 131.514 177.309 131.457C177.162 131.4 177.011 131.384 176.857 131.407C176.699 131.431 176.558 131.491 176.433 131.589C176.309 131.687 176.216 131.819 176.155 131.986C176.094 132.153 176.08 132.35 176.115 132.578C176.149 132.806 176.22 132.99 176.328 133.132C176.435 133.273 176.561 133.373 176.705 133.43C176.852 133.487 177.003 133.503 177.158 133.48ZM179.223 133.507L178.811 130.774L179.23 130.711L179.331 131.197C179.393 131.011 179.499 130.857 179.65 130.732C179.8 130.608 179.98 130.531 180.189 130.499C180.513 130.45 180.785 130.511 181.005 130.68C181.229 130.846 181.372 131.132 181.434 131.54L181.674 133.138L181.212 133.207L180.978 131.659C180.893 131.09 180.615 130.841 180.144 130.911C179.909 130.947 179.726 131.063 179.594 131.259C179.465 131.451 179.425 131.705 179.472 132.021L179.685 133.437L179.223 133.507ZM185.562 132.619C185.184 132.676 184.845 132.643 184.544 132.519C184.247 132.391 184.001 132.19 183.805 131.915C183.609 131.636 183.481 131.299 183.422 130.902C183.363 130.509 183.386 130.153 183.492 129.832C183.597 129.509 183.773 129.242 184.019 129.032C184.269 128.821 184.583 128.688 184.961 128.631C185.402 128.564 185.776 128.617 186.084 128.788C186.394 128.956 186.617 129.223 186.751 129.589L186.239 129.666C186.144 129.437 185.994 129.264 185.789 129.148C185.587 129.028 185.331 128.992 185.023 129.038C184.747 129.08 184.516 129.18 184.33 129.34C184.143 129.496 184.011 129.702 183.933 129.957C183.858 130.209 183.846 130.5 183.896 130.831C183.945 131.161 184.043 131.438 184.189 131.66C184.339 131.878 184.526 132.035 184.751 132.133C184.975 132.227 185.225 132.253 185.501 132.212C185.809 132.165 186.043 132.059 186.202 131.892C186.364 131.721 186.457 131.514 186.48 131.27L186.993 131.192C186.971 131.575 186.837 131.892 186.589 132.143C186.345 132.394 186.003 132.553 185.562 132.619ZM187.799 132.215L187.387 129.482L187.806 129.419L187.923 129.937C187.98 129.744 188.087 129.581 188.244 129.449C188.4 129.316 188.605 129.231 188.859 129.193L188.932 129.678L188.805 129.697C188.644 129.721 188.499 129.773 188.372 129.852C188.245 129.928 188.151 130.039 188.09 130.188C188.03 130.336 188.018 130.529 188.054 130.768L188.261 132.145L187.799 132.215ZM190.936 131.81C190.676 131.849 190.435 131.825 190.216 131.738C189.995 131.647 189.81 131.504 189.661 131.309C189.515 131.113 189.42 130.87 189.376 130.58C189.333 130.293 189.352 130.035 189.434 129.805C189.515 129.571 189.648 129.38 189.832 129.232C190.02 129.08 190.248 128.984 190.516 128.943C190.78 128.903 191.017 128.93 191.226 129.022C191.439 129.11 191.611 129.244 191.743 129.423C191.875 129.602 191.958 129.804 191.992 130.028C191.998 130.068 192.002 130.109 192.005 130.15C192.011 130.19 192.018 130.236 192.025 130.288L189.849 130.616C189.892 130.823 189.966 130.99 190.071 131.117C190.18 131.24 190.304 131.326 190.443 131.377C190.586 131.427 190.73 131.441 190.877 131.418C191.068 131.39 191.222 131.322 191.337 131.214C191.452 131.106 191.528 130.973 191.564 130.814L192.021 130.745C191.986 131.009 191.876 131.242 191.692 131.442C191.512 131.638 191.26 131.761 190.936 131.81ZM190.564 129.336C190.343 129.369 190.157 129.467 190.005 129.629C189.856 129.786 189.788 129.996 189.801 130.257L191.52 129.998C191.472 129.753 191.358 129.573 191.179 129.457C191 129.342 190.795 129.301 190.564 129.336ZM194.084 131.335C193.812 131.376 193.564 131.35 193.34 131.256C193.119 131.161 192.935 131.015 192.789 130.815C192.646 130.615 192.554 130.377 192.512 130.102C192.471 129.826 192.491 129.573 192.572 129.343C192.654 129.109 192.786 128.917 192.97 128.765C193.153 128.61 193.382 128.511 193.658 128.47C193.882 128.436 194.087 128.452 194.274 128.518C194.46 128.584 194.613 128.692 194.734 128.843L194.479 127.151L194.942 127.082L195.539 131.048L195.121 131.112L195.009 130.666C194.94 130.812 194.832 130.95 194.682 131.082C194.533 131.213 194.334 131.298 194.084 131.335ZM194.073 130.926C194.257 130.898 194.412 130.831 194.539 130.726C194.669 130.616 194.761 130.478 194.814 130.313C194.872 130.146 194.885 129.96 194.854 129.754C194.823 129.549 194.756 129.375 194.652 129.233C194.551 129.09 194.423 128.987 194.267 128.924C194.114 128.857 193.946 128.838 193.762 128.865C193.583 128.892 193.428 128.961 193.298 129.071C193.171 129.176 193.079 129.312 193.021 129.478C192.967 129.644 192.956 129.83 192.987 130.036C193.018 130.241 193.083 130.416 193.184 130.558C193.288 130.7 193.416 130.805 193.569 130.872C193.725 130.935 193.893 130.953 194.073 130.926ZM196.072 127.554C195.98 127.568 195.898 127.55 195.827 127.501C195.759 127.447 195.718 127.374 195.704 127.282C195.691 127.194 195.709 127.116 195.759 127.049C195.813 126.981 195.885 126.94 195.977 126.926C196.065 126.912 196.145 126.931 196.216 126.98C196.288 127.029 196.33 127.098 196.343 127.186C196.357 127.278 196.337 127.36 196.284 127.432C196.231 127.5 196.16 127.541 196.072 127.554ZM196.343 130.927L195.932 128.195L196.394 128.125L196.806 130.858L196.343 130.927ZM198.692 130.573C198.442 130.611 198.236 130.58 198.075 130.48C197.913 130.381 197.809 130.173 197.761 129.857L197.535 128.353L197.061 128.425L197.002 128.033L197.476 127.962L197.438 127.297L197.84 127.237L197.938 127.892L198.743 127.771L198.802 128.162L197.997 128.283L198.224 129.788C198.25 129.96 198.303 130.072 198.382 130.124C198.46 130.173 198.588 130.183 198.764 130.157L199.051 130.114L199.11 130.51L198.692 130.573Z" fill="#DEDEDE"/>
<path d="M146.957 149.054C146.653 149.099 146.371 149.086 146.112 149.012C145.853 148.934 145.637 148.806 145.466 148.629C145.299 148.447 145.196 148.224 145.156 147.959C145.113 147.677 145.157 147.411 145.286 147.162C145.42 146.912 145.617 146.729 145.879 146.613C145.616 146.567 145.401 146.462 145.237 146.297C145.072 146.133 144.973 145.94 144.94 145.72C144.906 145.495 144.935 145.281 145.026 145.078C145.117 144.871 145.264 144.695 145.467 144.552C145.671 144.409 145.927 144.314 146.236 144.267C146.544 144.221 146.817 144.236 147.054 144.313C147.291 144.39 147.483 144.514 147.631 144.686C147.778 144.853 147.868 145.049 147.902 145.274C147.935 145.49 147.897 145.703 147.789 145.913C147.68 146.119 147.506 146.282 147.268 146.404C147.552 146.438 147.793 146.555 147.99 146.755C148.191 146.954 148.313 147.195 148.356 147.477C148.396 147.742 148.36 147.986 148.25 148.21C148.143 148.429 147.977 148.614 147.752 148.765C147.526 148.912 147.261 149.008 146.957 149.054ZM146.544 146.31C146.826 146.268 147.038 146.163 147.179 145.998C147.325 145.827 147.38 145.625 147.345 145.391C147.306 145.131 147.195 144.948 147.012 144.84C146.829 144.732 146.594 144.7 146.308 144.743C146.021 144.786 145.806 144.886 145.663 145.043C145.524 145.199 145.475 145.407 145.514 145.667C145.549 145.901 145.659 146.078 145.844 146.199C146.028 146.316 146.262 146.353 146.544 146.31ZM146.883 148.564C147.231 148.512 147.48 148.393 147.628 148.209C147.779 148.019 147.835 147.792 147.795 147.528C147.75 147.228 147.621 147.015 147.408 146.89C147.196 146.764 146.931 146.725 146.613 146.773C146.296 146.821 146.054 146.936 145.888 147.119C145.722 147.302 145.661 147.543 145.706 147.843C145.746 148.107 145.864 148.308 146.061 148.445C146.261 148.577 146.535 148.617 146.883 148.564ZM151.27 148.404C150.86 148.466 150.49 148.42 150.161 148.267C149.835 148.108 149.566 147.863 149.353 147.53C149.14 147.192 148.998 146.785 148.926 146.309C148.854 145.833 148.871 145.405 148.976 145.024C149.08 144.639 149.265 144.325 149.53 144.082C149.799 143.834 150.139 143.679 150.549 143.617C150.958 143.556 151.326 143.604 151.652 143.762C151.977 143.916 152.247 144.162 152.46 144.499C152.672 144.832 152.814 145.237 152.886 145.713C152.958 146.189 152.941 146.619 152.837 147.005C152.732 147.386 152.547 147.7 152.283 147.947C152.017 148.19 151.68 148.342 151.27 148.404ZM151.196 147.915C151.465 147.874 151.694 147.763 151.883 147.581C152.076 147.394 152.21 147.151 152.287 146.851C152.367 146.546 152.377 146.195 152.317 145.798C152.258 145.402 152.145 145.072 151.979 144.808C151.817 144.544 151.617 144.353 151.379 144.236C151.144 144.114 150.892 144.073 150.623 144.113C150.35 144.154 150.119 144.268 149.931 144.454C149.742 144.636 149.607 144.877 149.526 145.178C149.445 145.478 149.435 145.827 149.494 146.224C149.554 146.62 149.667 146.953 149.834 147.221C150 147.484 150.2 147.677 150.435 147.799C150.669 147.917 150.923 147.956 151.196 147.915ZM153.479 148.794L153.643 147.276L154.218 147.189L153.863 148.737L153.479 148.794ZM156.829 147.566C156.419 147.628 156.049 147.582 155.719 147.429C155.393 147.271 155.124 147.025 154.912 146.692C154.699 146.355 154.556 145.948 154.485 145.472C154.413 144.996 154.429 144.567 154.534 144.187C154.639 143.801 154.823 143.487 155.089 143.244C155.358 142.996 155.697 142.842 156.107 142.78C156.517 142.718 156.885 142.766 157.211 142.925C157.536 143.078 157.805 143.324 158.018 143.662C158.231 143.995 158.373 144.399 158.445 144.875C158.516 145.351 158.5 145.782 158.396 146.167C158.291 146.548 158.106 146.862 157.841 147.109C157.576 147.352 157.238 147.505 156.829 147.566ZM156.755 147.077C157.024 147.037 157.253 146.925 157.442 146.744C157.634 146.557 157.769 146.314 157.845 146.014C157.926 145.708 157.936 145.358 157.876 144.961C157.816 144.564 157.703 144.234 157.538 143.971C157.376 143.707 157.176 143.516 156.938 143.399C156.703 143.276 156.451 143.235 156.182 143.276C155.909 143.317 155.678 143.431 155.49 143.617C155.301 143.798 155.166 144.04 155.085 144.34C155.004 144.641 154.993 144.99 155.053 145.386C155.113 145.783 155.226 146.115 155.393 146.383C155.559 146.647 155.759 146.839 155.994 146.962C156.228 147.08 156.482 147.118 156.755 147.077ZM161.412 146.876C161.002 146.937 160.633 146.892 160.303 146.739C159.977 146.58 159.708 146.335 159.496 146.002C159.283 145.664 159.14 145.257 159.068 144.781C158.997 144.305 159.013 143.877 159.118 143.496C159.222 143.111 159.407 142.797 159.673 142.554C159.942 142.306 160.281 142.151 160.691 142.089C161.101 142.027 161.469 142.076 161.795 142.234C162.12 142.388 162.389 142.633 162.602 142.971C162.815 143.304 162.957 143.709 163.028 144.185C163.1 144.661 163.084 145.091 162.98 145.477C162.875 145.857 162.69 146.172 162.425 146.419C162.16 146.662 161.822 146.814 161.412 146.876ZM161.339 146.386C161.608 146.346 161.836 146.235 162.025 146.053C162.218 145.866 162.353 145.623 162.429 145.323C162.509 145.018 162.52 144.667 162.46 144.27C162.4 143.874 162.287 143.544 162.121 143.28C161.96 143.016 161.76 142.825 161.521 142.708C161.287 142.585 161.035 142.545 160.766 142.585C160.493 142.626 160.262 142.74 160.074 142.926C159.885 143.108 159.75 143.349 159.669 143.65C159.588 143.95 159.577 144.299 159.637 144.696C159.697 145.092 159.81 145.425 159.977 145.692C160.142 145.956 160.343 146.149 160.578 146.271C160.812 146.389 161.065 146.428 161.339 146.386ZM165.996 146.185C165.586 146.247 165.217 146.201 164.887 146.048C164.561 145.89 164.292 145.644 164.08 145.311C163.866 144.973 163.724 144.567 163.652 144.091C163.581 143.615 163.597 143.186 163.702 142.805C163.806 142.42 163.991 142.106 164.256 141.863C164.526 141.615 164.865 141.46 165.275 141.399C165.685 141.337 166.053 141.385 166.379 141.543C166.704 141.697 166.973 141.943 167.186 142.28C167.399 142.613 167.541 143.018 167.612 143.494C167.684 143.97 167.668 144.401 167.564 144.786C167.459 145.167 167.274 145.481 167.009 145.728C166.744 145.971 166.406 146.123 165.996 146.185ZM165.923 145.696C166.191 145.655 166.42 145.544 166.609 145.362C166.802 145.176 166.937 144.932 167.013 144.632C167.093 144.327 167.104 143.976 167.044 143.58C166.984 143.183 166.871 142.853 166.705 142.589C166.544 142.325 166.344 142.135 166.105 142.017C165.87 141.895 165.619 141.854 165.35 141.894C165.077 141.936 164.846 142.049 164.657 142.235C164.468 142.417 164.333 142.658 164.253 142.959C164.172 143.26 164.161 143.608 164.221 144.005C164.281 144.402 164.394 144.734 164.56 145.002C164.726 145.265 164.927 145.458 165.161 145.581C165.396 145.699 165.649 145.737 165.923 145.696ZM171.776 145.233C171.476 145.278 171.229 145.241 171.035 145.121C170.842 145.002 170.716 144.753 170.659 144.374L170.387 142.569L169.819 142.654L169.748 142.185L170.316 142.099L170.271 141.302L170.753 141.229L170.872 142.016L171.837 141.87L171.908 142.34L170.942 142.485L171.214 144.29C171.246 144.497 171.309 144.632 171.404 144.694C171.498 144.752 171.651 144.765 171.863 144.733L172.206 144.681L172.278 145.157L171.776 145.233ZM175.111 144.812C174.657 144.88 174.25 144.84 173.89 144.691C173.533 144.538 173.237 144.296 173.003 143.966C172.768 143.632 172.614 143.227 172.542 142.751C172.471 142.28 172.499 141.852 172.626 141.467C172.752 141.079 172.963 140.759 173.259 140.507C173.559 140.254 173.936 140.094 174.39 140.025C174.919 139.946 175.368 140.009 175.737 140.214C176.11 140.415 176.377 140.736 176.538 141.176L175.923 141.268C175.809 140.992 175.629 140.785 175.383 140.646C175.14 140.503 174.834 140.459 174.464 140.514C174.133 140.564 173.856 140.685 173.632 140.876C173.408 141.063 173.249 141.31 173.156 141.617C173.066 141.919 173.051 142.269 173.111 142.665C173.171 143.062 173.288 143.394 173.464 143.66C173.643 143.922 173.867 144.111 174.137 144.228C174.407 144.341 174.707 144.372 175.037 144.322C175.408 144.267 175.688 144.139 175.879 143.939C176.073 143.734 176.185 143.485 176.213 143.192L176.827 143.099C176.802 143.558 176.641 143.939 176.344 144.241C176.051 144.542 175.64 144.732 175.111 144.812ZM179.942 144.084C179.488 144.152 179.074 144.113 178.701 143.967C178.331 143.815 178.022 143.573 177.773 143.241C177.529 142.908 177.372 142.506 177.301 142.034C177.23 141.563 177.262 141.134 177.398 140.748C177.537 140.358 177.761 140.036 178.07 139.782C178.383 139.527 178.767 139.366 179.221 139.297C179.679 139.228 180.093 139.27 180.463 139.421C180.838 139.572 181.147 139.814 181.391 140.147C181.634 140.475 181.791 140.875 181.862 141.347C181.933 141.818 181.901 142.249 181.766 142.639C181.631 143.029 181.407 143.351 181.094 143.606C180.784 143.855 180.4 144.015 179.942 144.084ZM179.868 143.595C180.208 143.543 180.494 143.424 180.727 143.235C180.964 143.042 181.131 142.793 181.23 142.49C181.332 142.182 181.353 141.829 181.294 141.433C181.234 141.036 181.11 140.707 180.922 140.447C180.739 140.186 180.506 140.001 180.223 139.89C179.944 139.774 179.635 139.742 179.296 139.793C178.956 139.844 178.668 139.967 178.431 140.16C178.198 140.348 178.03 140.595 177.927 140.899C177.829 141.202 177.809 141.552 177.869 141.949C177.929 142.345 178.051 142.676 178.235 142.941C178.423 143.202 178.656 143.389 178.935 143.505C179.218 143.616 179.529 143.646 179.868 143.595ZM182.83 143.568L182.771 143.178C183.047 142.884 183.304 142.59 183.544 142.297C183.788 141.999 183.999 141.71 184.178 141.431C184.361 141.151 184.496 140.882 184.584 140.626C184.676 140.369 184.705 140.13 184.672 139.909C184.647 139.746 184.596 139.599 184.517 139.466C184.443 139.333 184.338 139.234 184.202 139.169C184.065 139.099 183.891 139.08 183.68 139.112C183.477 139.143 183.314 139.215 183.191 139.328C183.068 139.437 182.982 139.571 182.934 139.732C182.891 139.891 182.882 140.057 182.908 140.229L182.373 140.31C182.327 140.006 182.351 139.736 182.447 139.501C182.541 139.261 182.69 139.068 182.893 138.92C183.096 138.772 183.337 138.677 183.614 138.635C184.024 138.574 184.377 138.64 184.672 138.834C184.971 139.024 185.155 139.348 185.224 139.806C185.265 140.079 185.238 140.36 185.142 140.65C185.045 140.935 184.91 141.219 184.736 141.502C184.562 141.781 184.37 142.046 184.16 142.299C183.954 142.551 183.761 142.778 183.58 142.981L185.814 142.645L185.884 143.107L182.83 143.568ZM188.029 142.865C187.716 142.912 187.428 142.884 187.164 142.779C186.9 142.67 186.678 142.499 186.498 142.264C186.323 142.029 186.209 141.738 186.157 141.389C186.105 141.046 186.128 140.736 186.226 140.459C186.324 140.179 186.483 139.95 186.704 139.772C186.929 139.59 187.203 139.474 187.524 139.426C187.842 139.378 188.126 139.409 188.377 139.52C188.632 139.626 188.838 139.786 188.997 140.001C189.156 140.216 189.255 140.458 189.296 140.727C189.303 140.776 189.308 140.824 189.311 140.874C189.318 140.922 189.327 140.977 189.336 141.039L186.725 141.432C186.776 141.682 186.864 141.882 186.991 142.035C187.121 142.182 187.27 142.285 187.437 142.346C187.608 142.406 187.782 142.422 187.958 142.396C188.187 142.361 188.371 142.28 188.51 142.151C188.648 142.022 188.739 141.861 188.782 141.67L189.331 141.587C189.288 141.905 189.157 142.184 188.936 142.424C188.719 142.66 188.417 142.807 188.029 142.865ZM187.582 139.897C187.317 139.937 187.094 140.054 186.911 140.248C186.732 140.437 186.651 140.688 186.666 141.002L188.729 140.691C188.671 140.398 188.535 140.181 188.32 140.043C188.106 139.904 187.859 139.855 187.582 139.897Z" fill="#F1F1F1"/>
<path d="M140.033 103.875C139.689 103.927 139.38 103.898 139.107 103.787C138.836 103.672 138.612 103.491 138.436 103.243C138.259 102.992 138.145 102.69 138.091 102.336C138.037 101.979 138.058 101.656 138.153 101.367C138.248 101.076 138.408 100.835 138.633 100.645C138.862 100.455 139.148 100.334 139.492 100.282C139.899 100.221 140.247 100.27 140.534 100.43C140.822 100.59 141.028 100.843 141.151 101.19L140.566 101.278C140.489 101.083 140.366 100.937 140.196 100.841C140.025 100.745 139.813 100.716 139.558 100.755C139.211 100.807 138.954 100.967 138.788 101.236C138.622 101.501 138.57 101.841 138.632 102.254C138.694 102.665 138.843 102.972 139.081 103.176C139.318 103.381 139.61 103.457 139.957 103.405C140.212 103.366 140.407 103.279 140.542 103.144C140.678 103.009 140.754 102.84 140.771 102.638L141.356 102.549C141.339 102.904 141.215 103.198 140.987 103.432C140.758 103.666 140.44 103.814 140.033 103.875ZM142.914 103.441C142.706 103.473 142.529 103.464 142.383 103.415C142.236 103.366 142.122 103.29 142.039 103.187C141.955 103.082 141.903 102.961 141.883 102.825C141.847 102.587 141.911 102.385 142.075 102.218C142.24 102.051 142.494 101.941 142.838 101.89L143.483 101.792L143.476 101.748C143.447 101.556 143.373 101.42 143.252 101.34C143.135 101.259 142.994 101.232 142.829 101.257C142.683 101.279 142.561 101.334 142.463 101.423C142.368 101.509 142.319 101.623 142.317 101.765L141.791 101.844C141.78 101.663 141.817 101.502 141.901 101.361C141.987 101.216 142.105 101.098 142.253 101.008C142.405 100.914 142.577 100.853 142.769 100.824C143.113 100.772 143.393 100.823 143.609 100.977C143.824 101.127 143.955 101.358 144.002 101.668L144.23 103.182L143.774 103.251L143.666 102.836C143.617 102.982 143.533 103.111 143.414 103.224C143.296 103.336 143.129 103.409 142.914 103.441ZM142.954 102.999C143.097 102.977 143.211 102.926 143.297 102.846C143.385 102.761 143.448 102.659 143.484 102.538C143.523 102.417 143.539 102.288 143.532 102.15L142.946 102.239C142.738 102.27 142.594 102.329 142.516 102.415C142.441 102.501 142.412 102.598 142.428 102.708C142.445 102.82 142.5 102.903 142.593 102.957C142.688 103.007 142.809 103.021 142.954 102.999ZM144.844 103.09L144.473 100.628L144.944 100.557L145.059 101.017C145.121 100.842 145.221 100.697 145.359 100.581C145.5 100.462 145.68 100.385 145.898 100.353L145.981 100.903L145.837 100.925C145.692 100.947 145.565 100.992 145.456 101.059C145.351 101.122 145.272 101.217 145.22 101.343C145.171 101.465 145.161 101.628 145.192 101.829L145.37 103.01L144.844 103.09ZM148.122 102.657C147.931 102.685 147.754 102.673 147.594 102.619C147.437 102.565 147.305 102.475 147.198 102.349L147.2 102.735L146.729 102.806L146.191 99.2326L146.717 99.1533L146.942 100.647C147.004 100.519 147.097 100.4 147.223 100.29C147.348 100.18 147.52 100.108 147.739 100.075C147.977 100.039 148.195 100.064 148.394 100.149C148.593 100.234 148.759 100.367 148.891 100.546C149.026 100.725 149.112 100.939 149.15 101.187C149.187 101.435 149.167 101.665 149.091 101.876C149.017 102.084 148.898 102.257 148.733 102.397C148.567 102.534 148.364 102.62 148.122 102.657ZM147.964 102.213C148.189 102.18 148.363 102.076 148.486 101.901C148.608 101.724 148.65 101.511 148.613 101.263C148.588 101.101 148.534 100.962 148.449 100.846C148.363 100.731 148.258 100.647 148.132 100.595C148.005 100.539 147.865 100.523 147.713 100.546C147.488 100.58 147.315 100.686 147.192 100.863C147.074 101.04 147.033 101.251 147.07 101.496C147.107 101.744 147.208 101.935 147.374 102.069C147.543 102.199 147.739 102.247 147.964 102.213ZM151.063 102.213C150.829 102.249 150.609 102.228 150.404 102.15C150.203 102.069 150.033 101.941 149.895 101.765C149.756 101.587 149.667 101.368 149.628 101.11C149.59 100.852 149.61 100.619 149.691 100.41C149.774 100.198 149.901 100.025 150.074 99.8909C150.246 99.7533 150.448 99.667 150.68 99.6321C150.915 99.5967 151.133 99.6197 151.335 99.7009C151.539 99.7784 151.711 99.9065 151.849 100.085C151.991 100.26 152.081 100.477 152.12 100.735C152.159 100.993 152.136 101.228 152.053 101.44C151.973 101.648 151.847 101.821 151.675 101.959C151.502 102.093 151.298 102.178 151.063 102.213ZM150.995 101.762C151.121 101.743 151.232 101.694 151.329 101.615C151.428 101.536 151.502 101.43 151.55 101.298C151.597 101.162 151.607 101.002 151.579 100.816C151.551 100.631 151.495 100.482 151.41 100.37C151.328 100.253 151.228 100.172 151.109 100.126C150.994 100.079 150.873 100.065 150.748 100.084C150.622 100.103 150.509 100.152 150.41 100.231C150.313 100.31 150.241 100.417 150.194 100.553C150.146 100.685 150.136 100.844 150.164 101.029C150.192 101.215 150.249 101.365 150.334 101.481C150.419 101.593 150.519 101.673 150.634 101.72C150.749 101.767 150.87 101.781 150.995 101.762ZM152.874 101.88L152.503 99.4183L152.97 99.348L153.074 99.7738C153.127 99.6101 153.22 99.4743 153.353 99.3664C153.488 99.2546 153.652 99.1843 153.844 99.1554C154.142 99.1105 154.389 99.168 154.586 99.3278C154.785 99.4872 154.913 99.7505 154.968 100.118L155.182 101.532L154.66 101.611L154.456 100.251C154.384 99.7744 154.153 99.5656 153.762 99.6244C153.567 99.6538 153.416 99.7477 153.307 99.9061C153.203 100.064 153.17 100.272 153.209 100.53L153.4 101.8L152.874 101.88ZM158.629 101.074C158.285 101.125 157.976 101.096 157.702 100.985C157.431 100.87 157.207 100.689 157.031 100.441C156.855 100.19 156.74 99.8881 156.686 99.5341C156.632 99.1768 156.653 98.8539 156.748 98.5655C156.843 98.2738 157.003 98.0331 157.228 97.8435C157.457 97.6535 157.743 97.5325 158.087 97.4807C158.494 97.4194 158.842 97.4685 159.13 97.6281C159.418 97.7878 159.623 98.041 159.746 98.3878L159.161 98.4761C159.084 98.2812 158.961 98.1357 158.791 98.0396C158.62 97.9434 158.408 97.9145 158.153 97.9529C157.806 98.0052 157.549 98.1657 157.383 98.4343C157.217 98.6996 157.165 99.039 157.227 99.4526C157.289 99.8628 157.439 100.17 157.676 100.375C157.913 100.579 158.205 100.655 158.553 100.603C158.807 100.565 159.002 100.478 159.138 100.342C159.273 100.207 159.349 100.038 159.366 99.8358L159.951 99.7476C159.934 100.102 159.811 100.396 159.582 100.63C159.353 100.865 159.036 101.012 158.629 101.074ZM160.667 100.706L160.296 98.2442L160.767 98.1731L160.882 98.6329C160.944 98.4578 161.044 98.3125 161.182 98.1969C161.323 98.0775 161.503 98.0014 161.721 97.9685L161.804 98.5194L161.66 98.541C161.515 98.563 161.388 98.6075 161.279 98.6745C161.174 98.7378 161.095 98.8326 161.043 98.9588C160.994 99.0813 160.984 99.2434 161.015 99.4452L161.193 100.626L160.667 100.706ZM163.644 100.318C163.403 100.354 163.18 100.334 162.975 100.256C162.774 100.175 162.605 100.046 162.471 99.8704C162.336 99.6945 162.249 99.4792 162.211 99.2244C162.172 98.9664 162.189 98.732 162.262 98.5214C162.339 98.3102 162.461 98.1361 162.63 97.999C162.802 97.8614 163.012 97.7739 163.261 97.7366C163.502 97.7002 163.72 97.7231 163.915 97.8054C164.11 97.8843 164.27 98.0056 164.397 98.1693C164.523 98.333 164.602 98.5224 164.634 98.7375C164.639 98.7705 164.643 98.8072 164.646 98.8474C164.651 98.8838 164.656 98.9254 164.66 98.9722L162.744 99.2608C162.797 99.4965 162.902 99.6668 163.06 99.7715C163.22 99.8725 163.393 99.9091 163.579 99.8811C163.727 99.8587 163.847 99.8069 163.936 99.7258C164.028 99.6409 164.09 99.5368 164.122 99.4135L164.648 99.3343C164.617 99.5758 164.514 99.7893 164.339 99.9747C164.167 100.16 163.936 100.274 163.644 100.318ZM163.321 98.1691C163.145 98.1955 162.998 98.2718 162.878 98.3981C162.758 98.5211 162.699 98.6891 162.7 98.902L164.09 98.6926C164.051 98.5023 163.96 98.3603 163.817 98.2667C163.675 98.1732 163.509 98.1406 163.321 98.1691ZM166.513 99.8857C166.274 99.9216 166.056 99.897 165.857 99.8119C165.658 99.7268 165.493 99.5944 165.361 99.4147C165.229 99.235 165.144 99.021 165.107 98.7729C165.069 98.5248 165.087 98.297 165.161 98.0897C165.234 97.879 165.354 97.7054 165.519 97.5688C165.687 97.4284 165.891 97.3403 166.129 97.3044C166.324 97.275 166.5 97.2874 166.657 97.3415C166.818 97.3952 166.949 97.4853 167.053 97.6117L166.829 96.123L167.355 96.0437L167.893 99.6168L167.422 99.6878L167.31 99.3139C167.248 99.4417 167.154 99.5607 167.028 99.6709C166.903 99.7812 166.731 99.8528 166.513 99.8857ZM166.538 99.4149C166.763 99.381 166.935 99.2756 167.054 99.0987C167.176 98.9212 167.219 98.7101 167.182 98.4653C167.144 98.2172 167.041 98.028 166.873 97.8977C166.707 97.7637 166.512 97.7136 166.287 97.7475C166.062 97.7814 165.888 97.887 165.766 98.0645C165.644 98.2386 165.601 98.4497 165.638 98.6978C165.663 98.86 165.718 98.9989 165.803 99.1146C165.888 99.2304 165.994 99.3159 166.12 99.3713C166.25 99.4228 166.389 99.4373 166.538 99.4149ZM168.413 96.5441C168.314 96.559 168.227 96.5417 168.151 96.4921C168.079 96.4387 168.036 96.3657 168.022 96.2731C168.008 96.1804 168.028 96.0996 168.082 96.0306C168.139 95.9578 168.217 95.9139 168.316 95.8989C168.415 95.884 168.501 95.9032 168.573 95.9566C168.648 96.0062 168.693 96.0773 168.707 96.1699C168.721 96.2625 168.699 96.3453 168.643 96.4181C168.589 96.4871 168.512 96.5291 168.413 96.5441ZM168.591 99.5116L168.22 97.0502L168.746 96.9709L169.117 99.4323L168.591 99.5116ZM170.844 99.1722C170.602 99.2086 170.402 99.1796 170.242 99.0852C170.082 98.9876 169.979 98.7882 169.934 98.4871L169.75 97.2713L169.329 97.3349L169.262 96.8932L169.684 96.8296L169.654 96.1946L170.116 96.1251L170.21 96.7504L170.905 96.6457L170.971 97.0874L170.277 97.1921L170.46 98.4079C170.48 98.5435 170.522 98.6336 170.587 98.678C170.654 98.7187 170.758 98.7283 170.901 98.7069L171.183 98.6642L171.251 99.1109L170.844 99.1722ZM173.799 98.7321L172.336 95.3946L172.902 95.3094L174.026 98.0837L174.386 95.0858L174.967 94.9983L176.17 97.7607L176.426 94.7785L176.991 94.6933L176.562 98.3106L175.947 98.4033L174.777 95.7933L174.403 98.6359L173.799 98.7321ZM178.559 98.0707C178.35 98.1021 178.173 98.0933 178.027 98.0443C177.881 97.9952 177.766 97.9194 177.683 97.8169C177.599 97.7111 177.547 97.5904 177.527 97.4547C177.491 97.2165 177.555 97.014 177.72 96.8471C177.884 96.6802 178.138 96.5709 178.482 96.5191L179.127 96.4218L179.121 96.3772C179.092 96.1853 179.017 96.0494 178.897 95.9694C178.78 95.8889 178.638 95.8611 178.473 95.886C178.327 95.908 178.206 95.9635 178.107 96.0528C178.012 96.1382 177.963 96.2521 177.961 96.3946L177.435 96.4738C177.424 96.2927 177.461 96.1315 177.545 95.9904C177.631 95.8454 177.749 95.7278 177.898 95.6377C178.049 95.5438 178.221 95.4824 178.413 95.4535C178.757 95.4017 179.037 95.4525 179.253 95.6061C179.469 95.7563 179.6 95.9869 179.647 96.2979L179.875 97.8115L179.418 97.8803L179.31 97.4652C179.261 97.6113 179.177 97.7407 179.059 97.8532C178.94 97.9658 178.774 98.0383 178.559 98.0707ZM178.598 97.6282C178.741 97.6068 178.855 97.5558 178.941 97.4751C179.03 97.3907 179.092 97.2883 179.128 97.1678C179.167 97.0468 179.183 96.9175 179.176 96.7799L178.591 96.8681C178.382 96.8995 178.239 96.9584 178.16 97.0446C178.085 97.1303 178.056 97.2278 178.072 97.337C178.089 97.4495 178.144 97.5326 178.237 97.5863C178.332 97.6362 178.453 97.6502 178.598 97.6282ZM180.488 97.7191L179.95 94.146L180.476 94.0668L181.014 97.6398L180.488 97.7191ZM181.68 97.5395L181.142 93.9664L181.668 93.8872L182.206 97.4602L181.68 97.5395ZM184.033 97.2459C183.791 97.2823 183.568 97.2618 183.364 97.1843C183.162 97.1031 182.994 96.9745 182.859 96.7985C182.724 96.6226 182.637 96.4073 182.599 96.1525C182.56 95.8945 182.577 95.6601 182.65 95.4495C182.727 95.2383 182.85 95.0642 183.018 94.9271C183.19 94.7895 183.401 94.702 183.649 94.6646C183.89 94.6283 184.109 94.6512 184.304 94.7334C184.498 94.8124 184.659 94.9337 184.785 95.0974C184.911 95.2611 184.99 95.4505 185.023 95.6655C185.028 95.6986 185.031 95.7353 185.034 95.7755C185.04 95.8118 185.044 95.8535 185.048 95.9003L183.132 96.1889C183.185 96.4246 183.29 96.5948 183.448 96.6996C183.609 96.8006 183.782 96.8371 183.967 96.8092C184.116 96.7868 184.235 96.735 184.324 96.6539C184.416 96.569 184.478 96.4649 184.51 96.3416L185.036 96.2623C185.005 96.5039 184.902 96.7174 184.727 96.9028C184.555 97.0877 184.324 97.2021 184.033 97.2459ZM183.709 95.0971C183.533 95.1236 183.386 95.1999 183.266 95.3262C183.146 95.4492 183.087 95.6172 183.088 95.8301L184.478 95.6207C184.439 95.4303 184.348 95.2884 184.206 95.1948C184.063 95.1013 183.897 95.0687 183.709 95.0971ZM186.74 96.7772C186.498 96.8135 186.297 96.7846 186.138 96.6902C185.978 96.5925 185.875 96.3932 185.829 96.0921L185.646 94.8763L185.224 94.9398L185.158 94.4982L185.58 94.4346L185.55 93.7996L186.011 93.7301L186.106 94.3554L186.8 94.2507L186.867 94.6923L186.172 94.797L186.355 96.0128C186.376 96.1485 186.418 96.2385 186.482 96.283C186.549 96.3237 186.654 96.3333 186.796 96.3118L187.079 96.2692L187.147 96.7158L186.74 96.7772Z" fill="#F1F1F1"/>
<path d="M137.226 95.6558L136.703 92.182L138.852 91.8583L138.903 92.2007L137.171 92.4616L137.354 93.6725L138.937 93.434L138.988 93.7714L137.405 94.01L137.592 95.2506L139.324 94.9897L139.375 95.3321L137.226 95.6558ZM140.955 95.155C140.66 95.1994 140.404 95.1618 140.187 95.0423C139.969 94.9229 139.824 94.7383 139.753 94.4885L140.18 94.4242C140.226 94.5492 140.31 94.6515 140.434 94.731C140.56 94.8067 140.718 94.8303 140.906 94.8019C141.082 94.7755 141.205 94.7197 141.277 94.6344C141.348 94.5459 141.376 94.4503 141.361 94.3477C141.338 94.1989 141.269 94.1078 141.152 94.0747C141.039 94.041 140.882 94.019 140.68 94.0087C140.544 94.0022 140.406 93.9841 140.266 93.9544C140.126 93.9247 140.005 93.8719 139.902 93.7961C139.799 93.7169 139.736 93.6029 139.714 93.454C139.681 93.2389 139.734 93.0516 139.873 92.8921C140.014 92.7287 140.222 92.6263 140.496 92.5849C140.758 92.5456 140.981 92.5796 141.166 92.687C141.355 92.7906 141.48 92.9612 141.543 93.1987L141.131 93.2607C141.096 93.1375 141.026 93.0481 140.923 92.9926C140.823 92.9333 140.697 92.9151 140.544 92.938C140.396 92.9605 140.285 93.0093 140.211 93.0847C140.141 93.1595 140.114 93.2482 140.13 93.3507C140.145 93.45 140.208 93.52 140.319 93.5608C140.433 93.6011 140.582 93.6276 140.767 93.6404C140.924 93.6506 141.074 93.6702 141.217 93.6994C141.363 93.7248 141.487 93.779 141.587 93.862C141.69 93.9411 141.755 94.07 141.782 94.2487C141.819 94.4699 141.762 94.6662 141.612 94.8377C141.465 95.0054 141.246 95.1111 140.955 95.155ZM143.624 94.7527C143.39 94.7881 143.17 94.7671 142.965 94.6896C142.764 94.6084 142.594 94.48 142.456 94.3046C142.32 94.1253 142.233 93.9067 142.194 93.6486C142.156 93.3906 142.175 93.1576 142.252 92.9498C142.331 92.7382 142.456 92.5655 142.625 92.4317C142.797 92.2941 143.001 92.2076 143.236 92.1722C143.527 92.1283 143.783 92.1675 144.005 92.2898C144.229 92.4116 144.387 92.5959 144.479 92.8426L144.052 92.9069C143.996 92.7597 143.897 92.6545 143.756 92.5912C143.614 92.5247 143.457 92.5043 143.285 92.5302C143.146 92.5512 143.02 92.6056 142.908 92.6935C142.796 92.7815 142.713 92.9006 142.658 93.051C142.602 93.2015 142.59 93.3792 142.621 93.5843C142.652 93.7895 142.716 93.9558 142.813 94.0833C142.91 94.2107 143.025 94.3017 143.159 94.356C143.292 94.407 143.427 94.4221 143.566 94.4011C143.738 94.3752 143.883 94.3112 143.999 94.209C144.115 94.1036 144.178 93.9706 144.188 93.8101L144.615 93.7458C144.602 94.0014 144.507 94.2222 144.329 94.4081C144.15 94.594 143.916 94.7089 143.624 94.7527ZM145.314 94.4372L144.943 91.9758L145.321 91.919L145.426 92.3852C145.478 92.2116 145.574 92.0651 145.715 91.9458C145.856 91.8264 146.041 91.7495 146.269 91.7151L146.335 92.1518L146.221 92.169C146.075 92.1909 145.945 92.2376 145.831 92.309C145.716 92.377 145.631 92.4778 145.577 92.6111C145.523 92.7445 145.512 92.9187 145.544 93.1338L145.731 94.3744L145.314 94.4372ZM148.156 94.07C147.924 94.1049 147.708 94.0834 147.506 94.0054C147.305 93.9275 147.135 93.8008 146.997 93.6254C146.862 93.4461 146.775 93.2258 146.735 92.9645C146.696 92.7031 146.716 92.4682 146.797 92.2599C146.876 92.0483 147.001 91.8756 147.17 91.7418C147.343 91.6075 147.545 91.5229 147.777 91.488C148.008 91.4531 148.225 91.4746 148.426 91.5526C148.627 91.6305 148.795 91.7591 148.931 91.9384C149.069 92.1138 149.157 92.3322 149.197 92.5936C149.236 92.8549 149.216 93.0915 149.136 93.3031C149.056 93.5114 148.929 93.6827 148.757 93.817C148.588 93.9508 148.387 94.0351 148.156 94.07ZM148.102 93.7127C148.244 93.6913 148.371 93.6366 148.483 93.5487C148.595 93.4608 148.678 93.3416 148.734 93.1912C148.789 93.0408 148.801 92.863 148.77 92.6579C148.739 92.4528 148.675 92.2865 148.578 92.159C148.484 92.031 148.371 91.9415 148.238 91.8905C148.105 91.8394 147.969 91.8244 147.83 91.8453C147.688 91.8667 147.561 91.9214 147.449 92.0093C147.337 92.0973 147.254 92.2164 147.198 92.3668C147.143 92.5173 147.131 92.695 147.162 92.9002C147.193 93.1053 147.257 93.2716 147.354 93.3991C147.451 93.5265 147.564 93.6161 147.694 93.6676C147.827 93.7186 147.963 93.7337 148.102 93.7127ZM150.366 93.6761L149.276 91.3231L149.692 91.2603L150.504 93.1122L150.789 91.095L151.261 91.024L152.132 92.8669L152.357 90.8587L152.779 90.7952L152.43 93.365L152.004 93.4293L151.092 91.4909L150.793 93.6118L150.366 93.6761ZM153.371 91.9292L153.318 91.5768L155.283 91.2807L155.336 91.6331L153.371 91.9292ZM156.747 92.7147L156.275 89.5833L155.238 89.7396L155.186 89.3971L157.677 89.0218L157.729 89.3642L156.692 89.5205L157.164 92.6519L156.747 92.7147ZM159.355 92.3826C159.12 92.418 158.904 92.3965 158.706 92.318C158.507 92.2363 158.341 92.1074 158.206 91.9315C158.074 91.755 157.989 91.5362 157.95 91.2748C157.911 91.0167 157.928 90.784 158.002 90.5767C158.075 90.3661 158.194 90.1941 158.36 90.0608C158.529 89.9237 158.734 89.837 158.976 89.8006C159.214 89.7647 159.428 89.7884 159.616 89.8716C159.807 89.9511 159.962 90.0715 160.082 90.2329C160.201 90.3943 160.275 90.5759 160.306 90.7777C160.311 90.8141 160.315 90.8507 160.317 90.8876C160.323 90.924 160.329 90.9654 160.336 91.0117L158.376 91.307C158.414 91.4941 158.481 91.6448 158.576 91.759C158.674 91.8695 158.785 91.9474 158.91 91.9928C159.039 92.0377 159.169 92.0502 159.302 92.0303C159.474 92.0044 159.612 91.943 159.716 91.8461C159.819 91.7493 159.888 91.629 159.92 91.4854L160.332 91.4234C160.3 91.6616 160.201 91.871 160.036 92.0516C159.873 92.2284 159.646 92.3387 159.355 92.3826ZM159.019 90.1544C158.821 90.1843 158.653 90.2722 158.516 90.418C158.382 90.5601 158.32 90.7486 158.332 90.9837L159.88 90.7504C159.837 90.5302 159.735 90.368 159.574 90.2637C159.412 90.1595 159.228 90.123 159.019 90.1544ZM162.205 91.9532C161.97 91.9886 161.75 91.9675 161.546 91.8901C161.344 91.8088 161.174 91.6805 161.036 91.505C160.901 91.3258 160.814 91.1071 160.775 90.8491C160.736 90.591 160.755 90.3581 160.832 90.1503C160.912 89.9386 161.036 89.7659 161.206 89.6321C161.378 89.4945 161.581 89.408 161.816 89.3726C162.107 89.3288 162.364 89.368 162.585 89.4903C162.81 89.612 162.968 89.7963 163.059 90.0431L162.632 90.1074C162.576 89.9602 162.478 89.8549 162.336 89.7917C162.194 89.7251 162.037 89.7048 161.865 89.7307C161.726 89.7516 161.601 89.8061 161.489 89.894C161.377 89.9819 161.293 90.1011 161.238 90.2515C161.183 90.4019 161.171 90.5797 161.202 90.7848C161.233 90.9899 161.297 91.1562 161.394 91.2837C161.491 91.4112 161.606 91.5021 161.739 91.5564C161.872 91.6075 162.008 91.6225 162.147 91.6016C162.319 91.5757 162.463 91.5116 162.58 91.4095C162.696 91.304 162.759 91.171 162.768 91.0106L163.195 90.9463C163.183 91.2019 163.088 91.4226 162.909 91.6085C162.731 91.7944 162.496 91.9093 162.205 91.9532ZM163.895 91.6377L163.356 88.0646L163.773 88.0018L164.004 89.5352C164.064 89.3706 164.164 89.2355 164.304 89.1298C164.443 89.0209 164.602 88.9529 164.78 88.926C165.065 88.8831 165.307 88.9381 165.506 89.0908C165.704 89.2402 165.831 89.4986 165.886 89.8658L166.103 91.3049L165.691 91.367L165.481 89.9725C165.404 89.4597 165.158 89.2345 164.745 89.2968C164.53 89.3292 164.361 89.4341 164.239 89.6115C164.117 89.7856 164.077 90.015 164.12 90.2995L164.312 91.5749L163.895 91.6377Z" fill="#DEDEDE"/>
<path d="M34.8914 127.199L34.7761 125.584L33.6192 126.687L33.1582 126.106L34.5124 125.251L32.9784 124.842L33.23 124.174L34.6812 124.884L34.2946 123.31L35.004 123.203L35.088 124.823L36.2553 123.719L36.6803 124.273L35.3381 125.137L36.8841 125.555L36.6326 126.222L35.1934 125.522L35.5799 127.096L34.8914 127.199ZM39.8732 126.449L39.7579 124.834L38.601 125.936L38.14 125.355L39.4942 124.5L37.9602 124.091L38.2118 123.424L39.663 124.133L39.2764 122.559L39.9858 122.452L40.0698 124.072L41.2371 122.968L41.6621 123.523L40.3199 124.386L41.8659 124.804L41.6144 125.472L40.1752 124.771L40.5617 126.345L39.8732 126.449ZM44.855 125.698L44.7397 124.083L43.5828 125.186L43.1218 124.604L44.476 123.75L42.942 123.341L43.1936 122.673L44.6448 123.383L44.2582 121.809L44.9676 121.702L45.0516 123.321L46.2189 122.217L46.6439 122.772L45.3017 123.636L46.8477 124.054L46.5962 124.721L45.157 124.02L45.5435 125.594L44.855 125.698ZM49.8368 124.948L49.7215 123.333L48.5646 124.435L48.1036 123.854L49.4578 122.999L47.9239 122.59L48.1754 121.923L49.6266 122.632L49.24 121.058L49.9494 120.951L50.0334 122.571L51.2007 121.467L51.6257 122.021L50.2835 122.885L51.8295 123.303L51.578 123.97L50.1388 123.27L50.5253 124.844L49.8368 124.948ZM54.8186 124.197L54.7033 122.582L53.5464 123.685L53.0854 123.103L54.4396 122.248L52.9057 121.839L53.1572 121.172L54.6084 121.881L54.2218 120.307L54.9312 120.2L55.0152 121.82L56.1825 120.716L56.6075 121.271L55.2653 122.135L56.8113 122.552L56.5598 123.22L55.1206 122.519L55.5071 124.093L54.8186 124.197ZM59.8004 123.446L59.6851 121.831L58.5282 122.934L58.0672 122.353L59.4214 121.498L57.8875 121.089L58.139 120.421L59.5902 121.131L59.2036 119.557L59.913 119.45L59.997 121.07L61.1643 119.965L61.5893 120.52L60.2471 121.384L61.7931 121.802L61.5416 122.469L60.1024 121.769L60.4889 123.343L59.8004 123.446ZM68.7036 125.946C68.2306 126.017 67.8413 125.958 67.5354 125.77C67.2296 125.581 67.0316 125.188 66.9415 124.59L66.5124 121.742L65.6152 121.877L65.5036 121.136L66.4008 121.001L66.3285 119.742L67.0901 119.627L67.2771 120.869L68.8002 120.639L68.9118 121.38L67.3887 121.61L67.8178 124.458C67.8671 124.784 67.9667 124.997 68.1166 125.095C68.2656 125.187 68.5069 125.207 68.8408 125.157L69.3832 125.075L69.4964 125.826L68.7036 125.946ZM73.9669 125.281C73.2506 125.389 72.608 125.326 72.0392 125.091C71.4764 124.849 71.0099 124.467 70.6399 123.947C70.2688 123.42 70.0267 122.78 69.9135 122.029C69.8014 121.285 69.8455 120.61 70.0457 120.004C70.245 119.39 70.5778 118.885 71.0443 118.488C71.5177 118.089 72.1125 117.836 72.8289 117.728C73.6635 117.602 74.372 117.702 74.9543 118.026C75.5426 118.343 75.9638 118.849 76.2178 119.543L75.2476 119.689C75.0682 119.254 74.7842 118.927 74.3956 118.708C74.0129 118.481 73.5294 118.412 72.9452 118.5C72.4236 118.578 71.9864 118.769 71.6336 119.071C71.2798 119.366 71.0291 119.756 70.8816 120.24C70.74 120.717 70.7164 121.268 70.8107 121.894C70.905 122.52 71.0905 123.043 71.3673 123.464C71.65 123.877 72.0044 124.175 72.4305 124.36C72.8556 124.538 73.329 124.587 73.8506 124.509C74.4348 124.421 74.8774 124.219 75.1783 123.903C75.4852 123.58 75.6608 123.187 75.705 122.725L76.6752 122.579C76.635 123.303 76.3804 123.904 75.9116 124.38C75.4497 124.855 74.8015 125.155 73.9669 125.281ZM81.59 124.132C80.8737 124.24 80.2207 124.178 79.631 123.947C79.0473 123.708 78.5595 123.326 78.1676 122.802C77.7826 122.277 77.534 121.642 77.4219 120.898C77.3098 120.154 77.3608 119.478 77.575 118.869C77.7951 118.253 78.1488 117.744 78.6361 117.344C79.1303 116.942 79.7357 116.687 80.452 116.579C81.1753 116.47 81.8288 116.535 82.4125 116.775C83.0032 117.013 83.4911 117.395 83.876 117.92C84.26 118.438 84.508 119.069 84.6201 119.813C84.7323 120.558 84.6818 121.237 84.4686 121.853C84.2555 122.468 83.9018 122.977 83.4075 123.378C82.9192 123.772 82.3133 124.023 81.59 124.132ZM81.4737 123.36C82.0092 123.28 82.4609 123.091 82.8286 122.793C83.2023 122.488 83.4668 122.096 83.6223 121.617C83.7837 121.131 83.8173 120.575 83.723 119.949C83.6287 119.323 83.4332 118.804 83.1366 118.394C82.847 117.982 82.4792 117.689 82.0333 117.515C81.5932 117.332 81.1054 117.281 80.5699 117.362C80.0344 117.442 79.5798 117.635 79.2061 117.941C78.8384 118.238 78.5733 118.626 78.4108 119.106C78.2553 119.585 78.2248 120.137 78.3191 120.763C78.4134 121.389 78.6059 121.911 78.8965 122.33C79.1931 122.74 79.5614 123.037 80.0015 123.219C80.4474 123.394 80.9382 123.441 81.4737 123.36ZM86.1465 123.318L86.0538 122.702C86.4889 122.238 86.8956 121.775 87.2741 121.313C87.6584 120.842 87.9916 120.387 88.2737 119.946C88.5628 119.504 88.7764 119.081 88.9145 118.676C89.0596 118.27 89.106 117.893 89.0536 117.545C89.0148 117.288 88.9335 117.055 88.8095 116.846C88.6925 116.636 88.5267 116.479 88.3121 116.377C88.0964 116.267 87.8216 116.237 87.4878 116.287C87.1679 116.336 86.9111 116.449 86.7175 116.627C86.5229 116.799 86.3877 117.011 86.3121 117.265C86.2434 117.517 86.2295 117.779 86.2703 118.05L85.4253 118.177C85.353 117.697 85.392 117.272 85.5424 116.901C85.6917 116.522 85.9266 116.217 86.2471 115.984C86.5676 115.75 86.9469 115.601 87.385 115.535C88.0318 115.437 88.5882 115.542 89.0541 115.849C89.5258 116.147 89.8162 116.658 89.9252 117.382C89.9902 117.813 89.9468 118.257 89.7951 118.714C89.6424 119.163 89.429 119.612 89.1549 120.058C88.8797 120.498 88.5766 120.917 88.2454 121.316C87.9212 121.713 87.6161 122.072 87.3301 122.392L90.8562 121.861L90.9662 122.591L86.1465 123.318ZM94.3512 122.209C93.8574 122.284 93.4025 122.239 92.9864 122.074C92.5693 121.902 92.2191 121.631 91.9358 121.261C91.6594 120.89 91.4798 120.43 91.397 119.881C91.3153 119.338 91.3518 118.849 91.5067 118.413C91.6604 117.97 91.9118 117.609 92.2608 117.329C92.6157 117.04 93.047 116.858 93.5547 116.782C94.0554 116.706 94.5039 116.756 94.9001 116.931C95.3023 117.098 95.6285 117.351 95.8788 117.69C96.129 118.03 96.2861 118.411 96.3501 118.836C96.3616 118.912 96.3696 118.989 96.3742 119.067C96.3857 119.143 96.3988 119.23 96.4135 119.327L92.2928 119.948C92.3734 120.342 92.5136 120.658 92.7133 120.899C92.919 121.131 93.1535 121.295 93.4169 121.39C93.6871 121.484 93.9614 121.511 94.2396 121.469C94.6012 121.414 94.8912 121.285 95.1095 121.082C95.3277 120.878 95.471 120.625 95.5393 120.323L96.4052 120.193C96.3384 120.694 96.1309 121.134 95.7827 121.514C95.4404 121.885 94.9632 122.117 94.3512 122.209ZM93.6454 117.525C93.2281 117.588 92.8754 117.773 92.5873 118.08C92.3051 118.378 92.1764 118.775 92.201 119.269L95.4559 118.778C95.3648 118.315 95.1498 117.974 94.811 117.755C94.4721 117.536 94.0836 117.459 93.6454 117.525Z" fill="#F1F1F1"/>
<path d="M32.3765 114.141L31.7331 109.87L30.2935 110.087L30.2034 109.489L33.8129 108.945L33.903 109.543L32.4703 109.759L33.1137 114.03L32.3765 114.141ZM36.2098 113.649C35.8806 113.698 35.5726 113.669 35.286 113.56C35.0033 113.446 34.7652 113.266 34.5717 113.02C34.3774 112.77 34.2531 112.464 34.1986 112.102C34.1441 111.741 34.1731 111.414 34.2856 111.122C34.402 110.824 34.5812 110.582 34.8231 110.394C35.0643 110.201 35.3472 110.08 35.6718 110.031C36.001 109.981 36.3069 110.013 36.5896 110.127C36.8763 110.236 37.1167 110.415 37.3109 110.666C37.5091 110.911 37.6354 111.215 37.6899 111.576C37.7444 111.938 37.7134 112.267 37.597 112.565C37.4845 112.857 37.3077 113.099 37.0664 113.292C36.8245 113.48 36.5389 113.599 36.2098 113.649ZM36.1144 113.016C36.2906 112.989 36.4462 112.921 36.5813 112.81C36.7211 112.699 36.8244 112.551 36.8912 112.365C36.9574 112.175 36.971 111.95 36.9318 111.69C36.8927 111.431 36.8139 111.222 36.6953 111.065C36.5806 110.902 36.4402 110.788 36.2739 110.723C36.1123 110.657 35.9433 110.637 35.7672 110.664C35.591 110.69 35.433 110.759 35.2933 110.87C35.1582 110.981 35.0575 111.131 34.9914 111.321C34.9245 111.507 34.9106 111.729 34.9497 111.989C34.9888 112.249 35.068 112.46 35.1873 112.622C35.3059 112.779 35.446 112.891 35.6076 112.957C35.7693 113.023 35.9382 113.042 36.1144 113.016ZM40.0578 112.983C39.7193 113.034 39.4382 112.994 39.2144 112.861C38.9899 112.725 38.8458 112.445 38.7822 112.023L38.5255 110.319L37.9343 110.408L37.8411 109.789L38.4322 109.7L38.3906 108.81L39.0374 108.713L39.1695 109.589L40.1431 109.443L40.2364 110.062L39.2627 110.208L39.5194 111.912C39.5481 112.102 39.6074 112.229 39.6974 112.291C39.7913 112.348 39.938 112.361 40.1374 112.331L40.5338 112.271L40.6281 112.897L40.0578 112.983ZM42.604 112.685C42.3119 112.729 42.0635 112.717 41.8587 112.648C41.6539 112.579 41.4933 112.473 41.3768 112.329C41.2596 112.181 41.1867 112.012 41.1581 111.822C41.1078 111.488 41.1978 111.204 41.4281 110.97C41.6584 110.736 42.0147 110.583 42.4969 110.51L43.401 110.374L43.3916 110.312C43.351 110.043 43.2465 109.852 43.0778 109.74C42.9138 109.627 42.7159 109.588 42.4841 109.623C42.2801 109.654 42.1093 109.732 41.9716 109.857C41.8379 109.977 41.7695 110.136 41.7664 110.336L41.0292 110.447C41.0147 110.193 41.066 109.967 41.1832 109.77C41.3043 109.566 41.4691 109.402 41.6777 109.275C41.8902 109.144 42.131 109.058 42.3999 109.017C42.8821 108.945 43.2745 109.016 43.5773 109.231C43.8793 109.442 44.0631 109.765 44.1288 110.201L44.4484 112.322L43.8085 112.418L43.6569 111.837C43.5881 112.041 43.4708 112.223 43.3049 112.38C43.139 112.538 42.9054 112.64 42.604 112.685ZM42.6599 112.065C42.8593 112.035 43.0192 111.963 43.1397 111.85C43.2642 111.732 43.3516 111.589 43.402 111.42C43.4571 111.25 43.4796 111.069 43.4695 110.876L42.6488 111C42.3567 111.044 42.1557 111.126 42.0459 111.247C41.9407 111.367 41.8997 111.504 41.9227 111.657C41.9465 111.814 42.0233 111.931 42.1532 112.006C42.287 112.076 42.4559 112.096 42.6599 112.065ZM45.3079 112.192L44.5535 107.185L45.2907 107.074L46.0452 112.081L45.3079 112.192ZM48.7588 111.672L48.0253 106.804L49.8614 106.527C50.3668 106.451 50.7671 106.512 51.0624 106.709C51.3577 106.906 51.5322 107.184 51.586 107.541C51.6328 107.851 51.5867 108.112 51.4477 108.323C51.3081 108.529 51.1249 108.682 50.8982 108.782C51.0893 108.791 51.265 108.841 51.4255 108.93C51.5907 109.019 51.7275 109.141 51.8361 109.295C51.9447 109.45 52.0137 109.624 52.0431 109.819C52.0808 110.069 52.0524 110.306 51.958 110.529C51.8675 110.746 51.7127 110.931 51.4937 111.082C51.2747 111.234 50.9937 111.336 50.6506 111.387L48.7588 111.672ZM49.0769 108.779L50.0853 108.627C50.3682 108.585 50.574 108.487 50.7028 108.335C50.8309 108.178 50.8775 107.984 50.8426 107.752C50.8083 107.525 50.7069 107.355 50.5383 107.243C50.3743 107.131 50.1439 107.096 49.8472 107.141L48.8526 107.291L49.0769 108.779ZM49.4049 110.956L50.462 110.797C50.7588 110.752 50.9778 110.648 51.1191 110.485C51.2651 110.32 51.3192 110.113 51.2815 109.863C51.2437 109.612 51.1283 109.428 50.9351 109.31C50.7412 109.188 50.4982 109.148 50.206 109.192L49.1628 109.35L49.4049 110.956ZM54.2044 110.937C53.9123 110.981 53.6639 110.969 53.4591 110.9C53.2544 110.831 53.0937 110.725 52.9773 110.582C52.8601 110.433 52.7872 110.264 52.7585 110.074C52.7082 109.74 52.7982 109.456 53.0285 109.222C53.2588 108.989 53.6151 108.835 54.0973 108.763L55.0014 108.626L54.992 108.564C54.9515 108.295 54.8469 108.104 54.6783 107.992C54.5143 107.879 54.3164 107.841 54.0845 107.875C53.8805 107.906 53.7097 107.984 53.5721 108.109C53.4384 108.229 53.37 108.389 53.3668 108.588L52.6296 108.699C52.6151 108.445 52.6664 108.22 52.7836 108.022C52.9047 107.819 53.0696 107.654 53.2782 107.528C53.4907 107.396 53.7314 107.31 54.0003 107.269C54.4825 107.197 54.875 107.268 55.1777 107.483C55.4797 107.694 55.6635 108.017 55.7292 108.453L56.0488 110.574L55.409 110.67L55.2573 110.089C55.1886 110.293 55.0713 110.475 54.9054 110.632C54.7395 110.79 54.5058 110.892 54.2044 110.937ZM54.2604 110.317C54.4597 110.287 54.6197 110.216 54.7402 110.103C54.8646 109.984 54.952 109.841 55.0025 109.672C55.0575 109.502 55.08 109.321 55.0699 109.128L54.2492 109.252C53.9571 109.296 53.7562 109.378 53.6464 109.499C53.5412 109.619 53.5001 109.756 53.5232 109.909C53.5469 110.067 53.6237 110.183 53.7536 110.258C53.8875 110.328 54.0564 110.348 54.2604 110.317ZM56.9084 110.444L56.1539 105.437L56.8911 105.326L57.6456 110.333L56.9084 110.444ZM59.7602 110.1C59.4681 110.144 59.2196 110.132 59.0148 110.063C58.8101 109.994 58.6495 109.888 58.533 109.744C58.4158 109.596 58.3429 109.427 58.3142 109.237C58.2639 108.903 58.3539 108.619 58.5842 108.385C58.8145 108.151 59.1708 107.998 59.653 107.926L60.5571 107.789L60.5477 107.727C60.5072 107.458 60.4026 107.267 60.234 107.155C60.07 107.042 59.8721 107.003 59.6402 107.038C59.4362 107.069 59.2654 107.147 59.1278 107.272C58.9941 107.392 58.9257 107.551 58.9226 107.751L58.1853 107.862C58.1708 107.608 58.2221 107.382 58.3393 107.185C58.4604 106.981 58.6253 106.817 58.8339 106.69C59.0464 106.559 59.2871 106.473 59.556 106.432C60.0382 106.36 60.4307 106.431 60.7334 106.646C61.0354 106.857 61.2192 107.18 61.2849 107.616L61.6045 109.737L60.9647 109.833L60.813 109.252C60.7443 109.456 60.627 109.638 60.4611 109.795C60.2952 109.953 60.0615 110.055 59.7602 110.1ZM59.8161 109.48C60.0155 109.45 60.1754 109.378 60.2959 109.265C60.4203 109.147 60.5077 109.004 60.5582 108.835C60.6132 108.665 60.6357 108.484 60.6256 108.291L59.805 108.415C59.5129 108.459 59.3119 108.541 59.2021 108.662C59.0969 108.782 59.0558 108.919 59.0789 109.072C59.1026 109.229 59.1795 109.346 59.3093 109.421C59.4432 109.491 59.6121 109.511 59.8161 109.48ZM62.4641 109.607L61.9443 106.158L62.5981 106.059L62.7449 106.656C62.8194 106.427 62.9496 106.236 63.1354 106.085C63.3252 105.928 63.5546 105.83 63.8235 105.789C64.2408 105.726 64.5872 105.807 64.8628 106.031C65.143 106.254 65.3219 106.623 65.3994 107.138L65.6981 109.12L64.9678 109.23L64.6807 107.325C64.5801 106.657 64.2563 106.364 63.7091 106.447C63.4356 106.488 63.2231 106.619 63.0716 106.841C62.9247 107.063 62.8786 107.354 62.933 107.716L63.2013 109.496L62.4641 109.607ZM68.2133 108.826C67.8748 108.877 67.5596 108.847 67.2677 108.734C66.9803 108.621 66.7399 108.442 66.5464 108.196C66.3568 107.944 66.2351 107.64 66.1813 107.283C66.1275 106.926 66.1545 106.602 66.2624 106.311C66.3742 106.014 66.5507 105.77 66.7919 105.577C67.0378 105.383 67.3299 105.261 67.6684 105.21C68.095 105.146 68.4688 105.203 68.7898 105.382C69.1154 105.561 69.3486 105.834 69.4893 106.202L68.7173 106.318C68.6423 106.135 68.518 106.002 68.3443 105.919C68.1705 105.836 67.977 105.811 67.7638 105.843C67.5829 105.87 67.423 105.942 67.284 106.057C67.1442 106.169 67.0413 106.319 66.9751 106.509C66.9082 106.695 66.894 106.915 66.9324 107.17C66.9708 107.425 67.0497 107.634 67.169 107.796C67.2875 107.954 67.4303 108.067 67.5973 108.137C67.7643 108.207 67.9382 108.228 68.119 108.201C68.3323 108.168 68.5097 108.087 68.6513 107.957C68.7929 107.826 68.8722 107.66 68.8892 107.459L69.6612 107.342C69.6382 107.725 69.4978 108.052 69.24 108.323C68.9821 108.594 68.6399 108.762 68.2133 108.826ZM72.2607 108.217C71.9223 108.268 71.6097 108.239 71.3231 108.13C71.0404 108.016 70.8046 107.836 70.6157 107.59C70.4268 107.343 70.3055 107.041 70.2517 106.684C70.1972 106.323 70.2212 105.994 70.3237 105.699C70.4309 105.403 70.6027 105.159 70.8393 104.967C71.0806 104.774 71.3751 104.651 71.7228 104.599C72.0613 104.548 72.3672 104.58 72.6406 104.696C72.9134 104.806 73.1381 104.976 73.315 105.206C73.4918 105.435 73.6029 105.7 73.6483 106.002C73.6553 106.048 73.6607 106.1 73.6644 106.156C73.6721 106.207 73.6785 106.265 73.6837 106.331L70.9991 106.735C71.0726 107.066 71.22 107.304 71.4412 107.451C71.6665 107.593 71.9089 107.644 72.1685 107.605C72.3772 107.573 72.5441 107.501 72.6692 107.387C72.7983 107.268 72.8853 107.122 72.9304 106.949L73.6676 106.838C73.6238 107.177 73.4792 107.476 73.2339 107.736C72.9931 107.995 72.6688 108.155 72.2607 108.217ZM71.807 105.205C71.5613 105.242 71.3545 105.349 71.1868 105.526C71.0183 105.699 70.9353 105.934 70.9376 106.232L72.8849 105.939C72.8305 105.672 72.7033 105.473 72.5033 105.342C72.3034 105.211 72.0713 105.165 71.807 105.205Z" fill="#DEDEDE"/>
</g>
<rect x="25.9785" y="184.118" width="90" height="189.543" rx="6.5" transform="rotate(-98.5684 25.9785 184.118)" stroke="#282D45"/>
<rect x="169.558" y="31.4864" width="164.879" height="131.742" rx="7.67819" transform="rotate(13.3229 169.558 31.4864)" fill="#0E1330" stroke="#282D45" stroke-width="0.80823"/>
<path d="M181.309 59.6448C179.444 59.2031 178.542 57.6207 179.017 55.6152C179.488 53.6271 181.053 52.6013 182.927 53.0451C184.442 53.4039 185.363 54.556 185.256 55.9828L184.074 55.7028C184.031 54.9066 183.495 54.3173 182.646 54.1161C181.464 53.8361 180.516 54.5181 180.192 55.8843C179.871 57.2418 180.417 58.2959 181.59 58.5738C182.457 58.7791 183.231 58.4814 183.609 57.8217L184.774 58.0976C184.209 59.3882 182.824 60.0036 181.309 59.6448ZM186.29 60.8337C185.371 60.6159 184.937 59.949 185.13 59.1345C185.318 58.3375 186.015 57.9752 187.058 58.139L188.377 58.3497L188.4 58.2533C188.539 57.6665 188.244 57.3471 187.701 57.2185C187.071 57.0692 186.658 57.249 186.55 57.7044L185.64 57.4887C185.861 56.5516 186.777 56.1211 187.951 56.399C189.116 56.6748 189.684 57.4755 189.4 58.6753L188.778 61.3026L187.841 61.0807L187.914 60.4227C187.624 60.8258 186.965 60.9934 186.29 60.8337ZM186.831 60.1109C187.488 60.2665 188.002 59.9719 188.16 59.3063L188.213 59.0786L187.295 58.9351C186.615 58.8388 186.309 58.9976 186.226 59.3479C186.133 59.742 186.35 59.9969 186.831 60.1109ZM193.571 57.8502L193.337 58.8399L192.943 58.7465C192.172 58.564 191.593 58.8616 191.394 59.7023L190.896 61.8042L189.828 61.5512L190.85 57.2336L191.857 57.4721L191.769 58.1172C192.055 57.7316 192.535 57.5401 193.113 57.6769C193.262 57.7122 193.407 57.765 193.571 57.8502ZM194.256 62.5997L193.266 62.3654L194.809 55.8496L195.877 56.1026L195.21 58.9226C195.604 58.5073 196.25 58.3552 196.907 58.5107C198.142 58.8031 198.667 59.9448 198.343 61.3111C198.028 62.6422 196.996 63.3689 195.752 63.0744C195.104 62.921 194.621 62.5013 194.485 61.942L194.256 62.5997ZM194.86 60.4398C194.675 61.2192 195.03 61.8675 195.766 62.0417C196.519 62.2201 197.094 61.7829 197.277 61.0122C197.459 60.2415 197.143 59.584 196.39 59.4056C195.654 59.2314 195.044 59.6603 194.86 60.4398ZM198.949 61.4173C199.268 60.0686 200.46 59.3705 201.8 59.6878C203.14 60.0052 203.892 61.1637 203.573 62.5124C203.253 63.8611 202.061 64.5592 200.721 64.2419C199.381 63.9246 198.629 62.766 198.949 61.4173ZM200.017 61.6704C199.83 62.4586 200.212 63.1131 200.947 63.2873C201.683 63.4615 202.318 63.0476 202.504 62.2594C202.691 61.4712 202.309 60.8166 201.574 60.6424C200.838 60.4682 200.204 60.8822 200.017 61.6704ZM204.974 65.1379L203.905 64.8849L204.93 60.5585L205.919 60.7929L205.874 61.3741C206.249 61.0005 206.835 60.871 207.422 61.0099C208.508 61.2671 208.909 62.0742 208.643 63.1952L208.013 65.8575L206.944 65.6045L207.515 63.1961C207.687 62.4692 207.411 62.0339 206.859 61.9032C206.202 61.7477 205.691 62.1077 205.525 62.8083L204.974 65.1379ZM214.262 67.4484C212.396 67.0067 211.495 65.4243 211.97 63.4188C212.44 61.4308 214.006 60.4049 215.88 60.8487C217.395 61.2075 218.316 62.3596 218.209 63.7864L217.027 63.5064C216.984 62.7102 216.448 62.1209 215.599 61.9197C214.417 61.6397 213.469 62.3217 213.145 63.6879C212.824 65.0454 213.37 66.0995 214.543 66.3774C215.41 66.5827 216.184 66.285 216.562 65.6254L217.727 65.9012C217.162 67.1918 215.777 67.8072 214.262 67.4484ZM221.812 64.5379L221.577 65.5275L221.183 65.4342C220.413 65.2517 219.833 65.5492 219.634 66.39L219.137 68.4918L218.068 68.2388L219.091 63.9212L220.098 64.1597L220.01 64.8048C220.295 64.4192 220.775 64.2277 221.353 64.3646C221.502 64.3998 221.647 64.4526 221.812 64.5379ZM223.269 69.5908C221.982 69.2859 221.302 68.1352 221.619 66.7953C221.941 65.4378 223.047 64.7102 224.317 65.0109C225.613 65.3178 226.231 66.3798 225.912 67.7285L225.835 68.0526L222.575 67.2898C222.473 68.0704 222.785 68.5511 223.494 68.7191C224.081 68.8581 224.52 68.7216 224.74 68.3391L225.73 68.5734C225.322 69.4757 224.399 69.8583 223.269 69.5908ZM224.118 65.8888C223.488 65.7394 223.022 65.9897 222.763 66.6129L224.935 67.1273C225.076 66.5317 224.758 66.0402 224.118 65.8888ZM227.987 70.7079C226.734 70.4113 226.173 69.3072 226.49 67.9672C226.809 66.6185 227.826 65.8418 229.131 66.1508C229.735 66.2939 230.209 66.6744 230.379 67.1678L231.028 64.4267L232.088 64.6776L230.545 71.1934L229.564 70.9611L229.653 70.2702C229.273 70.7071 228.644 70.8634 227.987 70.7079ZM228.455 69.783C229.2 69.9593 229.808 69.5391 229.993 68.7597C230.177 67.9802 229.824 67.3232 229.08 67.1469C228.335 66.9706 227.749 67.4145 227.567 68.1852C227.384 68.9559 227.711 69.6067 228.455 69.783ZM233.422 66.3902C233.054 66.3031 232.834 65.9457 232.919 65.5866C233.004 65.2275 233.359 65.0157 233.727 65.1028C234.077 65.1858 234.3 65.5345 234.215 65.8935C234.13 66.2526 233.773 66.4732 233.422 66.3902ZM231.658 71.4571L232.683 67.1307L233.751 67.3837L232.727 71.7101L231.658 71.4571ZM235.302 72.3199L234.233 72.0669L235.046 68.6339L234.214 68.4368L234.426 67.5435L235.258 67.7406L235.577 66.3919L236.646 66.6449L236.326 67.9936L237.167 68.1927L236.956 69.086L236.115 68.8869L235.302 72.3199ZM245.925 71.4506C245.465 73.3948 243.863 74.4583 242.024 74.0227C240.193 73.5893 239.254 71.9332 239.716 69.9802C240.177 68.036 241.77 66.9705 243.6 67.4039C245.431 67.8374 246.388 69.4976 245.925 71.4506ZM244.743 71.1706C245.067 69.8044 244.519 68.759 243.345 68.4811C242.172 68.2032 241.213 68.8919 240.89 70.2581C240.566 71.6243 241.114 72.6697 242.288 72.9476C243.461 73.2255 244.424 72.5193 244.743 71.1706ZM247.278 75.1561L246.586 70.4232L247.725 70.6928L248.007 72.8592C248.069 73.4195 248.112 73.9014 248.108 74.1503C248.234 73.8933 248.499 73.4752 248.795 73.0459L250.054 71.2445L251.158 71.5058L248.329 75.4049L247.278 75.1561ZM252.442 76.4992C251.155 76.1943 250.475 75.0436 250.792 73.7037C251.113 72.3462 252.22 71.6186 253.49 71.9193C254.786 72.2263 255.404 73.2882 255.084 74.6369L255.008 74.961L251.748 74.1982C251.646 74.9788 251.958 75.4596 252.667 75.6275C253.254 75.7665 253.693 75.63 253.913 75.2475L254.903 75.4818C254.495 76.3841 253.572 76.7667 252.442 76.4992ZM253.291 72.7972C252.66 72.6478 252.194 72.8981 251.936 73.5213L254.108 74.0357C254.249 73.4401 253.93 72.9486 253.291 72.7972ZM259.152 73.3805L258.918 74.3701L258.524 74.2768C257.753 74.0943 257.174 74.3918 256.975 75.2326L256.477 77.3344L255.409 77.0814L256.431 72.7638L257.438 73.0023L257.35 73.6474C257.636 73.2618 258.116 73.0703 258.694 73.2072C258.843 73.2424 258.987 73.2952 259.152 73.3805ZM260.201 78.2163L259.509 73.4835L260.648 73.7531L260.93 75.9195C260.991 76.4798 261.035 76.9617 261.031 77.2106C261.157 76.9536 261.422 76.5355 261.718 76.1061L262.977 74.3048L264.081 74.5661L261.252 78.4652L260.201 78.2163ZM265.434 73.971C265.066 73.8839 264.846 73.5265 264.931 73.1674C265.016 72.8083 265.371 72.5965 265.739 72.6836C266.09 72.7666 266.312 73.1153 266.227 73.4744C266.142 73.8334 265.785 74.054 265.434 73.971ZM263.67 79.0379L264.695 74.7115L265.763 74.9646L264.739 79.2909L263.67 79.0379ZM267.751 80.1245C266.464 79.8197 265.784 78.669 266.101 77.329C266.422 75.9716 267.529 75.2439 268.799 75.5447C270.095 75.8516 270.713 76.9136 270.393 78.2623L270.317 78.5863L267.057 77.8236C266.955 78.6042 267.267 79.0849 267.976 79.2529C268.563 79.3918 269.002 79.2554 269.222 78.8728L270.212 79.1072C269.804 80.0095 268.881 80.3921 267.751 80.1245ZM268.6 76.4225C267.969 76.2732 267.503 76.5235 267.245 77.1467L269.417 77.661C269.558 77.0655 269.239 76.5739 268.6 76.4225ZM271.484 80.8883L271.107 76.2301L272.219 76.4935L272.349 78.4849C272.365 78.8493 272.363 79.2466 272.346 79.6682C272.525 79.2664 272.668 79.0136 272.91 78.6177L273.945 76.9021L275.031 77.1592L275.169 79.1528C275.18 79.3403 275.202 80.0299 275.186 80.3314C275.333 80.0239 275.595 79.5404 275.738 79.2876L276.756 77.5678L277.886 77.8353L275.364 81.807L274.365 81.5706L274.214 79.5554C274.173 78.9447 274.174 78.5102 274.191 78.283C274.1 78.4741 273.948 78.7619 273.561 79.4194L272.526 81.1351L271.484 80.8883Z" fill="#8F9BB7"/>
<line x1="190.745" y1="80.5257" x2="307.931" y2="108.277" stroke="#282D45" stroke-width="0.80823"/>
<line x1="185.16" y1="104.12" x2="302.345" y2="131.871" stroke="#282D45" stroke-width="0.80823"/>
<line x1="179.57" y1="127.714" x2="296.755" y2="155.465" stroke="#282D45" stroke-width="0.80823"/>
<line x1="173.984" y1="151.308" x2="291.169" y2="179.059" stroke="#282D45" stroke-width="0.80823"/>
<path d="M177.733 79.5442L175.761 81.2202L174.383 80.8939L176.555 79.086C176.374 79.093 176.188 79.0788 176.019 79.0386C174.593 78.7011 173.868 77.4728 174.198 76.076C174.547 74.6037 175.885 73.8342 177.358 74.1829C178.849 74.536 179.703 75.8945 179.368 77.3102C179.171 78.1407 178.755 78.6799 177.733 79.5442ZM178.134 77.008C178.333 76.168 177.915 75.451 177.103 75.2588C176.31 75.0711 175.615 75.5243 175.416 76.3643C175.219 77.1948 175.64 77.9024 176.433 78.0901C177.254 78.2846 177.937 77.8385 178.134 77.008ZM179.86 78.5629C180.367 76.4205 181.863 75.2398 183.628 75.6577C185.393 76.0757 186.209 77.804 185.702 79.9464C185.197 82.0793 183.765 83.2451 181.934 82.8115C180.103 82.378 179.355 80.6958 179.86 78.5629ZM181.049 78.8445C180.671 80.4395 181.101 81.4881 182.186 81.7451C183.281 82.0043 184.135 81.2597 184.513 79.6647C184.899 78.032 184.47 76.9835 183.375 76.7242C182.29 76.4672 181.436 77.2118 181.049 78.8445Z" fill="#8F9BB7"/>
<path d="M169.451 99.5C168.429 100.364 168.012 100.904 167.816 101.734C167.48 103.15 168.335 104.508 169.826 104.861C171.298 105.21 172.637 104.441 172.985 102.968C173.316 101.571 172.59 100.343 171.165 100.006C170.995 99.9654 170.809 99.9513 170.628 99.9582L172.801 98.1503L171.423 97.824L169.451 99.5ZM169.05 102.036C169.246 101.206 169.93 100.76 170.751 100.954C171.544 101.142 171.965 101.849 171.768 102.68C171.569 103.52 170.864 103.971 170.081 103.785C169.269 103.593 168.851 102.876 169.05 102.036ZM173.982 102.088C173.477 104.221 174.225 105.903 176.056 106.337C177.887 106.77 179.319 105.604 179.824 103.472C180.332 101.329 179.515 99.6008 177.75 99.1829C175.985 98.7649 174.49 99.9457 173.982 102.088ZM175.172 102.37C175.558 100.737 176.412 99.9923 177.498 100.249C178.592 100.509 179.022 101.557 178.635 103.19C178.257 104.785 177.403 105.529 176.309 105.27C175.223 105.013 174.794 103.965 175.172 102.37Z" fill="#8F9BB7"/>
<path d="M164.39 125.585C165.353 125.813 165.685 126.43 165.52 127.128C165.339 127.893 164.723 128.265 163.968 128.086C163.231 127.912 162.848 127.343 163.036 126.55L161.847 126.268C161.493 127.76 162.344 128.838 163.694 129.158C165.091 129.489 166.407 128.853 166.743 127.438C167.031 126.22 166.393 125.252 165.385 124.794L167.432 123.644L167.66 122.681L163.28 121.644L163.028 122.711L165.897 123.39L163.736 124.603L163.551 125.386L164.39 125.585ZM167.73 126.356C167.225 128.489 167.972 130.171 169.803 130.605C171.634 131.038 173.067 129.872 173.572 127.739C174.079 125.597 173.262 123.869 171.497 123.451C169.733 123.033 168.237 124.214 167.73 126.356ZM168.919 126.638C169.305 125.005 170.16 124.26 171.245 124.517C172.34 124.776 172.769 125.825 172.382 127.458C172.005 129.053 171.151 129.797 170.056 129.538C168.971 129.281 168.541 128.233 168.919 126.638Z" fill="#8F9BB7"/>
<path d="M162.087 150.768C162.594 148.626 164.09 147.445 165.855 147.863C167.62 148.281 168.436 150.009 167.929 152.152C167.424 154.285 165.991 155.45 164.161 155.017C162.33 154.583 161.582 152.901 162.087 150.768ZM163.276 151.05C162.898 152.645 163.328 153.693 164.413 153.95C165.508 154.21 166.362 153.465 166.74 151.87C167.126 150.237 166.697 149.189 165.602 148.929C164.517 148.672 163.663 149.417 163.276 151.05Z" fill="#8F9BB7"/>
<path d="M177.313 142.544C181.211 145.959 190.051 150.815 196.509 149.166C205.791 146.796 212.623 139.583 219.357 126.337C224.634 115.959 228.795 112.791 238.998 113.546C254.803 114.716 260.161 120.634 263.255 125.105C266.349 129.575 267.012 135.546 276.449 137.781C285.887 140.016 294.413 116.287 301.585 117.57" stroke="#32CAFD"/>
<path d="M177.313 142.544C181.211 145.959 190.051 150.815 196.509 149.166C205.791 146.796 212.623 139.583 219.357 126.337C224.634 115.959 228.795 112.791 238.998 113.546C254.803 114.716 260.161 120.634 263.255 125.105C266.349 129.575 267.012 135.546 276.449 137.781C285.887 140.016 294.413 116.287 301.585 117.57" stroke="#32CAFD" stroke-width="6" stroke-linecap="round" stroke-linejoin="round" stroke-dasharray="1 10000"/>
<path d="M177.313 142.544C181.211 145.959 190.051 150.815 196.509 149.166C205.791 146.796 212.623 139.583 219.357 126.337C224.634 115.959 228.795 112.791 238.998 113.546C254.803 114.716 260.161 120.634 263.255 125.105C266.349 129.575 267.012 135.546 276.449 137.781C285.887 140.016 294.413 116.287 301.585 117.57" stroke="#0E1330" stroke-width="4" stroke-linecap="round" stroke-linejoin="round" stroke-dasharray="1 10000"/>
<path d="M179.733 132.32C188.812 131.978 208.067 134.378 212.455 146.713C217.94 162.132 226.462 162.706 230.276 160.901C234.953 158.686 240.582 138.424 252.4 142.883C264.218 147.343 281.271 131.448 282.906 121.037C284.541 110.627 297.693 104.19 306.179 108.691" stroke="#5C00E7"/>
<path d="M179.733 132.32C188.812 131.978 208.067 134.378 212.455 146.713C217.94 162.132 226.462 162.706 230.276 160.901C234.953 158.686 240.582 138.424 252.4 142.883C264.218 147.343 281.271 131.448 282.906 121.037C284.541 110.627 297.693 104.19 306.179 108.691" stroke="#5C00E7" stroke-width="6" stroke-linecap="round" stroke-linejoin="round" stroke-dasharray="1 10000"/>
<path d="M179.733 132.32C188.812 131.978 208.067 134.378 212.455 146.713C217.94 162.132 226.462 162.706 230.276 160.901C234.953 158.686 240.582 138.424 252.4 142.883C264.218 147.343 281.271 131.448 282.906 121.037C284.541 110.627 297.693 104.19 306.179 108.691" stroke="#0E1330" stroke-width="4" stroke-linecap="round" stroke-linejoin="round" stroke-dasharray="1 10000"/>
<defs>
<linearGradient id="paint0_linear_481_1617" x1="-12.807" y1="146.954" x2="99.9488" y2="129.964" gradientUnits="userSpaceOnUse">
<stop stop-color="#E1E1E1" stop-opacity="0.882353"/>
<stop offset="1" stop-color="#FBFBFB" stop-opacity="0"/>
<stop offset="1" stop-color="#E1E1E1" stop-opacity="0"/>
</linearGradient>
<linearGradient id="paint1_linear_481_1617" x1="62.4381" y1="37.1628" x2="149.43" y2="110.759" gradientUnits="userSpaceOnUse">
<stop stop-color="#E1E1E1"/>
<stop offset="1" stop-color="#EEEEEE" stop-opacity="0"/>
</linearGradient>
<linearGradient id="paint2_linear_481_1617" x1="17.0533" y1="115.785" x2="129.809" y2="98.7962" gradientUnits="userSpaceOnUse">
<stop stop-color="#E1E1E1"/>
<stop offset="1" stop-color="#E1E1E1" stop-opacity="0"/>
</linearGradient>
<clipPath id="clip0_481_1617">
<rect x="25.5586" y="184.687" width="91" height="190.543" rx="7" transform="rotate(-98.5684 25.5586 184.687)" fill="white"/>
</clipPath>
</defs>
</svg>
