<svg width="409" height="392" viewBox="0 0 409 392" fill="none" xmlns="http://www.w3.org/2000/svg">
<g clip-path="url(#clip0_481_2415)">
<rect x="1" y="1" width="407" height="390" rx="16" fill="#060B27" fill-opacity="0.6"/>
<path d="M123.753 106H114.562L109.836 113.877L114.562 122.018H123.753L128.217 113.877L123.753 106Z" fill="#AA00FA"/>
<g opacity="0.3">
<path d="M209.618 119.392H146.336V128.057H209.618V119.392Z" fill="url(#paint0_linear_481_2415)"/>
<path d="M272.638 148.539H146.336V157.204H272.638V148.539Z" fill="url(#paint1_linear_481_2415)"/>
<path d="M225.373 177.685H146.336V186.351H225.373V177.685Z" fill="url(#paint2_linear_481_2415)"/>
<path d="M272.638 206.832H146.336V215.497H272.638V206.832Z" fill="url(#paint3_linear_481_2415)"/>
<path d="M178.108 235.978H146.336V244.644H178.108V235.978Z" fill="url(#paint4_linear_481_2415)"/>
</g>
<path d="M119.025 115.978V235.453C119.025 253.309 133.467 267.751 151.323 267.751H300.995" stroke="#AA00FA" stroke-width="2.62583" stroke-miterlimit="10"/>
<path d="M108 145.65H132.42" stroke="#AA00FA" stroke-width="2.62583" stroke-miterlimit="10"/>
<path d="M108 172.959H132.42" stroke="#AA00FA" stroke-width="2.62583" stroke-miterlimit="10"/>
<path d="M108 200.267H132.42" stroke="#AA00FA" stroke-width="2.62583" stroke-miterlimit="10"/>
<path d="M108 227.313H132.42" stroke="#AA00FA" stroke-width="2.62583" stroke-miterlimit="10"/>
<path d="M163.529 283.649H162.699V278.91H164.508C165.584 278.91 166.213 279.455 166.213 280.389C166.213 281.024 165.914 281.478 165.357 281.705L166.258 283.649H165.35L164.547 281.88H163.529V283.649ZM163.529 279.65V281.147H164.508C165.033 281.147 165.344 280.868 165.344 280.389C165.344 279.915 165.033 279.65 164.508 279.65H163.529ZM170.504 283.649H167.561V278.91H170.504V279.675H168.39V280.894H170.283V281.627H168.39V282.884H170.504V283.649ZM171.65 280.233C171.65 279.403 172.337 278.826 173.335 278.826C174.295 278.826 174.904 279.358 174.93 280.214H174.1C174.081 279.805 173.789 279.565 173.322 279.565C172.81 279.565 172.48 279.812 172.48 280.207C172.48 280.544 172.661 280.732 173.057 280.823L173.802 280.985C174.612 281.16 175.008 281.575 175.008 282.282C175.008 283.163 174.321 283.734 173.277 283.734C172.266 283.734 171.604 283.196 171.585 282.346H172.415C172.421 282.748 172.745 282.988 173.277 282.988C173.828 282.988 174.178 282.748 174.178 282.353C174.178 282.035 174.016 281.847 173.627 281.763L172.875 281.594C172.071 281.419 171.65 280.959 171.65 280.233ZM179.22 283.649H176.277V278.91H179.22V279.675H177.107V280.894H179V281.627H177.107V282.884H179.22V283.649ZM181.047 283.649H180.185L181.896 278.91H182.746L184.457 283.649H183.582L183.199 282.554H181.43L181.047 283.649ZM182.214 280.324L181.676 281.854H182.96L182.415 280.324C182.376 280.201 182.331 280.058 182.318 279.961C182.298 280.051 182.259 280.194 182.214 280.324ZM186.4 283.649H185.57V278.91H187.379C188.455 278.91 189.084 279.455 189.084 280.389C189.084 281.024 188.785 281.478 188.228 281.705L189.129 283.649H188.221L187.418 281.88H186.4V283.649ZM186.4 279.65V281.147H187.379C187.904 281.147 188.215 280.868 188.215 280.389C188.215 279.915 187.904 279.65 187.379 279.65H186.4ZM192.422 283.727C191.041 283.727 190.147 282.768 190.147 281.283C190.147 279.812 191.074 278.833 192.461 278.833C193.582 278.833 194.419 279.487 194.581 280.505H193.706C193.544 279.954 193.07 279.63 192.442 279.63C191.566 279.63 191.015 280.265 191.015 281.277C191.015 282.282 191.573 282.93 192.442 282.93C193.083 282.93 193.576 282.593 193.732 282.068H194.594C194.412 283.066 193.544 283.727 192.422 283.727ZM196.686 283.649H195.857V278.91H196.686V280.868H198.787V278.91H199.617V283.649H198.787V281.64H196.686V283.649ZM206.498 283.649L206.18 283.293C205.804 283.578 205.324 283.734 204.754 283.734C203.723 283.734 203.03 283.189 203.03 282.392C203.03 281.815 203.406 281.342 204.132 280.991C203.762 280.564 203.619 280.272 203.619 279.915C203.619 279.286 204.132 278.833 204.832 278.833C205.525 278.833 206.005 279.261 206.005 279.876C206.005 280.35 205.752 280.726 205.162 281.121L206.115 282.191C206.2 281.964 206.245 281.692 206.245 281.38H207.016C207.016 281.931 206.887 282.405 206.647 282.781L207.418 283.649H206.498ZM204.371 279.909C204.371 280.142 204.475 280.337 204.78 280.687C205.11 280.492 205.273 280.226 205.273 279.902C205.273 279.624 205.104 279.462 204.832 279.462C204.546 279.462 204.371 279.63 204.371 279.909ZM203.866 282.314C203.866 282.774 204.235 283.053 204.845 283.053C205.201 283.053 205.493 282.956 205.72 282.774L204.514 281.419C204.067 281.672 203.866 281.944 203.866 282.314ZM212.26 283.649H210.555V278.91H212.215C213.615 278.91 214.581 279.876 214.581 281.29C214.581 282.683 213.634 283.649 212.26 283.649ZM212.137 279.675H211.385V282.884H212.182C213.129 282.884 213.706 282.275 213.706 281.29C213.706 280.285 213.116 279.675 212.137 279.675ZM218.816 283.649H215.872V278.91H218.816V279.675H216.702V280.894H218.595V281.627H216.702V282.884H218.816V283.649ZM221.563 283.649L219.774 278.91H220.655L221.692 281.64C221.796 281.925 221.887 282.204 221.991 282.586C222.107 282.171 222.205 281.88 222.295 281.64L223.32 278.91H224.182L222.419 283.649H221.563ZM228.235 283.649H225.292V278.91H228.235V279.675H226.122V280.894H228.015V281.627H226.122V282.884H228.235V283.649ZM230.483 278.91V282.884H232.467V283.649H229.653V278.91H230.483ZM237.756 281.277C237.756 282.716 236.81 283.727 235.448 283.727C234.093 283.727 233.16 282.722 233.16 281.277C233.16 279.838 234.1 278.826 235.455 278.826C236.81 278.826 237.756 279.831 237.756 281.277ZM236.881 281.277C236.881 280.265 236.324 279.624 235.455 279.624C234.586 279.624 234.029 280.265 234.029 281.277C234.029 282.288 234.586 282.93 235.455 282.93C236.324 282.93 236.881 282.275 236.881 281.277ZM240.921 282.016H239.877V283.649H239.047V278.91H240.921C241.874 278.91 242.49 279.533 242.49 280.46C242.49 281.374 241.867 282.016 240.921 282.016ZM240.759 279.65H239.877V281.277H240.746C241.316 281.277 241.621 280.972 241.621 280.453C241.621 279.935 241.31 279.65 240.759 279.65ZM244.51 283.649H243.706V278.91H244.51L246.04 282.683L247.57 278.91H248.387V283.649H247.583V282.191C247.583 281.238 247.583 280.959 247.628 280.622L246.423 283.649H245.658L244.458 280.628C244.504 280.914 244.51 281.361 244.51 281.951V283.649ZM252.898 283.649H249.954V278.91H252.898V279.675H250.784V280.894H252.677V281.627H250.784V282.884H252.898V283.649ZM255.133 283.649H254.316V278.91H255.139L257.363 282.269V278.91H258.18V283.649H257.363L255.133 280.291V283.649ZM259.332 279.675V278.91H262.937V279.675H261.549V283.649H260.72V279.675H259.332Z" fill="#E3A6FF"/>
<path opacity="0.3" d="M362.468 390.297C377.932 404.271 401.892 402.956 415.985 387.361C430.078 371.766 428.967 347.795 413.503 333.822C398.04 319.848 374.079 321.162 359.987 336.757C345.894 352.353 347.005 376.323 362.468 390.297Z" stroke="url(#paint5_linear_481_2415)" stroke-width="0.487469" stroke-miterlimit="10"/>
<path opacity="0.3" d="M348.722 404.774C372.5 426.261 409.359 424.553 431.047 400.958C452.736 377.362 451.042 340.815 427.264 319.327C403.485 297.839 366.626 299.548 344.938 323.143C323.249 346.739 324.943 383.286 348.722 404.774Z" stroke="url(#paint6_linear_481_2415)" stroke-width="0.544043" stroke-miterlimit="10"/>
<path opacity="0.3" d="M335.113 419.582C367.133 448.518 416.768 446.217 445.974 414.443C475.181 382.67 472.9 333.454 440.879 304.518C408.858 275.583 359.224 277.883 330.017 309.657C300.811 341.431 303.092 390.646 335.113 419.582Z" stroke="url(#paint7_linear_481_2415)" stroke-width="0.581492" stroke-miterlimit="10"/>
<path opacity="0.3" d="M320.728 436.49C361.089 472.962 423.628 469.532 460.411 428.827C497.195 388.122 494.294 325.557 453.934 289.084C413.573 252.611 351.035 256.042 314.251 296.747C277.468 337.452 280.367 400.017 320.728 436.49Z" stroke="url(#paint8_linear_481_2415)" stroke-width="0.562137" stroke-miterlimit="10"/>
<path opacity="0.3" d="M306.934 451.752C356.052 496.138 432.157 491.963 476.921 442.427C521.685 392.891 518.156 316.753 469.038 272.367C419.921 227.982 343.815 232.157 299.051 281.693C254.288 331.228 257.817 407.367 306.934 451.752Z" stroke="url(#paint9_linear_481_2415)" stroke-width="0.505129" stroke-miterlimit="10"/>
</g>
<rect x="0.5" y="0.5" width="408" height="391" rx="16.5" stroke="#282D45"/>
<defs>
<linearGradient id="paint0_linear_481_2415" x1="295.809" y1="123.663" x2="108.729" y2="123.663" gradientUnits="userSpaceOnUse">
<stop stop-opacity="0"/>
<stop offset="1" stop-color="white"/>
</linearGradient>
<linearGradient id="paint1_linear_481_2415" x1="444.639" y1="152.862" x2="71.2757" y2="152.862" gradientUnits="userSpaceOnUse">
<stop stop-opacity="0"/>
<stop offset="1" stop-color="white"/>
</linearGradient>
<linearGradient id="paint2_linear_481_2415" x1="333.017" y1="182.06" x2="99.366" y2="182.06" gradientUnits="userSpaceOnUse">
<stop stop-opacity="0"/>
<stop offset="1" stop-color="white"/>
</linearGradient>
<linearGradient id="paint3_linear_481_2415" x1="444.639" y1="211.26" x2="71.2757" y2="211.26" gradientUnits="userSpaceOnUse">
<stop stop-opacity="0"/>
<stop offset="1" stop-color="white"/>
</linearGradient>
<linearGradient id="paint4_linear_481_2415" x1="221.394" y1="240.458" x2="127.456" y2="240.458" gradientUnits="userSpaceOnUse">
<stop stop-opacity="0"/>
<stop offset="1" stop-color="white"/>
</linearGradient>
<linearGradient id="paint5_linear_481_2415" x1="413.596" y1="333.7" x2="362.366" y2="390.391" gradientUnits="userSpaceOnUse">
<stop stop-color="white" stop-opacity="0"/>
<stop offset="0.492" stop-color="white"/>
<stop offset="1" stop-color="white" stop-opacity="0"/>
</linearGradient>
<linearGradient id="paint6_linear_481_2415" x1="427.358" y1="319.204" x2="349.35" y2="405.528" gradientUnits="userSpaceOnUse">
<stop stop-color="white" stop-opacity="0"/>
<stop offset="0.492" stop-color="white"/>
<stop offset="1" stop-color="white" stop-opacity="0"/>
</linearGradient>
<linearGradient id="paint7_linear_481_2415" x1="440.992" y1="304.373" x2="335.975" y2="420.586" gradientUnits="userSpaceOnUse">
<stop stop-color="white" stop-opacity="0"/>
<stop offset="0.492" stop-color="white"/>
<stop offset="1" stop-color="white" stop-opacity="0"/>
</linearGradient>
<linearGradient id="paint8_linear_481_2415" x1="454.044" y1="288.941" x2="320.608" y2="436.602" gradientUnits="userSpaceOnUse">
<stop stop-color="white" stop-opacity="0"/>
<stop offset="0.492" stop-color="white"/>
<stop offset="1" stop-color="white" stop-opacity="0"/>
</linearGradient>
<linearGradient id="paint9_linear_481_2415" x1="469.133" y1="272.243" x2="306.831" y2="451.848" gradientUnits="userSpaceOnUse">
<stop stop-color="white" stop-opacity="0"/>
<stop offset="0.492" stop-color="white"/>
<stop offset="1" stop-color="white" stop-opacity="0"/>
</linearGradient>
<clipPath id="clip0_481_2415">
<rect x="1" y="1" width="407" height="390" rx="16" fill="white"/>
</clipPath>
</defs>
</svg>
