<svg width="144" height="144" viewBox="0 0 144 144" fill="none" xmlns="http://www.w3.org/2000/svg">
<path opacity="0.1" d="M25.0481 50.2624H21.4299V28.5531C21.4299 20.6382 27.7618 14.0802 35.9028 14.0802H87.6886C91.5329 14.0802 95.1511 15.6632 97.8648 18.3768L103.971 24.4826C106.684 27.1962 108.267 30.8145 108.267 34.6588V50.2624H104.649V34.6588C104.649 31.719 103.292 29.0054 101.257 26.9701L95.3773 21.0905C93.342 19.0553 90.6284 17.6984 87.6886 17.6984H35.9028C29.797 17.6984 25.0481 22.6735 25.0481 28.5531V50.2624ZM21.4299 61.1171C15.3242 61.1171 10.5753 66.0921 10.5753 71.9717V100.917C10.5753 102.953 12.1582 104.536 14.1935 104.536H21.4299V93.681C21.4299 89.8367 24.5959 86.4446 28.6663 86.4446H57.6121C57.6121 87.8014 57.6121 88.9321 57.6121 90.0628H28.6663C26.6311 90.0628 25.0481 91.8719 25.0481 93.681V122.627C25.0481 124.662 26.6311 126.245 28.6663 126.245H101.031C102.84 126.245 104.649 124.662 104.649 122.627V121.044C104.649 121.044 104.875 121.044 105.101 120.818L108.041 123.984C107.589 127.376 104.423 129.863 101.031 129.863H28.6663C24.5959 129.863 21.4299 126.697 21.4299 122.627V108.154H14.1935C10.123 108.154 6.95703 104.988 6.95703 100.917V71.9717C6.95703 64.0569 13.2889 57.4988 21.4299 57.4988H71.8588C70.502 58.6295 69.1452 59.9864 67.7883 61.1171H21.4299ZM93.7943 61.3432C84.5226 61.3432 76.3816 66.0921 71.8588 74.007C67.1099 81.6957 67.1099 91.4196 71.8588 99.3345C76.3816 107.023 84.5226 111.998 93.7943 111.998C102.84 111.998 110.981 107.023 115.504 99.3345C120.253 91.4196 120.253 81.6957 115.504 74.007C110.981 66.0921 102.84 61.3432 93.7943 61.3432ZM93.7943 115.616C77.7384 115.616 64.8485 102.5 64.8485 86.6707C64.8485 70.6149 77.7384 57.725 93.7943 57.725C109.624 57.725 122.74 70.6149 122.74 86.6707C122.74 93.9072 119.8 100.691 115.504 105.666L136.535 126.923C137.213 127.602 137.213 128.733 136.535 129.411C135.856 130.089 134.725 130.089 134.047 129.411L112.79 108.38C107.815 112.677 101.031 115.616 93.7943 115.616Z" fill="#7B78FF"/>
</svg>
