<svg width="127" height="128" viewBox="0 0 127 128" fill="none" xmlns="http://www.w3.org/2000/svg">
<rect x="0.504753" y="1.15417" width="125.863" height="125.863" rx="18.7136" fill="#1D1C20"/>
<rect x="0.504753" y="1.15417" width="125.863" height="125.863" rx="18.7136" fill="#0E1330"/>
<path d="M96.804 59.7234C96.804 60.2126 96.804 60.6319 96.804 61.1211C96.5244 68.2497 93.9386 74.8192 89.8152 80.0608L89.7453 80.1307C89.1862 80.8995 88.5572 81.5983 87.8583 82.2972L87.7884 82.3671C82.407 88.0979 74.9989 91.8719 66.7521 92.5708C66.6822 92.5708 66.5425 92.5708 66.4726 92.5708C65.9833 92.6406 65.564 92.6406 65.0748 92.6406C64.6555 92.6406 64.306 92.6406 63.8867 92.6406H63.677C63.4674 92.6406 63.2577 92.6406 63.0481 92.6406C62.7685 92.6406 62.5588 92.6406 62.2793 92.6406C61.5105 92.6406 60.8116 92.5708 60.0429 92.431C52.0756 91.5224 44.9471 87.7485 39.7054 82.2273L39.6356 82.1574C39.4958 82.0177 39.356 81.808 39.2162 81.6682C39.0764 81.4585 38.8668 81.3188 38.727 81.1091C38.6571 80.9693 38.5173 80.8995 38.4475 80.7597C38.3776 80.6898 38.3077 80.55 38.1679 80.4801C38.0281 80.3404 37.8883 80.1307 37.7486 79.9909L37.6787 79.921C33.6252 74.6794 31.0393 68.1798 30.7598 61.0513C30.7598 60.562 30.7598 60.1427 30.7598 59.6535C30.7598 59.1643 30.7598 58.7449 30.7598 58.2557C31.0393 51.6164 33.2757 45.4662 36.9099 40.4343L36.9798 40.3644C37.0497 40.2945 37.0497 40.2246 37.1196 40.1547C37.1895 40.0149 37.3292 39.9451 37.3991 39.8053C37.3991 39.8053 37.3991 39.7354 37.469 39.7354C37.6088 39.5257 37.7486 39.386 37.8884 39.1763C38.0281 38.9666 38.1679 38.8268 38.3077 38.6172C38.4475 38.4075 38.5872 38.2677 38.7969 38.0581C44.1084 31.9778 51.5864 27.7845 60.0429 26.8061C60.8116 26.7362 61.5105 26.6663 62.2793 26.5964C62.5588 26.5964 62.7685 26.5964 63.0481 26.5964C63.2577 26.5964 63.4674 26.5964 63.677 26.5964H63.8867C64.306 26.5964 64.6555 26.5964 65.0748 26.5964C65.564 26.5964 66.0532 26.6663 66.4726 26.6663C66.5425 26.6663 66.6822 26.6663 66.7521 26.6663C75.4881 27.4351 83.3156 31.6284 88.7669 37.9183L88.8367 37.9882C89.4657 38.6871 90.0248 39.4558 90.5839 40.1547L90.6538 40.2246C94.288 45.2565 96.5244 51.4067 96.804 58.0461C96.804 58.8148 96.804 59.2342 96.804 59.7234Z" fill="#AA00FA"/>
<path d="M93.5191 58.6053C93.5191 42.1816 80.2404 28.9028 63.8167 28.9028C47.393 28.9028 34.1143 42.1816 34.1143 58.6053C34.1143 58.6053 44.6673 36.6604 63.7468 36.6604C82.8262 36.6604 93.5191 58.6053 93.5191 58.6053Z" fill="url(#paint0_linear_481_2657)"/>
<path d="M63.8171 78.1737C73.6982 78.1737 81.7085 70.1634 81.7085 60.2823C81.7085 50.4012 73.6982 42.391 63.8171 42.391C53.936 42.391 45.9258 50.4012 45.9258 60.2823C45.9258 70.1634 53.936 78.1737 63.8171 78.1737Z" fill="#F7FFFF"/>
<path d="M63.8171 70.5561C58.1561 70.5561 53.4736 65.9435 53.4736 60.2127C53.4736 54.5518 58.0863 49.8693 63.8171 49.8693C69.478 49.8693 74.1605 54.4819 74.1605 60.2127C74.0906 65.9435 69.478 70.5561 63.8171 70.5561Z" fill="#A560DC"/>
<path d="M63.8169 64.4049C61.5108 64.4049 59.624 62.5181 59.624 60.212C59.624 57.906 61.5108 56.0192 63.8169 56.0192C66.123 56.0192 68.0098 57.906 68.0098 60.212C68.0098 62.588 66.123 64.4049 63.8169 64.4049Z" fill="#2D0456"/>
<path d="M73.323 60.2826C73.323 55.041 69.0599 50.7778 63.8183 50.7778C58.5767 50.7778 54.3135 55.041 54.3135 60.2826C54.3135 60.2826 57.6681 53.2938 63.7484 53.2938C69.8286 53.2239 73.323 60.2826 73.323 60.2826Z" fill="url(#paint1_linear_481_2657)"/>
<path d="M94.3555 79.2916L89.4633 84.1838C86.0388 87.6083 82.0552 90.264 77.7221 92.0112C73.3891 93.8283 68.6367 94.7369 63.8843 94.7369C59.1319 94.7369 54.3795 93.7584 50.0465 92.0112C45.7134 90.1941 41.6599 87.5384 38.3053 84.1838L33.4131 79.2916C32.7142 78.5927 32.6443 77.6842 32.854 76.9154C33.1335 76.0768 33.9023 75.4478 34.9506 75.4478C38.9343 75.4478 42.9179 76.6359 46.2725 78.8024C51.6539 82.2968 57.804 84.044 63.9542 84.044C70.1043 84.044 76.2545 82.2968 81.6359 78.8024C83.3132 77.6842 85.1303 76.8455 87.0172 76.2864C88.9042 75.7273 90.931 75.4478 92.8878 75.4478C94.7748 75.5176 95.7532 77.8938 94.3555 79.2916Z" fill="#A560DC"/>
<path d="M94.3555 79.291L89.4633 84.1831C86.0388 87.6077 82.0552 90.2634 77.7221 92.0106C73.3891 93.8277 68.6367 94.7362 63.8843 94.7362C59.1319 94.7362 54.3795 93.7578 50.0465 92.0106C45.7134 90.1935 41.6599 87.5378 38.3053 84.1831L33.4131 79.291C32.7142 78.5921 32.6443 77.6836 32.854 76.9148C32.854 76.9148 37.5365 80.2694 45.993 86.2099C52.842 91.0322 60.3899 91.4515 62.9757 91.3816C63.6047 91.3816 64.2337 91.3816 64.7928 91.3816C67.3787 91.3816 74.8567 91.0322 81.7756 86.2099C90.2321 80.2694 94.9146 76.9148 94.9146 76.9148C95.1243 77.7535 94.9845 78.662 94.3555 79.291Z" fill="#2D0456"/>
<path d="M71.431 97.1133H56.1255C55.846 97.1133 55.5664 96.8338 55.5664 96.5542V93.1996C55.5664 92.92 55.846 92.6405 56.1255 92.6405H71.431C71.7106 92.6405 71.9901 92.92 71.9901 93.1996V96.5542C71.9901 96.9037 71.7106 97.1133 71.431 97.1133Z" fill="#2D0456"/>
<path d="M71.431 101.517H56.1255C55.846 101.517 55.5664 101.237 55.5664 100.957V97.6028C55.5664 97.3233 55.846 97.0437 56.1255 97.0437H71.431C71.7106 97.0437 71.9901 97.3233 71.9901 97.6028V100.957C71.9901 101.237 71.7106 101.517 71.431 101.517Z" fill="#A560DC"/>
<rect x="0.504753" y="1.15417" width="125.863" height="125.863" rx="18.7136" stroke="#282D45" stroke-width="1.02318"/>
<defs>
<linearGradient id="paint0_linear_481_2657" x1="58.6412" y1="15.4896" x2="62.3201" y2="45.5898" gradientUnits="userSpaceOnUse">
<stop stop-color="white"/>
<stop offset="1" stop-color="white" stop-opacity="0"/>
</linearGradient>
<linearGradient id="paint1_linear_481_2657" x1="62.1512" y1="46.4643" x2="63.3274" y2="56.0877" gradientUnits="userSpaceOnUse">
<stop stop-color="white"/>
<stop offset="1" stop-color="white" stop-opacity="0"/>
</linearGradient>
</defs>
</svg>
