<svg width="127" height="128" viewBox="0 0 127 128" fill="none" xmlns="http://www.w3.org/2000/svg">
<rect x="0.504753" y="0.986321" width="125.863" height="125.863" rx="18.7136" fill="#1D1C20"/>
<rect x="0.504753" y="0.986321" width="125.863" height="125.863" rx="18.7136" fill="#0E1330"/>
<path d="M88.4601 54.7676V88.6633C88.4601 91.6685 86.014 94.1145 83.0088 94.1145H39.2589C36.2537 94.1145 33.8076 91.6685 33.8076 88.6633V54.7676C33.8076 51.7624 36.2537 49.3163 39.2589 49.3163H83.0088C86.014 49.3862 88.4601 51.7624 88.4601 54.7676Z" fill="#AA00FA"/>
<path d="M88.4601 81.9536V88.3134C88.4601 91.5283 86.014 94.1141 83.0088 94.1141H39.2589C36.2537 94.1141 33.8076 91.5283 33.8076 88.3134V81.9536H88.4601Z" fill="#7400AB"/>
<path d="M29.6139 75.4539H24.7223C24.303 75.4539 24.0234 75.1045 24.0234 74.7551V70.4224C24.0234 70.0032 24.3728 69.7236 24.7223 69.7236H29.6139C29.6838 69.7236 29.7537 69.7935 29.7537 69.8634V75.3141C29.7537 75.384 29.6838 75.4539 29.6139 75.4539Z" fill="#2D0456"/>
<path d="M97.5412 75.4535H92.6495C92.5797 75.4535 92.5098 75.3837 92.5098 75.3138V69.863C92.5098 69.7931 92.5797 69.7233 92.6495 69.7233H97.5412C97.9605 69.7233 98.24 70.0727 98.24 70.4221V74.7547C98.3099 75.174 97.9605 75.4535 97.5412 75.4535Z" fill="#2D0456"/>
<path d="M94.6091 82.7223H88.459V62.2451H94.6091C95.7273 62.2451 96.6359 63.1537 96.6359 64.2719V80.7654C96.6359 81.8138 95.7273 82.7223 94.6091 82.7223Z" fill="#A560DC"/>
<path d="M33.8078 62.2456V82.7228C33.1089 82.7228 32.3401 82.6529 31.7111 82.4433C28.2167 81.5347 25.6309 78.3199 25.6309 74.5459V70.4225C25.6309 68.1861 26.5394 66.0895 28.007 64.6218C28.9855 63.6434 30.3134 62.8746 31.7111 62.5252C32.41 62.3155 33.1089 62.2456 33.8078 62.2456Z" fill="#A560DC"/>
<path d="M47.2935 72.1699C44.5679 72.1699 42.4014 70.0034 42.4014 67.2778V64.7618C42.4014 62.0362 44.5679 59.8696 47.2935 59.8696C50.0192 59.8696 52.1857 62.0362 52.1857 64.7618V67.2778C52.1857 69.9335 50.0192 72.1699 47.2935 72.1699Z" fill="#2D0456"/>
<path d="M47.2955 70.9816C45.269 70.9816 43.5918 69.3045 43.5918 67.2779V64.7622C43.5918 62.7356 45.269 61.0585 47.2955 61.0585C49.3221 61.0585 50.9992 62.7356 50.9992 64.7622V67.2779C50.9992 69.3045 49.3221 70.9816 47.2955 70.9816Z" fill="#A560DC"/>
<path d="M49.8098 64.6916V67.2074C49.8098 68.605 48.6917 69.7231 47.2941 69.7231C46.3856 69.7231 45.547 69.2339 45.1277 68.4652C44.9181 68.1158 44.7783 67.6965 44.7783 67.2074V64.6916C44.7783 63.294 45.8964 62.1759 47.2941 62.1759C47.9929 62.1759 48.6218 62.4554 49.0411 62.8747C49.1809 63.0145 49.2507 63.1542 49.3905 63.294C49.67 63.7832 49.8098 64.2025 49.8098 64.6916Z" fill="#F7FFFF"/>
<path d="M49.809 64.6919V67.2076C49.809 68.6052 48.6909 69.7233 47.2933 69.7233C46.3848 69.7233 45.5462 69.2342 45.127 68.4655L49.3897 63.3641C49.6692 63.7834 49.809 64.2027 49.809 64.6919Z" fill="#E3E3E3"/>
<path d="M75.1842 72.1699C72.4585 72.1699 70.292 70.0034 70.292 67.2778V64.7618C70.292 62.0362 72.4585 59.8696 75.1842 59.8696C77.9098 59.8696 80.0763 62.0362 80.0763 64.7618V67.2778C80.0763 69.9335 77.9098 72.1699 75.1842 72.1699Z" fill="#2D0456"/>
<path d="M75.1822 70.9811C73.1557 70.9811 71.4785 69.304 71.4785 67.2774V64.7617C71.4785 62.7351 73.1557 61.058 75.1822 61.058C77.2088 61.058 78.8859 62.7351 78.8859 64.7617V67.2774C78.8859 69.304 77.2088 70.9811 75.1822 70.9811Z" fill="#A560DC"/>
<path d="M77.7004 64.6921V67.2078C77.7004 68.6055 76.5823 69.7236 75.1847 69.7236C74.2762 69.7236 73.4376 69.2344 73.0184 68.4657C72.8087 68.1163 72.6689 67.697 72.6689 67.2078V64.6921C72.6689 63.2945 73.7871 62.1764 75.1847 62.1764C75.8835 62.1764 76.5124 62.4559 76.9317 62.8752C77.0715 63.015 77.1414 63.1547 77.2811 63.2945C77.4908 63.7837 77.7004 64.2029 77.7004 64.6921Z" fill="#F7FFFF"/>
<path d="M77.6996 64.6924V67.2081C77.6996 68.6057 76.5815 69.7238 75.1839 69.7238C74.2754 69.7238 73.4369 69.2347 73.0176 68.466L77.2803 63.3646C77.49 63.7839 77.6996 64.2032 77.6996 64.6924Z" fill="#E3E3E3"/>
<path d="M62.1141 35.9679H60.1572V49.3165H62.1141V35.9679Z" fill="#A560DC"/>
<path d="M68.7493 98.5171H53.4439C53.1643 98.5171 52.8848 98.2376 52.8848 97.958V94.6034C52.8848 94.3239 53.1643 94.0443 53.4439 94.0443H68.7493C69.0289 94.0443 69.3085 94.3239 69.3085 94.6034V97.958C69.3085 98.2376 69.0988 98.5171 68.7493 98.5171Z" fill="#2D0456"/>
<path d="M68.7493 102.92H53.4439C53.1643 102.92 52.8848 102.641 52.8848 102.361V99.0065C52.8848 98.7269 53.1643 98.4474 53.4439 98.4474H68.7493C69.0289 98.4474 69.3085 98.7269 69.3085 99.0065V102.361C69.3085 102.641 69.0988 102.92 68.7493 102.92Z" fill="#A560DC"/>
<path d="M39.5383 89.6416C39.5383 90.3404 38.9793 90.9693 38.2106 90.9693C37.5118 90.9693 36.8828 90.4103 36.8828 89.6416C36.8828 88.8729 37.4419 88.3138 38.2106 88.3138C38.9793 88.3837 39.5383 88.9428 39.5383 89.6416Z" fill="#2D0456"/>
<path d="M39.5383 53.5097C39.5383 54.2086 38.9793 54.8375 38.2106 54.8375C37.5118 54.8375 36.8828 54.2784 36.8828 53.5097C36.8828 52.8109 37.4419 52.182 38.2106 52.182C38.9793 52.2519 39.5383 52.8109 39.5383 53.5097Z" fill="#2D0456"/>
<path d="M85.4524 89.6416C85.4524 90.3404 84.8933 90.9693 84.1246 90.9693C83.4258 90.9693 82.7969 90.4103 82.7969 89.6416C82.7969 88.8729 83.3559 88.3138 84.1246 88.3138C84.8234 88.3837 85.4524 88.9428 85.4524 89.6416Z" fill="#2D0456"/>
<path d="M85.4524 53.5097C85.4524 54.2086 84.8933 54.8375 84.1246 54.8375C83.4258 54.8375 82.7969 54.2784 82.7969 53.5097C82.7969 52.8109 83.3559 52.182 84.1246 52.182C84.8234 52.2519 85.4524 52.8109 85.4524 53.5097Z" fill="#2D0456"/>
<path d="M33.8095 62.2451V82.7223C33.1107 82.7223 32.3419 82.6524 31.7129 82.4428V62.4548C32.4118 62.315 33.1107 62.2451 33.8095 62.2451Z" fill="#2D0456"/>
<path d="M88.459 62.2451V82.7223C89.1579 82.7223 89.9266 82.6524 90.5556 82.4428V62.4548C89.8567 62.315 89.1579 62.2451 88.459 62.2451Z" fill="#2D0456"/>
<path d="M61.2746 38.6226C63.706 38.6226 65.6771 36.6515 65.6771 34.22C65.6771 31.7886 63.706 29.8175 61.2746 29.8175C58.8432 29.8175 56.8721 31.7886 56.8721 34.22C56.8721 36.6515 58.8432 38.6226 61.2746 38.6226Z" fill="#A560DC"/>
<path d="M63.5814 36.4563C62.3235 37.7141 60.297 37.7141 59.0391 36.4563C57.7812 35.1984 57.7812 33.1718 59.0391 31.914C60.297 30.6561 62.3235 30.6561 63.5814 31.914C64.7694 33.1718 64.7694 35.1984 63.5814 36.4563Z" fill="#AA00FA"/>
<path d="M63.5843 36.4562C62.3264 37.7141 60.2999 37.7141 59.042 36.4562L63.5843 31.9139C64.7723 33.1718 64.7723 35.1984 63.5843 36.4562Z" fill="#522E83"/>
<path d="M61.2753 88.943C52.3297 88.943 48.4858 84.4702 47.0182 81.7445C46.5988 80.9758 46.5989 79.9973 47.0881 79.2286C47.5773 78.4598 48.346 77.9706 49.2546 77.9706H73.2262C74.1347 77.9706 74.9035 78.4598 75.3927 79.2286C75.8819 79.9973 75.8819 80.9059 75.4626 81.7445C73.995 84.4702 70.2909 88.943 61.2753 88.943Z" fill="#A560DC"/>
<path d="M74.5536 80.4863C74.5536 80.6959 74.5535 80.9755 74.4138 81.1851C74.1342 81.6744 73.8547 82.1636 73.4353 82.7227C71.6183 85.0989 68.054 87.7546 61.2748 87.7546C54.4957 87.7546 50.9314 85.0989 49.1143 82.7227C48.695 82.1636 48.3455 81.6744 48.1359 81.1851C47.9961 80.9755 47.9961 80.6959 47.9961 80.4863C47.9961 79.8573 48.5552 79.2283 49.324 79.2283H73.2956C73.9944 79.2982 74.4837 79.8573 74.5536 80.4863Z" fill="#F7FFFF"/>
<path d="M74.5522 80.4863H47.9248C47.9248 79.8573 48.4839 79.2283 49.2527 79.2283H73.2243C73.993 79.2982 74.4823 79.8573 74.5522 80.4863Z" fill="#E3E3E3"/>
<path d="M87.2024 61.1277V54.8378C87.2024 52.5315 85.3154 50.7144 83.079 50.7144H39.7484C37.4421 50.7144 35.625 52.6013 35.625 54.8378V63.0147H87.2723V61.1277H87.2024Z" fill="url(#paint0_linear_481_2509)"/>
<path d="M89.3784 24.5051H86.0238V27.4404C85.0454 27.6501 84.0669 27.9995 83.2283 28.5586L80.9919 26.3222L78.6157 28.6984L80.922 31.0047C80.5725 31.5638 80.293 32.1928 80.1532 32.8917H77.0781V36.2463H80.0134C80.2231 37.2248 80.5725 38.2032 81.1316 39.0418L79.1748 40.9987L81.551 43.3749L83.5777 41.3482C84.3465 41.7675 85.1153 42.1169 86.0238 42.2567V45.192H89.3784V42.047C90.287 41.7675 91.1955 41.3482 91.8944 40.789L94.1308 43.0255L96.507 40.6493L94.0609 38.2032C94.4104 37.5742 94.62 36.8753 94.7598 36.1065H97.6951V32.7519H94.62C94.4104 32.053 94.2007 31.4939 93.8513 30.8649L96.1576 28.5586L93.7814 26.1824L91.5449 28.4189C90.8461 27.9995 90.1472 27.6501 89.3085 27.4404V24.5051H89.3784ZM90.4966 34.7787C90.4966 36.456 89.0989 37.8538 87.4216 37.8538C85.7442 37.8538 84.3465 36.456 84.3465 34.7787C84.3465 33.1014 85.7442 31.7036 87.4216 31.7036C89.1688 31.7036 90.4966 33.1014 90.4966 34.7787Z" fill="#A560DC"/>
<path d="M99.7249 43.3059H98.0476V44.7736C97.5584 44.8434 97.0692 45.0531 96.6498 45.3327L95.5316 44.2145L94.3435 45.4025L95.4617 46.5208C95.322 46.8003 95.1822 47.1497 95.0424 47.4293H93.5049V49.1066H94.9725C95.0424 49.5958 95.2521 50.0851 95.5316 50.5044L94.5532 51.4828L95.7413 52.6709L96.7197 51.6925C97.0692 51.9021 97.4885 52.0419 97.9078 52.1817V53.6493H99.5851V52.1118C100.074 51.972 100.494 51.7624 100.843 51.4828L101.961 52.601L103.149 51.4129L101.961 50.2248C102.101 49.8754 102.241 49.5259 102.311 49.1765H103.778V47.4992H102.241C102.171 47.1498 102.031 46.8702 101.822 46.5906L102.94 45.4724L101.752 44.2843L100.633 45.4025C100.284 45.1929 99.9346 44.9832 99.5152 44.9133V43.3059H99.7249ZM100.284 48.4776C100.284 49.3163 99.5851 50.0152 98.7465 50.0152C97.9078 50.0152 97.2089 49.3163 97.2089 48.4776C97.2089 47.639 97.9078 46.9401 98.7465 46.9401C99.5851 46.9401 100.284 47.639 100.284 48.4776Z" fill="#2D0456"/>
<rect x="0.504753" y="0.986321" width="125.863" height="125.863" rx="18.7136" stroke="#282D45" stroke-width="1.02318"/>
<defs>
<linearGradient id="paint0_linear_481_2509" x1="61.3607" y1="37.0166" x2="61.3607" y2="61.6341" gradientUnits="userSpaceOnUse">
<stop stop-color="white"/>
<stop offset="1" stop-color="white" stop-opacity="0"/>
</linearGradient>
</defs>
</svg>
