<svg width="106" height="107" viewBox="0 0 106 107" fill="none" xmlns="http://www.w3.org/2000/svg">
<rect x="23.3828" y="33.3643" width="48.8157" height="33.666" stroke="url(#paint0_linear_481_1928)" stroke-width="3.01682"/>
<rect x="32.6367" y="44.3057" width="48.8157" height="33.666" fill="url(#paint1_linear_481_1928)"/>
<path fill-rule="evenodd" clip-rule="evenodd" d="M49.4598 67.109L43.5781 61.1935L49.4907 55.2471L51.6095 57.3779L47.8157 61.1935L51.5786 64.9781L49.4598 67.109ZM64.63 67.109L62.5113 64.9781L66.2742 61.1935L62.4805 57.3779L64.5991 55.2471L70.5116 61.1935L64.63 67.109ZM53.8984 67.1102H56.8639L59.8294 55.2471H56.9079L53.8984 67.1102Z" fill="#FFB800"/>
<circle cx="29.7918" cy="39.7747" r="1.88551" fill="#AA00FA"/>
<circle cx="35.0691" cy="39.7747" r="1.88551" fill="#AA00FA"/>
<circle cx="40.3504" cy="39.7746" r="1.88551" fill="#AA00FA"/>
<path d="M14.332 61.2696V86.9126H39.975" stroke="#8B63FF" stroke-width="2.26262" stroke-linecap="round" stroke-linejoin="round"/>
<path fill-rule="evenodd" clip-rule="evenodd" d="M43.7446 90.6837C41.6619 90.6837 39.9736 88.9953 39.9736 86.9126C39.9736 84.8299 41.6619 83.1416 43.7446 83.1416C45.8273 83.1416 47.5156 84.8299 47.5156 86.9126C47.5156 88.9953 45.8273 90.6837 43.7446 90.6837Z" stroke="#8B63FF" stroke-width="2.26262"/>
<path fill-rule="evenodd" clip-rule="evenodd" d="M14.3305 61.2696C12.2479 61.2696 10.5595 59.5812 10.5595 57.4986C10.5595 55.4159 12.2479 53.7275 14.3305 53.7275C16.4132 53.7275 18.1016 55.4159 18.1016 57.4986C18.1016 59.5812 16.4132 61.2696 14.3305 61.2696Z" stroke="#8B63FF" stroke-width="2.26262"/>
<path d="M91.2617 46.1855V20.5425H65.6187" stroke="#8B63FF" stroke-width="2.26262" stroke-linecap="round" stroke-linejoin="round"/>
<path fill-rule="evenodd" clip-rule="evenodd" d="M61.8492 16.7714C63.9318 16.7714 65.6202 18.4598 65.6202 20.5424C65.6202 22.6251 63.9318 24.3135 61.8492 24.3135C59.7665 24.3135 58.0781 22.6251 58.0781 20.5424C58.0781 18.4598 59.7665 16.7714 61.8492 16.7714Z" stroke="#8B63FF" stroke-width="2.26262"/>
<path fill-rule="evenodd" clip-rule="evenodd" d="M91.2593 46.1855C93.342 46.1855 95.0303 47.8738 95.0303 49.9565C95.0303 52.0392 93.342 53.7275 91.2593 53.7275C89.1766 53.7275 87.4883 52.0392 87.4883 49.9565C87.4883 47.8738 89.1766 46.1855 91.2593 46.1855Z" stroke="#8B63FF" stroke-width="2.26262"/>
<rect opacity="0.1" width="7.82937" height="7.82937" transform="matrix(0 -1 -1 0 94.6719 90.9707)" fill="#FFB800"/>
<rect opacity="0.4" width="7.82937" height="7.82937" transform="matrix(0 -1 -1 0 84.5781 90.9707)" fill="#FFB800"/>
<rect opacity="0.7" width="7.82937" height="7.82937" transform="matrix(0 -1 -1 0 74.4883 90.9707)" fill="#FFB800"/>
<rect width="7.82937" height="7.82937" transform="matrix(0 -1 -1 0 64.3945 90.9707)" fill="#FFB800"/>
<rect opacity="0.1" width="7.82937" height="7.82937" transform="matrix(0 1 1 0 10.5586 16.7715)" fill="#FFB800"/>
<rect opacity="0.4" width="7.82937" height="7.82937" transform="matrix(0 1 1 0 20.6523 16.7715)" fill="#FFB800"/>
<rect opacity="0.7" width="7.82937" height="7.82937" transform="matrix(0 1 1 0 30.7422 16.7714)" fill="#FFB800"/>
<rect width="7.82937" height="7.82937" transform="matrix(0 1 1 0 40.8359 16.7715)" fill="#FFB800"/>
<defs>
<linearGradient id="paint0_linear_481_1928" x1="47.7906" y1="33.3643" x2="47.7906" y2="67.0302" gradientUnits="userSpaceOnUse">
<stop stop-color="#AA00FA"/>
<stop offset="1" stop-color="#AA00FA" stop-opacity="0"/>
</linearGradient>
<linearGradient id="paint1_linear_481_1928" x1="57.0446" y1="44.3057" x2="57.0446" y2="77.9716" gradientUnits="userSpaceOnUse">
<stop stop-color="#AA00FA"/>
<stop offset="1" stop-color="#AA00FA" stop-opacity="0"/>
</linearGradient>
</defs>
</svg>
