<svg width="128" height="128" viewBox="0 0 128 128" fill="none" xmlns="http://www.w3.org/2000/svg">
<rect x="1.20788" y="0.986199" width="125.863" height="125.863" rx="18.7136" fill="white"/>
<path d="M94.6972 52.6119V63.165H36.5504C33.8247 63.165 31.6582 60.9984 31.6582 58.2728V54.9182C31.6582 54.7085 31.6582 54.4988 31.6582 54.3591C31.6582 53.8 31.6582 53.2408 31.7281 52.7516C31.798 51.7732 31.9378 50.7249 32.0775 49.7464C32.1474 49.1873 32.2872 48.6282 32.427 48.139C32.8463 46.4617 33.3355 44.9242 34.0344 43.3866C34.2441 42.8275 34.5236 42.2684 34.8032 41.7792C35.7816 39.8223 37.0396 37.9354 38.4373 36.2581C38.9266 35.6989 39.4158 35.1398 39.905 34.6506C40.7436 33.7421 41.6522 32.9034 42.6306 32.1347C43.3994 31.5057 44.2381 30.9466 45.0767 30.3875C45.9853 29.7585 46.9637 29.2692 48.012 28.78C50.4581 27.5919 53.1138 26.7533 55.8395 26.2641C56.3986 26.1942 56.9577 26.1243 57.4469 26.0544C58.4952 25.9146 59.6134 25.8447 60.7316 25.8447H67.7903C68.5591 25.8447 69.3279 25.8447 70.0966 25.9845C70.6557 26.0544 71.2148 26.0544 71.7041 26.1942C77.994 27.1027 83.585 30.2477 87.6385 34.7205C88.1278 35.2097 88.617 35.7688 89.0363 36.3279C90.0147 37.6558 90.9233 39.0536 91.692 40.5212C91.9716 41.0803 92.2511 41.5695 92.4608 42.1286C93.6489 44.7844 94.3478 47.7197 94.5574 50.7249C94.6273 51.284 94.6273 51.8431 94.6273 52.3323C94.6972 52.3323 94.6972 52.4721 94.6972 52.6119Z" fill="#AC08FA"/>
<path d="M94.6974 63.1646C94.6974 64.7022 94.0684 65.8903 93.0201 67.3579C92.9502 67.4278 92.9502 67.4977 92.8803 67.5676L87.4989 72.9489C84.9131 75.5348 81.3488 77.0024 77.6447 77.0024C74.9191 77.0024 72.8923 76.2337 71.2849 75.1155C69.6076 73.9973 68.2797 72.4597 66.7422 70.9222L66.4626 70.6426H60.8716C58.2857 70.6426 55.9794 69.3148 54.6515 67.288C53.8828 66.0999 53.3936 64.6323 53.3936 63.0947H94.6974V63.1646Z" fill="#AA00FA"/>
<path d="M94.6974 63.1646C94.6974 64.7022 94.0684 65.8903 93.0201 67.3579C92.9502 67.4278 92.9502 67.4977 92.8803 67.5676L87.4989 72.9489C84.9131 75.5348 81.3488 77.0024 77.6447 77.0024C74.9191 77.0024 72.8923 76.2337 71.2849 75.1155C69.6076 73.9973 68.2797 72.4597 66.7422 70.9222L66.4626 70.6426H60.8716C58.2857 70.6426 55.9794 69.3148 54.6515 67.288C53.8828 66.0999 53.3936 64.6323 53.3936 63.0947H94.6974V63.1646Z" fill="#522E83"/>
<path d="M89.7337 70.6431L87.4972 72.8796C84.9114 75.4654 81.3471 76.933 77.643 76.933C74.9174 76.933 72.8906 76.1643 71.2832 75.0461C69.6059 73.9279 68.278 72.3903 66.7405 70.8528L66.4609 70.5732H89.7337V70.6431Z" fill="#482167"/>
<path d="M41.2304 58.0625H39.6232C39.6232 55.9661 37.946 54.2889 35.8496 54.2889H31.7266C31.7266 53.7299 31.7266 53.1708 31.7964 52.6816H35.8496C38.7846 52.6816 41.2304 55.0576 41.2304 58.0625Z" fill="#482167"/>
<path d="M48.8566 40.3115C48.8566 41.4996 48.6469 42.6877 48.1577 43.8059C47.948 44.365 47.6685 44.9241 47.319 45.4134C45.6417 47.9992 42.7763 49.6765 39.4916 49.6765H32.1533C32.2232 49.1174 32.363 48.5583 32.5028 48.0691H39.4916C43.7547 48.0691 47.2491 44.5747 47.2491 40.3115H48.8566Z" fill="#482167"/>
<path d="M94.7004 57.2945V58.9019H83.7279C79.954 58.832 76.8789 55.7569 76.8789 51.9131H78.4863C78.4863 54.8484 80.8625 57.2945 83.8677 57.2945H94.7004Z" fill="#482167"/>
<path d="M41.7953 41.6396V43.2469H34.1084C34.318 42.6879 34.5976 42.1288 34.8771 41.6396H41.7953Z" fill="#482167"/>
<path d="M89.0363 36.1187H78.6929C74.5695 36.1187 71.2148 39.4733 71.2148 43.5269H69.6074C69.6074 41.9194 70.0267 40.4518 70.7256 39.1239C71.0052 38.5648 71.3546 38.0756 71.774 37.6563C73.4513 35.6994 75.8973 34.4414 78.6929 34.4414H87.7084C88.1976 35.0005 88.617 35.5596 89.0363 36.1187Z" fill="#482167"/>
<path d="M92.5294 41.919H80.6484V40.3115H91.6907C92.0402 40.8007 92.2499 41.3598 92.5294 41.919Z" fill="#482167"/>
<path d="M57.5874 51.0752V52.6826C55.2811 52.6826 53.3242 54.5696 53.3242 56.9458V63.0959H51.7168V56.9458C51.7168 56.8759 51.7168 56.806 51.7168 56.7361C51.7168 56.177 51.8566 55.6179 51.9964 55.1287C52.7651 52.8224 55.0015 51.0752 57.5874 51.0752Z" fill="#482167"/>
<path d="M62.6179 35.0699V36.6774C58.9837 36.6774 55.9785 33.7421 55.9785 30.038V26.0544C56.5376 25.9845 57.0967 25.9146 57.5859 25.8447V30.1079C57.5859 32.8335 59.8224 35.0699 62.6179 35.0699Z" fill="#482167"/>
<path d="M71.7017 25.9845C71.3523 29.3388 68.557 31.9943 65.1328 31.9943V30.387C67.7184 30.387 69.8847 28.3605 70.0944 25.8447C70.6534 25.8447 71.2125 25.8447 71.7017 25.9845Z" fill="#482167"/>
<path d="M55.1402 41.7093H53.5328C53.5328 38.6342 51.0168 36.1183 47.9417 36.1183H38.5068C38.9961 35.5592 39.4853 35.0001 39.9745 34.5109H47.9417C51.9253 34.441 55.1402 37.7257 55.1402 41.7093Z" fill="#482167"/>
<path d="M72.1974 39.333H72.0576C69.1226 39.333 66.6768 36.957 66.6768 33.9521H68.284C68.284 35.9787 69.9612 37.6559 71.9877 37.6559H72.1275V39.333H72.1974Z" fill="#482167"/>
<path d="M52.6249 56.8748C50.1091 56.8748 48.0127 54.7783 48.0127 52.2626V49.3975H49.62V52.2626C49.62 53.9398 50.9477 55.2675 52.6249 55.2675V56.8748Z" fill="#482167"/>
<path d="M69.9561 70.6429H68.3487V61.837C68.3487 60.6489 67.3703 59.6704 66.1822 59.6704C64.0855 59.6704 62.4082 57.9931 62.4082 55.8965V52.6816H64.0156V55.8965C64.0156 57.0846 64.9941 58.063 66.1822 58.063C68.2788 58.063 69.9561 59.7403 69.9561 61.837V70.6429Z" fill="#482167"/>
<path d="M69.1191 66.5891V64.9819C71.2156 64.9819 72.8927 63.3047 72.8927 61.2083V60.2998H74.5V61.2083C74.5699 64.1433 72.124 66.5891 69.1191 66.5891Z" fill="#482167"/>
<path d="M67.3028 51.3551H65.6954C65.6954 48.0704 63.0396 45.3447 59.685 45.3447H46.8955V43.7373H59.7549C63.8783 43.7373 67.3028 47.1618 67.3028 51.3551Z" fill="#482167"/>
<path d="M71.283 48.0694H65.1328V46.462H71.283C73.6592 46.462 75.616 44.5051 75.616 42.1289H77.2234C77.2933 45.4136 74.5677 48.0694 71.283 48.0694Z" fill="#482167"/>
<path d="M89.4549 64.7721C86.3102 64.7721 83.7246 62.1865 83.7246 59.0418V58.0635H85.3319V59.0418C85.3319 61.278 87.1488 63.0949 89.385 63.0949V64.7721H89.4549Z" fill="#482167"/>
<path d="M83.4484 46.8108H82.0508V45.2035H83.4484C85.6846 45.2035 87.5015 43.3866 87.5015 41.1504H89.1088C89.1787 44.2252 86.5931 46.8108 83.4484 46.8108Z" fill="#482167"/>
<path d="M94.6952 52.1922H86.4492V50.585H94.6253C94.6952 51.0741 94.6952 51.6332 94.6952 52.1922Z" fill="#482167"/>
<path d="M53.1852 32.7626H51.578C51.578 31.365 50.4599 30.2468 49.0622 30.2468H45.2188C46.1272 29.6179 47.1055 29.1287 48.1538 28.6396H49.0622C51.3683 28.5697 53.1852 30.4565 53.1852 32.7626Z" fill="#482167"/>
<path d="M36.4834 63.165V67.917C36.4834 68.4061 36.8328 68.7555 37.322 68.7555C37.7413 68.7555 38.0907 68.4061 38.0907 67.917V63.165H36.4834Z" fill="#482167"/>
<path d="M39.626 63.165V67.917C39.626 68.4061 39.9754 68.7555 40.4646 68.7555C40.8838 68.7555 41.2332 68.4061 41.2332 67.917V63.165H39.626Z" fill="#482167"/>
<path d="M42.7012 63.165V67.917C42.7012 68.4061 43.0506 68.7555 43.5397 68.7555C43.959 68.7555 44.3084 68.4061 44.3084 67.917V63.165H42.7012Z" fill="#482167"/>
<path d="M45.8477 63.165V67.917C45.8477 68.4061 46.1971 68.7555 46.6862 68.7555C47.1055 68.7555 47.4549 68.4061 47.4549 67.917V63.165H45.8477Z" fill="#482167"/>
<path d="M48.9932 63.165V67.917C48.9932 68.4061 49.3426 68.7555 49.8317 68.7555C50.251 68.7555 50.6004 68.4061 50.6004 67.917V63.165H48.9932Z" fill="#482167"/>
<path d="M39.2041 38.3555C39.2041 38.3555 46.8918 27.1035 63.1757 27.1035C83.1637 27.1035 87.8462 37.8663 87.8462 37.8663L39.2041 38.3555Z" fill="url(#paint0_linear_542_7186)"/>
<path d="M23.833 90.2828V95.3147C23.833 96.4329 24.6018 97.4114 25.6501 97.621C30.4724 98.7392 44.45 101.395 63.809 101.395C84.8453 101.395 98.753 98.879 103.436 97.9006C104.484 97.6909 105.183 96.7824 105.183 95.7341V90.2129H23.833V90.2828Z" fill="#18033B"/>
<path d="M64.5059 86.2988C42.0718 86.2988 23.8311 88.046 23.8311 90.2824H105.181C105.181 88.1159 86.94 86.2988 64.5059 86.2988Z" fill="#AA00FA"/>
<path d="M64.5059 94.2659C86.94 94.2659 105.181 92.5186 105.181 90.2822H23.8311C23.8311 92.4488 42.002 94.2659 64.5059 94.2659Z" fill="#522E83"/>
<path d="M88.9682 91.122C91.1348 90.8424 92.3927 90.5629 92.3927 90.2833C92.3927 89.3049 79.8828 88.5361 64.5074 88.5361C49.132 88.5361 36.6221 89.3049 36.6221 90.2833C36.6221 90.6328 38.0897 90.9123 40.7455 91.1919C45.4979 90.6328 54.6532 90.2833 65.2762 90.2833C75.2702 90.2833 84.0761 90.6328 88.9682 91.122Z" fill="#18033B"/>
<path d="M88.968 91.1219C84.0758 90.6327 75.2699 90.2832 65.1362 90.2832C54.5831 90.2832 45.3579 90.6327 40.6055 91.1918C45.4976 91.681 54.3035 92.0304 64.4373 92.0304C75.0603 92.0304 84.2855 91.6111 88.968 91.1219Z" fill="#F7FFF2"/>
<path d="M40.6768 91.1911L16.0762 42.8984H112.452L88.9694 91.1911H40.6768Z" fill="url(#paint1_linear_542_7186)" fill-opacity="0.5"/>
<rect x="1.20788" y="0.986199" width="125.863" height="125.863" rx="18.7136" stroke="#DEDEDE" stroke-width="1.02318"/>
<defs>
<linearGradient id="paint0_linear_542_7186" x1="62.5323" y1="17.877" x2="63.6062" y2="39.2361" gradientUnits="userSpaceOnUse">
<stop stop-color="white"/>
<stop offset="1" stop-color="white" stop-opacity="0.13"/>
</linearGradient>
<linearGradient id="paint1_linear_542_7186" x1="59.18" y1="114.476" x2="63.8688" y2="48.4728" gradientUnits="userSpaceOnUse">
<stop stop-color="#DF9AFF"/>
<stop offset="1" stop-color="#D783FF" stop-opacity="0"/>
</linearGradient>
</defs>
</svg>
