<svg width="128" height="128" viewBox="0 0 128 128" fill="none" xmlns="http://www.w3.org/2000/svg">
<rect x="1.20788" y="1.15417" width="125.863" height="125.863" rx="18.7136" fill="#1D1C20"/>
<rect x="1.20788" y="1.15417" width="125.863" height="125.863" rx="18.7136" fill="#0E1330"/>
<path d="M106.322 34.5225V77.523H21.3887V34.5225C21.3887 32.2627 23.2091 30.4422 25.469 30.4422H102.179C104.502 30.3794 106.322 32.2627 106.322 34.5225Z" fill="#AA00FA"/>
<path d="M106.322 56.0542H21.3887V77.4603H106.322V56.0542Z" fill="#522E83"/>
<path d="M103.438 35.088V72.376C103.438 72.8781 102.998 73.3176 102.496 73.3176H25.1581C24.9698 73.3176 24.7815 73.2548 24.6559 73.1292C24.4048 72.9409 24.2793 72.6898 24.2793 72.376V35.088C24.2793 34.5858 24.7187 34.1464 25.2209 34.1464H102.559C102.873 34.1464 103.187 34.3347 103.312 34.5858C103.375 34.7113 103.438 34.8997 103.438 35.088Z" fill="#161847"/>
<path d="M106.322 77.5236C106.322 78.4024 106.134 79.2813 105.82 80.0346C105.757 80.2229 105.632 80.4112 105.569 80.5995C105.506 80.6623 105.506 80.7879 105.444 80.8506C105.13 81.3528 104.816 81.855 104.376 82.2317C103.184 83.4244 101.489 84.1777 99.6056 84.1777H28.1055C25.5946 84.1777 23.4602 82.7966 22.2675 80.7879C22.2047 80.7251 22.2047 80.5995 22.142 80.5368C22.0164 80.3484 21.9536 80.1601 21.8909 79.9718C21.577 79.2185 21.3887 78.3397 21.3887 77.4608H106.322V77.5236Z" fill="#EAEAEA"/>
<path d="M76.3773 84.2406H51.2676V94.7239H76.3773V84.2406Z" fill="#A560DC"/>
<path d="M76.3773 84.2406H51.2676V88.0698H76.3773V84.2406Z" fill="#2D0456"/>
<path d="M85.2952 98.3014H42.1064C42.1064 96.2926 43.7386 94.7233 45.6846 94.7233H81.6543C83.7259 94.7233 85.2952 96.3554 85.2952 98.3014Z" fill="#2D0456"/>
<path d="M64.6408 32.2631C64.6408 32.3259 64.6408 32.3259 64.6408 32.3887C64.578 32.7653 64.2642 33.0791 63.8248 33.0791C63.4482 33.0791 63.0716 32.7653 63.0088 32.3887C63.0088 32.3259 63.0088 32.3259 63.0088 32.2631C63.0088 31.8238 63.3854 31.4471 63.8248 31.4471C64.2642 31.5099 64.6408 31.8238 64.6408 32.2631Z" fill="#CECECE"/>
<path d="M64.6408 32.3882C64.578 32.7648 64.2642 33.0787 63.8248 33.0787C63.4482 33.0787 63.0716 32.7648 63.0088 32.3882C63.0716 32.0116 63.3854 31.6978 63.8248 31.6978C64.2642 31.6978 64.578 32.0116 64.6408 32.3882Z" fill="#FFFFF2"/>
<path d="M16.8665 44.4406C16.8665 46.763 15.9878 48.0811 14.4813 48.0811C13.1004 48.0811 12.2217 46.8258 12.2217 44.5033C12.2217 42.1809 13.226 40.9255 14.6069 40.9255C16.0506 40.9255 16.8665 42.2437 16.8665 44.4406ZM13.1004 44.5661C13.1004 46.3864 13.6654 47.3907 14.4813 47.3907C15.4229 47.3907 15.925 46.2608 15.925 44.5033C15.925 42.8086 15.4856 41.6788 14.5441 41.6788C13.7281 41.6788 13.1004 42.6831 13.1004 44.5661Z" fill="#A0A0A0"/>
<path d="M19.7559 41.93L18.5633 42.5577L18.375 41.8673L19.8814 41.0513H20.6974V47.9558H19.8187V41.93H19.7559Z" fill="#A0A0A0"/>
<path d="M27.7884 44.4406C27.7884 46.763 26.9097 48.0811 25.4032 48.0811C24.0223 48.0811 23.1436 46.8258 23.1436 44.5033C23.1436 42.1809 24.1479 40.9255 25.5288 40.9255C26.9724 40.9255 27.7884 42.2437 27.7884 44.4406ZM24.0223 44.5661C24.0223 46.3864 24.5872 47.3907 25.4032 47.3907C26.3447 47.3907 26.8469 46.2608 26.8469 44.5033C26.8469 42.8086 26.4075 41.6788 25.466 41.6788C24.65 41.6788 24.0223 42.6831 24.0223 44.5661Z" fill="#A0A0A0"/>
<path d="M30.6788 41.93L29.4861 42.5577L29.2979 41.8673L30.8043 41.0513H31.6203V47.9558H30.7415V41.93H30.6788Z" fill="#A0A0A0"/>
<path d="M36.1407 41.93L34.9481 42.5577L34.7598 41.8673L36.2662 41.0513H37.0822V47.9558H36.2034V41.93H36.1407Z" fill="#A0A0A0"/>
<path d="M44.1732 44.4406C44.1732 46.763 43.2944 48.0811 41.788 48.0811C40.4071 48.0811 39.5283 46.8258 39.5283 44.5033C39.5283 42.1809 40.5326 40.9255 41.9135 40.9255C43.3572 40.9255 44.1732 42.2437 44.1732 44.4406ZM40.4071 44.5661C40.4071 46.3864 40.972 47.3907 41.788 47.3907C42.7295 47.3907 43.2317 46.2608 43.2317 44.5033C43.2317 42.8086 42.7923 41.6788 41.8508 41.6788C41.0348 41.6788 40.4071 42.6831 40.4071 44.5661Z" fill="#A0A0A0"/>
<path d="M49.6322 44.4406C49.6322 46.763 48.7534 48.0811 47.247 48.0811C45.8661 48.0811 44.9873 46.8258 44.9873 44.5033C44.9873 42.1809 45.9916 40.9255 47.3725 40.9255C48.8162 40.9255 49.6322 42.2437 49.6322 44.4406ZM45.8661 44.5661C45.8661 46.3864 46.431 47.3907 47.247 47.3907C48.1885 47.3907 48.6906 46.2608 48.6906 44.5033C48.6906 42.8086 48.2513 41.6788 47.3097 41.6788C46.4937 41.6788 45.8661 42.6831 45.8661 44.5661Z" fill="#A0A0A0"/>
<path d="M52.5247 41.93L51.2694 42.5577L51.0811 41.8673L52.5875 41.0513H53.4035V47.9558H52.5247V41.93Z" fill="#A0A0A0"/>
<path d="M60.5579 44.4406C60.5579 46.763 59.6792 48.0811 58.1728 48.0811C56.7918 48.0811 55.9131 46.8258 55.9131 44.5033C55.9131 42.1809 56.9174 40.9255 58.2983 40.9255C59.742 40.9255 60.5579 42.2437 60.5579 44.4406ZM56.7918 44.5661C56.7918 46.3864 57.3568 47.3907 58.1728 47.3907C59.1143 47.3907 59.6164 46.2608 59.6164 44.5033C59.6164 42.8086 59.177 41.6788 58.2355 41.6788C57.3568 41.6788 56.7918 42.6831 56.7918 44.5661Z" fill="#A0A0A0"/>
<path d="M63.4466 41.93L62.1912 42.5577L62.0029 41.8673L63.5094 41.0513H64.3254V47.9558H63.4466V41.93Z" fill="#A0A0A0"/>
<path d="M68.9056 41.93L67.6502 42.5577L67.4619 41.8673L68.9684 41.0513H69.7844V47.9558H68.9056V41.93Z" fill="#A0A0A0"/>
<path d="M76.9427 44.4406C76.9427 46.763 76.0639 48.0811 74.5575 48.0811C73.1766 48.0811 72.2979 46.8258 72.2979 44.5033C72.2979 42.1809 73.3021 40.9255 74.683 40.9255C76.0639 40.9255 76.9427 42.2437 76.9427 44.4406ZM73.1766 44.5661C73.1766 46.3864 73.7415 47.3907 74.5575 47.3907C75.499 47.3907 76.0012 46.2608 76.0012 44.5033C76.0012 42.8086 75.5618 41.6788 74.6203 41.6788C73.7415 41.6788 73.1766 42.6831 73.1766 44.5661Z" fill="#A0A0A0"/>
<path d="M79.8314 41.93L78.576 42.5577L78.3877 41.8673L79.8941 41.0513H80.7101V47.9558H79.8314V41.93Z" fill="#A0A0A0"/>
<path d="M85.2913 41.93L84.036 42.5577L83.8477 41.8673L85.3541 41.0513H86.1701V47.9558H85.2913V41.93Z" fill="#A0A0A0"/>
<path d="M90.7503 41.93L89.4949 42.5577L89.3066 41.8673L90.8131 41.0513H91.6291V47.9558H90.7503V41.93Z" fill="#A0A0A0"/>
<path d="M96.2171 41.93L94.9618 42.5577L94.7734 41.8673L96.2799 41.0513H97.0959V47.9558H96.2171V41.93Z" fill="#A0A0A0"/>
<path d="M104.186 44.4406C104.186 46.763 103.307 48.0811 101.801 48.0811C100.42 48.0811 99.541 46.8258 99.541 44.5033C99.541 42.1809 100.545 40.9255 101.926 40.9255C103.37 40.9255 104.186 42.2437 104.186 44.4406ZM100.483 44.5661C100.483 46.3864 101.047 47.3907 101.863 47.3907C102.805 47.3907 103.307 46.2608 103.307 44.5033C103.307 42.8086 102.868 41.6788 101.926 41.6788C101.047 41.6788 100.483 42.6831 100.483 44.5661Z" fill="#A0A0A0"/>
<path d="M109.645 44.4406C109.645 46.763 108.766 48.0811 107.26 48.0811C105.879 48.0811 105 46.8258 105 44.5033C105 42.1809 106.004 40.9255 107.385 40.9255C108.829 40.9255 109.645 42.2437 109.645 44.4406ZM105.942 44.5661C105.942 46.3864 106.506 47.3907 107.322 47.3907C108.264 47.3907 108.766 46.2608 108.766 44.5033C108.766 42.8086 108.327 41.6788 107.385 41.6788C106.506 41.6788 105.942 42.6831 105.942 44.5661Z" fill="#A0A0A0"/>
<path d="M115.108 44.4406C115.108 46.763 114.229 48.0811 112.723 48.0811C111.342 48.0811 110.463 46.8258 110.463 44.5033C110.463 42.1809 111.467 40.9255 112.848 40.9255C114.292 40.9255 115.108 42.2437 115.108 44.4406ZM111.342 44.5661C111.342 46.3864 111.907 47.3907 112.723 47.3907C113.664 47.3907 114.166 46.2608 114.166 44.5033C114.166 42.8086 113.727 41.6788 112.785 41.6788C111.969 41.6788 111.342 42.6831 111.342 44.5661Z" fill="#A0A0A0"/>
<path d="M19.637 54.9247C19.637 57.2471 18.7583 58.5653 17.2518 58.5653C15.8709 58.5653 14.9922 57.3099 14.9922 54.9875C14.9922 52.665 15.9965 51.4097 17.3774 51.4097C18.7583 51.4097 19.637 52.7278 19.637 54.9247ZM15.8709 55.0502C15.8709 56.8705 16.4359 57.8748 17.2518 57.8748C18.1934 57.8748 18.6955 56.745 18.6955 54.9875C18.6955 53.2927 18.2561 52.1629 17.3146 52.1629C16.4359 52.1629 15.8709 53.1672 15.8709 55.0502Z" fill="#A0A0A0"/>
<path d="M22.5235 52.4142L21.3309 53.0418L21.1426 52.3514L22.649 51.5354H23.465V58.4399H22.5862V52.4142H22.5235Z" fill="#A0A0A0"/>
<path d="M27.9864 52.4142L26.7938 53.0418L26.6055 52.3514L28.1119 51.5354H28.9279V58.4399H28.0491V52.4142H27.9864Z" fill="#A0A0A0"/>
<path d="M36.0218 54.9247C36.0218 57.2471 35.1431 58.5653 33.6366 58.5653C32.2557 58.5653 31.377 57.3099 31.377 54.9875C31.377 52.665 32.3812 51.4097 33.7622 51.4097C35.1431 51.4097 36.0218 52.7278 36.0218 54.9247ZM32.2557 55.0502C32.2557 56.8705 32.8206 57.8748 33.6366 57.8748C34.5781 57.8748 35.0803 56.745 35.0803 54.9875C35.0803 53.2927 34.6409 52.1629 33.6994 52.1629C32.8206 52.1629 32.2557 53.1672 32.2557 55.0502Z" fill="#A0A0A0"/>
<path d="M38.9082 52.4142L37.7157 53.0418L37.5273 52.3514L39.0338 51.5354H39.8498V58.4399H38.971V52.4142H38.9082Z" fill="#A0A0A0"/>
<path d="M46.8802 54.9247C46.8802 57.2471 46.0015 58.5653 44.495 58.5653C43.1141 58.5653 42.2354 57.3099 42.2354 54.9875C42.2354 52.665 43.2396 51.4097 44.6206 51.4097C46.0642 51.4097 46.8802 52.7278 46.8802 54.9247ZM43.1769 55.0502C43.1769 56.8705 43.7418 57.8748 44.5578 57.8748C45.4993 57.8748 46.0015 56.745 46.0015 54.9875C46.0015 53.2927 45.5621 52.1629 44.6206 52.1629C43.7418 52.1629 43.1769 53.1672 43.1769 55.0502Z" fill="#A0A0A0"/>
<path d="M49.8323 52.4142L48.577 53.0418L48.3887 52.3514L49.8951 51.5354H50.7111V58.4399H49.8323V52.4142Z" fill="#A0A0A0"/>
<path d="M55.2278 52.4142L53.9725 53.0418L53.7842 52.3514L55.2906 51.5354H56.1066V58.4399H55.2278V52.4142Z" fill="#A0A0A0"/>
<path d="M63.265 54.9247C63.265 57.2471 62.3862 58.5653 60.8798 58.5653C59.4989 58.5653 58.6201 57.3099 58.6201 54.9875C58.6201 52.665 59.6244 51.4097 61.0053 51.4097C62.449 51.4097 63.265 52.7278 63.265 54.9247ZM59.4989 55.0502C59.4989 56.8705 60.0638 57.8748 60.8798 57.8748C61.8213 57.8748 62.3234 56.745 62.3234 54.9875C62.3234 53.2927 61.8841 52.1629 60.9425 52.1629C60.1266 52.1629 59.4989 53.1672 59.4989 55.0502Z" fill="#A0A0A0"/>
<path d="M68.7279 54.9247C68.7279 57.2471 67.8491 58.5653 66.3427 58.5653C64.9618 58.5653 64.083 57.3099 64.083 54.9875C64.083 52.665 65.0873 51.4097 66.4682 51.4097C67.9119 51.4097 68.7279 52.7278 68.7279 54.9247ZM64.9618 55.0502C64.9618 56.8705 65.5267 57.8748 66.3427 57.8748C67.2842 57.8748 67.7863 56.745 67.7863 54.9875C67.7863 53.2927 67.347 52.1629 66.4054 52.1629C65.5894 52.1629 64.9618 53.1672 64.9618 55.0502Z" fill="#A0A0A0"/>
<path d="M74.1869 54.9247C74.1869 57.2471 73.3081 58.5653 71.8017 58.5653C70.4208 58.5653 69.542 57.3099 69.542 54.9875C69.542 52.665 70.5463 51.4097 71.9272 51.4097C73.3709 51.4097 74.1869 52.7278 74.1869 54.9247ZM70.4208 55.0502C70.4208 56.8705 70.9857 57.8748 71.8017 57.8748C72.7432 57.8748 73.2453 56.745 73.2453 54.9875C73.2453 53.2927 72.8059 52.1629 71.8644 52.1629C71.0484 52.1629 70.4208 53.1672 70.4208 55.0502Z" fill="#A0A0A0"/>
<path d="M77.0755 52.4142L75.8201 53.0418L75.6318 52.3514L77.1383 51.5354H77.9543V58.4399H77.0755V52.4142Z" fill="#A0A0A0"/>
<path d="M82.5345 52.4142L81.2791 53.0418L81.0908 52.3514L82.5973 51.5354H83.4132V58.4399H82.5345V52.4142Z" fill="#A0A0A0"/>
<path d="M90.5716 54.9247C90.5716 57.2471 89.6929 58.5653 88.1864 58.5653C86.8055 58.5653 85.9268 57.3099 85.9268 54.9875C85.9268 52.665 86.9311 51.4097 88.312 51.4097C89.7556 51.4097 90.5716 52.7278 90.5716 54.9247ZM86.8055 55.0502C86.8055 56.8705 87.3704 57.8748 88.1864 57.8748C89.1279 57.8748 89.6301 56.745 89.6301 54.9875C89.6301 53.2927 89.1907 52.1629 88.2492 52.1629C87.4332 52.1629 86.8055 53.1672 86.8055 55.0502Z" fill="#A0A0A0"/>
<path d="M96.0345 54.9247C96.0345 57.2471 95.1558 58.5653 93.6493 58.5653C92.2684 58.5653 91.3896 57.3099 91.3896 54.9875C91.3896 52.665 92.3939 51.4097 93.7748 51.4097C95.2185 51.4097 96.0345 52.7278 96.0345 54.9247ZM92.2684 55.0502C92.2684 56.8705 92.8333 57.8748 93.6493 57.8748C94.5908 57.8748 95.093 56.745 95.093 54.9875C95.093 53.2927 94.6536 52.1629 93.7121 52.1629C92.8961 52.1629 92.2684 53.1672 92.2684 55.0502Z" fill="#A0A0A0"/>
<path d="M98.9232 52.4142L97.6678 53.0418L97.4795 52.3514L98.9859 51.5354H99.8019V58.4399H98.9232V52.4142Z" fill="#A0A0A0"/>
<path d="M106.952 54.9247C106.952 57.2471 106.074 58.5653 104.567 58.5653C103.186 58.5653 102.308 57.3099 102.308 54.9875C102.308 52.665 103.312 51.4097 104.693 51.4097C106.136 51.4097 106.952 52.7278 106.952 54.9247ZM103.186 55.0502C103.186 56.8705 103.751 57.8748 104.567 57.8748C105.509 57.8748 106.011 56.745 106.011 54.9875C106.011 53.2927 105.572 52.1629 104.63 52.1629C103.814 52.1629 103.186 53.1672 103.186 55.0502Z" fill="#A0A0A0"/>
<path d="M112.419 54.9247C112.419 57.2471 111.541 58.5653 110.034 58.5653C108.653 58.5653 107.774 57.3099 107.774 54.9875C107.774 52.665 108.779 51.4097 110.16 51.4097C111.603 51.4097 112.419 52.7278 112.419 54.9247ZM108.653 55.0502C108.653 56.8705 109.218 57.8748 110.034 57.8748C110.976 57.8748 111.478 56.745 111.478 54.9875C111.478 53.2927 111.038 52.1629 110.097 52.1629C109.218 52.1629 108.653 53.1672 108.653 55.0502Z" fill="#A0A0A0"/>
<path d="M16.8665 66.4749C16.8665 68.7973 15.9878 70.1154 14.4813 70.1154C13.1004 70.1154 12.2217 68.8601 12.2217 66.5376C12.2217 64.2152 13.226 62.9598 14.6069 62.9598C16.0506 62.9598 16.8665 64.278 16.8665 66.4749ZM13.1004 66.5376C13.1004 68.3579 13.6654 69.3622 14.4813 69.3622C15.4229 69.3622 15.925 68.2324 15.925 66.4749C15.925 64.7801 15.4856 63.6503 14.5441 63.6503C13.7281 63.6503 13.1004 64.6546 13.1004 66.5376Z" fill="#A0A0A0"/>
<path d="M19.7559 63.9643L18.5633 64.592L18.375 63.9016L19.8814 63.0856H20.6974V69.9901H19.8187V63.9643H19.7559Z" fill="#A0A0A0"/>
<path d="M27.7884 66.4749C27.7884 68.7973 26.9097 70.1154 25.4032 70.1154C24.0223 70.1154 23.1436 68.8601 23.1436 66.5376C23.1436 64.2152 24.1479 62.9598 25.5288 62.9598C26.9724 62.9598 27.7884 64.278 27.7884 66.4749ZM24.0223 66.5376C24.0223 68.3579 24.5872 69.3622 25.4032 69.3622C26.3447 69.3622 26.8469 68.2324 26.8469 66.4749C26.8469 64.7801 26.4075 63.6503 25.466 63.6503C24.65 63.6503 24.0223 64.6546 24.0223 66.5376Z" fill="#A0A0A0"/>
<path d="M30.6788 63.9643L29.4861 64.592L29.2979 63.9016L30.8043 63.0856H31.6203V69.9901H30.7415V63.9643H30.6788Z" fill="#A0A0A0"/>
<path d="M36.1407 63.9643L34.9481 64.592L34.7598 63.9016L36.2662 63.0856H37.0822V69.9901H36.2034V63.9643H36.1407Z" fill="#A0A0A0"/>
<path d="M44.1732 66.4749C44.1732 68.7973 43.2944 70.1154 41.788 70.1154C40.4071 70.1154 39.5283 68.8601 39.5283 66.5376C39.5283 64.2152 40.5326 62.9598 41.9135 62.9598C43.3572 62.9598 44.1732 64.278 44.1732 66.4749ZM40.4071 66.5376C40.4071 68.3579 40.972 69.3622 41.788 69.3622C42.7295 69.3622 43.2317 68.2324 43.2317 66.4749C43.2317 64.7801 42.7923 63.6503 41.8508 63.6503C41.0348 63.6503 40.4071 64.6546 40.4071 66.5376Z" fill="#A0A0A0"/>
<path d="M49.6322 66.4749C49.6322 68.7973 48.7534 70.1154 47.247 70.1154C45.8661 70.1154 44.9873 68.8601 44.9873 66.5376C44.9873 64.2152 45.9916 62.9598 47.3725 62.9598C48.8162 62.9598 49.6322 64.278 49.6322 66.4749ZM45.8661 66.5376C45.8661 68.3579 46.431 69.3622 47.247 69.3622C48.1885 69.3622 48.6906 68.2324 48.6906 66.4749C48.6906 64.7801 48.2513 63.6503 47.3097 63.6503C46.4937 63.6503 45.8661 64.6546 45.8661 66.5376Z" fill="#A0A0A0"/>
<path d="M52.5247 63.9643L51.2694 64.592L51.0811 63.9016L52.5875 63.0856H53.4035V69.9901H52.5247V63.9643Z" fill="#A0A0A0"/>
<path d="M60.5579 66.4749C60.5579 68.7973 59.6792 70.1154 58.1728 70.1154C56.7918 70.1154 55.9131 68.8601 55.9131 66.5376C55.9131 64.2152 56.9174 62.9598 58.2983 62.9598C59.742 62.9598 60.5579 64.278 60.5579 66.4749ZM56.7918 66.5376C56.7918 68.3579 57.3568 69.3622 58.1728 69.3622C59.1143 69.3622 59.6164 68.2324 59.6164 66.4749C59.6164 64.7801 59.177 63.6503 58.2355 63.6503C57.3568 63.6503 56.7918 64.6546 56.7918 66.5376Z" fill="#A0A0A0"/>
<path d="M63.4466 63.9643L62.1912 64.592L62.0029 63.9016L63.5094 63.0856H64.3254V69.9901H63.4466V63.9643Z" fill="#A0A0A0"/>
<path d="M68.9056 63.9643L67.6502 64.592L67.4619 63.9016L68.9684 63.0856H69.7844V69.9901H68.9056V63.9643Z" fill="#A0A0A0"/>
<path d="M76.9427 66.4749C76.9427 68.7973 76.0639 70.1154 74.5575 70.1154C73.1766 70.1154 72.2979 68.8601 72.2979 66.5376C72.2979 64.2152 73.3021 62.9598 74.683 62.9598C76.0639 62.9598 76.9427 64.278 76.9427 66.4749ZM73.1766 66.5376C73.1766 68.3579 73.7415 69.3622 74.5575 69.3622C75.499 69.3622 76.0012 68.2324 76.0012 66.4749C76.0012 64.7801 75.5618 63.6503 74.6203 63.6503C73.7415 63.6503 73.1766 64.6546 73.1766 66.5376Z" fill="#A0A0A0"/>
<path d="M79.8314 63.9643L78.576 64.592L78.3877 63.9016L79.8941 63.0856H80.7101V69.9901H79.8314V63.9643Z" fill="#A0A0A0"/>
<path d="M85.2913 63.9643L84.036 64.592L83.8477 63.9016L85.3541 63.0856H86.1701V69.9901H85.2913V63.9643Z" fill="#A0A0A0"/>
<path d="M90.7503 63.9643L89.4949 64.592L89.3066 63.9016L90.8131 63.0856H91.6291V69.9901H90.7503V63.9643Z" fill="#A0A0A0"/>
<path d="M96.2171 63.9643L94.9618 64.592L94.7734 63.9016L96.2799 63.0856H97.0959V69.9901H96.2171V63.9643Z" fill="#A0A0A0"/>
<path d="M104.186 66.4749C104.186 68.7973 103.307 70.1154 101.801 70.1154C100.42 70.1154 99.541 68.8601 99.541 66.5376C99.541 64.2152 100.545 62.9598 101.926 62.9598C103.37 62.9598 104.186 64.278 104.186 66.4749ZM100.483 66.5376C100.483 68.3579 101.047 69.3622 101.863 69.3622C102.805 69.3622 103.307 68.2324 103.307 66.4749C103.307 64.7801 102.868 63.6503 101.926 63.6503C101.047 63.6503 100.483 64.6546 100.483 66.5376Z" fill="#A0A0A0"/>
<path d="M109.645 66.4749C109.645 68.7973 108.766 70.1154 107.26 70.1154C105.879 70.1154 105 68.8601 105 66.5376C105 64.2152 106.004 62.9598 107.385 62.9598C108.829 62.9598 109.645 64.278 109.645 66.4749ZM105.942 66.5376C105.942 68.3579 106.506 69.3622 107.322 69.3622C108.264 69.3622 108.766 68.2324 108.766 66.4749C108.766 64.7801 108.327 63.6503 107.385 63.6503C106.506 63.6503 105.942 64.6546 105.942 66.5376Z" fill="#A0A0A0"/>
<path d="M115.108 66.4749C115.108 68.7973 114.229 70.1154 112.723 70.1154C111.342 70.1154 110.463 68.8601 110.463 66.5376C110.463 64.2152 111.467 62.9598 112.848 62.9598C114.292 62.9598 115.108 64.278 115.108 66.4749ZM111.342 66.5376C111.342 68.3579 111.907 69.3622 112.723 69.3622C113.664 69.3622 114.166 68.2324 114.166 66.4749C114.166 64.7801 113.727 63.6503 112.785 63.6503C111.969 63.6503 111.342 64.6546 111.342 66.5376Z" fill="#A0A0A0"/>
<path d="M105.824 80.0347C105.761 80.223 105.636 80.4113 105.573 80.5997C105.51 80.6624 105.51 80.788 105.447 80.8508C105.133 81.353 104.819 81.8552 104.38 82.2318C103.187 83.4245 101.492 84.1778 99.6092 84.1778H28.1092C25.5982 84.1778 23.4639 82.7968 22.2712 80.788C22.2084 80.7252 22.2084 80.5997 22.1456 80.5369C22.0201 80.3486 21.9573 80.1602 21.8945 79.9719H105.824V80.0347Z" fill="#D6D6D6"/>
<path d="M24.9746 48.8976V35.4638C24.9746 35.2127 25.1629 35.0244 25.414 35.0244H102.187C102.438 35.0244 102.627 35.2127 102.627 35.4638V48.8976H24.9746Z" fill="url(#paint0_linear_481_2687)"/>
<rect x="1.20788" y="1.15417" width="125.863" height="125.863" rx="18.7136" stroke="#282D45" stroke-width="1.02318"/>
<defs>
<linearGradient id="paint0_linear_481_2687" x1="63.78" y1="14.9853" x2="63.78" y2="44.8372" gradientUnits="userSpaceOnUse">
<stop stop-color="white"/>
<stop offset="1" stop-color="white" stop-opacity="0"/>
</linearGradient>
</defs>
</svg>
