<svg width="127" height="128" viewBox="0 0 127 128" fill="none" xmlns="http://www.w3.org/2000/svg">
<rect x="0.504753" y="1.15417" width="125.863" height="125.863" rx="18.7136" fill="white"/>
<path d="M96.804 59.7236C96.804 60.2128 96.804 60.6322 96.804 61.1214C96.5244 68.25 93.9386 74.8194 89.8152 80.061L89.7453 80.1309C89.1862 80.8997 88.5572 81.5986 87.8583 82.2975L87.7884 82.3673C82.407 88.0982 74.9989 91.8721 66.7521 92.571C66.6822 92.571 66.5425 92.571 66.4726 92.571C65.9833 92.6409 65.564 92.6409 65.0748 92.6409C64.6555 92.6409 64.306 92.6409 63.8867 92.6409H63.677C63.4674 92.6409 63.2577 92.6409 63.0481 92.6409C62.7685 92.6409 62.5588 92.6409 62.2793 92.6409C61.5105 92.6409 60.8116 92.571 60.0429 92.4312C52.0756 91.5227 44.9471 87.7487 39.7054 82.2276L39.6356 82.1577C39.4958 82.0179 39.356 81.8082 39.2162 81.6685C39.0764 81.4588 38.8668 81.319 38.727 81.1094C38.6571 80.9696 38.5173 80.8997 38.4475 80.7599C38.3776 80.69 38.3077 80.5503 38.1679 80.4804C38.0281 80.3406 37.8883 80.1309 37.7486 79.9911L37.6787 79.9213C33.6252 74.6797 31.0393 68.1801 30.7598 61.0515C30.7598 60.5623 30.7598 60.1429 30.7598 59.6537C30.7598 59.1645 30.7598 58.7452 30.7598 58.256C31.0393 51.6166 33.2757 45.4665 36.9099 40.4345L36.9798 40.3646C37.0497 40.2947 37.0497 40.2248 37.1196 40.155C37.1895 40.0152 37.3292 39.9453 37.3991 39.8055C37.3991 39.8055 37.3991 39.7356 37.469 39.7356C37.6088 39.526 37.7486 39.3862 37.8884 39.1765C38.0281 38.9669 38.1679 38.8271 38.3077 38.6174C38.4475 38.4078 38.5872 38.268 38.7969 38.0583C44.1084 31.9781 51.5864 27.7848 60.0429 26.8063C60.8116 26.7365 61.5105 26.6666 62.2793 26.5967C62.5588 26.5967 62.7685 26.5967 63.0481 26.5967C63.2577 26.5967 63.4674 26.5967 63.677 26.5967H63.8867C64.306 26.5967 64.6555 26.5967 65.0748 26.5967C65.564 26.5967 66.0532 26.6666 66.4726 26.6666C66.5425 26.6666 66.6822 26.6666 66.7521 26.6666C75.4881 27.4353 83.3156 31.6286 88.7669 37.9185L88.8367 37.9884C89.4657 38.6873 90.0248 39.4561 90.5839 40.155L90.6538 40.2249C94.288 45.2568 96.5244 51.4069 96.804 58.0463C96.804 58.8151 96.804 59.2344 96.804 59.7236Z" fill="#AA00FA"/>
<path d="M93.5191 58.6057C93.5191 42.182 80.2404 28.9033 63.8167 28.9033C47.393 28.9033 34.1143 42.182 34.1143 58.6057C34.1143 58.6057 44.6673 36.6609 63.7468 36.6609C82.8262 36.6609 93.5191 58.6057 93.5191 58.6057Z" fill="url(#paint0_linear_542_7267)"/>
<path d="M63.8171 78.1743C73.6982 78.1743 81.7085 70.1641 81.7085 60.2829C81.7085 50.4018 73.6982 42.3916 63.8171 42.3916C53.936 42.3916 45.9258 50.4018 45.9258 60.2829C45.9258 70.1641 53.936 78.1743 63.8171 78.1743Z" fill="#F7FFFF"/>
<path d="M63.8171 70.556C58.1561 70.556 53.4736 65.9434 53.4736 60.2126C53.4736 54.5516 58.0863 49.8691 63.8171 49.8691C69.478 49.8691 74.1605 54.4818 74.1605 60.2126C74.0906 65.9434 69.478 70.556 63.8171 70.556Z" fill="#A560DC"/>
<path d="M63.8169 64.4053C61.5108 64.4053 59.624 62.5185 59.624 60.2124C59.624 57.9063 61.5108 56.0195 63.8169 56.0195C66.123 56.0195 68.0098 57.9063 68.0098 60.2124C68.0098 62.5884 66.123 64.4053 63.8169 64.4053Z" fill="#2D0456"/>
<path d="M73.323 60.2831C73.323 55.0415 69.0599 50.7783 63.8183 50.7783C58.5767 50.7783 54.3135 55.0415 54.3135 60.2831C54.3135 60.2831 57.6681 53.2943 63.7484 53.2943C69.8286 53.2244 73.323 60.2831 73.323 60.2831Z" fill="url(#paint1_linear_542_7267)"/>
<path d="M94.3555 79.2921L89.4633 84.1842C86.0388 87.6088 82.0552 90.2645 77.7221 92.0117C73.3891 93.8288 68.6367 94.7373 63.8843 94.7373C59.1319 94.7373 54.3795 93.7589 50.0465 92.0117C45.7134 90.1946 41.6599 87.5389 38.3053 84.1842L33.4131 79.2921C32.7142 78.5932 32.6443 77.6847 32.854 76.9159C33.1335 76.0772 33.9023 75.4482 34.9506 75.4482C38.9343 75.4482 42.9179 76.6364 46.2725 78.8029C51.6539 82.2973 57.804 84.0445 63.9542 84.0445C70.1043 84.0445 76.2545 82.2973 81.6359 78.8029C83.3132 77.6847 85.1303 76.846 87.0172 76.2869C88.9042 75.7278 90.931 75.4482 92.8878 75.4482C94.7748 75.5181 95.7532 77.8943 94.3555 79.2921Z" fill="#A560DC"/>
<path d="M94.3555 79.2912L89.4633 84.1834C86.0388 87.6079 82.0552 90.2637 77.7221 92.0109C73.3891 93.828 68.6367 94.7365 63.8843 94.7365C59.1319 94.7365 54.3795 93.7581 50.0465 92.0109C45.7134 90.1938 41.6599 87.538 38.3053 84.1834L33.4131 79.2912C32.7142 78.5923 32.6443 77.6838 32.854 76.915C32.854 76.915 37.5365 80.2697 45.993 86.2101C52.842 91.0324 60.3899 91.4518 62.9757 91.3819C63.6047 91.3819 64.2337 91.3819 64.7928 91.3819C67.3787 91.3819 74.8567 91.0324 81.7756 86.2101C90.2321 80.2697 94.9146 76.915 94.9146 76.915C95.1243 77.7537 94.9845 78.6622 94.3555 79.2912Z" fill="#2D0456"/>
<path d="M71.431 97.1135H56.1255C55.846 97.1135 55.5664 96.8339 55.5664 96.5544V93.1997C55.5664 92.9202 55.846 92.6406 56.1255 92.6406H71.431C71.7106 92.6406 71.9901 92.9202 71.9901 93.1997V96.5544C71.9901 96.9038 71.7106 97.1135 71.431 97.1135Z" fill="#2D0456"/>
<path d="M71.431 101.517H56.1255C55.846 101.517 55.5664 101.237 55.5664 100.958V97.6031C55.5664 97.3235 55.846 97.0439 56.1255 97.0439H71.431C71.7106 97.0439 71.9901 97.3235 71.9901 97.6031V100.958C71.9901 101.237 71.7106 101.517 71.431 101.517Z" fill="#A560DC"/>
<rect x="0.504753" y="1.15417" width="125.863" height="125.863" rx="18.7136" stroke="#DEDEDE" stroke-width="1.02318"/>
<defs>
<linearGradient id="paint0_linear_542_7267" x1="58.6412" y1="15.4901" x2="62.3201" y2="45.5903" gradientUnits="userSpaceOnUse">
<stop stop-color="white"/>
<stop offset="1" stop-color="white" stop-opacity="0"/>
</linearGradient>
<linearGradient id="paint1_linear_542_7267" x1="62.1512" y1="46.4648" x2="63.3274" y2="56.0882" gradientUnits="userSpaceOnUse">
<stop stop-color="white"/>
<stop offset="1" stop-color="white" stop-opacity="0"/>
</linearGradient>
</defs>
</svg>
