<svg width="2152" height="796" viewBox="0 0 2152 796" fill="none" xmlns="http://www.w3.org/2000/svg">
<path d="M1845.94 795.54C1665.48 652.892 1582.11 601.549 1432.68 692.66C1263.04 584.025 1198.91 620.56 1016.83 733.851C925.823 645.068 890.91 608.209 848.742 663.755C744.91 543.028 687.844 503.519 600.853 608.662C591.423 620.033 578.917 628.457 564.825 632.928C550.733 637.4 535.65 637.73 521.375 633.881C390.402 598.38 264.546 747.042 187.725 795.54H1845.94Z" fill="#7214FF" fill-opacity="0.05"/>
<path d="M1719.68 774.708C1717.09 772.444 1713.07 771.28 1708.28 771.28C1704.21 771.343 1700.17 771.997 1696.29 773.22L1693.7 774.061C1693.78 772.185 1693.56 770.308 1693.06 768.5C1691.63 762.809 1687.87 758.154 1682.24 754.985C1673.82 750.2 1661.96 749.424 1650.63 752.851C1648.41 753.506 1646.24 754.328 1644.15 755.308C1643.18 752.162 1641.83 749.144 1640.14 746.32C1629.97 729.249 1608.85 719.226 1593.05 724.011C1586.31 726.016 1581.26 730.607 1578.86 736.815C1575.75 744.833 1577.11 754.726 1582.68 764.038C1590.91 777.941 1606.71 787.511 1621.22 787.576C1621.35 788.416 1621.48 789.257 1621.68 790.033C1622.1 791.58 1622.68 793.075 1623.42 794.495H1624.91C1624.04 793 1623.39 791.389 1622.97 789.71C1622.73 788.775 1622.56 787.824 1622.45 786.864C1622.44 786.705 1622.36 786.556 1622.24 786.449C1622.12 786.341 1621.97 786.282 1621.8 786.282H1621.35C1607.23 786.282 1591.81 776.906 1583.78 763.391C1578.47 754.403 1577.11 744.898 1580.03 737.267C1582.29 731.447 1587.09 727.18 1593.43 725.24C1608.66 720.649 1629.12 730.413 1639.03 746.967C1640.78 749.932 1642.16 753.103 1643.12 756.408C1643.19 756.58 1643.33 756.718 1643.5 756.796C1643.67 756.861 1643.85 756.861 1644.02 756.796C1646.28 755.702 1648.61 754.794 1651.02 754.08C1662.03 750.782 1673.43 751.493 1681.59 756.084C1686.9 759.124 1690.47 763.521 1691.83 768.823C1692.36 770.824 1692.53 772.904 1692.34 774.966C1692.35 775.187 1692.44 775.396 1692.6 775.548C1692.69 775.623 1692.8 775.668 1692.91 775.679C1693.03 775.691 1693.15 775.668 1693.25 775.613L1696.68 774.449C1706.14 771.604 1714.63 772.056 1718.84 775.678C1721.1 777.553 1722.01 780.204 1721.56 783.308C1721.1 786.412 1718.97 790.809 1715.66 794.495H1717.35C1720.39 790.873 1722.4 787.058 1722.85 783.502C1723.31 779.945 1722.27 776.841 1719.68 774.708Z" fill="#808AFF"/>
<path d="M70.9644 735.65C127.512 707.198 167.478 729.248 167.478 729.248C195.46 720.583 220.074 726.662 232.835 736.555C240.737 742.763 222.989 741.664 183.153 741.664H72.4542C71.6124 741.664 70.8051 741.33 70.2099 740.736C69.6146 740.141 69.2803 739.336 69.2803 738.495C69.2855 737.915 69.4438 737.346 69.7396 736.847C70.0353 736.347 70.4577 735.934 70.9644 735.65Z" fill="#020E92" fill-opacity="0.2"/>
<path d="M670.534 438.939C684.85 431.696 694.954 437.322 694.954 437.322C702.015 435.123 708.298 436.675 711.472 439.133C713.48 440.749 709.01 440.426 698.905 440.426H670.858C670.652 440.426 670.454 440.344 670.308 440.199C670.163 440.053 670.081 439.856 670.081 439.65C670.08 439.501 670.122 439.354 670.202 439.228C670.283 439.102 670.398 439.001 670.534 438.939Z" fill="#5865F2" fill-opacity="0.2"/>
<path d="M2116.96 451.652C2116.86 446.038 2114.82 440.629 2111.18 436.349C2107.54 432.069 2102.53 429.183 2096.99 428.183C2091.46 427.184 2085.75 428.132 2080.84 430.868C2075.93 433.602 2072.11 437.955 2070.06 443.181C2068.25 442.789 2066.41 442.594 2064.55 442.599C2060.84 442.587 2057.16 443.393 2053.79 444.957C2050.43 446.522 2047.44 448.807 2045.06 451.652H2116.96Z" fill="#5865F2" fill-opacity="0.2"/>
<path d="M73.4231 0.702637C69.5373 0.704577 65.7104 1.64672 62.2696 3.44825C58.8289 5.25043 55.8765 7.85833 53.667 11.0488C45.0204 7.11664 35.4254 5.74512 26.0209 7.09789C16.617 8.45065 7.79997 12.4701 0.617188 18.6792H96.6769C95.3322 13.5403 92.3221 8.98995 88.1157 5.73865C83.9093 2.48671 78.7429 0.716216 73.4231 0.702637Z" fill="#5865F2" fill-opacity="0.2"/>
<path d="M2140.84 139.472C2142.47 139.49 2144.08 139.148 2145.56 138.471C2147.03 137.793 2148.34 136.797 2149.39 135.554C2150.44 134.312 2151.19 132.853 2151.61 131.283C2152.02 129.713 2152.09 128.072 2151.79 126.475C2148.69 109.763 2140.21 94.5143 2127.67 83.03C2115.11 71.5457 2099.16 64.4502 2082.22 62.8148C2065.26 61.1788 2048.25 65.0923 2033.73 73.9635C2019.2 82.8347 2007.96 96.182 2001.71 111.99C1995.92 110.743 1990.01 110.114 1984.09 110.115C1972.71 110.096 1961.44 112.451 1951.03 117.027C1940.61 121.603 1931.27 128.301 1923.59 136.692C1923.38 136.933 1923.25 137.228 1923.2 137.543C1923.15 137.858 1923.2 138.18 1923.32 138.471C1923.45 138.762 1923.66 139.011 1923.93 139.189C1924.19 139.366 1924.5 139.464 1924.82 139.472H2140.84Z" fill="#5865F2" fill-opacity="0.2"/>
<path d="M669.139 794.727H667.843C668.362 780.113 665.641 770.608 659.488 765.758C653.334 760.908 643.035 760.585 628.59 765.047C628.416 765.091 628.228 765.068 628.072 764.982C627.91 764.877 627.794 764.715 627.748 764.529C627.347 761.93 626.278 759.479 624.639 757.415C623.007 755.352 620.863 753.749 618.421 752.761C612.203 750.239 604.495 751.661 597.888 756.511C581.824 768.215 583.573 789.166 583.573 789.36C583.573 789.494 583.54 789.625 583.469 789.739C583.404 789.854 583.301 789.946 583.184 790.007C583.067 790.069 582.938 790.09 582.808 790.067C582.679 790.043 582.556 789.977 582.471 789.878C574.116 782.441 568.286 779.531 563.557 780.372C558.829 781.213 554.554 786.257 549.696 794.727H548.206C553.453 785.545 557.728 780.049 563.298 779.079C568.869 778.109 574.116 780.954 582.212 787.938C582.148 782.765 583.054 765.758 597.11 755.477C604.106 750.368 612.267 748.881 618.874 751.597C621.42 752.588 623.674 754.203 625.429 756.295C627.185 758.385 628.383 760.884 628.914 763.56C643.424 759.227 653.658 759.615 660.265 764.788C666.872 769.961 669.657 779.661 669.139 794.727Z" fill="#808AFF"/>
<path d="M416.738 55.8125C415.313 56.7593 414.103 58.0282 413.191 59.5275C412.281 61.0278 411.692 62.7218 411.469 64.4902L410.56 70.6609C410.538 70.7969 410.471 70.9203 410.371 71.009C410.271 71.0977 410.145 71.1449 410.015 71.143C409.884 71.1449 409.758 71.0977 409.658 71.009C409.558 70.9203 409.491 70.7969 409.47 70.6609L408.561 64.4902C408.319 62.7276 407.723 61.0403 406.814 59.5439C405.905 58.0465 404.703 56.7738 403.291 55.8125L402.564 55.3304C402.477 55.2899 402.404 55.2224 402.354 55.1357C402.305 55.0489 402.284 54.9486 402.292 54.8483C402.284 54.7481 402.305 54.6468 402.354 54.561C402.404 54.4742 402.477 54.4058 402.564 54.3662L403.291 53.8842C404.699 52.893 405.894 51.601 406.802 50.0891C407.71 48.5783 408.308 46.8823 408.561 45.1101L409.47 39.0358C409.491 38.8998 409.558 38.7764 409.658 38.6877C409.758 38.599 409.884 38.5517 410.015 38.5537C410.145 38.5517 410.271 38.599 410.371 38.6877C410.471 38.7764 410.538 38.8998 410.56 39.0358L411.469 45.1101C411.703 46.8871 412.295 48.5908 413.205 50.1045C414.114 51.6183 415.319 52.9074 416.738 53.8842L417.465 54.3662C417.553 54.4058 417.625 54.4742 417.674 54.561C417.723 54.6468 417.745 54.7481 417.738 54.8483C417.745 54.9486 417.723 55.0489 417.674 55.1357C417.625 55.2224 417.553 55.2899 417.465 55.3304L416.738 55.8125Z" fill="#91FFAD"/>
<path d="M1802.12 93.361C1800.87 92.599 1799.81 91.5943 1799 90.4141C1798.19 89.2343 1797.66 87.9056 1797.45 86.5179L1796.69 81.7188C1796.66 81.6091 1796.6 81.5109 1796.5 81.4389C1796.41 81.3669 1796.29 81.3247 1796.17 81.3189C1796.05 81.3171 1795.93 81.3562 1795.83 81.4295C1795.74 81.5024 1795.68 81.6051 1795.65 81.7188L1794.9 86.5179C1794.67 87.9088 1794.14 89.2383 1793.32 90.4181C1792.51 91.5978 1791.44 92.6012 1790.18 93.361L1789.52 93.761C1789.45 93.8072 1789.39 93.8667 1789.36 93.936C1789.31 94.0049 1789.29 94.0818 1789.29 94.1609C1789.29 94.2409 1789.31 94.3186 1789.35 94.3884C1789.39 94.4582 1789.45 94.5173 1789.52 94.5608L1790.18 94.9607C1791.44 95.7299 1792.51 96.7413 1793.32 97.9282C1794.14 99.1155 1794.67 100.452 1794.9 101.848L1795.65 106.647C1795.68 106.761 1795.74 106.864 1795.83 106.937C1795.93 107.01 1796.05 107.049 1796.17 107.047C1796.29 107.042 1796.41 106.999 1796.5 106.928C1796.6 106.856 1796.66 106.758 1796.69 106.647L1797.45 101.848C1797.66 100.454 1798.19 99.1195 1799 97.9322C1799.8 96.7448 1800.87 95.7321 1802.12 94.9607L1802.83 94.5608C1802.89 94.515 1802.94 94.4546 1802.98 94.3844C1803.01 94.3142 1803.02 94.2373 1803.01 94.1609C1803.02 94.0849 1803.01 94.0094 1802.97 93.94C1802.94 93.8707 1802.89 93.8094 1802.83 93.761L1802.12 93.361Z" fill="#3F99F2"/>
<path d="M2035.28 625.552C2033.89 624.65 2032.71 623.462 2031.81 622.069C2030.92 620.675 2030.34 619.107 2030.1 617.469L2029.19 611.843C2029.19 611.706 2029.14 611.574 2029.04 611.477C2028.94 611.381 2028.81 611.326 2028.67 611.326C2028.53 611.326 2028.39 611.378 2028.28 611.473C2028.17 611.569 2028.1 611.701 2028.09 611.843L2027.25 617.469C2027 619.111 2026.4 620.681 2025.5 622.075C2024.59 623.468 2023.4 624.653 2022 625.552L2021.29 626.005C2021.22 626.059 2021.15 626.126 2021.11 626.204C2021.07 626.282 2021.04 626.368 2021.03 626.458C2021.03 626.549 2021.05 626.639 2021.1 626.719C2021.15 626.798 2021.21 626.864 2021.29 626.91L2022 627.363C2023.39 628.267 2024.58 629.455 2025.49 630.848C2026.39 632.24 2026.99 633.807 2027.25 635.446L2028.09 641.072C2028.1 641.214 2028.17 641.346 2028.28 641.442C2028.39 641.538 2028.53 641.59 2028.67 641.589C2028.81 641.589 2028.94 641.535 2029.04 641.438C2029.14 641.341 2029.19 641.209 2029.19 641.072L2030.1 635.446C2030.34 633.811 2030.93 632.246 2031.83 630.853C2032.72 629.46 2033.89 628.271 2035.28 627.363L2035.99 626.91C2036.08 626.871 2036.15 626.806 2036.19 626.725C2036.24 626.644 2036.26 626.551 2036.25 626.458C2036.25 626.366 2036.23 626.276 2036.18 626.196C2036.13 626.117 2036.07 626.051 2035.99 626.005L2035.28 625.552Z" fill="#404EED"/>
<path d="M654.798 582.105C654.271 581.77 653.824 581.325 653.489 580.8C653.153 580.275 652.936 579.683 652.855 579.065L652.531 576.996C652.531 576.945 652.51 576.895 652.474 576.859C652.437 576.823 652.388 576.802 652.336 576.802C652.285 576.802 652.235 576.823 652.199 576.859C652.162 576.895 652.142 576.945 652.142 576.996L651.818 579.065C651.736 579.683 651.52 580.275 651.183 580.8C650.848 581.325 650.401 581.77 649.875 582.105L649.551 582.299C649.486 582.299 649.486 582.428 649.486 582.493C649.483 582.528 649.488 582.563 649.499 582.596C649.51 582.63 649.527 582.661 649.551 582.687L649.875 582.816C650.387 583.166 650.824 583.615 651.158 584.137C651.492 584.66 651.717 585.244 651.818 585.855L652.142 587.989C652.142 588.041 652.162 588.09 652.199 588.126C652.235 588.162 652.285 588.183 652.336 588.183C652.388 588.183 652.437 588.162 652.474 588.126C652.51 588.09 652.531 588.041 652.531 587.989L652.855 585.855C652.956 585.244 653.18 584.66 653.515 584.137C653.849 583.615 654.285 583.166 654.798 582.816L655.122 582.687C655.145 582.661 655.163 582.63 655.174 582.596C655.185 582.563 655.189 582.528 655.186 582.493C655.186 582.428 655.186 582.299 655.122 582.299L654.798 582.105Z" fill="#FF78B9"/>
<path d="M849.605 691.098C849.336 690.939 849.105 690.723 848.926 690.467C848.748 690.21 848.626 689.918 848.569 689.611L848.439 688.512H848.245L848.051 689.611C848.005 689.914 847.895 690.204 847.727 690.461C847.559 690.717 847.338 690.935 847.079 691.098L846.95 691.228C846.932 691.228 846.916 691.235 846.904 691.247C846.891 691.259 846.885 691.275 846.885 691.292C846.885 691.31 846.891 691.326 846.904 691.338C846.916 691.35 846.932 691.357 846.95 691.357L847.079 691.486C847.338 691.65 847.559 691.868 847.727 692.124C847.895 692.381 848.005 692.671 848.051 692.974L848.245 694.073H848.439L848.569 692.974C848.626 692.666 848.748 692.375 848.926 692.119C849.105 691.862 849.336 691.647 849.605 691.486L849.735 691.357L849.605 691.098Z" fill="#FFC619"/>
<path d="M1071.55 658.989C1070.97 658.596 1070.47 658.09 1070.1 657.501C1069.72 656.912 1069.46 656.252 1069.35 655.561L1069.02 653.234C1069.02 653.104 1068.89 653.04 1068.76 653.04C1068.74 653.04 1068.71 653.045 1068.69 653.054C1068.67 653.064 1068.65 653.078 1068.63 653.096C1068.61 653.115 1068.6 653.136 1068.58 653.159C1068.58 653.183 1068.57 653.208 1068.57 653.234L1068.18 655.561C1068.09 656.253 1067.86 656.916 1067.49 657.508C1067.12 658.099 1066.63 658.604 1066.04 658.989L1065.72 659.183C1065.65 659.183 1065.59 659.247 1065.59 659.377C1065.59 659.441 1065.65 659.506 1065.72 659.571L1066.04 659.765C1066.61 660.145 1067.1 660.641 1067.47 661.22C1067.84 661.799 1068.08 662.449 1068.18 663.127L1068.57 665.455C1068.57 665.507 1068.59 665.556 1068.63 665.592C1068.66 665.629 1068.71 665.649 1068.76 665.649C1068.89 665.649 1069.02 665.584 1069.02 665.455L1069.35 663.127C1069.47 662.448 1069.73 661.801 1070.1 661.224C1070.49 660.647 1070.97 660.15 1071.55 659.765L1071.87 659.571C1071.9 659.545 1071.91 659.514 1071.92 659.48C1071.94 659.447 1071.94 659.412 1071.94 659.377C1071.94 659.247 1071.94 659.183 1071.87 659.183L1071.55 658.989Z" fill="#91FFAD"/>
<path d="M155.922 658.989C155.339 658.596 154.847 658.09 154.471 657.501C154.089 656.912 153.836 656.252 153.72 655.561L153.396 653.234C153.396 653.104 153.266 653.04 153.137 653.04C153.111 653.04 153.085 653.045 153.059 653.054C153.04 653.064 153.02 653.078 153.001 653.096C152.981 653.115 152.968 653.136 152.955 653.159C152.949 653.183 152.942 653.208 152.942 653.234L152.554 655.561C152.463 656.253 152.23 656.916 151.861 657.508C151.492 658.099 150.999 658.604 150.416 658.989L150.092 659.183C150.028 659.183 149.963 659.247 149.963 659.377C149.963 659.441 150.028 659.506 150.092 659.571L150.416 659.765C150.986 660.145 151.472 660.641 151.841 661.22C152.211 661.799 152.45 662.449 152.554 663.127L152.942 665.455C152.942 665.507 152.962 665.556 153.001 665.592C153.033 665.629 153.085 665.649 153.137 665.649C153.266 665.649 153.396 665.584 153.396 665.455L153.72 663.127C153.843 662.448 154.102 661.801 154.478 661.224C154.86 660.647 155.346 660.15 155.922 659.765L156.246 659.571C156.272 659.545 156.285 659.514 156.298 659.48C156.311 659.447 156.311 659.412 156.311 659.377C156.311 659.247 156.311 659.183 156.246 659.183L155.922 658.989Z" fill="#91FFAD"/>
<path d="M400.681 628.149C400.057 627.728 399.529 627.184 399.128 626.55C398.726 625.915 398.461 625.205 398.349 624.463L397.96 621.876C397.895 621.747 397.83 621.618 397.701 621.618C397.632 621.618 397.566 621.645 397.518 621.693C397.469 621.742 397.442 621.808 397.442 621.876L397.053 624.463C396.929 625.209 396.652 625.921 396.24 626.555C395.827 627.19 395.288 627.732 394.657 628.149L394.268 628.343C394.203 628.407 394.203 628.472 394.203 628.601C394.203 628.666 394.203 628.795 394.268 628.795L394.657 629.054C395.294 629.465 395.837 630.006 396.25 630.641C396.663 631.277 396.937 631.992 397.053 632.74L397.442 635.326C397.442 635.456 397.571 635.52 397.701 635.52C397.83 635.52 397.895 635.456 397.96 635.326L398.349 632.74C398.453 631.996 398.715 631.282 399.118 630.647C399.519 630.011 400.052 629.469 400.681 629.054L401.069 628.795C401.134 628.795 401.199 628.666 401.199 628.601C401.199 628.552 401.187 628.502 401.164 628.457C401.142 628.412 401.109 628.373 401.069 628.343L400.681 628.149Z" fill="#FF78B9"/>
<path d="M614.764 475.493C614.14 475.073 613.612 474.528 613.211 473.894C612.809 473.259 612.544 472.549 612.432 471.807L612.043 469.221C611.978 469.091 611.913 468.962 611.784 468.962C611.715 468.962 611.649 468.989 611.601 469.038C611.552 469.086 611.525 469.152 611.525 469.221L611.136 471.807C611.012 472.553 610.735 473.265 610.323 473.9C609.91 474.534 609.371 475.077 608.74 475.493L608.351 475.687C608.286 475.752 608.286 475.816 608.286 475.946C608.286 476.01 608.286 476.14 608.351 476.14L608.74 476.398C609.377 476.809 609.92 477.35 610.333 477.985C610.746 478.621 611.02 479.336 611.136 480.084L611.525 482.671C611.525 482.8 611.654 482.865 611.784 482.865C611.913 482.865 611.978 482.8 612.043 482.671L612.432 480.084C612.536 479.34 612.798 478.627 613.201 477.991C613.602 477.355 614.135 476.813 614.764 476.398L615.152 476.14C615.217 476.14 615.282 476.01 615.282 475.946C615.282 475.896 615.27 475.846 615.247 475.801C615.225 475.756 615.192 475.717 615.152 475.687L614.764 475.493Z" fill="#B756FE"/>
<path d="M2053.25 701.904C2052.63 701.483 2052.1 700.939 2051.7 700.304C2051.29 699.67 2051.03 698.959 2050.92 698.218L2050.53 695.631C2050.46 695.502 2050.4 695.373 2050.27 695.373C2050.2 695.373 2050.13 695.4 2050.09 695.448C2050.04 695.497 2050.01 695.563 2050.01 695.631L2049.62 698.218C2049.5 698.964 2049.22 699.676 2048.81 700.31C2048.4 700.945 2047.86 701.487 2047.22 701.904L2046.84 702.098C2046.77 702.162 2046.77 702.227 2046.77 702.356C2046.77 702.421 2046.77 702.55 2046.84 702.55L2047.22 702.809C2047.86 703.22 2048.41 703.761 2048.82 704.396C2049.23 705.031 2049.5 705.747 2049.62 706.495L2050.01 709.081C2050.01 709.211 2050.14 709.275 2050.27 709.275C2050.4 709.275 2050.46 709.211 2050.53 709.081L2050.92 706.495C2051.02 705.75 2051.28 705.037 2051.69 704.402C2052.09 703.766 2052.62 703.223 2053.25 702.809L2053.64 702.55C2053.7 702.55 2053.77 702.421 2053.77 702.356C2053.77 702.306 2053.76 702.257 2053.73 702.212C2053.71 702.167 2053.68 702.128 2053.64 702.098L2053.25 701.904Z" fill="#B756FE"/>
</svg>
