<svg width="409" height="392" viewBox="0 0 409 392" fill="none" xmlns="http://www.w3.org/2000/svg">
<g clip-path="url(#clip0_481_2323)">
<rect x="1" y="1" width="407" height="390" rx="16" fill="#060B27" fill-opacity="0.6"/>
<path opacity="0.3" d="M362.468 390.297C377.932 404.271 401.892 402.956 415.985 387.361C430.078 371.766 428.967 347.795 413.503 333.822C398.04 319.848 374.079 321.162 359.987 336.757C345.894 352.353 347.005 376.323 362.468 390.297Z" stroke="url(#paint0_linear_481_2323)" stroke-width="0.487469" stroke-miterlimit="10"/>
<path opacity="0.3" d="M348.722 404.773C372.5 426.261 409.359 424.553 431.047 400.957C452.736 377.362 451.042 340.815 427.264 319.327C403.485 297.839 366.626 299.548 344.938 323.143C323.249 346.738 324.943 383.286 348.722 404.773Z" stroke="url(#paint1_linear_481_2323)" stroke-width="0.544043" stroke-miterlimit="10"/>
<path opacity="0.3" d="M335.113 419.582C367.133 448.518 416.768 446.217 445.974 414.443C475.181 382.67 472.9 333.454 440.879 304.518C408.858 275.583 359.224 277.883 330.017 309.657C300.811 341.431 303.092 390.646 335.113 419.582Z" stroke="url(#paint2_linear_481_2323)" stroke-width="0.581492" stroke-miterlimit="10"/>
<path opacity="0.3" d="M320.728 436.49C361.089 472.962 423.628 469.532 460.411 428.827C497.195 388.122 494.294 325.557 453.934 289.084C413.573 252.611 351.035 256.042 314.251 296.747C277.468 337.452 280.367 400.017 320.728 436.49Z" stroke="url(#paint3_linear_481_2323)" stroke-width="0.562137" stroke-miterlimit="10"/>
<path opacity="0.3" d="M306.934 451.752C356.052 496.138 432.157 491.963 476.921 442.427C521.685 392.891 518.156 316.753 469.038 272.367C419.921 227.982 343.815 232.157 299.051 281.693C254.288 331.228 257.817 407.367 306.934 451.752Z" stroke="url(#paint4_linear_481_2323)" stroke-width="0.505129" stroke-miterlimit="10"/>
<path d="M146.533 127.057C146.533 126.065 147.354 125.376 148.547 125.376C149.694 125.376 150.422 126.011 150.453 127.034H149.462C149.438 126.546 149.09 126.259 148.532 126.259C147.92 126.259 147.524 126.554 147.524 127.026C147.524 127.429 147.741 127.654 148.214 127.762L149.105 127.956C150.074 128.165 150.546 128.661 150.546 129.506C150.546 130.559 149.725 131.241 148.478 131.241C147.269 131.241 146.478 130.598 146.455 129.583H147.447C147.455 130.064 147.842 130.35 148.478 130.35C149.136 130.35 149.555 130.064 149.555 129.591C149.555 129.211 149.361 128.987 148.896 128.886L147.997 128.684C147.036 128.475 146.533 127.925 146.533 127.057ZM157.232 128.305C157.232 130.025 156.1 131.234 154.473 131.234C152.854 131.234 151.738 130.033 151.738 128.305C151.738 126.585 152.862 125.376 154.481 125.376C156.1 125.376 157.232 126.577 157.232 128.305ZM156.186 128.305C156.186 127.096 155.519 126.329 154.481 126.329C153.443 126.329 152.776 127.096 152.776 128.305C152.776 129.513 153.443 130.281 154.481 130.281C155.519 130.281 156.186 129.498 156.186 128.305ZM161.874 128.824H159.766V131.141H158.775V125.477H162.277V126.391H159.766V127.933H161.874V128.824ZM163.295 126.391V125.477H167.603V126.391H165.945V131.141H164.953V126.391H163.295ZM170.234 131.141L168.545 125.477H169.576L170.475 128.467C170.56 128.777 170.645 129.095 170.73 129.591C170.823 129.087 170.909 128.793 171.009 128.467L171.9 125.477H172.993L173.868 128.467C173.961 128.785 174.047 129.111 174.14 129.591C174.248 129.064 174.326 128.762 174.411 128.475L175.325 125.477H176.332L174.612 131.141H173.652L172.443 127.018L171.211 131.141H170.234ZM177.573 131.141H176.542L178.588 125.477H179.603L181.648 131.141H180.602L180.145 129.831H178.03L177.573 131.141ZM178.967 127.166L178.324 128.994H179.858L179.208 127.166C179.161 127.018 179.107 126.848 179.091 126.732C179.068 126.84 179.022 127.011 178.967 127.166ZM183.97 131.141H182.978V125.477H185.14C186.426 125.477 187.178 126.127 187.178 127.243C187.178 128.003 186.822 128.545 186.155 128.816L187.232 131.141H186.148L185.187 129.025H183.97V131.141ZM183.97 126.36V128.15H185.14C185.768 128.15 186.14 127.817 186.14 127.243C186.14 126.678 185.768 126.36 185.14 126.36H183.97ZM192.307 131.141H188.789V125.477H192.307V126.391H189.781V127.848H192.043V128.723H189.781V130.226H192.307V131.141ZM198.748 131.141H196.71V125.477H198.694C200.368 125.477 201.522 126.631 201.522 128.32C201.522 129.986 200.391 131.141 198.748 131.141ZM198.601 126.391H197.702V130.226H198.655C199.786 130.226 200.476 129.498 200.476 128.32C200.476 127.119 199.771 126.391 198.601 126.391ZM206.584 131.141H203.066V125.477H206.584V126.391H204.058V127.848H206.32V128.723H204.058V130.226H206.584V131.141ZM209.867 131.141L207.729 125.477H208.782L210.022 128.739C210.146 129.08 210.255 129.413 210.379 129.87C210.518 129.374 210.634 129.025 210.743 128.739L211.967 125.477H212.998L210.89 131.141H209.867ZM217.842 131.141H214.324V125.477H217.842V126.391H215.316V127.848H217.578V128.723H215.316V130.226H217.842V131.141ZM220.529 125.477V130.226H222.9V131.141H219.537V125.477H220.529ZM229.222 128.305C229.222 130.025 228.091 131.234 226.464 131.234C224.844 131.234 223.728 130.033 223.728 128.305C223.728 126.585 224.852 125.376 226.471 125.376C228.091 125.376 229.222 126.577 229.222 128.305ZM228.176 128.305C228.176 127.096 227.51 126.329 226.471 126.329C225.433 126.329 224.767 127.096 224.767 128.305C224.767 129.513 225.433 130.281 226.471 130.281C227.51 130.281 228.176 129.498 228.176 128.305ZM233.004 129.188H231.757V131.141H230.765V125.477H233.004C234.143 125.477 234.879 126.22 234.879 127.328C234.879 128.421 234.136 129.188 233.004 129.188ZM232.811 126.36H231.757V128.305H232.795C233.477 128.305 233.841 127.941 233.841 127.321C233.841 126.701 233.469 126.36 232.811 126.36ZM237.294 131.141H236.334V125.477H237.294L239.123 129.986L240.952 125.477H241.928V131.141H240.967V129.397C240.967 128.258 240.967 127.925 241.021 127.522L239.58 131.141H238.666L237.232 127.53C237.287 127.871 237.294 128.405 237.294 129.111V131.141ZM247.319 131.141H243.801V125.477H247.319V126.391H244.793V127.848H247.056V128.723H244.793V130.226H247.319V131.141ZM249.991 131.141H249.014V125.477H249.998L252.656 129.49V125.477H253.632V131.141H252.656L249.991 127.127V131.141ZM255.01 126.391V125.477H259.318V126.391H257.66V131.141H256.668V126.391H255.01Z" fill="#E3A6FF"/>
<g opacity="0.5">
<path d="M186.925 158.788C162.601 168.259 150.331 195.598 159.802 220.137C169.274 244.462 196.612 256.732 221.152 247.26C245.476 237.789 257.746 210.451 248.274 185.911C238.803 161.586 211.25 149.317 186.925 158.788ZM215.34 232.622C198.98 238.865 180.683 230.9 174.44 214.54C168.198 198.181 176.162 179.884 192.522 173.641C208.882 167.398 227.179 175.363 233.422 191.723C239.879 207.867 231.699 226.164 215.34 232.622Z" fill="url(#paint5_linear_481_2323)"/>
<path d="M228.04 195.598C231.7 206.145 226.964 217.769 217.277 222.936L221.367 233.483C236.866 225.949 244.4 207.867 238.588 191.508L228.04 195.598Z" fill="url(#paint6_linear_481_2323)"/>
<path d="M186.925 158.788C162.601 168.259 150.331 195.598 159.802 220.137C169.274 244.462 196.612 256.732 221.152 247.26C245.476 237.789 257.746 210.451 248.274 185.911C238.803 161.586 211.25 149.317 186.925 158.788ZM215.34 232.622C198.98 238.865 180.683 230.9 174.44 214.54C168.198 198.181 176.162 179.884 192.522 173.641C208.882 167.398 227.179 175.363 233.422 191.723C239.879 207.867 231.699 226.164 215.34 232.622Z" fill="url(#paint7_linear_481_2323)"/>
<path d="M183.265 149.532C153.774 160.941 138.921 194.091 150.33 223.797C161.739 253.287 194.889 268.14 224.595 256.731C254.086 245.323 268.939 212.173 257.53 182.467C246.121 152.761 212.971 137.908 183.265 149.532ZM217.922 238.865C198.118 246.399 175.946 236.712 168.197 216.908C160.663 197.104 170.349 174.932 190.153 167.183C209.957 159.649 232.129 169.336 239.879 189.14C247.413 208.944 237.511 231.115 217.922 238.865Z" stroke="url(#paint8_linear_481_2323)" stroke-width="1.3824" stroke-miterlimit="10"/>
<path d="M228.04 195.598C231.7 206.145 226.964 217.769 217.277 222.936L221.367 233.483C236.866 225.949 244.4 207.867 238.588 191.508L228.04 195.598Z" fill="url(#paint9_linear_481_2323)"/>
<path d="M187.787 170.843C172.288 178.807 164.323 196.674 169.059 213.464L180.468 209.159C178.1 198.611 182.836 187.633 192.092 182.251L187.787 170.843Z" fill="url(#paint10_linear_481_2323)"/>
</g>
<path d="M277.334 280.84H130.526C118.687 280.84 109 271.154 109 259.314V132.526C109 120.687 118.687 111 130.526 111H277.334C289.173 111 298.86 120.687 298.86 132.526V259.314C298.86 271.154 289.173 280.84 277.334 280.84Z" stroke="url(#paint11_linear_481_2323)" stroke-width="1.70142" stroke-miterlimit="10"/>
<path d="M130.74 111H277.548C289.387 111 299.074 120.687 299.074 132.526V259.314C299.074 271.154 289.387 280.84 277.548 280.84H130.74C118.901 280.84 109.214 271.154 109.214 259.314V132.526C108.999 120.687 118.686 111 130.74 111Z" stroke="url(#paint12_linear_481_2323)" stroke-width="1.70142" stroke-miterlimit="10"/>
<path d="M109 143.719L121.7 156.42V247.26L109.431 259.53L109 143.719Z" fill="#AA00FA"/>
<path d="M298.861 143.719L286.16 156.42V247.26L298.645 259.53L298.861 143.719Z" fill="#AA00FA"/>
<path d="M265.707 137.908H147.314C142.578 137.908 138.488 134.033 138.488 129.082C138.488 124.346 142.363 120.256 147.314 120.256H265.707C270.443 120.256 274.533 124.131 274.533 129.082C274.318 134.033 270.443 137.908 265.707 137.908Z" stroke="#AA00FA" stroke-width="1.95607" stroke-miterlimit="10"/>
<path d="M117.611 170.843H142.151L171.426 200.118H206.514" stroke="#9E04F6" stroke-width="1.95607" stroke-miterlimit="10"/>
<path d="M203.93 200.118H228.254L257.53 170.843H292.617" stroke="#9E04F6" stroke-width="1.95607" stroke-miterlimit="10"/>
</g>
<rect x="0.5" y="0.5" width="408" height="391" rx="16.5" stroke="#282D45"/>
<defs>
<linearGradient id="paint0_linear_481_2323" x1="413.596" y1="333.7" x2="362.366" y2="390.391" gradientUnits="userSpaceOnUse">
<stop stop-color="white" stop-opacity="0"/>
<stop offset="0.492" stop-color="white"/>
<stop offset="1" stop-color="white" stop-opacity="0"/>
</linearGradient>
<linearGradient id="paint1_linear_481_2323" x1="427.358" y1="319.204" x2="349.35" y2="405.528" gradientUnits="userSpaceOnUse">
<stop stop-color="white" stop-opacity="0"/>
<stop offset="0.492" stop-color="white"/>
<stop offset="1" stop-color="white" stop-opacity="0"/>
</linearGradient>
<linearGradient id="paint2_linear_481_2323" x1="440.992" y1="304.373" x2="335.975" y2="420.586" gradientUnits="userSpaceOnUse">
<stop stop-color="white" stop-opacity="0"/>
<stop offset="0.492" stop-color="white"/>
<stop offset="1" stop-color="white" stop-opacity="0"/>
</linearGradient>
<linearGradient id="paint3_linear_481_2323" x1="454.044" y1="288.941" x2="320.608" y2="436.602" gradientUnits="userSpaceOnUse">
<stop stop-color="white" stop-opacity="0"/>
<stop offset="0.492" stop-color="white"/>
<stop offset="1" stop-color="white" stop-opacity="0"/>
</linearGradient>
<linearGradient id="paint4_linear_481_2323" x1="469.133" y1="272.243" x2="306.831" y2="451.848" gradientUnits="userSpaceOnUse">
<stop stop-color="white" stop-opacity="0"/>
<stop offset="0.492" stop-color="white"/>
<stop offset="1" stop-color="white" stop-opacity="0"/>
</linearGradient>
<linearGradient id="paint5_linear_481_2323" x1="169.324" y1="90.9633" x2="229.427" y2="285.103" gradientUnits="userSpaceOnUse">
<stop stop-opacity="0"/>
<stop offset="1" stop-color="white"/>
</linearGradient>
<linearGradient id="paint6_linear_481_2323" x1="292.01" y1="193.309" x2="151.812" y2="236.712" gradientUnits="userSpaceOnUse">
<stop stop-opacity="0"/>
<stop offset="1" stop-color="white"/>
</linearGradient>
<linearGradient id="paint7_linear_481_2323" x1="169.324" y1="90.9633" x2="229.427" y2="285.103" gradientUnits="userSpaceOnUse">
<stop stop-opacity="0"/>
<stop offset="1" stop-color="white"/>
</linearGradient>
<linearGradient id="paint8_linear_481_2323" x1="186.821" y1="147.483" x2="221.18" y2="258.468" gradientUnits="userSpaceOnUse">
<stop stop-opacity="0"/>
<stop offset="1" stop-color="white"/>
</linearGradient>
<linearGradient id="paint9_linear_481_2323" x1="292.01" y1="193.309" x2="151.812" y2="236.712" gradientUnits="userSpaceOnUse">
<stop stop-opacity="0"/>
<stop offset="1" stop-color="white"/>
</linearGradient>
<linearGradient id="paint10_linear_481_2323" x1="285.667" y1="158.961" x2="135.233" y2="205.533" gradientUnits="userSpaceOnUse">
<stop stop-opacity="0"/>
<stop offset="1" stop-color="white"/>
</linearGradient>
<linearGradient id="paint11_linear_481_2323" x1="173.046" y1="95.9604" x2="234.955" y2="295.937" gradientUnits="userSpaceOnUse">
<stop stop-opacity="0"/>
<stop offset="1" stop-color="white"/>
</linearGradient>
<linearGradient id="paint12_linear_481_2323" x1="234.955" y1="295.937" x2="173.045" y2="95.9604" gradientUnits="userSpaceOnUse">
<stop stop-opacity="0"/>
<stop offset="1" stop-color="white"/>
</linearGradient>
<clipPath id="clip0_481_2323">
<rect x="1" y="1" width="407" height="390" rx="16" fill="white"/>
</clipPath>
</defs>
</svg>
