<svg width="20" height="21" viewBox="0 0 20 21" fill="none" xmlns="http://www.w3.org/2000/svg">
<g clip-path="url(#clip0_548_1213)">
<path d="M18.0336 4.59821C17.5351 5.32738 16.9324 5.94866 16.2256 6.46205C16.233 6.56622 16.2367 6.72247 16.2367 6.9308C16.2367 7.89807 16.0954 8.86347 15.8126 9.82701C15.5299 10.7906 15.1002 11.715 14.5236 12.6004C13.9469 13.4859 13.2606 14.269 12.4644 14.9498C11.6683 15.6306 10.7085 16.1737 9.58496 16.5792C8.46145 16.9847 7.25981 17.1875 5.98005 17.1875C3.96368 17.1875 2.11844 16.6481 0.444336 15.5692C0.704753 15.599 0.994931 15.6138 1.31487 15.6138C2.98898 15.6138 4.48079 15.1004 5.79032 14.0737C5.00907 14.0588 4.30966 13.8188 3.6921 13.3538C3.07454 12.8888 2.65044 12.2954 2.41978 11.5737C2.66532 11.6109 2.89225 11.6295 3.10059 11.6295C3.42053 11.6295 3.73675 11.5885 4.04925 11.5067C3.21591 11.3356 2.52581 10.9208 1.97893 10.2623C1.43206 9.60379 1.15862 8.83929 1.15862 7.96875V7.92411C1.66457 8.20685 2.20773 8.35938 2.78809 8.3817C2.29701 8.05432 1.90639 7.62649 1.61621 7.09821C1.32603 6.56994 1.18094 5.99702 1.18094 5.37946C1.18094 4.7247 1.34463 4.1183 1.67201 3.56027C2.57231 4.6689 3.66792 5.55618 4.95885 6.2221C6.24977 6.88802 7.63184 7.25818 9.10505 7.33259C9.04553 7.04985 9.01576 6.77455 9.01576 6.5067C9.01576 5.50967 9.36733 4.6596 10.0705 3.95647C10.7736 3.25335 11.6237 2.90178 12.6207 2.90178C13.6623 2.90178 14.5403 3.28125 15.2546 4.04018C16.0656 3.88393 16.8283 3.59375 17.5426 3.16964C17.2673 4.0253 16.739 4.6875 15.9577 5.15625C16.6497 5.08185 17.3417 4.89583 18.0336 4.59821Z" fill="#4E4E4E"/>
<path d="M18.0336 4.59821C17.5351 5.32738 16.9324 5.94866 16.2256 6.46205C16.233 6.56622 16.2367 6.72247 16.2367 6.9308C16.2367 7.89807 16.0954 8.86347 15.8126 9.82701C15.5299 10.7906 15.1002 11.715 14.5236 12.6004C13.9469 13.4859 13.2606 14.269 12.4644 14.9498C11.6683 15.6306 10.7085 16.1737 9.58496 16.5792C8.46145 16.9847 7.25981 17.1875 5.98005 17.1875C3.96368 17.1875 2.11844 16.6481 0.444336 15.5692C0.704753 15.599 0.994931 15.6138 1.31487 15.6138C2.98898 15.6138 4.48079 15.1004 5.79032 14.0737C5.00907 14.0588 4.30966 13.8188 3.6921 13.3538C3.07454 12.8888 2.65044 12.2954 2.41978 11.5737C2.66532 11.6109 2.89225 11.6295 3.10059 11.6295C3.42053 11.6295 3.73675 11.5885 4.04925 11.5067C3.21591 11.3356 2.52581 10.9208 1.97893 10.2623C1.43206 9.60379 1.15862 8.83929 1.15862 7.96875V7.92411C1.66457 8.20685 2.20773 8.35938 2.78809 8.3817C2.29701 8.05432 1.90639 7.62649 1.61621 7.09821C1.32603 6.56994 1.18094 5.99702 1.18094 5.37946C1.18094 4.7247 1.34463 4.1183 1.67201 3.56027C2.57231 4.6689 3.66792 5.55618 4.95885 6.2221C6.24977 6.88802 7.63184 7.25818 9.10505 7.33259C9.04553 7.04985 9.01576 6.77455 9.01576 6.5067C9.01576 5.50967 9.36733 4.6596 10.0705 3.95647C10.7736 3.25335 11.6237 2.90178 12.6207 2.90178C13.6623 2.90178 14.5403 3.28125 15.2546 4.04018C16.0656 3.88393 16.8283 3.59375 17.5426 3.16964C17.2673 4.0253 16.739 4.6875 15.9577 5.15625C16.6497 5.08185 17.3417 4.89583 18.0336 4.59821Z" fill="#C4CAD6"/>
</g>
<defs>
<clipPath id="clip0_548_1213">
<rect width="18.58" height="20" fill="white" transform="matrix(1 0 0 -1 0.44043 20.0449)"/>
</clipPath>
</defs>
</svg>
