<svg width="29" height="29" viewBox="0 0 29 29" fill="none" xmlns="http://www.w3.org/2000/svg">
<path d="M9.85938 12.5645L14.3594 7.56445M14.3594 7.56445L18.8594 12.5645M14.3594 7.56445V20.5645M14.3594 1.56445C17.6746 1.56445 20.854 2.88141 23.1982 5.22562C25.5424 7.56982 26.8594 10.7492 26.8594 14.0645C26.8594 17.3797 25.5424 20.5591 23.1982 22.9033C20.854 25.2475 17.6746 26.5645 14.3594 26.5645C11.0442 26.5645 7.86474 25.2475 5.52054 22.9033C3.17634 20.5591 1.85938 17.3797 1.85938 14.0645C1.85938 10.7492 3.17634 7.56982 5.52054 5.22562C7.86474 2.88141 11.0442 1.56445 14.3594 1.56445Z" stroke="#6306B2" stroke-width="3" stroke-linecap="round" stroke-linejoin="round"/>
</svg>
