<svg width="409" height="392" viewBox="0 0 409 392" fill="none" xmlns="http://www.w3.org/2000/svg">
<g clip-path="url(#clip0_481_2367)">
<rect x="1" y="1" width="407" height="390" rx="16" fill="#060B27" fill-opacity="0.6"/>
<path opacity="0.3" d="M362.468 390.297C377.932 404.271 401.892 402.956 415.985 387.361C430.078 371.766 428.967 347.795 413.503 333.822C398.04 319.848 374.079 321.162 359.987 336.757C345.894 352.353 347.005 376.323 362.468 390.297Z" stroke="url(#paint0_linear_481_2367)" stroke-width="0.487469" stroke-miterlimit="10"/>
<path opacity="0.3" d="M348.722 404.773C372.5 426.261 409.359 424.553 431.047 400.957C452.736 377.362 451.042 340.815 427.264 319.327C403.485 297.839 366.626 299.548 344.938 323.143C323.249 346.738 324.943 383.286 348.722 404.773Z" stroke="url(#paint1_linear_481_2367)" stroke-width="0.544043" stroke-miterlimit="10"/>
<path opacity="0.3" d="M335.113 419.582C367.133 448.518 416.768 446.217 445.974 414.443C475.181 382.67 472.9 333.454 440.879 304.518C408.858 275.583 359.224 277.883 330.017 309.657C300.811 341.431 303.092 390.646 335.113 419.582Z" stroke="url(#paint2_linear_481_2367)" stroke-width="0.581492" stroke-miterlimit="10"/>
<path opacity="0.3" d="M320.728 436.49C361.089 472.962 423.628 469.532 460.411 428.827C497.195 388.122 494.294 325.557 453.934 289.084C413.573 252.611 351.035 256.042 314.251 296.747C277.468 337.452 280.367 400.017 320.728 436.49Z" stroke="url(#paint3_linear_481_2367)" stroke-width="0.562137" stroke-miterlimit="10"/>
<path opacity="0.3" d="M306.934 451.752C356.052 496.138 432.157 491.963 476.921 442.427C521.685 392.891 518.156 316.753 469.038 272.367C419.921 227.982 343.815 232.157 299.051 281.693C254.288 331.228 257.817 407.367 306.934 451.752Z" stroke="url(#paint4_linear_481_2367)" stroke-width="0.505129" stroke-miterlimit="10"/>
<path d="M153.635 114H284.361L301.217 129.358V264.392L285.859 279H151.387L107 234.238V152.394L153.635 114Z" stroke="#AA00FA" stroke-width="2.3012" stroke-miterlimit="10"/>
<path d="M183.039 239.857H176.484V246.412H183.039V239.857Z" fill="#AA00FA"/>
<path d="M203.455 239.857H196.9V246.412H203.455V239.857Z" fill="#AA00FA"/>
<path d="M223.678 239.857H217.123V246.412H223.678V239.857Z" fill="#AA00FA"/>
<path d="M244.094 239.857H237.539V246.412H244.094V239.857Z" fill="#AA00FA"/>
<g opacity="0.3">
<path d="M174.607 218.507C155.503 199.404 155.503 168.501 174.607 149.585L182.098 142.094L224.238 184.234L182.098 226.373L174.607 218.507Z" stroke="url(#paint5_linear_481_2367)" stroke-width="1.07166" stroke-miterlimit="10"/>
<path d="M209.066 184.046L182.097 211.015C167.301 196.22 167.301 172.059 182.097 157.264L209.066 184.046Z" fill="url(#paint6_linear_481_2367)"/>
<path d="M200.078 184.046L242.218 141.906L249.709 149.398C268.813 168.501 268.813 199.404 249.709 218.32L242.218 225.811L200.078 184.046Z" stroke="url(#paint7_linear_481_2367)" stroke-width="1.07166" stroke-miterlimit="10"/>
<path d="M215.061 184.046L242.03 211.015C256.826 196.22 256.826 172.06 242.03 157.264L215.061 184.046Z" fill="url(#paint8_linear_481_2367)"/>
<path d="M174.045 149.96L180.975 143.03C189.215 134.789 200.452 130.107 212.064 130.107C223.863 130.107 234.913 134.602 243.154 143.03L250.084 149.96L212.064 187.979L174.045 149.96Z" stroke="url(#paint9_linear_481_2367)" stroke-width="0.968275" stroke-miterlimit="10"/>
<path d="M212.065 172.809L185.096 145.839C199.891 131.044 224.051 131.044 238.847 145.839L212.065 172.809Z" fill="url(#paint10_linear_481_2367)"/>
<path d="M289.042 149.397H281.363V243.228H289.042V149.397Z" fill="url(#paint11_linear_481_2367)"/>
<path d="M153.444 180.862H145.766V243.228H153.444V180.862Z" fill="url(#paint12_linear_481_2367)"/>
<path d="M134.157 149.397H126.479V243.228H134.157V149.397Z" fill="url(#paint13_linear_481_2367)"/>
</g>
<path d="M177.688 265.361H176.791L178.571 260.433H179.454L181.234 265.361H180.324L179.926 264.222H178.085L177.688 265.361ZM178.901 261.903L178.341 263.494H179.676L179.11 261.903C179.07 261.774 179.022 261.626 179.009 261.525C178.989 261.619 178.948 261.768 178.901 261.903ZM184.164 265.361H182.391V260.433H184.117C185.573 260.433 186.577 261.437 186.577 262.907C186.577 264.356 185.593 265.361 184.164 265.361ZM184.036 261.228H183.254V264.565H184.083C185.067 264.565 185.667 263.932 185.667 262.907C185.667 261.862 185.054 261.228 184.036 261.228ZM189.059 265.361L187.198 260.433H188.115L189.194 263.271C189.302 263.568 189.396 263.858 189.504 264.255C189.625 263.824 189.726 263.521 189.821 263.271L190.886 260.433H191.782L189.949 265.361H189.059ZM193.8 260.433V265.361H192.937V260.433H193.8ZM195.148 261.808C195.148 260.945 195.863 260.345 196.901 260.345C197.899 260.345 198.532 260.898 198.559 261.788H197.696C197.676 261.363 197.373 261.114 196.887 261.114C196.355 261.114 196.011 261.37 196.011 261.781C196.011 262.132 196.2 262.327 196.611 262.422L197.386 262.59C198.229 262.772 198.64 263.204 198.64 263.939C198.64 264.855 197.926 265.449 196.84 265.449C195.789 265.449 195.101 264.889 195.081 264.006H195.944C195.95 264.424 196.287 264.673 196.84 264.673C197.413 264.673 197.777 264.424 197.777 264.013C197.777 263.682 197.609 263.487 197.204 263.399L196.422 263.224C195.586 263.042 195.148 262.563 195.148 261.808ZM204.457 262.894C204.457 264.39 203.472 265.442 202.057 265.442C200.648 265.442 199.677 264.397 199.677 262.894C199.677 261.397 200.655 260.345 202.063 260.345C203.472 260.345 204.457 261.39 204.457 262.894ZM203.547 262.894C203.547 261.842 202.967 261.174 202.063 261.174C201.16 261.174 200.58 261.842 200.58 262.894C200.58 263.945 201.16 264.613 202.063 264.613C202.967 264.613 203.547 263.932 203.547 262.894ZM206.662 265.361H205.799V260.433H207.68C208.799 260.433 209.453 260.999 209.453 261.97C209.453 262.631 209.143 263.103 208.563 263.339L209.5 265.361H208.556L207.721 263.521H206.662V265.361ZM206.662 261.201V262.759H207.68C208.226 262.759 208.55 262.469 208.55 261.97C208.55 261.478 208.226 261.201 207.68 261.201H206.662ZM211.929 263.419L210.264 260.433H211.228L212.199 262.226C212.273 262.361 212.32 262.469 212.374 262.59C212.435 262.469 212.462 262.388 212.55 262.226L213.514 260.433H214.451L212.792 263.419V265.361H211.929V263.419ZM217.674 261.808C217.674 260.945 218.389 260.345 219.427 260.345C220.425 260.345 221.058 260.898 221.085 261.788H220.222C220.202 261.363 219.899 261.114 219.413 261.114C218.881 261.114 218.537 261.37 218.537 261.781C218.537 262.132 218.726 262.327 219.137 262.422L219.912 262.59C220.755 262.772 221.166 263.204 221.166 263.939C221.166 264.855 220.452 265.449 219.366 265.449C218.315 265.449 217.627 264.889 217.607 264.006H218.47C218.476 264.424 218.813 264.673 219.366 264.673C219.939 264.673 220.303 264.424 220.303 264.013C220.303 263.682 220.135 263.487 219.73 263.399L218.948 263.224C218.112 263.042 217.674 262.563 217.674 261.808ZM225.547 265.361H222.486V260.433H225.547V261.228H223.349V262.496H225.318V263.258H223.349V264.565H225.547V265.361ZM227.885 265.361H227.022V260.433H228.903C230.022 260.433 230.676 260.999 230.676 261.97C230.676 262.631 230.366 263.103 229.786 263.339L230.723 265.361H229.779L228.943 263.521H227.885V265.361ZM227.885 261.201V262.759H228.903C229.449 262.759 229.772 262.469 229.772 261.97C229.772 261.478 229.449 261.201 228.903 261.201H227.885ZM233.4 265.361L231.539 260.433H232.456L233.535 263.271C233.643 263.568 233.737 263.858 233.845 264.255C233.966 263.824 234.068 263.521 234.162 263.271L235.227 260.433H236.124L234.29 265.361H233.4ZM238.141 260.433V265.361H237.278V260.433H238.141ZM241.856 265.442C240.42 265.442 239.489 264.444 239.489 262.9C239.489 261.37 240.453 260.352 241.896 260.352C243.062 260.352 243.932 261.033 244.1 262.091H243.19C243.022 261.518 242.53 261.181 241.876 261.181C240.966 261.181 240.393 261.842 240.393 262.894C240.393 263.939 240.972 264.613 241.876 264.613C242.543 264.613 243.056 264.262 243.217 263.716H244.114C243.925 264.754 243.022 265.442 241.856 265.442ZM248.488 265.361H245.427V260.433H248.488V261.228H246.29V262.496H248.259V263.258H246.29V264.565H248.488V265.361ZM249.679 261.808C249.679 260.945 250.394 260.345 251.432 260.345C252.43 260.345 253.064 260.898 253.091 261.788H252.228C252.208 261.363 251.904 261.114 251.419 261.114C250.886 261.114 250.542 261.37 250.542 261.781C250.542 262.132 250.731 262.327 251.142 262.422L251.918 262.59C252.76 262.772 253.172 263.204 253.172 263.939C253.172 264.855 252.457 265.449 251.372 265.449C250.32 265.449 249.632 264.889 249.612 264.006H250.475C250.482 264.424 250.819 264.673 251.372 264.673C251.945 264.673 252.309 264.424 252.309 264.013C252.309 263.682 252.14 263.487 251.736 263.399L250.954 263.224C250.118 263.042 249.679 262.563 249.679 261.808Z" fill="#E3A6FF"/>
</g>
<rect x="0.5" y="0.5" width="408" height="391" rx="16.5" stroke="#282D45"/>
<defs>
<linearGradient id="paint0_linear_481_2367" x1="413.596" y1="333.7" x2="362.366" y2="390.391" gradientUnits="userSpaceOnUse">
<stop stop-color="white" stop-opacity="0"/>
<stop offset="0.492" stop-color="white"/>
<stop offset="1" stop-color="white" stop-opacity="0"/>
</linearGradient>
<linearGradient id="paint1_linear_481_2367" x1="427.358" y1="319.204" x2="349.35" y2="405.528" gradientUnits="userSpaceOnUse">
<stop stop-color="white" stop-opacity="0"/>
<stop offset="0.492" stop-color="white"/>
<stop offset="1" stop-color="white" stop-opacity="0"/>
</linearGradient>
<linearGradient id="paint2_linear_481_2367" x1="440.992" y1="304.373" x2="335.975" y2="420.586" gradientUnits="userSpaceOnUse">
<stop stop-color="white" stop-opacity="0"/>
<stop offset="0.492" stop-color="white"/>
<stop offset="1" stop-color="white" stop-opacity="0"/>
</linearGradient>
<linearGradient id="paint3_linear_481_2367" x1="454.044" y1="288.941" x2="320.608" y2="436.602" gradientUnits="userSpaceOnUse">
<stop stop-color="white" stop-opacity="0"/>
<stop offset="0.492" stop-color="white"/>
<stop offset="1" stop-color="white" stop-opacity="0"/>
</linearGradient>
<linearGradient id="paint4_linear_481_2367" x1="469.133" y1="272.243" x2="306.831" y2="451.848" gradientUnits="userSpaceOnUse">
<stop stop-color="white" stop-opacity="0"/>
<stop offset="0.492" stop-color="white"/>
<stop offset="1" stop-color="white" stop-opacity="0"/>
</linearGradient>
<linearGradient id="paint5_linear_481_2367" x1="192.449" y1="141.187" x2="192.449" y2="226.818" gradientUnits="userSpaceOnUse">
<stop stop-opacity="0"/>
<stop offset="1" stop-color="white"/>
</linearGradient>
<linearGradient id="paint6_linear_481_2367" x1="190.106" y1="47.1065" x2="190.106" y2="230.302" gradientUnits="userSpaceOnUse">
<stop stop-opacity="0"/>
<stop offset="1" stop-color="white"/>
</linearGradient>
<linearGradient id="paint7_linear_481_2367" x1="231.823" y1="141.187" x2="231.823" y2="226.818" gradientUnits="userSpaceOnUse">
<stop stop-opacity="0"/>
<stop offset="1" stop-color="white"/>
</linearGradient>
<linearGradient id="paint8_linear_481_2367" x1="234.164" y1="47.1066" x2="234.164" y2="230.302" gradientUnits="userSpaceOnUse">
<stop stop-opacity="0"/>
<stop offset="1" stop-color="white"/>
</linearGradient>
<linearGradient id="paint9_linear_481_2367" x1="212.136" y1="129.695" x2="212.136" y2="188.623" gradientUnits="userSpaceOnUse">
<stop stop-opacity="0"/>
<stop offset="1" stop-color="white"/>
</linearGradient>
<linearGradient id="paint10_linear_481_2367" x1="212.137" y1="47.1067" x2="212.137" y2="230.302" gradientUnits="userSpaceOnUse">
<stop stop-opacity="0"/>
<stop offset="1" stop-color="white"/>
</linearGradient>
<linearGradient id="paint11_linear_481_2367" x1="285.163" y1="28.9303" x2="285.163" y2="298.929" gradientUnits="userSpaceOnUse">
<stop stop-opacity="0"/>
<stop offset="1" stop-color="white"/>
</linearGradient>
<linearGradient id="paint12_linear_481_2367" x1="149.568" y1="100.767" x2="149.568" y2="280.214" gradientUnits="userSpaceOnUse">
<stop stop-opacity="0"/>
<stop offset="1" stop-color="white"/>
</linearGradient>
<linearGradient id="paint13_linear_481_2367" x1="130.328" y1="28.9304" x2="130.328" y2="298.929" gradientUnits="userSpaceOnUse">
<stop stop-opacity="0"/>
<stop offset="1" stop-color="white"/>
</linearGradient>
<clipPath id="clip0_481_2367">
<rect x="1" y="1" width="407" height="390" rx="16" fill="white"/>
</clipPath>
</defs>
</svg>
