<svg width="418" height="218" viewBox="0 0 418 218" fill="none" xmlns="http://www.w3.org/2000/svg">
<path d="M0.5 10.9336C0.5 5.41075 4.97715 0.933594 10.5 0.933594H407.5C413.023 0.933594 417.5 5.41075 417.5 10.9336V217.934H0.5V10.9336Z" fill="#EDF0F6"/>
<line x1="21.5" y1="138.246" x2="397.5" y2="138.246" stroke="#A2A2A2"/>
<line x1="21.5" y1="184.522" x2="397.5" y2="184.522" stroke="#A2A2A2"/>
<rect x="18.5" y="152.114" width="65" height="10" rx="5" fill="#A2A2A2"/>
<rect x="91.5" y="152.114" width="65" height="10" rx="5" fill="#A2A2A2"/>
<rect x="18.5" y="64.6973" width="40" height="10" rx="5" fill="#A2A2A2"/>
<rect x="66.5" y="64.6973" width="65" height="10" rx="5" fill="#A2A2A2"/>
<rect x="73.5" y="102.749" width="159" height="10" rx="5" fill="#A2A2A2"/>
<rect x="14.5" y="16.3604" width="122" height="24.6825" rx="12.3412" fill="#D7B2F9"/>
<rect x="322" y="65.6113" width="65" height="11.3128" rx="5.6564" fill="#D7B2F9"/>
</svg>
