<svg width="60" height="60" viewBox="0 0 60 60" fill="none" xmlns="http://www.w3.org/2000/svg">
<g filter="url(#filter0_d_533_8864)">
<rect x="6" y="6" width="48" height="48" rx="8" fill="#F6F6F7" shape-rendering="crispEdges"/>
<g filter="url(#filter1_d_533_8864)">
<rect x="14" y="14" width="32" height="32" rx="4" fill="#F6F6F7"/>
<path d="M39 25V35C39 38 37.5 40 34 40H26C22.5 40 21 38 21 35V25C21 22 22.5 20 26 20H34C37.5 20 39 22 39 25Z" stroke="#232323" stroke-width="1.5" stroke-miterlimit="10" stroke-linecap="round" stroke-linejoin="round"/>
<path d="M32.5 22.5V24.5C32.5 25.6 33.4 26.5 34.5 26.5H36.5" stroke="#232323" stroke-width="1.5" stroke-miterlimit="10" stroke-linecap="round" stroke-linejoin="round"/>
<path d="M28 31L26 33L28 35" stroke="#232323" stroke-width="1.5" stroke-miterlimit="10" stroke-linecap="round" stroke-linejoin="round"/>
<path d="M32 31L34 33L32 35" stroke="#232323" stroke-width="1.5" stroke-miterlimit="10" stroke-linecap="round" stroke-linejoin="round"/>
</g>
</g>
<defs>
<filter id="filter0_d_533_8864" x="0" y="0" width="60" height="60" filterUnits="userSpaceOnUse" color-interpolation-filters="sRGB">
<feFlood flood-opacity="0" result="BackgroundImageFix"/>
<feColorMatrix in="SourceAlpha" type="matrix" values="0 0 0 0 0 0 0 0 0 0 0 0 0 0 0 0 0 0 127 0" result="hardAlpha"/>
<feMorphology radius="2" operator="dilate" in="SourceAlpha" result="effect1_dropShadow_533_8864"/>
<feOffset/>
<feGaussianBlur stdDeviation="2"/>
<feComposite in2="hardAlpha" operator="out"/>
<feColorMatrix type="matrix" values="0 0 0 0 0.490196 0 0 0 0 0.478431 0 0 0 0 1 0 0 0 1 0"/>
<feBlend mode="normal" in2="BackgroundImageFix" result="effect1_dropShadow_533_8864"/>
<feBlend mode="normal" in="SourceGraphic" in2="effect1_dropShadow_533_8864" result="shape"/>
</filter>
<filter id="filter1_d_533_8864" x="8" y="8" width="44" height="44" filterUnits="userSpaceOnUse" color-interpolation-filters="sRGB">
<feFlood flood-opacity="0" result="BackgroundImageFix"/>
<feColorMatrix in="SourceAlpha" type="matrix" values="0 0 0 0 0 0 0 0 0 0 0 0 0 0 0 0 0 0 127 0" result="hardAlpha"/>
<feMorphology radius="2" operator="dilate" in="SourceAlpha" result="effect1_dropShadow_533_8864"/>
<feOffset/>
<feGaussianBlur stdDeviation="2"/>
<feComposite in2="hardAlpha" operator="out"/>
<feColorMatrix type="matrix" values="0 0 0 0 0.490196 0 0 0 0 0.478431 0 0 0 0 1 0 0 0 1 0"/>
<feBlend mode="normal" in2="BackgroundImageFix" result="effect1_dropShadow_533_8864"/>
<feBlend mode="normal" in="SourceGraphic" in2="effect1_dropShadow_533_8864" result="shape"/>
</filter>
</defs>
</svg>
