<svg width="60" height="60" viewBox="0 0 60 60" fill="none" xmlns="http://www.w3.org/2000/svg">
<g filter="url(#filter0_d_481_2818)">
<rect x="6" y="6" width="48" height="48" rx="8" fill="white" fill-opacity="0.05" shape-rendering="crispEdges"/>
<g filter="url(#filter1_d_481_2818)">
<rect x="14" y="14" width="32" height="32" rx="4" fill="white" fill-opacity="0.1" shape-rendering="crispEdges"/>
<path d="M30 33C31.6569 33 33 31.6569 33 30C33 28.3431 31.6569 27 30 27C28.3431 27 27 28.3431 27 30C27 31.6569 28.3431 33 30 33Z" stroke="white" stroke-width="1.5" stroke-miterlimit="10" stroke-linecap="round" stroke-linejoin="round"/>
<path d="M20 30.8801V29.1201C20 28.0801 20.85 27.2201 21.9 27.2201C23.71 27.2201 24.45 25.9401 23.54 24.3701C23.02 23.4701 23.33 22.3001 24.24 21.7801L25.97 20.7901C26.76 20.3201 27.78 20.6001 28.25 21.3901L28.36 21.5801C29.26 23.1501 30.74 23.1501 31.65 21.5801L31.76 21.3901C32.23 20.6001 33.25 20.3201 34.04 20.7901L35.77 21.7801C36.68 22.3001 36.99 23.4701 36.47 24.3701C35.56 25.9401 36.3 27.2201 38.11 27.2201C39.15 27.2201 40.01 28.0701 40.01 29.1201V30.8801C40.01 31.9201 39.16 32.7801 38.11 32.7801C36.3 32.7801 35.56 34.0601 36.47 35.6301C36.99 36.5401 36.68 37.7001 35.77 38.2201L34.04 39.2101C33.25 39.6801 32.23 39.4001 31.76 38.6101L31.65 38.4201C30.75 36.8501 29.27 36.8501 28.36 38.4201L28.25 38.6101C27.78 39.4001 26.76 39.6801 25.97 39.2101L24.24 38.2201C23.33 37.7001 23.02 36.5301 23.54 35.6301C24.45 34.0601 23.71 32.7801 21.9 32.7801C20.85 32.7801 20 31.9201 20 30.8801Z" stroke="white" stroke-width="1.5" stroke-miterlimit="10" stroke-linecap="round" stroke-linejoin="round"/>
</g>
</g>
<defs>
<filter id="filter0_d_481_2818" x="0" y="0" width="60" height="60" filterUnits="userSpaceOnUse" color-interpolation-filters="sRGB">
<feFlood flood-opacity="0" result="BackgroundImageFix"/>
<feColorMatrix in="SourceAlpha" type="matrix" values="0 0 0 0 0 0 0 0 0 0 0 0 0 0 0 0 0 0 127 0" result="hardAlpha"/>
<feMorphology radius="2" operator="dilate" in="SourceAlpha" result="effect1_dropShadow_481_2818"/>
<feOffset/>
<feGaussianBlur stdDeviation="2"/>
<feComposite in2="hardAlpha" operator="out"/>
<feColorMatrix type="matrix" values="0 0 0 0 1 0 0 0 0 1 0 0 0 0 1 0 0 0 1 0"/>
<feBlend mode="normal" in2="BackgroundImageFix" result="effect1_dropShadow_481_2818"/>
<feBlend mode="normal" in="SourceGraphic" in2="effect1_dropShadow_481_2818" result="shape"/>
</filter>
<filter id="filter1_d_481_2818" x="8" y="8" width="44" height="44" filterUnits="userSpaceOnUse" color-interpolation-filters="sRGB">
<feFlood flood-opacity="0" result="BackgroundImageFix"/>
<feColorMatrix in="SourceAlpha" type="matrix" values="0 0 0 0 0 0 0 0 0 0 0 0 0 0 0 0 0 0 127 0" result="hardAlpha"/>
<feMorphology radius="2" operator="dilate" in="SourceAlpha" result="effect1_dropShadow_481_2818"/>
<feOffset/>
<feGaussianBlur stdDeviation="2"/>
<feComposite in2="hardAlpha" operator="out"/>
<feColorMatrix type="matrix" values="0 0 0 0 1 0 0 0 0 1 0 0 0 0 1 0 0 0 0.32 0"/>
<feBlend mode="normal" in2="BackgroundImageFix" result="effect1_dropShadow_481_2818"/>
<feBlend mode="normal" in="SourceGraphic" in2="effect1_dropShadow_481_2818" result="shape"/>
</filter>
</defs>
</svg>
