<svg width="24" height="24" viewBox="0 0 24 24" fill="none" xmlns="http://www.w3.org/2000/svg">
<path d="M8.19348 18.6588H7.71286C3.86783 18.6588 1.94531 17.6975 1.94531 12.8912V8.08493C1.94531 4.2399 3.86783 2.31738 7.71286 2.31738H15.4029C19.2479 2.31738 21.1705 4.2399 21.1705 8.08493V12.8912C21.1705 16.7362 19.2479 18.6588 15.4029 18.6588H14.9223C14.6243 18.6588 14.3359 18.803 14.1533 19.0433L12.7114 20.9658C12.077 21.8117 11.0388 21.8117 10.4044 20.9658L8.96248 19.0433C8.80868 18.8318 8.46264 18.6588 8.19348 18.6588Z" stroke="#AA00FA" stroke-width="1.44189" stroke-miterlimit="10" stroke-linecap="round" stroke-linejoin="round"/>
<path d="M7.71237 8.78711L5.79004 10.7094L7.71237 12.6318" stroke="#AA00FA" stroke-width="1.44189" stroke-miterlimit="10" stroke-linecap="round" stroke-linejoin="round"/>
<path d="M15.4062 8.78711L17.3286 10.7094L15.4062 12.6318" stroke="#AA00FA" stroke-width="1.44189" stroke-miterlimit="10" stroke-linecap="round" stroke-linejoin="round"/>
<path d="M12.5219 8.46973L10.5996 12.9488" stroke="#AA00FA" stroke-width="1.44189" stroke-miterlimit="10" stroke-linecap="round" stroke-linejoin="round"/>
</svg>
