<svg width="552" height="551" viewBox="0 0 552 551" fill="none" xmlns="http://www.w3.org/2000/svg">
<path opacity="0.2" d="M377.638 203.558C339.254 181.302 307.508 202.129 301.892 250.097C300.917 258.437 307.276 269.404 314.98 273.874L440.249 346.494C447.954 350.963 454.312 347.369 453.384 337.923C447.768 283.412 416.022 225.768 377.638 203.558Z" fill="url(#paint0_linear_533_8518)"/>
<path opacity="0.2" d="M396.074 189.818C357.69 167.562 325.943 188.39 320.328 236.357C319.353 244.698 325.711 255.664 333.416 260.134L458.685 332.754C466.389 337.223 472.748 333.629 471.82 324.183C466.204 269.672 434.457 212.028 396.074 189.818Z" fill="url(#paint1_linear_533_8518)"/>
<path opacity="0.5" d="M420.73 141.298C420.73 174.428 401.422 190.095 377.612 176.271C353.849 162.494 334.541 124.479 334.541 91.3487C334.541 58.2183 353.849 42.5516 377.659 56.3751C401.469 70.1526 420.73 108.213 420.73 141.298Z" fill="url(#paint2_linear_533_8518)"/>
<path opacity="0.07" d="M438.996 127.475C438.996 160.606 419.688 176.272 395.878 162.449C372.114 148.671 352.807 110.656 352.807 77.526C352.807 44.3955 372.114 28.7288 395.924 42.5524C419.734 56.3298 438.996 94.3907 438.996 127.475Z" fill="url(#paint3_linear_533_8518)"/>
<path opacity="0.2" d="M190.519 179.576L80.1641 116.323V173.398L190.579 236.651L190.519 179.576Z" fill="url(#paint4_linear_533_8518)"/>
<path d="M102.565 148.332C102.565 153.04 99.7791 155.217 96.2823 153.275C92.8448 151.274 90 145.861 90 141.154C90 136.447 92.7855 134.27 96.2823 136.211C99.7791 138.212 102.565 143.625 102.565 148.332Z" fill="#7D7AFF"/>
<path opacity="0.8" d="M108.258 146.566L144.351 167.219V175.221L108.258 154.569V146.566Z" fill="white"/>
<path opacity="0.8" d="M108.438 162.689L179.143 203.23V211.232L108.438 170.692V162.689Z" fill="white"/>
<path opacity="0.05" d="M355.262 265.619L442.101 315.383V501.034L355.262 451.315V265.619Z" fill="url(#paint5_linear_533_8518)"/>
<path opacity="0.3" d="M427.624 327.824L340.738 278.06V463.71L427.577 513.475L427.624 327.824ZM369.05 306.167L398.058 322.756V330.128L369.05 313.77V306.167Z" fill="url(#paint6_linear_533_8518)"/>
<path opacity="0.15" d="M349.139 395.698L418.897 435.648V441.915L349.139 401.964V395.698Z" fill="white"/>
<path opacity="0.15" d="M354.055 410.72L414.067 445.094V451.361L354.055 416.986V410.72Z" fill="white"/>
<path d="M403.576 380.077C403.576 365.378 394.896 348.467 384.221 342.338C373.546 336.21 364.867 343.168 364.867 357.867C364.867 372.566 373.546 389.477 384.221 395.605C394.896 401.734 403.576 394.776 403.576 380.077Z" fill="#7D7AFF"/>
<path opacity="0.2" d="M320.168 332.603L143.789 231.516L143.848 322.776L304.64 414.92L320.227 437.808L320.168 332.603Z" fill="url(#paint7_linear_533_8518)"/>
<path d="M124.021 267.115V242.343L190.578 280.472V305.243L124.021 267.115Z" fill="#7D7AFF"/>
<path opacity="0.8" d="M273.851 328.838L235.209 306.714V314.716L273.851 336.84V328.838Z" fill="#FAF7FE"/>
<path opacity="0.8" d="M273.856 344.9L199.357 302.241V310.243L273.856 352.902V344.9Z" fill="#FAF7FE"/>
<path opacity="0.8" d="M273.847 360.905L183.643 309.185V317.187L273.906 368.908L273.847 360.905Z" fill="#FAF7FE"/>
<path d="M283.389 342.665C283.389 350.196 287.894 358.846 293.405 362.023C298.917 365.201 303.421 361.67 303.421 354.139C303.421 346.607 298.917 337.958 293.405 334.78C287.834 331.603 283.33 335.133 283.389 342.665Z" fill="#7D7AFF"/>
<path opacity="0.2" d="M211.441 147.586L329.146 215.075L329.205 319.104L211.501 251.615L211.441 147.586Z" fill="url(#paint8_linear_533_8518)"/>
<path opacity="0.2" d="M211.441 147.586L270.353 243.73L329.205 215.016L211.441 147.586Z" fill="url(#paint9_linear_533_8518)"/>
<path d="M280.485 245.966C280.485 253.321 276.04 256.675 270.469 253.498C264.957 250.32 260.453 241.788 260.453 234.492C260.453 227.137 264.898 223.783 270.469 226.961C276.04 230.138 280.485 238.67 280.485 245.966Z" fill="#7D7AFF"/>
<defs>
<linearGradient id="paint0_linear_533_8518" x1="394.703" y1="244.183" x2="364.418" y2="300.999" gradientUnits="userSpaceOnUse">
<stop stop-color="#5C00E7"/>
<stop offset="1" stop-color="#5C00E7" stop-opacity="0.2"/>
</linearGradient>
<linearGradient id="paint1_linear_533_8518" x1="413.139" y1="230.443" x2="382.853" y2="287.259" gradientUnits="userSpaceOnUse">
<stop stop-color="#5C00E7"/>
<stop offset="1" stop-color="#5C00E7" stop-opacity="0.2"/>
</linearGradient>
<linearGradient id="paint2_linear_533_8518" x1="456.86" y1="58.955" x2="301.733" y2="172.937" gradientUnits="userSpaceOnUse">
<stop stop-color="#5C00E7"/>
<stop offset="1" stop-color="#A265FF" stop-opacity="0"/>
</linearGradient>
<linearGradient id="paint3_linear_533_8518" x1="475.126" y1="45.1323" x2="319.999" y2="159.114" gradientUnits="userSpaceOnUse">
<stop stop-color="white"/>
<stop offset="1" stop-color="white" stop-opacity="0"/>
</linearGradient>
<linearGradient id="paint4_linear_533_8518" x1="147.797" y1="155.094" x2="123.167" y2="198.075" gradientUnits="userSpaceOnUse">
<stop stop-color="#5C00E7"/>
<stop offset="1" stop-color="#5C00E7" stop-opacity="0.2"/>
</linearGradient>
<linearGradient id="paint5_linear_533_8518" x1="449.119" y1="296.624" x2="342.734" y2="482.275" gradientUnits="userSpaceOnUse">
<stop stop-color="white"/>
<stop offset="1" stop-color="white" stop-opacity="0"/>
</linearGradient>
<linearGradient id="paint6_linear_533_8518" x1="434.598" y1="309.042" x2="328.213" y2="494.693" gradientUnits="userSpaceOnUse">
<stop stop-color="white"/>
<stop offset="1" stop-color="white" stop-opacity="0"/>
</linearGradient>
<linearGradient id="paint7_linear_533_8518" x1="251.863" y1="297.986" x2="208.191" y2="369.02" gradientUnits="userSpaceOnUse">
<stop stop-color="#5C00E7"/>
<stop offset="1" stop-color="#5C00E7" stop-opacity="0.2"/>
</linearGradient>
<linearGradient id="paint8_linear_533_8518" x1="283.576" y1="202.851" x2="244.29" y2="254.148" gradientUnits="userSpaceOnUse">
<stop stop-color="#5C00E7"/>
<stop offset="1" stop-color="#5C00E7" stop-opacity="0.2"/>
</linearGradient>
<linearGradient id="paint9_linear_533_8518" x1="283.576" y1="178.565" x2="267.039" y2="217.085" gradientUnits="userSpaceOnUse">
<stop stop-color="#5C00E7"/>
<stop offset="1" stop-color="#5C00E7" stop-opacity="0.2"/>
</linearGradient>
</defs>
</svg>
