<svg width="18" height="17" viewBox="0 0 18 17" fill="none" xmlns="http://www.w3.org/2000/svg">
<path d="M3.92243 5.52079V16.5811H0.239397V5.52079H3.92243ZM4.15681 2.10561C4.16425 2.64876 3.97638 3.10263 3.59319 3.46722C3.21001 3.8318 2.70591 4.01409 2.08091 4.01409H2.05859C1.44847 4.01409 0.957403 3.8318 0.585379 3.46722C0.213356 3.10263 0.0273438 2.64876 0.0273438 2.10561C0.0273438 1.55501 0.218936 1.09928 0.602121 0.73842C0.985305 0.377558 1.48568 0.197126 2.10324 0.197126C2.7208 0.197126 3.21559 0.377558 3.58761 0.73842C3.95964 1.09928 4.14937 1.55501 4.15681 2.10561ZM17.1702 10.2418V16.5811H13.4983V10.6659C13.4983 9.88463 13.3477 9.27265 13.0463 8.82994C12.745 8.38723 12.2744 8.16588 11.6345 8.16588C11.1657 8.16588 10.7733 8.29422 10.457 8.55092C10.1408 8.80762 9.90458 9.1257 9.74833 9.50516C9.66648 9.72838 9.62556 10.0297 9.62556 10.4092V16.5811H5.95368C5.96856 13.6123 5.976 11.2053 5.976 9.36007C5.976 7.51483 5.97228 6.41364 5.96484 6.0565L5.95368 5.52079H9.62556V7.12793H9.60324C9.75205 6.88983 9.90458 6.6815 10.0608 6.50293C10.2171 6.32436 10.4273 6.13091 10.6914 5.92257C10.9555 5.71424 11.2792 5.55241 11.6624 5.43708C12.0456 5.32175 12.4715 5.26409 12.9403 5.26409C14.2126 5.26409 15.2357 5.68634 16.0095 6.53083C16.7833 7.37533 17.1702 8.6123 17.1702 10.2418Z" fill="#4E4E4E"/>
<path d="M3.92243 5.52079V16.5811H0.239397V5.52079H3.92243ZM4.15681 2.10561C4.16425 2.64876 3.97638 3.10263 3.59319 3.46722C3.21001 3.8318 2.70591 4.01409 2.08091 4.01409H2.05859C1.44847 4.01409 0.957403 3.8318 0.585379 3.46722C0.213356 3.10263 0.0273438 2.64876 0.0273438 2.10561C0.0273438 1.55501 0.218936 1.09928 0.602121 0.73842C0.985305 0.377558 1.48568 0.197126 2.10324 0.197126C2.7208 0.197126 3.21559 0.377558 3.58761 0.73842C3.95964 1.09928 4.14937 1.55501 4.15681 2.10561ZM17.1702 10.2418V16.5811H13.4983V10.6659C13.4983 9.88463 13.3477 9.27265 13.0463 8.82994C12.745 8.38723 12.2744 8.16588 11.6345 8.16588C11.1657 8.16588 10.7733 8.29422 10.457 8.55092C10.1408 8.80762 9.90458 9.1257 9.74833 9.50516C9.66648 9.72838 9.62556 10.0297 9.62556 10.4092V16.5811H5.95368C5.96856 13.6123 5.976 11.2053 5.976 9.36007C5.976 7.51483 5.97228 6.41364 5.96484 6.0565L5.95368 5.52079H9.62556V7.12793H9.60324C9.75205 6.88983 9.90458 6.6815 10.0608 6.50293C10.2171 6.32436 10.4273 6.13091 10.6914 5.92257C10.9555 5.71424 11.2792 5.55241 11.6624 5.43708C12.0456 5.32175 12.4715 5.26409 12.9403 5.26409C14.2126 5.26409 15.2357 5.68634 16.0095 6.53083C16.7833 7.37533 17.1702 8.6123 17.1702 10.2418Z" fill="#4E4E4E"/>
</svg>
