<svg width="217" height="218" viewBox="0 0 217 218" fill="none" xmlns="http://www.w3.org/2000/svg">
<g clip-path="url(#clip0_481_2913)">
<path opacity="0.2" d="M72.1945 165.91C112.41 125.924 152.281 86.3394 192.497 46.3533C194.218 52.6639 195.767 58.5155 197.373 64.4245C203.799 88.5194 210.224 112.614 216.764 136.652C217.338 138.717 216.936 139.922 215.445 141.356C190.374 166.254 165.304 191.267 140.291 216.28C139.144 217.427 138.169 218.345 136.161 217.829C101.223 208.707 66.2281 199.643 31.2905 190.636C29.1105 190.062 27.9631 189.259 27.4468 186.907C25.7831 179.564 23.8899 172.221 21.882 164.935C21.2509 162.583 22.7425 161.607 24.0047 160.403C56.0738 128.161 88.143 95.8626 120.27 63.6213C138.341 45.4354 156.412 27.3068 174.541 9.17828C176.032 7.68669 176.376 6.71142 174.541 5.39194C173.278 4.47404 172.074 3.38403 170.869 2.35139C171.041 2.00717 171.213 1.60559 171.385 1.26138C175.745 1.26138 180.048 1.31875 184.408 1.26138C187.965 1.20401 191.464 1.08927 195.021 0.974535C196.398 0.917167 197.431 1.0319 197.259 2.92508C196.628 10.3257 196.169 17.7836 195.595 25.471C193.53 24.4384 192.268 22.8894 191.005 21.4552C189.629 19.9636 188.768 20.021 187.391 21.4552C172.016 37.0022 156.527 52.4918 141.094 68.0387C108.624 100.567 76.2677 132.98 44.0264 165.451C42.5348 166.943 40.1827 167.975 40.4695 170.901C40.9858 176.638 40.8711 176.695 46.7801 178.244C74.604 185.588 102.428 192.873 130.194 200.274C132.317 200.848 133.637 200.561 135.185 198.954C156.068 177.9 176.95 156.903 197.89 135.963C199.324 134.529 199.496 133.267 198.98 131.431C194.218 115.712 189.629 99.9358 184.924 84.2167C183.949 80.8893 183.949 80.832 181.367 83.3562C152.74 112.041 124.113 140.782 95.601 169.582C93.5931 171.59 91.9294 171.991 89.3478 171.131C83.9551 169.352 78.333 167.803 72.1945 165.91Z" fill="url(#paint0_linear_481_2913)"/>
<path opacity="0.2" d="M100.936 65.8009C99.559 64.5388 98.0674 63.3341 96.8053 61.9572C95.4858 60.523 94.6253 60.4656 93.1911 61.9572C76.2673 79.4547 59.2287 96.9522 42.2475 114.392C34.0438 122.826 25.84 131.259 17.6363 139.635C17.0626 140.208 16.4316 140.782 15.571 141.643C13.7352 134.701 12.0142 128.104 10.2931 121.449C6.96569 108.77 3.75304 96.0917 0.368277 83.4705C-0.0906741 81.6921 0.310908 80.6595 1.51565 79.4547C27.2169 53.8108 52.8608 28.0522 78.4473 2.35098C79.4225 1.37571 80.2831 0.629918 81.8894 1.08887C100.305 6.1947 118.72 11.3005 137.136 16.349C137.308 16.4064 137.48 16.5211 138.054 16.8079C135.644 19.5616 133.292 22.258 130.94 24.8969C130.137 25.8148 129.219 26.6754 128.473 27.708C127.383 29.1996 126.178 29.3143 124.514 28.8554C111.492 25.4706 98.4116 22.258 85.3315 18.8732C83.1515 18.2995 81.7173 18.529 80.0536 20.2501C59.3435 41.3044 38.5759 62.3014 17.751 83.2411C16.661 84.3884 16.1447 85.4211 16.5463 87.0274C18.1526 93.2233 19.7016 99.4191 21.1932 105.672C21.7095 107.738 22.3405 108.024 23.8895 106.418C42.7065 87.5437 61.5808 68.7267 80.5126 49.9098C81.832 48.5903 81.7173 47.7871 80.3978 46.6971C79.3078 45.8366 78.3325 44.8039 76.7836 43.3697C85.1021 42.6239 92.56 41.8781 100.018 41.1897C100.993 41.075 101.682 41.4192 101.682 42.6239C101.682 50.254 101.682 57.884 101.682 65.4567C101.452 65.6288 101.223 65.7436 100.936 65.8009Z" fill="url(#paint1_linear_481_2913)"/>
</g>
<defs>
<linearGradient id="paint0_linear_481_2913" x1="305.01" y1="7.60326" x2="256.433" y2="282.303" gradientUnits="userSpaceOnUse">
<stop stop-color="white"/>
<stop offset="1" stop-color="white" stop-opacity="0"/>
</linearGradient>
<linearGradient id="paint1_linear_481_2913" x1="200.179" y1="5.25442" x2="171.121" y2="184.197" gradientUnits="userSpaceOnUse">
<stop stop-color="white"/>
<stop offset="1" stop-color="white" stop-opacity="0"/>
</linearGradient>
<clipPath id="clip0_481_2913">
<rect width="216.797" height="217.084" fill="white" transform="translate(0.203125 0.916504)"/>
</clipPath>
</defs>
</svg>
