<svg width="217" height="218" viewBox="0 0 217 218" fill="none" xmlns="http://www.w3.org/2000/svg">
<g clip-path="url(#clip0_533_8929)">
<path opacity="0.2" d="M72.1945 165.91C112.41 125.924 152.281 86.3397 192.497 46.3537C194.218 52.6642 195.767 58.5159 197.373 64.4248C203.799 88.5198 210.224 112.615 216.764 136.652C217.338 138.718 216.936 139.922 215.445 141.356C190.374 166.255 165.304 191.267 140.291 216.28C139.144 217.428 138.169 218.345 136.161 217.829C101.223 208.708 66.2281 199.643 31.2905 190.636C29.1105 190.063 27.9631 189.259 27.4468 186.907C25.7831 179.564 23.8899 172.221 21.882 164.935C21.2509 162.583 22.7425 161.608 24.0047 160.403C56.0738 128.162 88.143 95.863 120.27 63.6217C138.341 45.4358 156.412 27.3072 174.541 9.17865C176.032 7.68706 176.376 6.71179 174.541 5.3923C173.278 4.4744 172.074 3.38439 170.869 2.35175C171.041 2.00754 171.213 1.60596 171.385 1.26175C175.745 1.26175 180.048 1.31911 184.408 1.26175C187.965 1.20438 191.464 1.08964 195.021 0.974902C196.398 0.917533 197.431 1.03227 197.259 2.92544C196.628 10.326 196.169 17.784 195.595 25.4714C193.53 24.4388 192.268 22.8898 191.005 21.4556C189.629 19.964 188.768 20.0214 187.391 21.4556C172.016 37.0025 156.527 52.4921 141.094 68.0391C108.624 100.567 76.2677 132.981 44.0264 165.451C42.5348 166.943 40.1827 167.976 40.4695 170.901C40.9858 176.638 40.8711 176.696 46.7801 178.245C74.604 185.588 102.428 192.874 130.194 200.274C132.317 200.848 133.637 200.561 135.185 198.955C156.068 177.9 176.95 156.903 197.89 135.964C199.324 134.53 199.496 133.267 198.98 131.432C194.218 115.713 189.629 99.9362 184.924 84.2171C183.949 80.8897 183.949 80.8323 181.367 83.3566C152.74 112.041 124.113 140.783 95.601 169.582C93.5931 171.59 91.9294 171.991 89.3478 171.131C83.9551 169.352 78.333 167.804 72.1945 165.91Z" fill="url(#paint0_linear_533_8929)"/>
<path opacity="0.2" d="M100.936 65.801C99.559 64.5389 98.0674 63.3342 96.8053 61.9573C95.4858 60.5231 94.6253 60.4658 93.1911 61.9573C76.2673 79.4548 59.2287 96.9523 42.2475 114.392C34.0438 122.826 25.84 131.259 17.6363 139.635C17.0626 140.208 16.4316 140.782 15.571 141.643C13.7352 134.701 12.0142 128.104 10.2931 121.449C6.96569 108.77 3.75304 96.0918 0.368277 83.4707C-0.0906741 81.6922 0.310908 80.6596 1.51565 79.4548C27.2169 53.811 52.8608 28.0524 78.4473 2.35111C79.4225 1.37583 80.2831 0.63004 81.8894 1.08899C100.305 6.19482 118.72 11.3006 137.136 16.3491C137.308 16.4065 137.48 16.5212 138.054 16.8081C135.644 19.5618 133.292 22.2581 130.94 24.8971C130.137 25.815 129.219 26.6755 128.473 27.7081C127.383 29.1997 126.178 29.3145 124.514 28.8555C111.492 25.4708 98.4116 22.2581 85.3315 18.8733C83.1515 18.2996 81.7173 18.5291 80.0536 20.2502C59.3435 41.3046 38.5759 62.3016 17.751 83.2412C16.661 84.3886 16.1447 85.4212 16.5463 87.0275C18.1526 93.2234 19.7016 99.4192 21.1932 105.672C21.7095 107.738 22.3405 108.025 23.8895 106.418C42.7065 87.5438 61.5808 68.7269 80.5126 49.9099C81.832 48.5904 81.7173 47.7872 80.3978 46.6972C79.3078 45.8367 78.3325 44.8041 76.7836 43.3698C85.1021 42.624 92.56 41.8782 100.018 41.1898C100.993 41.0751 101.682 41.4193 101.682 42.624C101.682 50.2541 101.682 57.8842 101.682 65.4568C101.452 65.6289 101.223 65.7437 100.936 65.801Z" fill="url(#paint1_linear_533_8929)"/>
</g>
<defs>
<linearGradient id="paint0_linear_533_8929" x1="305.01" y1="7.60363" x2="256.433" y2="282.303" gradientUnits="userSpaceOnUse">
<stop stop-color="#7A76FF"/>
<stop offset="1" stop-color="#7A76FF" stop-opacity="0"/>
</linearGradient>
<linearGradient id="paint1_linear_533_8929" x1="200.179" y1="5.25454" x2="171.121" y2="184.197" gradientUnits="userSpaceOnUse">
<stop stop-color="#7A76FF"/>
<stop offset="1" stop-color="#7A76FF" stop-opacity="0"/>
</linearGradient>
<clipPath id="clip0_533_8929">
<rect width="216.797" height="217.084" fill="white" transform="translate(0.203125 0.916504)"/>
</clipPath>
</defs>
</svg>
