<svg width="145" height="145" viewBox="0 0 145 145" fill="none" xmlns="http://www.w3.org/2000/svg">
<path opacity="0.1" d="M72.0486 32.5209C70.2395 32.5209 68.8827 34.1038 68.8827 35.6868V108.956C68.8827 110.765 70.2395 112.122 72.0486 112.122C72.727 112.122 73.1793 111.896 73.8577 111.669L125.87 73.9043C126.322 73.452 126.774 72.9997 126.774 72.3213C126.774 71.869 126.322 71.1906 125.87 70.9645L73.8577 33.1993C73.1793 32.747 72.727 32.5209 72.0486 32.5209ZM72.0486 28.9026C73.4054 28.9026 74.7623 29.3549 75.893 30.2595L128.131 68.0246C129.488 69.1553 130.392 70.7383 130.392 72.3213C130.392 74.1304 129.488 75.7134 128.131 76.8441L75.893 114.609C74.7623 115.288 73.4054 115.74 72.0486 115.74C68.2043 115.74 65.2644 112.8 65.2644 108.956V85.6635L25.2379 114.609C24.1072 115.288 22.7504 115.74 21.3935 115.74C17.5492 115.74 14.6094 112.8 14.6094 108.956V35.6868C14.6094 32.0686 17.5492 28.9026 21.3935 28.9026C22.7504 28.9026 24.1072 29.3549 25.2379 30.2595L65.2644 59.2052V35.6868C65.2644 32.0686 68.2043 28.9026 72.0486 28.9026ZM65.2644 81.1407V63.728L23.2026 33.1993C22.5242 32.747 22.072 32.5209 21.3935 32.5209C19.5844 32.5209 18.2276 34.1038 18.2276 35.6868V108.956C18.2276 110.765 19.5844 112.122 21.3935 112.122C22.072 112.122 22.5242 112.122 23.2026 111.669L65.2644 81.1407Z" fill="#7B78FF"/>
</svg>
