<svg width="342" height="230" viewBox="0 0 342 230" fill="none" xmlns="http://www.w3.org/2000/svg">
<g clip-path="url(#clip0_481_1662)">
<rect width="342" height="230" rx="4" fill="#020723"/>
<path d="M153.361 31.6775C153.923 28.6588 156.848 26.6849 159.857 27.2931L325.791 60.8262C328.737 61.4214 330.659 64.2699 330.109 67.2239L311.806 165.533C311.244 168.552 308.319 170.526 305.309 169.918L139.375 136.384C136.43 135.789 134.508 132.941 135.058 129.987L153.361 31.6775Z" fill="#0E1330" stroke="#282D45"/>
<g filter="url(#filter0_ddddd_481_1662)">
<path d="M265.821 110.524C262.073 124.839 247.43 133.406 233.115 129.659C218.799 125.911 210.232 111.268 213.98 96.9525C217.728 82.637 232.371 74.07 246.686 77.8176C261.002 81.5652 269.569 96.2082 265.821 110.524ZM223.581 99.4658C221.221 108.479 226.615 117.698 235.628 120.058C244.641 122.417 253.861 117.023 256.22 108.01C258.58 98.9972 253.186 89.778 244.173 87.4185C235.16 85.059 225.94 90.4528 223.581 99.4658Z" fill="#00B452"/>
<path d="M265.821 110.524C267.391 104.527 266.833 98.1712 264.242 92.5396C261.651 86.9081 257.188 82.3491 251.613 79.6394C246.037 76.9298 239.695 76.2372 233.666 77.6795C227.637 79.1219 222.295 82.6101 218.55 87.5496C214.805 92.4892 212.888 98.5746 213.126 104.769C213.365 110.963 215.744 116.883 219.858 121.52C223.972 126.157 229.566 129.224 235.688 130.199C241.81 131.173 248.08 129.995 253.431 126.865L248.419 118.299C245.051 120.27 241.103 121.011 237.248 120.398C233.394 119.784 229.872 117.853 227.282 114.934C224.691 112.014 223.194 108.287 223.043 104.387C222.893 100.487 224.1 96.6558 226.458 93.5458C228.816 90.4358 232.18 88.2397 235.975 87.3315C239.771 86.4234 243.764 86.8595 247.274 88.5655C250.785 90.2715 253.595 93.1419 255.226 96.6875C256.857 100.233 257.208 104.235 256.22 108.01L265.821 110.524Z" fill="#41E88D"/>
<path d="M265.821 110.524C267.058 105.798 266.98 100.824 265.595 96.1402C264.209 91.456 261.57 87.2396 257.962 83.9468C254.354 80.6541 249.914 78.4103 245.123 77.4581C240.332 76.5059 235.372 76.8816 230.779 78.5444C226.186 80.2073 222.135 83.0941 219.064 86.8927C215.993 90.6913 214.019 95.2571 213.355 100.096C212.691 104.936 213.363 109.865 215.298 114.35C217.232 118.835 220.356 122.706 224.332 125.545L230.098 117.468C227.595 115.681 225.628 113.243 224.41 110.419C223.192 107.595 222.77 104.492 223.187 101.445C223.605 98.3984 224.848 95.5238 226.782 93.1322C228.715 90.7406 231.266 88.923 234.158 87.8761C237.05 86.8292 240.172 86.5926 243.189 87.1921C246.205 87.7916 249 89.2043 251.272 91.2774C253.544 93.3506 255.206 96.0053 256.078 98.9544C256.95 101.904 256.999 105.035 256.22 108.01L265.821 110.524Z" fill="#FFF500"/>
<path d="M265.821 110.524C266.816 106.722 266.963 102.748 266.251 98.8829C265.539 95.0181 263.985 91.3573 261.7 88.1599C259.416 84.9625 256.455 82.3068 253.03 80.3812C249.604 78.4555 245.796 77.3071 241.877 77.0171C237.958 76.7272 234.023 77.303 230.351 78.7035C226.679 80.1041 223.361 82.2953 220.63 85.1217C217.9 87.9481 215.824 91.3405 214.551 95.0585C213.278 98.7764 212.839 102.729 213.264 106.636L223.13 105.562C222.862 103.103 223.139 100.614 223.941 98.2734C224.742 95.9325 226.049 93.7966 227.768 92.0171C229.487 90.2376 231.576 88.8581 233.888 87.9763C236.2 87.0945 238.678 86.732 241.145 86.9145C243.613 87.097 246.01 87.8201 248.167 89.0325C250.323 90.2449 252.187 91.9169 253.626 93.93C255.064 95.9431 256.042 98.248 256.491 100.681C256.939 103.115 256.847 105.617 256.22 108.01L265.821 110.524Z" fill="#FEA600"/>
<path d="M265.821 110.524C267.249 105.07 266.92 99.3044 264.881 94.0482C262.842 88.7921 259.197 84.313 254.465 81.2484C249.733 78.1838 244.155 76.69 238.525 76.9795C232.894 77.269 227.499 79.327 223.106 82.8608L229.327 90.5937C232.092 88.3688 235.489 87.073 239.034 86.8908C242.579 86.7085 246.091 87.6491 249.07 89.5785C252.05 91.508 254.345 94.328 255.628 97.6373C256.912 100.947 257.119 104.576 256.22 108.01L265.821 110.524Z" fill="#F16403"/>
<path d="M265.821 110.524C267.394 104.517 266.831 98.1497 264.229 92.5115C261.627 86.8733 257.148 82.3138 251.557 79.6124L247.239 88.5485C250.76 90.2493 253.58 93.12 255.218 96.6698C256.856 100.22 257.21 104.228 256.22 108.01L265.821 110.524Z" fill="#E23122"/>
<path d="M265.821 110.524C267.34 104.719 266.868 98.5729 264.479 93.0691L255.375 97.0208C256.879 100.486 257.177 104.356 256.22 108.01L265.821 110.524Z" fill="#008A3F"/>
<path d="M277.291 103.524L275.9 102.149L275.405 104.041L277.291 103.524ZM266.926 100.986L267.248 101.07L267.334 100.743L267.012 100.658L266.926 100.986ZM267.894 101.239L268.539 101.408L268.624 101.08L267.979 100.912L267.894 101.239ZM269.184 101.577L269.829 101.746L269.915 101.418L269.27 101.249L269.184 101.577ZM270.474 101.915L271.119 102.084L271.205 101.756L270.56 101.587L270.474 101.915ZM271.764 102.252L272.409 102.421L272.495 102.094L271.85 101.925L271.764 102.252ZM273.054 102.59L273.7 102.759L273.785 102.431L273.14 102.263L273.054 102.59ZM274.345 102.928L274.99 103.097L275.076 102.769L274.431 102.6L274.345 102.928ZM275.635 103.266L276.28 103.435L276.366 103.107L275.721 102.938L275.635 103.266Z" fill="#495057"/>
<path d="M272.064 122.814L270.673 121.439L270.178 123.331L272.064 122.814ZM261.699 120.276L262.022 120.36L262.108 120.033L261.785 119.948L261.699 120.276ZM262.667 120.529L263.312 120.698L263.398 120.37L262.753 120.202L262.667 120.529ZM263.957 120.867L264.602 121.036L264.688 120.708L264.043 120.539L263.957 120.867ZM265.247 121.205L265.893 121.374L265.978 121.046L265.333 120.877L265.247 121.205ZM266.538 121.543L267.183 121.711L267.269 121.384L266.623 121.215L266.538 121.543ZM267.828 121.88L268.473 122.049L268.559 121.721L267.914 121.553L267.828 121.88ZM269.118 122.218L269.763 122.387L269.849 122.059L269.204 121.89L269.118 122.218ZM270.408 122.556L271.054 122.725L271.139 122.397L270.494 122.228L270.408 122.556Z" fill="#495057"/>
<path d="M234.498 141.161L235.832 139.73L233.926 139.291L234.498 141.161ZM236.733 130.726L236.658 131.051L236.988 131.127L237.063 130.803L236.733 130.726ZM236.508 131.701L236.358 132.351L236.688 132.427L236.838 131.777L236.508 131.701ZM236.208 133L236.058 133.65L236.388 133.726L236.538 133.077L236.208 133ZM235.908 134.3L235.758 134.95L236.088 135.026L236.238 134.376L235.908 134.3ZM235.608 135.6L235.458 136.249L235.788 136.326L235.938 135.676L235.608 135.6ZM235.308 136.899L235.158 137.549L235.488 137.625L235.638 136.975L235.308 136.899ZM235.008 138.199L234.858 138.848L235.188 138.925L235.338 138.275L235.008 138.199ZM234.708 139.498L234.558 140.148L234.888 140.224L235.038 139.574L234.708 139.498Z" fill="#495057"/>
<path d="M205.747 120.002L207.668 120.369L207.025 118.522L205.747 120.002ZM215.769 116.335L215.454 116.445L215.565 116.764L215.88 116.655L215.769 116.335ZM214.824 116.664L214.194 116.883L214.305 117.203L214.935 116.984L214.824 116.664ZM213.564 117.102L212.934 117.321L213.046 117.641L213.676 117.422L213.564 117.102ZM212.305 117.54L211.675 117.76L211.786 118.08L212.416 117.86L212.305 117.54ZM211.045 117.979L210.415 118.198L210.527 118.518L211.156 118.299L211.045 117.979ZM209.785 118.417L209.156 118.636L209.267 118.956L209.897 118.737L209.785 118.417ZM208.526 118.856L207.896 119.075L208.007 119.395L208.637 119.175L208.526 118.856ZM207.266 119.294L206.636 119.513L206.748 119.833L207.377 119.614L207.266 119.294Z" fill="#495057"/>
<path d="M203.983 91.0974L205.334 92.5118L205.883 90.635L203.983 91.0974ZM214.27 93.9339L213.95 93.8402L213.855 94.1652L214.175 94.259L214.27 93.9339ZM213.31 93.6527L212.67 93.4653L212.575 93.7904L213.215 93.9778L213.31 93.6527ZM212.03 93.2779L211.39 93.0904L211.295 93.4155L211.935 93.6029L212.03 93.2779ZM210.75 92.903L210.11 92.7155L210.015 93.0406L210.655 93.228L210.75 92.903ZM209.47 92.5281L208.83 92.3406L208.735 92.6657L209.375 92.8532L209.47 92.5281ZM208.191 92.1532L207.551 91.9658L207.455 92.2908L208.095 92.4783L208.191 92.1532ZM206.911 91.7783L206.271 91.5909L206.175 91.9159L206.815 92.1034L206.911 91.7783ZM205.631 91.4034L204.991 91.216L204.895 91.5411L205.535 91.7285L205.631 91.4034Z" fill="#495057"/>
<path d="M229.791 67.1995L229.704 69.1531L231.44 68.2514L229.791 67.1995ZM234.861 76.5891L234.707 76.2933L234.407 76.4495L234.561 76.7453L234.861 76.5891ZM234.4 75.7015L234.093 75.1098L233.792 75.266L234.099 75.8577L234.4 75.7015ZM233.785 74.5181L233.478 73.9263L233.177 74.0825L233.484 74.6743L233.785 74.5181ZM233.17 73.3346L232.863 72.7429L232.562 72.899L232.869 73.4908L233.17 73.3346ZM232.555 72.1511L232.248 71.5594L231.947 71.7156L232.255 72.3073L232.555 72.1511ZM231.94 70.9677L231.633 70.3759L231.332 70.5321L231.64 71.1238L231.94 70.9677ZM231.325 69.7842L231.018 69.1924L230.717 69.3486L231.025 69.9404L231.325 69.7842ZM230.71 68.6007L230.403 68.009L230.102 68.1652L230.41 68.7569L230.71 68.6007Z" fill="#495057"/>
<path d="M269.79 80.202L267.841 80.0421L268.677 81.81L269.79 80.202ZM260.217 84.9165L260.518 84.774L260.374 84.4678L260.072 84.6103L260.217 84.9165ZM261.121 84.4889L261.724 84.2038L261.579 83.8976L260.976 84.1827L261.121 84.4889ZM262.327 83.9187L262.93 83.6336L262.785 83.3274L262.182 83.6125L262.327 83.9187ZM263.533 83.3485L264.135 83.0634L263.991 82.7572L263.388 83.0423L263.533 83.3485ZM264.738 82.7783L265.341 82.4933L265.196 82.187L264.593 82.4721L264.738 82.7783ZM265.944 82.2082L266.547 81.9231L266.402 81.6169L265.799 81.902L265.944 82.2082ZM267.15 81.638L267.753 81.3529L267.608 81.0467L267.005 81.3318L267.15 81.638ZM268.355 81.0678L268.958 80.7827L268.813 80.4765L268.211 80.7616L268.355 81.0678Z" fill="#495057"/>
</g>
<g filter="url(#filter1_d_481_1662)">
<circle cx="239.824" cy="103.717" r="12.4221" transform="rotate(14.67 239.824 103.717)" fill="#18277E"/>
</g>
<path d="M261.994 103.884L260.072 103.38L259.514 104.217L258.497 103.951L261.497 99.5732L262.624 99.8681L263.094 105.154L262.071 104.886L261.994 103.884ZM261.934 103.041L261.764 100.839L260.537 102.675L261.934 103.041Z" fill="white"/>
<path d="M237.084 103.144C237.208 102.67 237.425 102.273 237.735 101.956C238.05 101.635 238.419 101.419 238.842 101.308C239.271 101.193 239.716 101.197 240.176 101.317C240.716 101.458 241.152 101.72 241.485 102.103C241.818 102.486 242.001 102.942 242.035 103.473L240.922 103.182C240.872 102.922 240.76 102.708 240.588 102.54C240.42 102.373 240.204 102.255 239.942 102.186C239.66 102.113 239.392 102.114 239.136 102.19C238.885 102.262 238.667 102.402 238.479 102.609C238.297 102.817 238.163 103.082 238.079 103.405C237.996 103.723 237.982 104.02 238.038 104.295C238.1 104.567 238.221 104.799 238.403 104.989C238.59 105.176 238.825 105.306 239.106 105.38C239.368 105.448 239.614 105.451 239.842 105.388C240.076 105.321 240.279 105.187 240.45 104.986L241.562 105.277C241.272 105.728 240.888 106.038 240.41 106.209C239.938 106.376 239.43 106.388 238.886 106.246C238.426 106.125 238.036 105.912 237.717 105.607C237.404 105.299 237.187 104.929 237.069 104.499C236.954 104.071 236.959 103.619 237.084 103.144Z" fill="#139EEC"/>
<path d="M258.656 117.504C258.915 117.626 259.103 117.82 259.22 118.087C259.337 118.354 259.358 118.631 259.284 118.916C259.216 119.174 259.092 119.385 258.911 119.55C258.736 119.711 258.514 119.815 258.245 119.863C257.977 119.911 257.679 119.892 257.352 119.806L255.271 119.262L256.534 114.437L258.525 114.958C258.852 115.044 259.119 115.17 259.327 115.338C259.538 115.507 259.68 115.701 259.75 115.921C259.825 116.143 259.831 116.374 259.768 116.613C259.695 116.894 259.557 117.109 259.356 117.258C259.159 117.409 258.926 117.491 258.656 117.504ZM256.981 116.681L257.866 116.913C258.096 116.973 258.287 116.969 258.438 116.9C258.59 116.827 258.691 116.693 258.742 116.5C258.793 116.306 258.77 116.14 258.673 116.001C258.576 115.863 258.413 115.763 258.182 115.703L257.297 115.471L256.981 116.681ZM257.42 118.982C257.655 119.044 257.851 119.036 258.009 118.959C258.172 118.884 258.28 118.745 258.333 118.542C258.387 118.334 258.36 118.155 258.252 118.004C258.145 117.848 257.974 117.739 257.739 117.677L256.785 117.428L256.445 118.727L257.42 118.982Z" fill="white"/>
<path d="M234.677 124.673C234.802 124.198 235.019 123.802 235.328 123.484C235.644 123.163 236.013 122.947 236.436 122.836C236.865 122.722 237.309 122.725 237.77 122.846C238.309 122.987 238.746 123.249 239.079 123.631C239.412 124.014 239.595 124.471 239.628 125.001L238.516 124.71C238.465 124.451 238.354 124.237 238.181 124.068C238.013 123.901 237.798 123.783 237.535 123.715C237.254 123.641 236.986 123.642 236.729 123.718C236.479 123.79 236.26 123.93 236.073 124.137C235.891 124.345 235.757 124.611 235.673 124.933C235.589 125.251 235.576 125.548 235.632 125.823C235.693 126.096 235.815 126.327 235.997 126.517C236.184 126.704 236.418 126.834 236.699 126.908C236.962 126.977 237.207 126.98 237.436 126.916C237.67 126.849 237.872 126.715 238.043 126.514L239.156 126.805C238.866 127.256 238.482 127.567 238.004 127.737C237.532 127.904 237.024 127.916 236.48 127.774C236.019 127.653 235.629 127.44 235.31 127.135C234.997 126.827 234.781 126.458 234.662 126.028C234.548 125.599 234.553 125.147 234.677 124.673Z" fill="white"/>
<path d="M221.416 112.631C221.923 112.763 222.342 112.979 222.672 113.277C223.008 113.577 223.231 113.938 223.341 114.361C223.458 114.78 223.453 115.232 223.326 115.716C223.2 116.2 222.983 116.596 222.676 116.904C222.374 117.209 222.004 117.41 221.565 117.507C221.131 117.605 220.66 117.588 220.153 117.455L218.467 117.014L219.73 112.189L221.416 112.631ZM220.334 116.624C220.841 116.756 221.269 116.721 221.618 116.517C221.966 116.312 222.207 115.959 222.338 115.457C222.47 114.955 222.434 114.527 222.231 114.173C222.029 113.815 221.675 113.57 221.168 113.437L220.484 113.258L219.65 116.445L220.334 116.624Z" fill="white"/>
<path d="M219.087 93.9276L218.77 95.1372L220.394 95.5624L220.193 96.3297L218.569 95.9044L218.234 97.1832L220.066 97.6627L219.86 98.4507L217.06 97.7178L218.325 92.8862L221.125 93.6191L220.918 94.4071L219.087 93.9276Z" fill="white"/>
<path d="M240.08 80.1252L239.875 80.9063L237.864 80.3797L237.54 81.617L239.081 82.0205L238.881 82.7877L237.339 82.3842L236.805 84.4233L235.838 84.17L237.101 79.3453L240.08 80.1252Z" fill="white"/>
<path d="M257.455 87.6089C257.397 87.3772 257.286 87.183 257.12 87.0263C256.954 86.8697 256.742 86.7576 256.484 86.69C256.199 86.6152 255.928 86.6134 255.673 86.6845C255.418 86.7557 255.197 86.8947 255.01 87.1018C254.823 87.3088 254.688 87.569 254.606 87.8824C254.522 88.205 254.51 88.5023 254.572 88.7745C254.638 89.0479 254.768 89.2787 254.96 89.4668C255.152 89.655 255.397 89.7882 255.697 89.8666C256.066 89.9631 256.393 89.9454 256.678 89.8134C256.965 89.6768 257.191 89.443 257.357 89.1121L255.698 88.6778L255.892 87.9382L258.504 88.6222L258.284 89.4655C258.131 89.785 257.911 90.0598 257.625 90.29C257.338 90.5202 257.003 90.6789 256.621 90.7659C256.245 90.8496 255.849 90.8371 255.434 90.7285C254.969 90.6067 254.574 90.3926 254.251 90.0863C253.933 89.7767 253.715 89.4068 253.596 88.9769C253.482 88.5481 253.487 88.0964 253.611 87.6218C253.735 87.1472 253.952 86.751 254.262 86.4332C254.577 86.1121 254.949 85.8966 255.376 85.787C255.81 85.6739 256.257 85.6777 256.718 85.7984C257.261 85.9407 257.699 86.198 258.03 86.5702C258.362 86.9378 258.541 87.3812 258.568 87.9002L257.455 87.6089Z" fill="white"/>
<path d="M281.498 102.961L280.012 102.572L279.806 103.357C279.891 103.294 280 103.254 280.132 103.236C280.265 103.215 280.398 103.223 280.533 103.258C280.778 103.322 280.964 103.428 281.092 103.576C281.22 103.724 281.297 103.891 281.323 104.077C281.35 104.261 281.339 104.448 281.29 104.637C281.198 104.989 281.023 105.245 280.765 105.407C280.51 105.569 280.197 105.601 279.827 105.504C279.479 105.413 279.223 105.253 279.061 105.024C278.898 104.796 278.84 104.537 278.887 104.248L279.51 104.412C279.506 104.541 279.541 104.655 279.617 104.753C279.696 104.852 279.81 104.921 279.96 104.961C280.14 105.008 280.291 104.987 280.413 104.898C280.534 104.809 280.619 104.671 280.668 104.484C280.718 104.295 280.708 104.138 280.639 104.016C280.573 103.891 280.45 103.805 280.27 103.758C280.141 103.724 280.026 103.728 279.924 103.77C279.821 103.812 279.738 103.881 279.673 103.979L279.058 103.818L279.572 101.854L281.646 102.397L281.498 102.961ZM282.059 103.393C282.12 103.16 282.235 102.996 282.404 102.9C282.576 102.804 282.769 102.784 282.983 102.84C283.197 102.896 283.354 103.008 283.455 103.175C283.558 103.342 283.579 103.542 283.518 103.775C283.456 104.01 283.34 104.176 283.168 104.271C282.999 104.367 282.807 104.387 282.593 104.331C282.379 104.275 282.22 104.164 282.117 103.996C282.017 103.829 281.998 103.628 282.059 103.393ZM285.185 103.476L282.541 106.215L281.917 106.051L284.556 103.311L285.185 103.476ZM282.878 103.225C282.71 103.181 282.594 103.278 282.532 103.516C282.469 103.758 282.521 103.901 282.689 103.945C282.772 103.966 282.844 103.954 282.905 103.908C282.967 103.859 283.014 103.773 283.046 103.651C283.108 103.412 283.052 103.27 282.878 103.225ZM283.594 105.75C283.656 105.515 283.771 105.35 283.939 105.257C284.111 105.162 284.304 105.142 284.518 105.198C284.732 105.254 284.888 105.365 284.985 105.531C285.086 105.695 285.105 105.894 285.044 106.13C284.982 106.365 284.867 106.531 284.698 106.627C284.532 106.725 284.342 106.745 284.128 106.689C283.911 106.632 283.752 106.52 283.652 106.354C283.552 106.187 283.532 105.986 283.594 105.75ZM284.413 105.582C284.238 105.537 284.12 105.633 284.057 105.872C283.994 106.113 284.05 106.257 284.224 106.302C284.395 106.347 284.513 106.249 284.576 106.007C284.638 105.769 284.584 105.627 284.413 105.582Z" fill="#139EEC"/>
<path d="M274.1 121.723L274.255 121.131L275.36 121.42L274.485 124.765L273.824 124.592L274.545 121.839L274.1 121.723ZM275.569 123.215C275.707 122.686 275.91 122.296 276.178 122.046C276.45 121.797 276.807 121.73 277.25 121.846C277.694 121.963 277.971 122.195 278.082 122.545C278.196 122.895 278.184 123.334 278.046 123.864C277.907 124.396 277.701 124.788 277.429 125.04C277.16 125.293 276.804 125.362 276.36 125.246C275.917 125.13 275.639 124.895 275.525 124.542C275.415 124.189 275.429 123.747 275.569 123.215ZM277.413 123.698C277.472 123.471 277.506 123.278 277.516 123.117C277.529 122.954 277.504 122.812 277.441 122.691C277.381 122.57 277.266 122.488 277.094 122.443C276.923 122.398 276.78 122.413 276.666 122.488C276.555 122.563 276.463 122.675 276.392 122.823C276.324 122.968 276.261 123.154 276.202 123.381C276.141 123.613 276.103 123.813 276.089 123.979C276.076 124.142 276.101 124.284 276.164 124.405C276.228 124.523 276.345 124.605 276.517 124.649C276.688 124.694 276.83 124.681 276.944 124.609C277.058 124.535 277.149 124.423 277.218 124.274C277.287 124.122 277.352 123.93 277.413 123.698ZM278.672 123.165C278.733 122.932 278.848 122.768 279.017 122.672C279.189 122.576 279.382 122.557 279.596 122.613C279.81 122.669 279.967 122.78 280.068 122.947C280.171 123.114 280.192 123.314 280.131 123.547C280.069 123.782 279.953 123.948 279.781 124.043C279.612 124.139 279.42 124.16 279.206 124.103C278.992 124.047 278.833 123.936 278.73 123.768C278.63 123.601 278.611 123.4 278.672 123.165ZM281.798 123.248L279.154 125.987L278.53 125.824L281.169 123.083L281.798 123.248ZM279.491 122.997C279.323 122.953 279.207 123.05 279.145 123.288C279.082 123.53 279.134 123.673 279.302 123.717C279.385 123.739 279.457 123.726 279.518 123.68C279.58 123.631 279.627 123.545 279.659 123.423C279.721 123.184 279.665 123.042 279.491 122.997ZM280.207 125.522C280.269 125.287 280.384 125.123 280.552 125.029C280.724 124.934 280.917 124.914 281.131 124.97C281.345 125.026 281.501 125.137 281.598 125.303C281.699 125.467 281.718 125.666 281.657 125.902C281.595 126.137 281.48 126.303 281.311 126.4C281.145 126.497 280.955 126.517 280.741 126.461C280.524 126.404 280.365 126.292 280.265 126.126C280.165 125.959 280.145 125.758 280.207 125.522ZM281.026 125.354C280.851 125.309 280.733 125.405 280.67 125.644C280.607 125.885 280.663 126.029 280.837 126.075C281.008 126.119 281.126 126.021 281.189 125.779C281.251 125.541 281.197 125.399 281.026 125.354Z" fill="#139EEC"/>
<path d="M229.673 144.121C230.031 143.953 230.318 143.811 230.535 143.694C230.752 143.575 230.942 143.441 231.105 143.294C231.268 143.147 231.372 142.988 231.416 142.817C231.457 142.661 231.452 142.529 231.402 142.421C231.352 142.313 231.251 142.239 231.098 142.199C230.945 142.159 230.813 142.18 230.704 142.263C230.595 142.342 230.515 142.47 230.466 142.647L229.842 142.483C229.95 142.12 230.132 141.87 230.386 141.734C230.644 141.599 230.932 141.573 231.25 141.656C231.598 141.747 231.842 141.91 231.979 142.146C232.118 142.378 232.147 142.646 232.068 142.948C232.006 143.187 231.882 143.398 231.697 143.582C231.511 143.765 231.315 143.916 231.107 144.035C230.9 144.151 230.634 144.287 230.309 144.444L231.662 144.798L231.523 145.33L229.257 144.737L229.382 144.26L229.673 144.121ZM232.365 143.766C232.503 143.237 232.707 142.848 232.975 142.598C233.246 142.348 233.603 142.282 234.047 142.398C234.49 142.514 234.768 142.747 234.879 143.096C234.993 143.446 234.981 143.886 234.842 144.415C234.703 144.947 234.497 145.339 234.225 145.592C233.956 145.845 233.6 145.913 233.157 145.797C232.713 145.681 232.435 145.446 232.322 145.093C232.211 144.741 232.226 144.299 232.365 143.766ZM234.209 144.249C234.268 144.023 234.303 143.829 234.312 143.668C234.325 143.505 234.301 143.363 234.238 143.242C234.178 143.122 234.062 143.039 233.891 142.994C233.719 142.949 233.577 142.964 233.462 143.039C233.351 143.114 233.26 143.226 233.188 143.374C233.121 143.52 233.057 143.706 232.998 143.932C232.937 144.165 232.9 144.364 232.886 144.53C232.872 144.693 232.897 144.835 232.96 144.957C233.024 145.075 233.142 145.156 233.313 145.201C233.484 145.246 233.627 145.232 233.74 145.161C233.854 145.086 233.946 144.974 234.014 144.826C234.083 144.674 234.148 144.482 234.209 144.249ZM235.469 143.716C235.53 143.484 235.644 143.319 235.813 143.223C235.985 143.128 236.179 143.108 236.393 143.164C236.607 143.22 236.764 143.331 236.864 143.498C236.967 143.666 236.988 143.866 236.928 144.098C236.866 144.334 236.749 144.499 236.577 144.595C236.408 144.691 236.216 144.711 236.002 144.655C235.788 144.599 235.63 144.487 235.526 144.319C235.426 144.153 235.407 143.952 235.469 143.716ZM238.594 143.799L235.95 146.538L235.327 146.375L237.966 143.634L238.594 143.799ZM236.287 143.548C236.119 143.504 236.004 143.601 235.941 143.84C235.878 144.081 235.93 144.224 236.099 144.268C236.181 144.29 236.253 144.278 236.314 144.232C236.376 144.182 236.423 144.097 236.455 143.974C236.517 143.736 236.462 143.594 236.287 143.548ZM237.003 146.074C237.065 145.838 237.18 145.674 237.348 145.581C237.52 145.485 237.713 145.466 237.927 145.522C238.141 145.578 238.297 145.689 238.394 145.855C238.495 146.018 238.515 146.218 238.453 146.453C238.391 146.689 238.276 146.855 238.107 146.951C237.941 147.048 237.751 147.069 237.537 147.012C237.32 146.956 237.161 146.844 237.061 146.677C236.961 146.51 236.942 146.309 237.003 146.074ZM237.822 145.906C237.648 145.86 237.529 145.957 237.467 146.195C237.404 146.437 237.459 146.58 237.633 146.626C237.805 146.671 237.922 146.572 237.985 146.331C238.048 146.092 237.993 145.951 237.822 145.906Z" fill="#139EEC"/>
<path d="M196.826 118.649L196.981 118.058L198.087 118.347L197.212 121.691L196.551 121.518L197.271 118.766L196.826 118.649ZM200.824 119.657L199.338 119.268L199.132 120.052C199.217 119.989 199.326 119.949 199.458 119.931C199.591 119.911 199.725 119.918 199.859 119.953C200.104 120.017 200.29 120.123 200.418 120.271C200.546 120.419 200.623 120.586 200.65 120.773C200.677 120.956 200.665 121.143 200.616 121.333C200.524 121.684 200.349 121.941 200.091 122.102C199.836 122.264 199.523 122.297 199.153 122.2C198.805 122.108 198.549 121.948 198.387 121.72C198.225 121.491 198.167 121.232 198.213 120.944L198.837 121.107C198.832 121.237 198.868 121.35 198.943 121.449C199.022 121.548 199.136 121.617 199.286 121.656C199.466 121.703 199.617 121.682 199.739 121.593C199.86 121.504 199.945 121.366 199.994 121.18C200.044 120.99 200.034 120.834 199.965 120.711C199.899 120.586 199.776 120.5 199.596 120.453C199.468 120.419 199.352 120.423 199.25 120.465C199.147 120.507 199.064 120.577 198.999 120.674L198.384 120.513L198.898 118.55L200.972 119.092L200.824 119.657ZM201.385 120.088C201.446 119.856 201.561 119.691 201.73 119.595C201.902 119.499 202.095 119.48 202.309 119.536C202.523 119.592 202.681 119.703 202.781 119.87C202.884 120.037 202.905 120.237 202.844 120.47C202.783 120.705 202.666 120.871 202.494 120.966C202.325 121.063 202.133 121.083 201.919 121.027C201.705 120.971 201.546 120.859 201.443 120.691C201.343 120.525 201.324 120.324 201.385 120.088ZM204.511 120.171L201.867 122.91L201.243 122.747L203.882 120.006L204.511 120.171ZM202.204 119.92C202.036 119.876 201.92 119.973 201.858 120.212C201.795 120.453 201.847 120.596 202.015 120.64C202.098 120.662 202.17 120.65 202.231 120.603C202.293 120.554 202.34 120.469 202.372 120.346C202.434 120.108 202.378 119.966 202.204 119.92ZM202.92 122.446C202.982 122.21 203.097 122.046 203.265 121.953C203.437 121.857 203.63 121.837 203.844 121.893C204.058 121.949 204.214 122.06 204.311 122.226C204.412 122.39 204.431 122.59 204.37 122.825C204.308 123.061 204.193 123.227 204.024 123.323C203.858 123.42 203.668 123.44 203.454 123.384C203.237 123.328 203.078 123.216 202.978 123.049C202.878 122.882 202.859 122.681 202.92 122.446ZM203.739 122.278C203.564 122.232 203.446 122.328 203.384 122.567C203.32 122.809 203.376 122.952 203.55 122.998C203.721 123.043 203.839 122.944 203.902 122.703C203.964 122.464 203.91 122.322 203.739 122.278Z" fill="#139EEC"/>
<path d="M194.294 89.3417C194.652 89.1739 194.939 89.0318 195.156 88.9153C195.373 88.7958 195.564 88.6626 195.726 88.5156C195.889 88.3686 195.993 88.2095 196.037 88.0383C196.078 87.8823 196.074 87.7503 196.023 87.6424C195.973 87.5345 195.872 87.4606 195.719 87.4205C195.566 87.3805 195.434 87.4017 195.325 87.484C195.216 87.5633 195.136 87.6913 195.087 87.8679L194.463 87.7045C194.571 87.3407 194.753 87.0909 195.007 86.9549C195.265 86.8197 195.553 86.7937 195.871 86.877C196.219 86.9683 196.463 87.1316 196.6 87.367C196.739 87.5994 196.769 87.8669 196.689 88.1697C196.627 88.4082 196.503 88.6193 196.318 88.8028C196.132 88.9863 195.936 89.1375 195.728 89.2563C195.522 89.3721 195.256 89.5084 194.93 89.665L196.284 90.0193L196.144 90.5515L193.878 89.9582L194.003 89.4811L194.294 89.3417ZM196.986 88.9876C197.125 88.4585 197.328 88.0689 197.596 87.8188C197.867 87.5695 198.224 87.5029 198.668 87.619C199.111 87.7351 199.389 87.9678 199.5 88.3172C199.614 88.6674 199.602 89.107 199.463 89.6361C199.324 90.1682 199.118 90.5605 198.846 90.8128C198.578 91.0659 198.221 91.1345 197.778 91.0184C197.334 90.9023 197.056 90.6676 196.943 90.3144C196.832 89.962 196.847 89.5197 196.986 88.9876ZM198.83 89.4703C198.889 89.244 198.924 89.0504 198.933 88.8895C198.947 88.7263 198.922 88.5842 198.859 88.4631C198.799 88.3428 198.683 88.2602 198.512 88.2154C198.34 88.1706 198.198 88.1855 198.083 88.2601C197.972 88.3356 197.881 88.4473 197.809 88.5953C197.742 88.741 197.678 88.927 197.619 89.1533C197.558 89.3857 197.521 89.5851 197.507 89.7513C197.493 89.9145 197.518 90.0566 197.581 90.1777C197.645 90.2957 197.763 90.3772 197.934 90.422C198.105 90.4668 198.248 90.4535 198.361 90.3819C198.476 90.3072 198.567 90.1955 198.635 90.0467C198.704 89.8949 198.769 89.7028 198.83 89.4703ZM200.09 88.9373C200.151 88.7049 200.266 88.5405 200.435 88.4443C200.607 88.3488 200.8 88.3291 201.014 88.3851C201.228 88.4412 201.385 88.5525 201.485 88.7193C201.588 88.8868 201.609 89.0868 201.549 89.3192C201.487 89.5547 201.37 89.7202 201.198 89.8157C201.029 89.912 200.838 89.9321 200.623 89.8761C200.409 89.82 200.251 89.7082 200.148 89.5407C200.047 89.3739 200.028 89.1728 200.09 88.9373ZM203.215 89.0202L200.572 91.7595L199.948 91.5962L202.587 88.8557L203.215 89.0202ZM200.908 88.7693C200.74 88.7252 200.625 88.8225 200.562 89.061C200.499 89.3026 200.552 89.4455 200.72 89.4895C200.802 89.5111 200.874 89.4989 200.935 89.4528C200.997 89.4036 201.044 89.3179 201.076 89.1955C201.139 88.957 201.083 88.8149 200.908 88.7693ZM201.625 91.295C201.686 91.0595 201.801 90.8951 201.969 90.8019C202.141 90.7064 202.334 90.6867 202.548 90.7427C202.763 90.7988 202.918 90.9098 203.015 91.0757C203.116 91.2394 203.136 91.439 203.074 91.6745C203.013 91.91 202.897 92.0758 202.728 92.1721C202.562 92.2692 202.372 92.2897 202.158 92.2337C201.941 92.1768 201.782 92.0651 201.682 91.8983C201.582 91.7316 201.563 91.5305 201.625 91.295ZM202.443 91.1269C202.269 91.0813 202.15 91.1777 202.088 91.4163C202.025 91.6579 202.08 91.8015 202.254 91.8471C202.426 91.892 202.543 91.7936 202.606 91.552C202.669 91.3134 202.614 91.1717 202.443 91.1269Z" fill="#139EEC"/>
<path d="M225.31 63.1474C225.668 62.9796 225.955 62.8374 226.172 62.721C226.389 62.6015 226.579 62.4682 226.742 62.3213C226.904 62.1743 227.008 62.0152 227.053 61.8439C227.094 61.6879 227.089 61.556 227.039 61.4481C226.989 61.3402 226.887 61.2662 226.734 61.2262C226.581 61.1862 226.45 61.2073 226.34 61.2897C226.231 61.369 226.152 61.4969 226.103 61.6735L225.479 61.5102C225.587 61.1464 225.768 60.8965 226.023 60.7605C226.281 60.6254 226.568 60.5994 226.886 60.6827C227.235 60.7739 227.478 60.9373 227.616 61.1727C227.755 61.405 227.784 61.6726 227.705 61.9754C227.642 62.2139 227.519 62.4249 227.333 62.6085C227.148 62.792 226.952 62.9432 226.744 63.062C226.537 63.1778 226.271 63.314 225.946 63.4707L227.299 63.825L227.16 64.3571L224.894 63.7639L225.018 63.2868L225.31 63.1474ZM230.531 62.3082L229.044 61.9191L228.839 62.7036C228.924 62.6409 229.032 62.6007 229.165 62.583C229.297 62.5622 229.431 62.5694 229.566 62.6046C229.81 62.6687 229.997 62.7747 230.125 62.9225C230.253 63.0704 230.33 63.2377 230.356 63.4243C230.383 63.6078 230.372 63.7944 230.322 63.984C230.23 64.3358 230.055 64.5922 229.797 64.7535C229.542 64.9155 229.23 64.9481 228.86 64.8512C228.511 64.76 228.256 64.5999 228.093 64.3712C227.931 64.1424 227.873 63.8837 227.919 63.5952L228.543 63.7585C228.539 63.888 228.574 64.0019 228.65 64.1001C228.728 64.1991 228.843 64.2683 228.993 64.3075C229.173 64.3547 229.324 64.3338 229.445 64.2446C229.567 64.1555 229.652 64.0177 229.701 63.8311C229.75 63.6415 229.74 63.4853 229.671 63.3626C229.606 63.2377 229.483 63.1516 229.303 63.1044C229.174 63.0707 229.059 63.0748 228.956 63.1166C228.854 63.1584 228.77 63.2281 228.705 63.3255L228.091 63.1646L228.605 61.2011L230.678 61.7439L230.531 62.3082ZM231.092 62.7395C231.153 62.5071 231.268 62.3427 231.437 62.2464C231.609 62.1509 231.802 62.1312 232.016 62.1873C232.23 62.2433 232.387 62.3547 232.487 62.5214C232.59 62.689 232.612 62.889 232.551 63.1214C232.489 63.3569 232.372 63.5224 232.2 63.6178C232.031 63.7141 231.84 63.7342 231.626 63.6782C231.412 63.6222 231.253 63.5104 231.15 63.3428C231.05 63.1761 231.03 62.975 231.092 62.7395ZM234.217 62.8224L231.574 65.5617L230.95 65.3983L233.589 62.6578L234.217 62.8224ZM231.91 62.5714C231.742 62.5274 231.627 62.6246 231.564 62.8632C231.501 63.1048 231.554 63.2476 231.722 63.2916C231.804 63.3133 231.876 63.301 231.937 63.2549C231.999 63.2058 232.046 63.12 232.078 62.9977C232.141 62.7591 232.085 62.617 231.91 62.5714ZM232.627 65.0971C232.688 64.8616 232.803 64.6973 232.971 64.604C233.144 64.5086 233.337 64.4888 233.551 64.5449C233.765 64.6009 233.92 64.7119 234.017 64.8779C234.118 65.0415 234.138 65.2411 234.076 65.4766C234.015 65.7121 233.899 65.878 233.73 65.9743C233.564 66.0714 233.374 66.0919 233.16 66.0358C232.943 65.979 232.785 65.8672 232.684 65.7005C232.584 65.5337 232.565 65.3326 232.627 65.0971ZM233.445 64.929C233.271 64.8834 233.152 64.9799 233.09 65.2184C233.027 65.46 233.082 65.6036 233.257 65.6493C233.428 65.6941 233.545 65.5957 233.608 65.3541C233.671 65.1156 233.616 64.9739 233.445 64.929Z" fill="#139EEC"/>
<path d="M273.244 76.9912L271.758 76.6021L271.552 77.3865C271.637 77.3238 271.746 77.2836 271.878 77.2659C272.011 77.2451 272.145 77.2524 272.279 77.2876C272.524 77.3516 272.71 77.4576 272.838 77.6055C272.966 77.7534 273.043 77.9206 273.069 78.1072C273.097 78.2908 273.085 78.4774 273.036 78.667C272.944 79.0187 272.769 79.2752 272.511 79.4364C272.256 79.5985 271.943 79.6311 271.573 79.5342C271.225 79.4429 270.969 79.2829 270.807 79.0541C270.645 78.8254 270.586 78.5667 270.633 78.2781L271.257 78.4414C271.252 78.571 271.288 78.6849 271.363 78.7831C271.442 78.8821 271.556 78.9512 271.706 78.9905C271.886 79.0377 272.037 79.0167 272.159 78.9276C272.28 78.8385 272.365 78.7006 272.414 78.5141C272.464 78.3244 272.454 78.1683 272.385 78.0456C272.319 77.9207 272.196 77.8346 272.016 77.7873C271.888 77.7537 271.772 77.7578 271.67 77.7996C271.567 77.8414 271.484 77.911 271.419 78.0085L270.804 77.8475L271.318 75.8841L273.392 76.4269L273.244 76.9912ZM273.805 77.4224C273.866 77.19 273.981 77.0256 274.15 76.9294C274.322 76.8339 274.515 76.8142 274.729 76.8702C274.943 76.9263 275.101 77.0376 275.201 77.2044C275.304 77.3719 275.325 77.5719 275.264 77.8043C275.203 78.0398 275.086 78.2053 274.914 78.3008C274.745 78.3971 274.553 78.4172 274.339 78.3612C274.125 78.3051 273.966 78.1933 273.863 78.0258C273.763 77.859 273.744 77.6579 273.805 77.4224ZM276.931 77.5053L274.287 80.2446L273.663 80.0813L276.302 77.3408L276.931 77.5053ZM274.624 77.2544C274.456 77.2103 274.34 77.3076 274.278 77.5461C274.215 77.7877 274.267 77.9306 274.435 77.9746C274.518 77.9962 274.59 77.984 274.651 77.9379C274.713 77.8887 274.76 77.803 274.792 77.6806C274.854 77.4421 274.798 77.3 274.624 77.2544ZM275.34 79.7801C275.402 79.5446 275.517 79.3802 275.685 79.287C275.857 79.1915 276.05 79.1718 276.264 79.2278C276.478 79.2839 276.634 79.3949 276.731 79.5608C276.832 79.7245 276.851 79.9241 276.79 80.1596C276.728 80.3951 276.613 80.5609 276.444 80.6572C276.278 80.7543 276.088 80.7748 275.874 80.7188C275.657 80.6619 275.498 80.5502 275.398 80.3834C275.298 80.2167 275.278 80.0156 275.34 79.7801ZM276.159 79.612C275.984 79.5664 275.866 79.6628 275.803 79.9014C275.74 80.143 275.796 80.2866 275.97 80.3322C276.141 80.3771 276.259 80.2787 276.322 80.0371C276.384 79.7985 276.33 79.6568 276.159 79.612Z" fill="#139EEC"/>
<rect x="28.9393" y="82.1333" width="133.558" height="104.791" rx="9.75999" transform="rotate(6.23012 28.9393 82.1333)" fill="#0E1330" stroke="#282D45" stroke-width="1.02737"/>
<path d="M41.0117 104.936L39.8218 104.806L42.8977 98.5234L44.0698 98.6513L45.7178 105.449L44.51 105.317L44.1472 103.748L41.7047 103.481L41.0117 104.936ZM43.1232 100.522L42.1501 102.552L43.9216 102.745L43.4006 100.552C43.3654 100.376 43.3243 100.172 43.3211 100.036C43.2805 100.159 43.2054 100.35 43.1232 100.522ZM46.1532 107.57L46.8593 101.102L47.8703 101.212L47.8686 101.891C48.1927 101.41 48.8065 101.178 49.4775 101.252C50.7211 101.387 51.4456 102.381 51.2942 103.768C51.1438 105.145 50.2829 106.065 48.9677 105.922C48.3056 105.85 47.7613 105.528 47.5328 105.05L47.2447 107.689L46.1532 107.57ZM47.7185 103.432C47.6316 104.228 48.0641 104.827 48.8157 104.909C49.5851 104.993 50.1019 104.488 50.1879 103.701C50.2738 102.914 49.8791 102.3 49.1096 102.216C48.3581 102.134 47.8055 102.635 47.7185 103.432ZM51.6925 108.175L52.3987 101.706L53.4097 101.817L53.408 102.495C53.7321 102.015 54.3459 101.783 55.0169 101.856C56.2605 101.992 56.9849 102.985 56.8336 104.372C56.6831 105.75 55.8222 106.67 54.507 106.526C53.845 106.454 53.3007 106.132 53.0722 105.655L52.7841 108.294L51.6925 108.175ZM53.2579 104.036C53.171 104.832 53.6035 105.432 54.355 105.514C55.1244 105.598 55.6413 105.093 55.7272 104.306C55.8132 103.518 55.4184 102.905 54.649 102.821C53.8975 102.739 53.3448 103.24 53.2579 104.036ZM58.556 106.851L57.4735 106.733L58.2001 100.076L59.2827 100.194L58.556 106.851ZM60.8259 101.73C60.4502 101.689 60.1872 101.361 60.2272 100.995C60.2672 100.628 60.5937 100.374 60.9695 100.415C61.3274 100.454 61.5914 100.772 61.5513 101.139C61.5113 101.506 61.1838 101.769 60.8259 101.73ZM59.701 106.976L60.1835 102.556L61.275 102.675L60.7925 107.095L59.701 106.976ZM61.903 104.971C62.0524 103.602 63.0615 102.734 64.3678 102.877C65.5756 103.009 66.3255 103.77 66.3256 104.847L65.234 104.728C65.1635 104.213 64.825 103.914 64.3061 103.857C63.6082 103.781 63.0854 104.258 62.9945 105.09C62.9037 105.922 63.2765 106.488 63.9743 106.564C64.5201 106.624 64.9341 106.397 65.1032 105.927L66.2036 106.047C65.9571 107.061 65.0211 107.674 63.8669 107.548C62.5249 107.402 61.7497 106.376 61.903 104.971ZM68.1418 108.015C67.2023 107.912 66.6893 107.304 66.7801 106.472C66.869 105.658 67.5152 105.212 68.5708 105.246L69.9056 105.292L69.9164 105.194C69.9818 104.594 69.6503 104.314 69.0956 104.253C68.4514 104.183 68.0643 104.412 68.0135 104.877L67.083 104.776C67.1875 103.819 68.0432 103.278 69.2421 103.409C70.432 103.539 71.0953 104.263 70.9615 105.489L70.6685 108.173L69.7112 108.069L69.702 107.407C69.4643 107.842 68.8307 108.09 68.1418 108.015ZM68.5895 107.231C69.2605 107.304 69.7339 106.948 69.8081 106.268L69.8335 106.036L68.9042 106.007C68.2174 105.995 67.9335 106.191 67.8944 106.548C67.8505 106.951 68.0974 107.177 68.5895 107.231ZM73.1827 108.448L72.0912 108.328L72.4741 104.821L71.6241 104.728L71.7237 103.816L72.5737 103.909L72.7241 102.531L73.8156 102.65L73.6652 104.028L74.5241 104.122L74.4245 105.034L73.5656 104.94L73.1827 108.448ZM75.8451 103.369C75.4693 103.328 75.2063 103.001 75.2464 102.634C75.2864 102.267 75.6129 102.013 75.9887 102.054C76.3466 102.093 76.6105 102.412 76.5705 102.779C76.5305 103.146 76.203 103.409 75.8451 103.369ZM74.7202 108.615L75.2027 104.196L76.2942 104.315L75.8117 108.735L74.7202 108.615ZM76.9222 106.61C77.0726 105.233 78.1692 104.393 79.5381 104.542C80.907 104.692 81.7965 105.748 81.6461 107.126C81.4957 108.504 80.3991 109.344 79.0302 109.195C77.6613 109.045 76.7718 107.988 76.9222 106.61ZM78.0137 106.73C77.9258 107.535 78.3851 108.137 79.1367 108.219C79.8882 108.301 80.4667 107.812 80.5546 107.007C80.6425 106.202 80.1832 105.599 79.4316 105.517C78.6801 105.435 78.1016 105.924 78.0137 106.73ZM83.3606 109.559L82.2691 109.439L82.7516 105.02L83.7626 105.13L83.7895 105.712C84.1157 105.295 84.6808 105.094 85.2803 105.16C86.3897 105.281 86.8871 106.032 86.7621 107.178L86.4652 109.897L85.3736 109.778L85.6422 107.318C85.7233 106.575 85.3955 106.177 84.8319 106.116C84.1609 106.043 83.6985 106.463 83.6204 107.179L83.3606 109.559Z" fill="#8F9BB7"/>
<path d="M162.213 46.8051L158.204 46.0167L159.473 39.5613L163.482 40.3498L163.277 41.3918L160.399 40.8257L160.072 42.4859L162.651 42.993L162.454 43.9908L159.876 43.4838L159.539 45.1969L162.418 45.7631L162.213 46.8051ZM166.428 45.3226L165.006 45.043L164.569 47.2684L163.438 47.0461L164.708 40.5908L167.26 41.0926C168.558 41.3479 169.23 42.3606 168.982 43.6235C168.737 44.8686 167.717 45.5762 166.428 45.3226ZM166.841 42.0559L165.64 41.8198L165.204 44.0363L166.388 44.269C167.165 44.4218 167.661 44.0884 167.8 43.3819C167.939 42.6755 167.592 42.2035 166.841 42.0559ZM171.786 48.7978C169.905 48.4279 168.944 46.8813 169.341 44.859C169.736 42.8544 171.261 41.7693 173.15 42.1409C174.678 42.4414 175.642 43.5573 175.59 44.9872L174.398 44.7527C174.325 43.9587 173.767 43.3904 172.91 43.2219C171.718 42.9875 170.797 43.7053 170.526 45.0829C170.257 46.4517 170.843 47.4841 172.026 47.7168C172.901 47.8887 173.662 47.5615 174.015 46.8879L175.189 47.1189C174.675 48.4302 173.314 49.0982 171.786 48.7978ZM179.29 50.1633L178.159 49.941L179.429 43.4856L181.893 43.9702C183.359 44.2584 184.069 45.1687 183.819 46.4403C183.649 47.3057 183.121 47.844 182.301 48.0038L183.008 50.8944L181.771 50.6513L181.15 48.0251L179.764 47.7525L179.29 50.1633ZM180.361 44.7147L179.96 46.7546L181.294 47.0168C182.009 47.1575 182.507 46.8611 182.636 46.2076C182.763 45.563 182.41 45.1175 181.695 44.9769L180.361 44.7147ZM185.02 51.4093C184.092 51.227 183.633 50.5771 183.795 49.7559C183.953 48.9523 184.634 48.5635 185.683 48.6872L187.009 48.8471L187.028 48.75C187.145 48.1583 186.838 47.8504 186.291 47.7427C185.655 47.6177 185.25 47.8131 185.159 48.2724L184.241 48.0917C184.427 47.1468 185.326 46.6815 186.509 46.9142C187.683 47.1452 188.282 47.9234 188.045 49.1332L187.524 51.7825L186.579 51.5967L186.626 50.9364C186.352 51.3503 185.7 51.543 185.02 51.4093ZM185.533 50.6663C186.195 50.7966 186.697 50.4825 186.829 49.8114L186.874 49.5818L185.951 49.4736C185.267 49.4034 184.968 49.5738 184.898 49.927C184.82 50.3244 185.047 50.5708 185.533 50.6663ZM190.005 52.2705L188.928 52.0586L189.609 48.5969L188.77 48.432L188.947 47.5312L189.786 47.6962L190.053 46.3362L191.131 46.5481L190.863 47.9081L191.711 48.0748L191.534 48.9755L190.686 48.8088L190.005 52.2705ZM193.091 47.4382C192.72 47.3652 192.486 47.0165 192.557 46.6544C192.629 46.2924 192.976 46.0671 193.346 46.14C193.7 46.2095 193.936 46.5494 193.864 46.9114C193.793 47.2735 193.444 47.5076 193.091 47.4382ZM191.523 52.5689L192.381 48.2065L193.458 48.4183L192.6 52.7808L191.523 52.5689ZM194.791 53.2115L193.713 52.9997L194.571 48.6372L195.569 48.8335L195.546 49.416C195.907 49.0283 196.487 48.8764 197.079 48.9928C198.174 49.2081 198.605 49.9992 198.383 51.1296L197.855 53.8141L196.777 53.6023L197.255 51.1738C197.399 50.4408 197.107 50.0164 196.55 49.907C195.888 49.7767 195.391 50.1561 195.252 50.8625L194.791 53.2115ZM199.114 51.6953C199.364 50.4237 200.382 49.6332 201.627 49.878C202.281 50.0065 202.739 50.381 202.903 50.8994L203.083 50.3111L204.081 50.5073L203.266 54.649C202.98 56.1061 201.927 56.8437 200.514 56.5659C199.26 56.3193 198.544 55.4355 198.641 54.2438L199.718 54.4557C199.677 55.0348 200.044 55.4554 200.706 55.5857C201.448 55.7315 202.017 55.3573 202.16 54.6331L202.302 53.909C201.948 54.2614 201.359 54.4116 200.732 54.2883C199.496 54.0451 198.866 52.9581 199.114 51.6953ZM200.206 51.8824C200.061 52.6154 200.422 53.2549 201.128 53.3939C201.87 53.5397 202.432 53.109 202.581 52.3496C202.727 51.6078 202.377 51.007 201.627 50.8594C200.911 50.7187 200.346 51.1671 200.206 51.8824Z" fill="#8F9BB7"/>
<rect x="29.7305" y="163.611" width="7.93321" height="13.3558" rx="2.05473" transform="rotate(6.23012 29.7305 163.611)" fill="#2196F3"/>
<rect x="41.1953" y="148.074" width="7.93321" height="30.0564" rx="2.05473" transform="rotate(6.23012 41.1953 148.074)" fill="#E23122"/>
<path d="M63.0975 144.499C63.2339 143.383 64.2422 142.583 65.36 142.705L69.1608 143.12C70.2992 143.245 71.1164 144.276 70.9774 145.412L66.8634 179.062C66.727 180.178 65.7187 180.977 64.6009 180.855L60.8001 180.44C59.6617 180.316 58.8445 179.285 58.9835 178.148L63.0975 144.499Z" fill="#2196F3"/>
<path d="M74.4808 131.857C74.6185 130.742 75.6262 129.944 76.7431 130.066L80.5438 130.481C81.6832 130.605 82.5005 131.638 82.3601 132.775L76.5151 180.129C76.3775 181.244 75.3697 182.042 74.2529 181.92L70.4521 181.505C69.3128 181.38 68.4954 180.348 68.6358 179.21L74.4808 131.857Z" fill="#E23122"/>
<path d="M94.3204 144.427C94.4463 143.301 95.4594 142.49 96.5853 142.612L100.386 143.027C101.517 143.151 102.332 144.169 102.205 145.298L98.0496 182.443C97.9236 183.569 96.9105 184.38 95.7846 184.257L91.9834 183.843C90.8532 183.719 90.038 182.701 90.1644 181.571L94.3204 144.427Z" fill="#2196F3"/>
<rect x="102.848" y="154.805" width="7.93321" height="30.0564" rx="2.05473" transform="rotate(6.23012 102.848 154.805)" fill="#E23122"/>
<rect x="121.84" y="173.667" width="7.93321" height="13.3558" rx="2.05473" transform="rotate(6.23012 121.84 173.667)" fill="#2196F3"/>
<rect x="133.305" y="158.13" width="7.93321" height="30.0564" rx="2.05473" transform="rotate(6.23012 133.305 158.13)" fill="#E23122"/>
</g>
<defs>
<filter id="filter0_ddddd_481_1662" x="155.754" y="58.2682" width="169.766" height="251.248" filterUnits="userSpaceOnUse" color-interpolation-filters="sRGB">
<feFlood flood-opacity="0" result="BackgroundImageFix"/>
<feColorMatrix in="SourceAlpha" type="matrix" values="0 0 0 0 0 0 0 0 0 0 0 0 0 0 0 0 0 0 127 0" result="hardAlpha"/>
<feOffset/>
<feColorMatrix type="matrix" values="0 0 0 0 0 0 0 0 0 0 0 0 0 0 0 0 0 0 0.1 0"/>
<feBlend mode="normal" in2="BackgroundImageFix" result="effect1_dropShadow_481_1662"/>
<feColorMatrix in="SourceAlpha" type="matrix" values="0 0 0 0 0 0 0 0 0 0 0 0 0 0 0 0 0 0 127 0" result="hardAlpha"/>
<feOffset dy="7.59162"/>
<feGaussianBlur stdDeviation="8.26147"/>
<feColorMatrix type="matrix" values="0 0 0 0 0 0 0 0 0 0 0 0 0 0 0 0 0 0 0.1 0"/>
<feBlend mode="normal" in2="effect1_dropShadow_481_1662" result="effect2_dropShadow_481_1662"/>
<feColorMatrix in="SourceAlpha" type="matrix" values="0 0 0 0 0 0 0 0 0 0 0 0 0 0 0 0 0 0 127 0" result="hardAlpha"/>
<feOffset dy="29.9199"/>
<feGaussianBlur stdDeviation="14.96"/>
<feColorMatrix type="matrix" values="0 0 0 0 0 0 0 0 0 0 0 0 0 0 0 0 0 0 0.09 0"/>
<feBlend mode="normal" in2="effect2_dropShadow_481_1662" result="effect3_dropShadow_481_1662"/>
<feColorMatrix in="SourceAlpha" type="matrix" values="0 0 0 0 0 0 0 0 0 0 0 0 0 0 0 0 0 0 127 0" result="hardAlpha"/>
<feOffset dy="67.878"/>
<feGaussianBlur stdDeviation="20.3187"/>
<feColorMatrix type="matrix" values="0 0 0 0 0 0 0 0 0 0 0 0 0 0 0 0 0 0 0.05 0"/>
<feBlend mode="normal" in2="effect3_dropShadow_481_1662" result="effect4_dropShadow_481_1662"/>
<feColorMatrix in="SourceAlpha" type="matrix" values="0 0 0 0 0 0 0 0 0 0 0 0 0 0 0 0 0 0 127 0" result="hardAlpha"/>
<feOffset dy="120.126"/>
<feGaussianBlur stdDeviation="24.1146"/>
<feColorMatrix type="matrix" values="0 0 0 0 0 0 0 0 0 0 0 0 0 0 0 0 0 0 0.01 0"/>
<feBlend mode="normal" in2="effect4_dropShadow_481_1662" result="effect5_dropShadow_481_1662"/>
<feBlend mode="normal" in="SourceGraphic" in2="effect5_dropShadow_481_1662" result="shape"/>
</filter>
<filter id="filter1_d_481_1662" x="225.613" y="91.2914" width="28.4231" height="28.4229" filterUnits="userSpaceOnUse" color-interpolation-filters="sRGB">
<feFlood flood-opacity="0" result="BackgroundImageFix"/>
<feColorMatrix in="SourceAlpha" type="matrix" values="0 0 0 0 0 0 0 0 0 0 0 0 0 0 0 0 0 0 127 0" result="hardAlpha"/>
<feOffset dy="1.78626"/>
<feGaussianBlur stdDeviation="0.893131"/>
<feComposite in2="hardAlpha" operator="out"/>
<feColorMatrix type="matrix" values="0 0 0 0 0 0 0 0 0 0 0 0 0 0 0 0 0 0 0.25 0"/>
<feBlend mode="normal" in2="BackgroundImageFix" result="effect1_dropShadow_481_1662"/>
<feBlend mode="normal" in="SourceGraphic" in2="effect1_dropShadow_481_1662" result="shape"/>
</filter>
<clipPath id="clip0_481_1662">
<rect width="342" height="230" rx="4" fill="white"/>
</clipPath>
</defs>
</svg>
