<svg width="342" height="230" viewBox="0 0 342 230" fill="none" xmlns="http://www.w3.org/2000/svg">
<g clip-path="url(#clip0_525_2574)">
<rect width="342" height="230" rx="4" fill="#F3F3F3"/>
<path d="M152.58 35.9459C153.577 30.5891 158.767 27.0864 164.108 28.1657L321.663 60.0054C326.89 61.0616 330.301 66.1166 329.325 71.3584L312.587 161.264C311.59 166.621 306.399 170.123 301.058 169.044L143.503 137.204C138.277 136.148 134.866 131.093 135.842 125.851L152.58 35.9459Z" fill="white" stroke="#DEDEDE" stroke-width="1.02737"/>
<g filter="url(#filter0_ddddd_525_2574)">
<path d="M265.821 110.524C262.073 124.839 247.43 133.406 233.115 129.659C218.799 125.911 210.232 111.268 213.98 96.9527C217.728 82.6372 232.371 74.0702 246.686 77.8178C261.002 81.5654 269.569 96.2084 265.821 110.524ZM223.581 99.4661C221.221 108.479 226.615 117.698 235.628 120.058C244.641 122.417 253.861 117.024 256.22 108.011C258.58 98.9975 253.186 89.7782 244.173 87.4187C235.16 85.0592 225.94 90.453 223.581 99.4661Z" fill="#00B452"/>
<path d="M265.821 110.524C267.391 104.527 266.833 98.1714 264.242 92.5399C261.651 86.9083 257.188 82.3493 251.613 79.6397C246.037 76.93 239.695 76.2374 233.666 77.6798C227.637 79.1222 222.295 82.6103 218.55 87.5499C214.805 92.4895 212.888 98.5749 213.126 104.769C213.365 110.964 215.744 116.884 219.858 121.521C223.972 126.157 229.566 129.225 235.688 130.199C241.81 131.174 248.08 129.995 253.431 126.865L248.419 118.299C245.051 120.27 241.103 121.012 237.248 120.398C233.394 119.785 229.872 117.853 227.282 114.934C224.691 112.015 223.194 108.287 223.043 104.387C222.893 100.487 224.1 96.656 226.458 93.546C228.816 90.4361 232.18 88.2399 235.975 87.3318C239.771 86.4237 243.764 86.8598 247.274 88.5658C250.785 90.2718 253.595 93.1421 255.226 96.6878C256.857 100.233 257.208 104.235 256.22 108.011L265.821 110.524Z" fill="#41E88D"/>
<path d="M265.821 110.524C267.058 105.798 266.98 100.825 265.595 96.1405C264.209 91.4563 261.57 87.2398 257.962 83.9471C254.354 80.6543 249.914 78.4105 245.123 77.4583C240.332 76.5062 235.372 76.8818 230.779 78.5447C226.186 80.2075 222.135 83.0943 219.064 86.8929C215.993 90.6915 214.019 95.2573 213.355 100.097C212.691 104.936 213.363 109.865 215.298 114.35C217.232 118.835 220.356 122.707 224.332 125.545L230.098 117.468C227.595 115.681 225.628 113.244 224.41 110.42C223.192 107.596 222.77 104.492 223.187 101.446C223.605 98.3987 224.848 95.524 226.782 93.1324C228.715 90.7408 231.266 88.9233 234.158 87.8763C237.05 86.8294 240.172 86.5929 243.189 87.1924C246.205 87.7919 249 89.2046 251.272 91.2777C253.544 93.3508 255.206 96.0055 256.078 98.9547C256.95 101.904 256.999 105.035 256.22 108.011L265.821 110.524Z" fill="#FFF500"/>
<path d="M265.821 110.524C266.816 106.722 266.963 102.748 266.251 98.8832C265.539 95.0184 263.985 91.3575 261.7 88.1601C259.416 84.9627 256.455 82.3071 253.03 80.3814C249.604 78.4558 245.796 77.3073 241.877 77.0174C237.958 76.7275 234.023 77.3032 230.351 78.7038C226.679 80.1044 223.361 82.2955 220.63 85.1219C217.9 87.9483 215.824 91.3407 214.551 95.0587C213.278 98.7767 212.839 102.729 213.264 106.636L223.13 105.563C222.862 103.103 223.139 100.614 223.941 98.2736C224.742 95.9328 226.049 93.7969 227.768 92.0174C229.487 90.2379 231.576 88.8583 233.888 87.9765C236.2 87.0947 238.678 86.7322 241.145 86.9147C243.613 87.0973 246.01 87.8204 248.167 89.0328C250.323 90.2451 252.187 91.9171 253.626 93.9302C255.064 95.9433 256.042 98.2482 256.491 100.682C256.939 103.115 256.847 105.617 256.22 108.011L265.821 110.524Z" fill="#FEA600"/>
<path d="M265.821 110.524C267.249 105.07 266.92 99.3046 264.881 94.0485C262.842 88.7923 259.197 84.3132 254.465 81.2486C249.733 78.1841 244.155 76.6902 238.525 76.9797C232.894 77.2692 227.499 79.3273 223.106 82.861L229.327 90.5939C232.092 88.3691 235.489 87.0733 239.034 86.891C242.579 86.7088 246.091 87.6493 249.07 89.5788C252.05 91.5082 254.345 94.3283 255.628 97.6376C256.912 100.947 257.119 104.577 256.22 108.011L265.821 110.524Z" fill="#F16403"/>
<path d="M265.821 110.524C267.394 104.517 266.831 98.15 264.229 92.5117C261.627 86.8735 257.148 82.3141 251.557 79.6127L247.239 88.5488C250.76 90.2495 253.58 93.1202 255.218 96.67C256.856 100.22 257.21 104.228 256.22 108.011L265.821 110.524Z" fill="#E23122"/>
<path d="M265.821 110.524C267.34 104.72 266.868 98.5731 264.479 93.0693L255.375 97.0211C256.879 100.486 257.177 104.356 256.22 108.011L265.821 110.524Z" fill="#008A3F"/>
<path d="M277.291 103.524L275.9 102.15L275.405 104.041L277.291 103.524ZM266.926 100.986L267.248 101.071L267.334 100.743L267.012 100.658L266.926 100.986ZM267.894 101.239L268.539 101.408L268.624 101.081L267.979 100.912L267.894 101.239ZM269.184 101.577L269.829 101.746L269.915 101.418L269.27 101.25L269.184 101.577ZM270.474 101.915L271.119 102.084L271.205 101.756L270.56 101.587L270.474 101.915ZM271.764 102.253L272.409 102.422L272.495 102.094L271.85 101.925L271.764 102.253ZM273.054 102.59L273.7 102.759L273.785 102.432L273.14 102.263L273.054 102.59ZM274.345 102.928L274.99 103.097L275.076 102.769L274.431 102.601L274.345 102.928ZM275.635 103.266L276.28 103.435L276.366 103.107L275.721 102.938L275.635 103.266Z" fill="#495057"/>
<path d="M272.064 122.814L270.673 121.44L270.178 123.331L272.064 122.814ZM261.699 120.276L262.022 120.361L262.108 120.033L261.785 119.948L261.699 120.276ZM262.667 120.529L263.312 120.698L263.398 120.371L262.753 120.202L262.667 120.529ZM263.957 120.867L264.602 121.036L264.688 120.708L264.043 120.54L263.957 120.867ZM265.247 121.205L265.893 121.374L265.978 121.046L265.333 120.877L265.247 121.205ZM266.538 121.543L267.183 121.712L267.269 121.384L266.623 121.215L266.538 121.543ZM267.828 121.881L268.473 122.049L268.559 121.722L267.914 121.553L267.828 121.881ZM269.118 122.218L269.763 122.387L269.849 122.06L269.204 121.891L269.118 122.218ZM270.408 122.556L271.054 122.725L271.139 122.397L270.494 122.228L270.408 122.556Z" fill="#495057"/>
<path d="M234.498 141.161L235.832 139.731L233.926 139.291L234.498 141.161ZM236.733 130.727L236.658 131.051L236.988 131.128L237.063 130.803L236.733 130.727ZM236.508 131.701L236.358 132.351L236.688 132.427L236.838 131.777L236.508 131.701ZM236.208 133.001L236.058 133.651L236.388 133.727L236.538 133.077L236.208 133.001ZM235.908 134.3L235.758 134.95L236.088 135.026L236.238 134.376L235.908 134.3ZM235.608 135.6L235.458 136.25L235.788 136.326L235.938 135.676L235.608 135.6ZM235.308 136.899L235.158 137.549L235.488 137.625L235.638 136.976L235.308 136.899ZM235.008 138.199L234.858 138.849L235.188 138.925L235.338 138.275L235.008 138.199ZM234.708 139.498L234.558 140.148L234.888 140.224L235.038 139.575L234.708 139.498Z" fill="#495057"/>
<path d="M205.747 120.002L207.668 120.369L207.025 118.522L205.747 120.002ZM215.769 116.335L215.454 116.445L215.565 116.765L215.88 116.655L215.769 116.335ZM214.824 116.664L214.194 116.883L214.305 117.203L214.935 116.984L214.824 116.664ZM213.564 117.102L212.934 117.322L213.046 117.641L213.676 117.422L213.564 117.102ZM212.305 117.541L211.675 117.76L211.786 118.08L212.416 117.861L212.305 117.541ZM211.045 117.979L210.415 118.198L210.527 118.518L211.156 118.299L211.045 117.979ZM209.785 118.417L209.156 118.637L209.267 118.957L209.897 118.737L209.785 118.417ZM208.526 118.856L207.896 119.075L208.007 119.395L208.637 119.176L208.526 118.856ZM207.266 119.294L206.636 119.513L206.748 119.833L207.377 119.614L207.266 119.294Z" fill="#495057"/>
<path d="M203.983 91.0976L205.334 92.512L205.883 90.6353L203.983 91.0976ZM214.27 93.9341L213.95 93.8404L213.855 94.1655L214.175 94.2592L214.27 93.9341ZM213.31 93.653L212.67 93.4655L212.575 93.7906L213.215 93.978L213.31 93.653ZM212.03 93.2781L211.39 93.0907L211.295 93.4157L211.935 93.6032L212.03 93.2781ZM210.75 92.9032L210.11 92.7158L210.015 93.0408L210.655 93.2283L210.75 92.9032ZM209.47 92.5283L208.83 92.3409L208.735 92.666L209.375 92.8534L209.47 92.5283ZM208.191 92.1534L207.551 91.966L207.455 92.2911L208.095 92.4785L208.191 92.1534ZM206.911 91.7786L206.271 91.5911L206.175 91.9162L206.815 92.1036L206.911 91.7786ZM205.631 91.4037L204.991 91.2162L204.895 91.5413L205.535 91.7287L205.631 91.4037Z" fill="#495057"/>
<path d="M229.791 67.1992L229.704 69.1529L231.44 68.2512L229.791 67.1992ZM234.861 76.5889L234.707 76.293L234.407 76.4492L234.561 76.7451L234.861 76.5889ZM234.4 75.7013L234.093 75.1096L233.792 75.2657L234.099 75.8575L234.4 75.7013ZM233.785 74.5178L233.478 73.9261L233.177 74.0823L233.484 74.674L233.785 74.5178ZM233.17 73.3344L232.863 72.7426L232.562 72.8988L232.869 73.4905L233.17 73.3344ZM232.555 72.1509L232.248 71.5591L231.947 71.7153L232.255 72.3071L232.555 72.1509ZM231.94 70.9674L231.633 70.3757L231.332 70.5319L231.64 71.1236L231.94 70.9674ZM231.325 69.7839L231.018 69.1922L230.717 69.3484L231.025 69.9401L231.325 69.7839ZM230.71 68.6005L230.403 68.0087L230.102 68.1649L230.41 68.7566L230.71 68.6005Z" fill="#495057"/>
<path d="M269.79 80.2022L267.841 80.0423L268.677 81.8102L269.79 80.2022ZM260.217 84.9168L260.518 84.7742L260.374 84.468L260.072 84.6106L260.217 84.9168ZM261.121 84.4891L261.724 84.204L261.579 83.8978L260.976 84.1829L261.121 84.4891ZM262.327 83.919L262.93 83.6339L262.785 83.3277L262.182 83.6127L262.327 83.919ZM263.533 83.3488L264.135 83.0637L263.991 82.7575L263.388 83.0426L263.533 83.3488ZM264.738 82.7786L265.341 82.4935L265.196 82.1873L264.593 82.4724L264.738 82.7786ZM265.944 82.2084L266.547 81.9233L266.402 81.6171L265.799 81.9022L265.944 82.2084ZM267.15 81.6382L267.753 81.3531L267.608 81.0469L267.005 81.332L267.15 81.6382ZM268.355 81.068L268.958 80.7829L268.813 80.4767L268.211 80.7618L268.355 81.068Z" fill="#495057"/>
</g>
<g filter="url(#filter1_d_525_2574)">
<circle cx="239.824" cy="103.717" r="12.4221" transform="rotate(14.67 239.824 103.717)" fill="#18277E"/>
</g>
<path d="M261.994 103.883L260.072 103.38L259.514 104.216L258.497 103.95L261.497 99.5729L262.624 99.8679L263.094 105.154L262.071 104.886L261.994 103.883ZM261.934 103.04L261.764 100.839L260.537 102.675L261.934 103.04Z" fill="white"/>
<path d="M237.084 103.144C237.208 102.669 237.425 102.273 237.735 101.955C238.05 101.634 238.419 101.418 238.842 101.307C239.271 101.193 239.716 101.196 240.176 101.317C240.716 101.458 241.152 101.72 241.485 102.103C241.818 102.485 242.001 102.942 242.035 103.473L240.922 103.181C240.872 102.922 240.76 102.708 240.588 102.54C240.42 102.373 240.204 102.255 239.942 102.186C239.66 102.112 239.392 102.114 239.136 102.189C238.885 102.262 238.667 102.401 238.479 102.608C238.297 102.817 238.163 103.082 238.079 103.405C237.996 103.723 237.982 104.019 238.038 104.295C238.1 104.567 238.221 104.798 238.403 104.989C238.59 105.176 238.825 105.306 239.106 105.379C239.368 105.448 239.614 105.451 239.842 105.388C240.076 105.321 240.279 105.187 240.45 104.985L241.562 105.277C241.272 105.728 240.888 106.038 240.41 106.208C239.938 106.375 239.43 106.388 238.886 106.245C238.426 106.125 238.036 105.912 237.717 105.607C237.404 105.298 237.187 104.929 237.069 104.499C236.954 104.07 236.959 103.619 237.084 103.144Z" fill="#139EEC"/>
<path d="M258.656 117.504C258.915 117.625 259.103 117.82 259.22 118.087C259.337 118.354 259.358 118.63 259.284 118.916C259.216 119.174 259.092 119.385 258.911 119.55C258.736 119.711 258.514 119.815 258.245 119.863C257.977 119.911 257.679 119.892 257.352 119.806L255.271 119.262L256.534 114.437L258.525 114.958C258.852 115.044 259.119 115.17 259.327 115.338C259.538 115.506 259.68 115.701 259.75 115.921C259.825 116.143 259.831 116.373 259.768 116.613C259.695 116.894 259.557 117.109 259.356 117.258C259.159 117.409 258.926 117.49 258.656 117.504ZM256.981 116.681L257.866 116.912C258.096 116.973 258.287 116.969 258.438 116.9C258.59 116.826 258.691 116.693 258.742 116.499C258.793 116.306 258.77 116.14 258.673 116.001C258.576 115.863 258.413 115.763 258.182 115.703L257.297 115.471L256.981 116.681ZM257.42 118.982C257.655 119.044 257.851 119.036 258.009 118.959C258.172 118.883 258.28 118.744 258.333 118.542C258.387 118.334 258.36 118.155 258.252 118.003C258.145 117.847 257.974 117.739 257.739 117.677L256.785 117.427L256.445 118.727L257.42 118.982Z" fill="white"/>
<path d="M234.677 124.672C234.802 124.198 235.019 123.802 235.328 123.484C235.644 123.163 236.013 122.947 236.436 122.836C236.865 122.721 237.309 122.725 237.77 122.845C238.309 122.986 238.746 123.248 239.079 123.631C239.412 124.014 239.595 124.47 239.628 125.001L238.516 124.71C238.465 124.45 238.354 124.236 238.181 124.068C238.013 123.901 237.798 123.783 237.535 123.714C237.254 123.641 236.986 123.642 236.729 123.718C236.479 123.79 236.26 123.93 236.073 124.137C235.891 124.345 235.757 124.61 235.673 124.933C235.589 125.251 235.576 125.548 235.632 125.823C235.693 126.095 235.815 126.327 235.997 126.517C236.184 126.704 236.418 126.834 236.699 126.908C236.962 126.977 237.207 126.979 237.436 126.916C237.67 126.849 237.872 126.715 238.043 126.514L239.156 126.805C238.866 127.256 238.482 127.566 238.004 127.737C237.532 127.904 237.024 127.916 236.48 127.774C236.019 127.653 235.629 127.44 235.31 127.135C234.997 126.827 234.781 126.457 234.662 126.027C234.548 125.599 234.553 125.147 234.677 124.672Z" fill="white"/>
<path d="M221.416 112.63C221.923 112.763 222.342 112.979 222.672 113.277C223.008 113.576 223.231 113.937 223.341 114.36C223.458 114.78 223.453 115.232 223.326 115.715C223.2 116.199 222.983 116.596 222.676 116.904C222.374 117.209 222.004 117.41 221.565 117.507C221.131 117.605 220.66 117.588 220.153 117.455L218.467 117.013L219.73 112.189L221.416 112.63ZM220.334 116.623C220.841 116.756 221.269 116.72 221.618 116.516C221.966 116.312 222.207 115.959 222.338 115.457C222.47 114.954 222.434 114.527 222.231 114.173C222.029 113.815 221.675 113.57 221.168 113.437L220.484 113.258L219.65 116.444L220.334 116.623Z" fill="white"/>
<path d="M219.087 93.9273L218.77 95.1369L220.394 95.5622L220.193 96.3294L218.569 95.9042L218.234 97.1829L220.066 97.6624L219.86 98.4504L217.06 97.7176L218.325 92.886L221.125 93.6188L220.918 94.4068L219.087 93.9273Z" fill="white"/>
<path d="M240.08 80.125L239.875 80.906L237.864 80.3795L237.54 81.6167L239.081 82.0202L238.881 82.7875L237.339 82.384L236.805 84.4231L235.838 84.1697L237.101 79.3451L240.08 80.125Z" fill="white"/>
<path d="M257.455 87.6086C257.397 87.3769 257.286 87.1827 257.12 87.0261C256.954 86.8694 256.742 86.7573 256.484 86.6898C256.199 86.615 255.928 86.6132 255.673 86.6843C255.418 86.7554 255.197 86.8945 255.01 87.1015C254.823 87.3086 254.688 87.5688 254.606 87.8821C254.522 88.2047 254.51 88.5021 254.572 88.7743C254.638 89.0477 254.768 89.2784 254.96 89.4666C255.152 89.6547 255.397 89.788 255.697 89.8664C256.066 89.9629 256.393 89.9452 256.678 89.8131C256.965 89.6765 257.191 89.4427 257.357 89.1118L255.698 88.6775L255.892 87.938L258.504 88.6219L258.284 89.4652C258.131 89.7847 257.911 90.0596 257.625 90.2898C257.338 90.52 257.003 90.6786 256.621 90.7657C256.245 90.8493 255.849 90.8368 255.434 90.7283C254.969 90.6064 254.574 90.3924 254.251 90.0861C253.933 89.7764 253.715 89.4066 253.596 88.9766C253.482 88.5479 253.487 88.0962 253.611 87.6216C253.735 87.1469 253.952 86.7507 254.262 86.433C254.577 86.1118 254.949 85.8964 255.376 85.7868C255.81 85.6737 256.257 85.6775 256.718 85.7981C257.261 85.9405 257.699 86.1978 258.03 86.57C258.362 86.9376 258.541 87.3809 258.568 87.9L257.455 87.6086Z" fill="white"/>
<path d="M281.498 102.962L280.012 102.573L279.806 103.357C279.891 103.294 280 103.254 280.132 103.236C280.265 103.216 280.398 103.223 280.533 103.258C280.778 103.322 280.964 103.428 281.092 103.576C281.22 103.724 281.297 103.891 281.323 104.078C281.35 104.261 281.339 104.448 281.29 104.637C281.198 104.989 281.023 105.246 280.765 105.407C280.51 105.569 280.197 105.602 279.827 105.505C279.479 105.413 279.223 105.253 279.061 105.025C278.898 104.796 278.84 104.537 278.887 104.249L279.51 104.412C279.506 104.541 279.541 104.655 279.617 104.754C279.696 104.853 279.81 104.922 279.96 104.961C280.14 105.008 280.291 104.987 280.413 104.898C280.534 104.809 280.619 104.671 280.668 104.485C280.718 104.295 280.708 104.139 280.639 104.016C280.573 103.891 280.45 103.805 280.27 103.758C280.141 103.724 280.026 103.728 279.924 103.77C279.821 103.812 279.738 103.881 279.673 103.979L279.058 103.818L279.572 101.855L281.646 102.397L281.498 102.962ZM282.059 103.393C282.12 103.16 282.235 102.996 282.404 102.9C282.576 102.804 282.769 102.785 282.983 102.841C283.197 102.897 283.354 103.008 283.455 103.175C283.558 103.342 283.579 103.542 283.518 103.775C283.456 104.01 283.34 104.176 283.168 104.271C282.999 104.368 282.807 104.388 282.593 104.332C282.379 104.276 282.22 104.164 282.117 103.996C282.017 103.83 281.998 103.628 282.059 103.393ZM285.185 103.476L282.541 106.215L281.917 106.052L284.556 103.311L285.185 103.476ZM282.878 103.225C282.71 103.181 282.594 103.278 282.532 103.517C282.469 103.758 282.521 103.901 282.689 103.945C282.772 103.967 282.844 103.954 282.905 103.908C282.967 103.859 283.014 103.773 283.046 103.651C283.108 103.413 283.052 103.27 282.878 103.225ZM283.594 105.751C283.656 105.515 283.771 105.351 283.939 105.257C284.111 105.162 284.304 105.142 284.518 105.198C284.732 105.254 284.888 105.365 284.985 105.531C285.086 105.695 285.105 105.895 285.044 106.13C284.982 106.366 284.867 106.531 284.698 106.628C284.532 106.725 284.342 106.745 284.128 106.689C283.911 106.632 283.752 106.521 283.652 106.354C283.552 106.187 283.532 105.986 283.594 105.751ZM284.413 105.582C284.238 105.537 284.12 105.633 284.057 105.872C283.994 106.113 284.05 106.257 284.224 106.303C284.395 106.348 284.513 106.249 284.576 106.008C284.638 105.769 284.584 105.627 284.413 105.582Z" fill="#139EEC"/>
<path d="M274.1 121.722L274.255 121.131L275.36 121.42L274.485 124.764L273.824 124.591L274.545 121.839L274.1 121.722ZM275.569 123.215C275.707 122.686 275.91 122.296 276.178 122.046C276.45 121.797 276.807 121.73 277.25 121.846C277.694 121.962 277.971 122.195 278.082 122.544C278.196 122.895 278.184 123.334 278.046 123.863C277.907 124.395 277.701 124.788 277.429 125.04C277.16 125.293 276.804 125.362 276.36 125.246C275.917 125.129 275.639 124.895 275.525 124.542C275.415 124.189 275.429 123.747 275.569 123.215ZM277.413 123.698C277.472 123.471 277.506 123.278 277.516 123.117C277.529 122.953 277.504 122.811 277.441 122.69C277.381 122.57 277.266 122.487 277.094 122.443C276.923 122.398 276.78 122.413 276.666 122.487C276.555 122.563 276.463 122.674 276.392 122.822C276.324 122.968 276.261 123.154 276.202 123.38C276.141 123.613 276.103 123.812 276.089 123.978C276.076 124.142 276.101 124.284 276.164 124.405C276.228 124.523 276.345 124.604 276.517 124.649C276.688 124.694 276.83 124.681 276.944 124.609C277.058 124.534 277.149 124.423 277.218 124.274C277.287 124.122 277.352 123.93 277.413 123.698ZM278.672 123.165C278.733 122.932 278.848 122.768 279.017 122.671C279.189 122.576 279.382 122.556 279.596 122.612C279.81 122.668 279.967 122.78 280.068 122.946C280.171 123.114 280.192 123.314 280.131 123.546C280.069 123.782 279.953 123.947 279.781 124.043C279.612 124.139 279.42 124.159 279.206 124.103C278.992 124.047 278.833 123.935 278.73 123.768C278.63 123.601 278.611 123.4 278.672 123.165ZM281.798 123.247L279.154 125.987L278.53 125.823L281.169 123.083L281.798 123.247ZM279.491 122.996C279.323 122.952 279.207 123.05 279.145 123.288C279.082 123.53 279.134 123.673 279.302 123.717C279.385 123.738 279.457 123.726 279.518 123.68C279.58 123.631 279.627 123.545 279.659 123.423C279.721 123.184 279.665 123.042 279.491 122.996ZM280.207 125.522C280.269 125.287 280.384 125.122 280.552 125.029C280.724 124.934 280.917 124.914 281.131 124.97C281.345 125.026 281.501 125.137 281.598 125.303C281.699 125.467 281.718 125.666 281.657 125.902C281.595 126.137 281.48 126.303 281.311 126.399C281.145 126.496 280.955 126.517 280.741 126.461C280.524 126.404 280.365 126.292 280.265 126.126C280.165 125.959 280.145 125.758 280.207 125.522ZM281.026 125.354C280.851 125.308 280.733 125.405 280.67 125.643C280.607 125.885 280.663 126.029 280.837 126.074C281.008 126.119 281.126 126.021 281.189 125.779C281.251 125.541 281.197 125.399 281.026 125.354Z" fill="#139EEC"/>
<path d="M229.673 144.12C230.031 143.952 230.318 143.81 230.535 143.694C230.752 143.574 230.942 143.441 231.105 143.294C231.268 143.147 231.372 142.988 231.416 142.817C231.457 142.661 231.452 142.529 231.402 142.421C231.352 142.313 231.251 142.239 231.098 142.199C230.945 142.159 230.813 142.18 230.704 142.263C230.595 142.342 230.515 142.47 230.466 142.646L229.842 142.483C229.95 142.119 230.132 141.869 230.386 141.733C230.644 141.598 230.932 141.572 231.25 141.656C231.598 141.747 231.842 141.91 231.979 142.146C232.118 142.378 232.147 142.645 232.068 142.948C232.006 143.187 231.882 143.398 231.697 143.581C231.511 143.765 231.315 143.916 231.107 144.035C230.9 144.151 230.634 144.287 230.309 144.444L231.662 144.798L231.523 145.33L229.257 144.737L229.382 144.26L229.673 144.12ZM232.365 143.766C232.503 143.237 232.707 142.847 232.975 142.597C233.246 142.348 233.603 142.282 234.047 142.398C234.49 142.514 234.768 142.746 234.879 143.096C234.993 143.446 234.981 143.886 234.842 144.415C234.703 144.947 234.497 145.339 234.225 145.591C233.956 145.845 233.6 145.913 233.157 145.797C232.713 145.681 232.435 145.446 232.322 145.093C232.211 144.741 232.226 144.298 232.365 143.766ZM234.209 144.249C234.268 144.023 234.303 143.829 234.312 143.668C234.325 143.505 234.301 143.363 234.238 143.242C234.178 143.121 234.062 143.039 233.891 142.994C233.719 142.949 233.577 142.964 233.462 143.039C233.351 143.114 233.26 143.226 233.188 143.374C233.121 143.52 233.057 143.706 232.998 143.932C232.937 144.164 232.9 144.364 232.886 144.53C232.872 144.693 232.897 144.835 232.96 144.956C233.024 145.074 233.142 145.156 233.313 145.201C233.484 145.245 233.627 145.232 233.74 145.16C233.854 145.086 233.946 144.974 234.014 144.825C234.083 144.673 234.148 144.481 234.209 144.249ZM235.469 143.716C235.53 143.483 235.644 143.319 235.813 143.223C235.985 143.127 236.179 143.108 236.393 143.164C236.607 143.22 236.764 143.331 236.864 143.498C236.967 143.665 236.988 143.865 236.928 144.098C236.866 144.333 236.749 144.499 236.577 144.594C236.408 144.691 236.216 144.711 236.002 144.655C235.788 144.599 235.63 144.487 235.526 144.319C235.426 144.153 235.407 143.951 235.469 143.716ZM238.594 143.799L235.95 146.538L235.327 146.375L237.966 143.634L238.594 143.799ZM236.287 143.548C236.119 143.504 236.004 143.601 235.941 143.84C235.878 144.081 235.93 144.224 236.099 144.268C236.181 144.29 236.253 144.277 236.314 144.231C236.376 144.182 236.423 144.096 236.455 143.974C236.517 143.736 236.462 143.593 236.287 143.548ZM237.003 146.074C237.065 145.838 237.18 145.674 237.348 145.58C237.52 145.485 237.713 145.465 237.927 145.521C238.141 145.577 238.297 145.688 238.394 145.854C238.495 146.018 238.515 146.218 238.453 146.453C238.391 146.689 238.276 146.854 238.107 146.951C237.941 147.048 237.751 147.068 237.537 147.012C237.32 146.955 237.161 146.844 237.061 146.677C236.961 146.51 236.942 146.309 237.003 146.074ZM237.822 145.905C237.648 145.86 237.529 145.956 237.467 146.195C237.404 146.436 237.459 146.58 237.633 146.626C237.805 146.671 237.922 146.572 237.985 146.331C238.048 146.092 237.993 145.95 237.822 145.905Z" fill="#139EEC"/>
<path d="M196.826 118.649L196.981 118.057L198.087 118.347L197.212 121.691L196.551 121.518L197.271 118.766L196.826 118.649ZM200.824 119.656L199.338 119.267L199.132 120.052C199.217 119.989 199.326 119.949 199.458 119.931C199.591 119.91 199.725 119.918 199.859 119.953C200.104 120.017 200.29 120.123 200.418 120.271C200.546 120.419 200.623 120.586 200.65 120.773C200.677 120.956 200.665 121.143 200.616 121.332C200.524 121.684 200.349 121.941 200.091 122.102C199.836 122.264 199.523 122.296 199.153 122.2C198.805 122.108 198.549 121.948 198.387 121.719C198.225 121.491 198.167 121.232 198.213 120.943L198.837 121.107C198.832 121.236 198.868 121.35 198.943 121.448C199.022 121.547 199.136 121.617 199.286 121.656C199.466 121.703 199.617 121.682 199.739 121.593C199.86 121.504 199.945 121.366 199.994 121.179C200.044 120.99 200.034 120.834 199.965 120.711C199.899 120.586 199.776 120.5 199.596 120.453C199.468 120.419 199.352 120.423 199.25 120.465C199.147 120.507 199.064 120.576 198.999 120.674L198.384 120.513L198.898 118.549L200.972 119.092L200.824 119.656ZM201.385 120.088C201.446 119.855 201.561 119.691 201.73 119.595C201.902 119.499 202.095 119.48 202.309 119.536C202.523 119.592 202.681 119.703 202.781 119.87C202.884 120.037 202.905 120.237 202.844 120.47C202.783 120.705 202.666 120.871 202.494 120.966C202.325 121.062 202.133 121.083 201.919 121.026C201.705 120.97 201.546 120.859 201.443 120.691C201.343 120.524 201.324 120.323 201.385 120.088ZM204.511 120.171L201.867 122.91L201.243 122.747L203.882 120.006L204.511 120.171ZM202.204 119.92C202.036 119.876 201.92 119.973 201.858 120.211C201.795 120.453 201.847 120.596 202.015 120.64C202.098 120.662 202.17 120.649 202.231 120.603C202.293 120.554 202.34 120.468 202.372 120.346C202.434 120.107 202.378 119.965 202.204 119.92ZM202.92 122.445C202.982 122.21 203.097 122.046 203.265 121.952C203.437 121.857 203.63 121.837 203.844 121.893C204.058 121.949 204.214 122.06 204.311 122.226C204.412 122.39 204.431 122.589 204.37 122.825C204.308 123.06 204.193 123.226 204.024 123.323C203.858 123.42 203.668 123.44 203.454 123.384C203.237 123.327 203.078 123.215 202.978 123.049C202.878 122.882 202.859 122.681 202.92 122.445ZM203.739 122.277C203.564 122.232 203.446 122.328 203.384 122.567C203.32 122.808 203.376 122.952 203.55 122.998C203.721 123.042 203.839 122.944 203.902 122.702C203.964 122.464 203.91 122.322 203.739 122.277Z" fill="#139EEC"/>
<path d="M194.294 89.3419C194.652 89.1741 194.939 89.032 195.156 88.9156C195.373 88.796 195.564 88.6628 195.726 88.5158C195.889 88.3689 195.993 88.2098 196.037 88.0385C196.078 87.8825 196.074 87.7506 196.023 87.6427C195.973 87.5348 195.872 87.4608 195.719 87.4208C195.566 87.3807 195.434 87.4019 195.325 87.4843C195.216 87.5636 195.136 87.6915 195.087 87.8681L194.463 87.7048C194.571 87.341 194.753 87.0911 195.007 86.9551C195.265 86.8199 195.553 86.794 195.871 86.8773C196.219 86.9685 196.463 87.1319 196.6 87.3673C196.739 87.5996 196.769 87.8672 196.689 88.1699C196.627 88.4085 196.503 88.6195 196.318 88.803C196.132 88.9865 195.936 89.1377 195.728 89.2566C195.522 89.3724 195.256 89.5086 194.93 89.6653L196.284 90.0196L196.144 90.5517L193.878 89.9585L194.003 89.4813L194.294 89.3419ZM196.986 88.9878C197.125 88.4587 197.328 88.0691 197.596 87.8191C197.867 87.5698 198.224 87.5032 198.668 87.6193C199.111 87.7354 199.389 87.9681 199.5 88.3174C199.614 88.6676 199.602 89.1072 199.463 89.6363C199.324 90.1685 199.118 90.5607 198.846 90.8131C198.578 91.0662 198.221 91.1347 197.778 91.0186C197.334 90.9025 197.056 90.6679 196.943 90.3147C196.832 89.9622 196.847 89.52 196.986 88.9878ZM198.83 89.4706C198.889 89.2443 198.924 89.0507 198.933 88.8897C198.947 88.7265 198.922 88.5844 198.859 88.4633C198.799 88.343 198.683 88.2605 198.512 88.2156C198.34 88.1708 198.198 88.1857 198.083 88.2604C197.972 88.3358 197.881 88.4475 197.809 88.5955C197.742 88.7412 197.678 88.9272 197.619 89.1535C197.558 89.386 197.521 89.5853 197.507 89.7515C197.493 89.9147 197.518 90.0569 197.581 90.1779C197.645 90.296 197.763 90.3774 197.934 90.4222C198.105 90.4671 198.248 90.4537 198.361 90.3821C198.476 90.3075 198.567 90.1958 198.635 90.047C198.704 89.8952 198.769 89.703 198.83 89.4706ZM200.09 88.9376C200.151 88.7051 200.266 88.5408 200.435 88.4445C200.607 88.349 200.8 88.3293 201.014 88.3854C201.228 88.4414 201.385 88.5528 201.485 88.7195C201.588 88.8871 201.609 89.087 201.549 89.3195C201.487 89.555 201.37 89.7205 201.198 89.8159C201.029 89.9122 200.838 89.9323 200.623 89.8763C200.409 89.8203 200.251 89.7085 200.148 89.5409C200.047 89.3742 200.028 89.1731 200.09 88.9376ZM203.215 89.0205L200.572 91.7598L199.948 91.5964L202.587 88.8559L203.215 89.0205ZM200.908 88.7695C200.74 88.7255 200.625 88.8227 200.562 89.0613C200.499 89.3029 200.552 89.4457 200.72 89.4897C200.802 89.5114 200.874 89.4991 200.935 89.453C200.997 89.4039 201.044 89.3181 201.076 89.1958C201.139 88.9572 201.083 88.8151 200.908 88.7695ZM201.625 91.2952C201.686 91.0597 201.801 90.8954 201.969 90.8021C202.141 90.7067 202.334 90.6869 202.548 90.743C202.763 90.799 202.918 90.91 203.015 91.076C203.116 91.2396 203.136 91.4392 203.074 91.6747C203.013 91.9102 202.897 92.0761 202.728 92.1724C202.562 92.2695 202.372 92.29 202.158 92.2339C201.941 92.1771 201.782 92.0653 201.682 91.8986C201.582 91.7318 201.563 91.5307 201.625 91.2952ZM202.443 91.1271C202.269 91.0815 202.15 91.178 202.088 91.4165C202.025 91.6581 202.08 91.8017 202.254 91.8474C202.426 91.8922 202.543 91.7938 202.606 91.5522C202.669 91.3137 202.614 91.172 202.443 91.1271Z" fill="#139EEC"/>
<path d="M225.31 63.1476C225.668 62.9798 225.955 62.8377 226.172 62.7212C226.389 62.6017 226.579 62.4685 226.742 62.3215C226.904 62.1745 227.008 62.0154 227.053 61.8442C227.094 61.6882 227.089 61.5562 227.039 61.4483C226.989 61.3404 226.887 61.2665 226.734 61.2264C226.581 61.1864 226.45 61.2076 226.34 61.2899C226.231 61.3692 226.152 61.4972 226.103 61.6738L225.479 61.5104C225.587 61.1466 225.768 60.8968 226.023 60.7608C226.281 60.6256 226.568 60.5997 226.886 60.6829C227.235 60.7742 227.478 60.9375 227.616 61.1729C227.755 61.4053 227.784 61.6728 227.705 61.9756C227.642 62.2141 227.519 62.4252 227.333 62.6087C227.148 62.7922 226.952 62.9434 226.744 63.0623C226.537 63.1781 226.271 63.3143 225.946 63.471L227.299 63.8252L227.16 64.3574L224.894 63.7641L225.018 63.287L225.31 63.1476ZM230.531 62.3085L229.044 61.9194L228.839 62.7038C228.924 62.6411 229.032 62.6009 229.165 62.5832C229.297 62.5624 229.431 62.5697 229.566 62.6049C229.81 62.6689 229.997 62.7749 230.125 62.9228C230.253 63.0706 230.33 63.2379 230.356 63.4245C230.383 63.6081 230.372 63.7947 230.322 63.9843C230.23 64.336 230.055 64.5925 229.797 64.7537C229.542 64.9158 229.23 64.9483 228.86 64.8515C228.511 64.7602 228.256 64.6002 228.093 64.3714C227.931 64.1426 227.873 63.884 227.919 63.5954L228.543 63.7587C228.539 63.8883 228.574 64.0021 228.65 64.1004C228.728 64.1994 228.843 64.2685 228.993 64.3077C229.173 64.355 229.324 64.334 229.445 64.2449C229.567 64.1557 229.652 64.0179 229.701 63.8313C229.75 63.6417 229.74 63.4856 229.671 63.3629C229.606 63.2379 229.483 63.1519 229.303 63.1046C229.174 63.071 229.059 63.0751 228.956 63.1169C228.854 63.1587 228.77 63.2283 228.705 63.3257L228.091 63.1648L228.605 61.2014L230.678 61.7442L230.531 62.3085ZM231.092 62.7397C231.153 62.5073 231.268 62.3429 231.437 62.2467C231.609 62.1512 231.802 62.1315 232.016 62.1875C232.23 62.2435 232.387 62.3549 232.487 62.5217C232.59 62.6892 232.612 62.8892 232.551 63.1216C232.489 63.3571 232.372 63.5226 232.2 63.6181C232.031 63.7144 231.84 63.7345 231.626 63.6784C231.412 63.6224 231.253 63.5106 231.15 63.3431C231.05 63.1763 231.03 62.9752 231.092 62.7397ZM234.217 62.8226L231.574 65.5619L230.95 65.3986L233.589 62.6581L234.217 62.8226ZM231.91 62.5717C231.742 62.5276 231.627 62.6249 231.564 62.8634C231.501 63.105 231.554 63.2479 231.722 63.2919C231.804 63.3135 231.876 63.3013 231.937 63.2552C231.999 63.206 232.046 63.1203 232.078 62.9979C232.141 62.7594 232.085 62.6173 231.91 62.5717ZM232.627 65.0974C232.688 64.8619 232.803 64.6975 232.971 64.6043C233.144 64.5088 233.337 64.4891 233.551 64.5451C233.765 64.6012 233.92 64.7122 234.017 64.8781C234.118 65.0418 234.138 65.2414 234.076 65.4769C234.015 65.7124 233.899 65.8782 233.73 65.9745C233.564 66.0716 233.374 66.0921 233.16 66.0361C232.943 65.9792 232.785 65.8674 232.684 65.7007C232.584 65.534 232.565 65.3329 232.627 65.0974ZM233.445 64.9293C233.271 64.8836 233.152 64.9801 233.09 65.2187C233.027 65.4603 233.082 65.6039 233.257 65.6495C233.428 65.6944 233.545 65.596 233.608 65.3544C233.671 65.1158 233.616 64.9741 233.445 64.9293Z" fill="#139EEC"/>
<path d="M273.244 76.9909L271.758 76.6018L271.552 77.3863C271.637 77.3236 271.746 77.2834 271.878 77.2657C272.011 77.2449 272.145 77.2521 272.279 77.2874C272.524 77.3514 272.71 77.4574 272.838 77.6052C272.966 77.7531 273.043 77.9204 273.069 78.107C273.097 78.2906 273.085 78.4771 273.036 78.6668C272.944 79.0185 272.769 79.2749 272.511 79.4362C272.256 79.5982 271.943 79.6308 271.573 79.5339C271.225 79.4427 270.969 79.2826 270.807 79.0539C270.645 78.8251 270.586 78.5664 270.633 78.2779L271.257 78.4412C271.252 78.5707 271.288 78.6846 271.363 78.7828C271.442 78.8819 271.556 78.951 271.706 78.9902C271.886 79.0374 272.037 79.0165 272.159 78.9274C272.28 78.8382 272.365 78.7004 272.414 78.5138C272.464 78.3242 272.454 78.168 272.385 78.0454C272.319 77.9204 272.196 77.8343 272.016 77.7871C271.888 77.7535 271.772 77.7575 271.67 77.7994C271.567 77.8412 271.484 77.9108 271.419 78.0082L270.804 77.8473L271.318 75.8838L273.392 76.4267L273.244 76.9909ZM273.805 77.4222C273.866 77.1898 273.981 77.0254 274.15 76.9291C274.322 76.8336 274.515 76.8139 274.729 76.87C274.943 76.926 275.101 77.0374 275.201 77.2041C275.304 77.3717 275.325 77.5717 275.264 77.8041C275.203 78.0396 275.086 78.2051 274.914 78.3006C274.745 78.3968 274.553 78.417 274.339 78.3609C274.125 78.3049 273.966 78.1931 273.863 78.0255C273.763 77.8588 273.744 77.6577 273.805 77.4222ZM276.931 77.5051L274.287 80.2444L273.663 80.081L276.302 77.3405L276.931 77.5051ZM274.624 77.2541C274.456 77.2101 274.34 77.3073 274.278 77.5459C274.215 77.7875 274.267 77.9303 274.435 77.9744C274.518 77.996 274.59 77.9837 274.651 77.9376C274.713 77.8885 274.76 77.8027 274.792 77.6804C274.854 77.4418 274.798 77.2998 274.624 77.2541ZM275.34 79.7798C275.402 79.5443 275.517 79.38 275.685 79.2868C275.857 79.1913 276.05 79.1716 276.264 79.2276C276.478 79.2836 276.634 79.3946 276.731 79.5606C276.832 79.7242 276.851 79.9238 276.79 80.1593C276.728 80.3948 276.613 80.5607 276.444 80.657C276.278 80.7541 276.088 80.7746 275.874 80.7185C275.657 80.6617 275.498 80.5499 275.398 80.3832C275.298 80.2164 275.278 80.0153 275.34 79.7798ZM276.159 79.6117C275.984 79.5661 275.866 79.6626 275.803 79.9011C275.74 80.1427 275.796 80.2864 275.97 80.332C276.141 80.3768 276.259 80.2784 276.322 80.0368C276.384 79.7983 276.33 79.6566 276.159 79.6117Z" fill="#139EEC"/>
<rect x="28.9393" y="82.1338" width="133.558" height="104.791" rx="9.75999" transform="rotate(6.23012 28.9393 82.1338)" fill="white" stroke="#DEDEDE" stroke-width="1.02737"/>
<path d="M41.0117 104.936L39.8218 104.806L42.8977 98.5239L44.0698 98.6518L45.7178 105.45L44.51 105.318L44.1472 103.748L41.7047 103.482L41.0117 104.936ZM43.1232 100.522L42.1501 102.553L43.9216 102.746L43.4006 100.552C43.3654 100.377 43.3243 100.173 43.3211 100.037C43.2805 100.159 43.2054 100.35 43.1232 100.522ZM46.1532 107.571L46.8593 101.102L47.8703 101.212L47.8686 101.891C48.1927 101.411 48.8065 101.179 49.4775 101.252C50.7211 101.388 51.4456 102.381 51.2942 103.768C51.1438 105.146 50.2829 106.066 48.9677 105.922C48.3056 105.85 47.7613 105.528 47.5328 105.05L47.2447 107.69L46.1532 107.571ZM47.7185 103.432C47.6316 104.228 48.0641 104.828 48.8157 104.91C49.5851 104.994 50.1019 104.489 50.1879 103.702C50.2738 102.914 49.8791 102.301 49.1096 102.217C48.3581 102.135 47.8055 102.636 47.7185 103.432ZM51.6925 108.175L52.3987 101.707L53.4097 101.817L53.408 102.496C53.7321 102.015 54.3459 101.783 55.0169 101.857C56.2605 101.992 56.9849 102.986 56.8336 104.373C56.6831 105.751 55.8222 106.671 54.507 106.527C53.845 106.455 53.3007 106.133 53.0722 105.655L52.7841 108.294L51.6925 108.175ZM53.2579 104.037C53.171 104.833 53.6035 105.432 54.355 105.515C55.1244 105.598 55.6413 105.094 55.7272 104.306C55.8132 103.519 55.4184 102.905 54.649 102.822C53.8975 102.739 53.3448 103.24 53.2579 104.037ZM58.556 106.851L57.4735 106.733L58.2001 100.077L59.2827 100.195L58.556 106.851ZM60.8259 101.73C60.4502 101.689 60.1872 101.362 60.2272 100.995C60.2672 100.628 60.5937 100.374 60.9695 100.415C61.3274 100.454 61.5914 100.773 61.5513 101.14C61.5113 101.506 61.1838 101.769 60.8259 101.73ZM59.701 106.976L60.1835 102.557L61.275 102.676L60.7925 107.095L59.701 106.976ZM61.903 104.971C62.0524 103.603 63.0615 102.735 64.3678 102.878C65.5756 103.009 66.3255 103.77 66.3256 104.848L65.234 104.728C65.1635 104.214 64.825 103.914 64.3061 103.858C63.6082 103.781 63.0854 104.259 62.9945 105.091C62.9037 105.923 63.2765 106.488 63.9743 106.565C64.5201 106.624 64.9341 106.398 65.1032 105.927L66.2036 106.047C65.9571 107.062 65.0211 107.675 63.8669 107.549C62.5249 107.402 61.7497 106.376 61.903 104.971ZM68.1418 108.015C67.2023 107.913 66.6893 107.305 66.7801 106.473C66.869 105.658 67.5152 105.213 68.5708 105.247L69.9056 105.293L69.9164 105.194C69.9818 104.595 69.6503 104.314 69.0956 104.254C68.4514 104.183 68.0643 104.413 68.0135 104.878L67.083 104.776C67.1875 103.819 68.0432 103.279 69.2421 103.41C70.432 103.54 71.0953 104.264 70.9615 105.489L70.6685 108.174L69.7112 108.069L69.702 107.407C69.4643 107.843 68.8307 108.091 68.1418 108.015ZM68.5895 107.231C69.2605 107.305 69.7339 106.949 69.8081 106.269L69.8335 106.036L68.9042 106.007C68.2174 105.996 67.9335 106.191 67.8944 106.549C67.8505 106.952 68.0974 107.178 68.5895 107.231ZM73.1827 108.448L72.0912 108.329L72.4741 104.822L71.6241 104.729L71.7237 103.816L72.5737 103.909L72.7241 102.531L73.8156 102.65L73.6652 104.028L74.5241 104.122L74.4245 105.035L73.5656 104.941L73.1827 108.448ZM75.8451 103.37C75.4693 103.329 75.2063 103.001 75.2464 102.635C75.2864 102.268 75.6129 102.014 75.9887 102.055C76.3466 102.094 76.6105 102.412 76.5705 102.779C76.5305 103.146 76.203 103.409 75.8451 103.37ZM74.7202 108.616L75.2027 104.196L76.2942 104.315L75.8117 108.735L74.7202 108.616ZM76.9222 106.611C77.0726 105.233 78.1692 104.393 79.5381 104.543C80.907 104.692 81.7965 105.749 81.6461 107.127C81.4957 108.504 80.3991 109.344 79.0302 109.195C77.6613 109.046 76.7718 107.989 76.9222 106.611ZM78.0137 106.73C77.9258 107.535 78.3851 108.138 79.1367 108.22C79.8882 108.302 80.4667 107.813 80.5546 107.007C80.6425 106.202 80.1832 105.6 79.4316 105.518C78.6801 105.436 78.1016 105.925 78.0137 106.73ZM83.3606 109.559L82.2691 109.44L82.7516 105.02L83.7626 105.131L83.7895 105.713C84.1157 105.296 84.6808 105.095 85.2803 105.16C86.3897 105.282 86.8871 106.033 86.7621 107.178L86.4652 109.898L85.3736 109.779L85.6422 107.318C85.7233 106.576 85.3955 106.178 84.8319 106.116C84.1609 106.043 83.6985 106.463 83.6204 107.179L83.3606 109.559Z" fill="#4E4E4E"/>
<path d="M162.213 46.8056L158.204 46.0172L159.473 39.5618L163.482 40.3502L163.277 41.3923L160.399 40.8262L160.072 42.4864L162.651 42.9934L162.454 43.9913L159.876 43.4842L159.539 45.1974L162.418 45.7636L162.213 46.8056ZM166.428 45.3231L165.006 45.0435L164.569 47.2689L163.438 47.0466L164.708 40.5912L167.26 41.0931C168.558 41.3484 169.23 42.3611 168.982 43.624C168.737 44.8691 167.717 45.5766 166.428 45.3231ZM166.841 42.0564L165.64 41.8202L165.204 44.0368L166.388 44.2695C167.165 44.4223 167.661 44.0889 167.8 43.3824C167.939 42.6759 167.592 42.204 166.841 42.0564ZM171.786 48.7983C169.905 48.4284 168.944 46.8818 169.341 44.8595C169.736 42.8549 171.261 41.7698 173.15 42.1414C174.678 42.4418 175.642 43.5578 175.59 44.9876L174.398 44.7532C174.325 43.9592 173.767 43.3909 172.91 43.2224C171.718 42.988 170.797 43.7058 170.526 45.0834C170.257 46.4522 170.843 47.4846 172.026 47.7173C172.901 47.8892 173.662 47.562 174.015 46.8884L175.189 47.1194C174.675 48.4307 173.314 49.0987 171.786 48.7983ZM179.29 50.1638L178.159 49.9415L179.429 43.4861L181.893 43.9706C183.359 44.2589 184.069 45.1692 183.819 46.4408C183.649 47.3062 183.121 47.8445 182.301 48.0042L183.008 50.8949L181.771 50.6518L181.15 48.0256L179.764 47.753L179.29 50.1638ZM180.361 44.7151L179.96 46.7551L181.294 47.0173C182.009 47.158 182.507 46.8616 182.636 46.2081C182.763 45.5635 182.41 45.118 181.695 44.9774L180.361 44.7151ZM185.02 51.4098C184.092 51.2274 183.633 50.5776 183.795 49.7564C183.953 48.9527 184.634 48.564 185.683 48.6877L187.009 48.8476L187.028 48.7504C187.145 48.1588 186.838 47.8509 186.291 47.7432C185.655 47.6182 185.25 47.8136 185.159 48.2728L184.241 48.0922C184.427 47.1473 185.326 46.682 186.509 46.9147C187.683 47.1457 188.282 47.9239 188.045 49.1337L187.524 51.783L186.579 51.5972L186.626 50.9369C186.352 51.3508 185.7 51.5435 185.02 51.4098ZM185.533 50.6668C186.195 50.7971 186.697 50.483 186.829 49.8119L186.874 49.5823L185.951 49.4741C185.267 49.4039 184.968 49.5743 184.898 49.9275C184.82 50.3249 185.047 50.5713 185.533 50.6668ZM190.005 52.271L188.928 52.0591L189.609 48.5974L188.77 48.4324L188.947 47.5317L189.786 47.6967L190.053 46.3367L191.131 46.5486L190.863 47.9085L191.711 48.0753L191.534 48.976L190.686 48.8093L190.005 52.271ZM193.091 47.4386C192.72 47.3657 192.486 47.017 192.557 46.6549C192.629 46.2928 192.976 46.0676 193.346 46.1405C193.7 46.21 193.936 46.5499 193.864 46.9119C193.793 47.274 193.444 47.5081 193.091 47.4386ZM191.523 52.5694L192.381 48.207L193.458 48.4188L192.6 52.7813L191.523 52.5694ZM194.791 53.212L193.713 53.0002L194.571 48.6377L195.569 48.834L195.546 49.4165C195.907 49.0288 196.487 48.8769 197.079 48.9932C198.174 49.2086 198.605 49.9997 198.383 51.1301L197.855 53.8146L196.777 53.6028L197.255 51.1743C197.399 50.4413 197.107 50.0169 196.55 49.9075C195.888 49.7772 195.391 50.1566 195.252 50.863L194.791 53.212ZM199.114 51.6958C199.364 50.4242 200.382 49.6337 201.627 49.8785C202.281 50.007 202.739 50.3815 202.903 50.8999L203.083 50.3116L204.081 50.5078L203.266 54.6495C202.98 56.1066 201.927 56.8442 200.514 56.5664C199.26 56.3198 198.544 55.436 198.641 54.2443L199.718 54.4562C199.677 55.0352 200.044 55.4559 200.706 55.5862C201.448 55.732 202.017 55.3578 202.16 54.6336L202.302 53.9095C201.948 54.2619 201.359 54.4121 200.732 54.2888C199.496 54.0456 198.866 52.9586 199.114 51.6958ZM200.206 51.8829C200.061 52.6159 200.422 53.2554 201.128 53.3944C201.87 53.5402 202.432 53.1095 202.581 52.3501C202.727 51.6083 202.377 51.0075 201.627 50.8599C200.911 50.7192 200.346 51.1676 200.206 51.8829Z" fill="#4E4E4E"/>
<rect x="29.7305" y="163.611" width="7.93321" height="13.3558" rx="2.05473" transform="rotate(6.23012 29.7305 163.611)" fill="#2196F3"/>
<rect x="41.1953" y="148.074" width="7.93321" height="30.0564" rx="2.05473" transform="rotate(6.23012 41.1953 148.074)" fill="#E23122"/>
<path d="M63.0975 144.499C63.2339 143.383 64.2422 142.584 65.36 142.706L69.1608 143.121C70.2992 143.245 71.1164 144.276 70.9774 145.413L66.8634 179.062C66.727 180.179 65.7187 180.978 64.6009 180.856L60.8001 180.441C59.6617 180.316 58.8445 179.286 58.9835 178.149L63.0975 144.499Z" fill="#2196F3"/>
<path d="M74.4808 131.857C74.6185 130.742 75.6262 129.945 76.7431 130.067L80.5438 130.482C81.6832 130.606 82.5005 131.638 82.3601 132.776L76.5151 180.129C76.3775 181.244 75.3697 182.042 74.2529 181.92L70.4521 181.505C69.3128 181.381 68.4954 180.349 68.6358 179.211L74.4808 131.857Z" fill="#E23122"/>
<path d="M94.3204 144.427C94.4463 143.301 95.4594 142.49 96.5853 142.612L100.386 143.027C101.517 143.151 102.332 144.169 102.205 145.298L98.0496 182.443C97.9236 183.569 96.9105 184.38 95.7846 184.257L91.9834 183.843C90.8532 183.719 90.038 182.701 90.1644 181.571L94.3204 144.427Z" fill="#2196F3"/>
<rect x="102.848" y="154.805" width="7.93321" height="30.0564" rx="2.05473" transform="rotate(6.23012 102.848 154.805)" fill="#E23122"/>
<rect x="121.84" y="173.667" width="7.93321" height="13.3558" rx="2.05473" transform="rotate(6.23012 121.84 173.667)" fill="#2196F3"/>
<rect x="133.305" y="158.13" width="7.93321" height="30.0564" rx="2.05473" transform="rotate(6.23012 133.305 158.13)" fill="#E23122"/>
</g>
<defs>
<filter id="filter0_ddddd_525_2574" x="155.754" y="58.2679" width="169.766" height="251.249" filterUnits="userSpaceOnUse" color-interpolation-filters="sRGB">
<feFlood flood-opacity="0" result="BackgroundImageFix"/>
<feColorMatrix in="SourceAlpha" type="matrix" values="0 0 0 0 0 0 0 0 0 0 0 0 0 0 0 0 0 0 127 0" result="hardAlpha"/>
<feOffset/>
<feColorMatrix type="matrix" values="0 0 0 0 0 0 0 0 0 0 0 0 0 0 0 0 0 0 0.1 0"/>
<feBlend mode="normal" in2="BackgroundImageFix" result="effect1_dropShadow_525_2574"/>
<feColorMatrix in="SourceAlpha" type="matrix" values="0 0 0 0 0 0 0 0 0 0 0 0 0 0 0 0 0 0 127 0" result="hardAlpha"/>
<feOffset dy="7.59162"/>
<feGaussianBlur stdDeviation="8.26147"/>
<feColorMatrix type="matrix" values="0 0 0 0 0 0 0 0 0 0 0 0 0 0 0 0 0 0 0.1 0"/>
<feBlend mode="normal" in2="effect1_dropShadow_525_2574" result="effect2_dropShadow_525_2574"/>
<feColorMatrix in="SourceAlpha" type="matrix" values="0 0 0 0 0 0 0 0 0 0 0 0 0 0 0 0 0 0 127 0" result="hardAlpha"/>
<feOffset dy="29.9199"/>
<feGaussianBlur stdDeviation="14.96"/>
<feColorMatrix type="matrix" values="0 0 0 0 0 0 0 0 0 0 0 0 0 0 0 0 0 0 0.09 0"/>
<feBlend mode="normal" in2="effect2_dropShadow_525_2574" result="effect3_dropShadow_525_2574"/>
<feColorMatrix in="SourceAlpha" type="matrix" values="0 0 0 0 0 0 0 0 0 0 0 0 0 0 0 0 0 0 127 0" result="hardAlpha"/>
<feOffset dy="67.878"/>
<feGaussianBlur stdDeviation="20.3187"/>
<feColorMatrix type="matrix" values="0 0 0 0 0 0 0 0 0 0 0 0 0 0 0 0 0 0 0.05 0"/>
<feBlend mode="normal" in2="effect3_dropShadow_525_2574" result="effect4_dropShadow_525_2574"/>
<feColorMatrix in="SourceAlpha" type="matrix" values="0 0 0 0 0 0 0 0 0 0 0 0 0 0 0 0 0 0 127 0" result="hardAlpha"/>
<feOffset dy="120.126"/>
<feGaussianBlur stdDeviation="24.1146"/>
<feColorMatrix type="matrix" values="0 0 0 0 0 0 0 0 0 0 0 0 0 0 0 0 0 0 0.01 0"/>
<feBlend mode="normal" in2="effect4_dropShadow_525_2574" result="effect5_dropShadow_525_2574"/>
<feBlend mode="normal" in="SourceGraphic" in2="effect5_dropShadow_525_2574" result="shape"/>
</filter>
<filter id="filter1_d_525_2574" x="225.613" y="91.292" width="28.4231" height="28.4221" filterUnits="userSpaceOnUse" color-interpolation-filters="sRGB">
<feFlood flood-opacity="0" result="BackgroundImageFix"/>
<feColorMatrix in="SourceAlpha" type="matrix" values="0 0 0 0 0 0 0 0 0 0 0 0 0 0 0 0 0 0 127 0" result="hardAlpha"/>
<feOffset dy="1.78626"/>
<feGaussianBlur stdDeviation="0.893131"/>
<feComposite in2="hardAlpha" operator="out"/>
<feColorMatrix type="matrix" values="0 0 0 0 0 0 0 0 0 0 0 0 0 0 0 0 0 0 0.25 0"/>
<feBlend mode="normal" in2="BackgroundImageFix" result="effect1_dropShadow_525_2574"/>
<feBlend mode="normal" in="SourceGraphic" in2="effect1_dropShadow_525_2574" result="shape"/>
</filter>
<clipPath id="clip0_525_2574">
<rect width="342" height="230" rx="4" fill="white"/>
</clipPath>
</defs>
</svg>
