<svg width="342" height="230" viewBox="0 0 342 230" fill="none" xmlns="http://www.w3.org/2000/svg">
<rect width="342" height="230" rx="4" fill="#F3F3F3"/>
<rect x="175.566" y="119.06" width="133.558" height="104.791" rx="9.75999" transform="rotate(-6.23 175.566 119.06)" fill="white" stroke="#DEDEDE" stroke-width="1.02737"/>
<path d="M194.485 138.588C192.579 138.796 191.2 137.607 190.976 135.558C190.754 133.527 191.886 132.037 193.801 131.828C195.349 131.659 196.602 132.436 196.979 133.816L195.771 133.948C195.464 133.212 194.762 132.836 193.894 132.931C192.686 133.063 192.022 134.023 192.174 135.418C192.325 136.805 193.192 137.616 194.391 137.485C195.277 137.388 195.906 136.849 196.042 136.101L197.232 135.971C197.132 137.376 196.032 138.419 194.485 138.588ZM199.577 138.041C198.637 138.144 198.005 137.661 197.914 136.829C197.825 136.015 198.36 135.44 199.398 135.245L200.711 135.002L200.701 134.904C200.635 134.305 200.251 134.102 199.696 134.163C199.052 134.233 198.724 134.54 198.774 135.006L197.844 135.107C197.739 134.15 198.458 133.438 199.657 133.307C200.847 133.177 201.651 133.741 201.785 134.967L202.078 137.651L201.121 137.755L200.969 137.111C200.831 137.588 200.265 137.966 199.577 138.041ZM199.845 137.179C200.516 137.106 200.901 136.657 200.827 135.977L200.801 135.744L199.888 135.916C199.215 136.053 198.98 136.305 199.019 136.663C199.063 137.065 199.353 137.233 199.845 137.179ZM205.439 132.793L205.55 133.804L205.147 133.848C204.36 133.934 203.914 134.408 204.007 135.267L204.242 137.414L203.15 137.534L202.669 133.123L203.698 133.011L203.831 133.648C203.971 133.189 204.359 132.848 204.949 132.783C205.101 132.767 205.256 132.768 205.439 132.793ZM207.674 137.04L206.663 137.15L205.936 130.494L207.027 130.375L207.342 133.255C207.575 132.732 208.133 132.372 208.804 132.299C210.065 132.161 210.942 133.062 211.095 134.457C211.243 135.817 210.513 136.848 209.243 136.986C208.581 137.058 207.985 136.825 207.67 136.343L207.674 137.04ZM207.52 134.802C207.607 135.599 208.158 136.091 208.91 136.009C209.679 135.925 210.075 135.32 209.989 134.533C209.903 133.745 209.385 133.232 208.616 133.316C207.864 133.398 207.433 134.006 207.52 134.802ZM211.7 134.355C211.55 132.977 212.439 131.92 213.808 131.771C215.177 131.622 216.274 132.462 216.424 133.839C216.575 135.217 215.685 136.274 214.316 136.423C212.947 136.573 211.851 135.733 211.7 134.355ZM212.792 134.236C212.88 135.041 213.458 135.53 214.21 135.448C214.961 135.366 215.421 134.764 215.333 133.958C215.245 133.153 214.666 132.664 213.915 132.746C213.163 132.828 212.704 133.431 212.792 134.236ZM218.623 135.845L217.532 135.964L217.049 131.544L218.06 131.434L218.212 131.996C218.441 131.519 218.949 131.201 219.549 131.135C220.658 131.014 221.306 131.641 221.431 132.786L221.728 135.506L220.636 135.625L220.368 133.164C220.287 132.422 219.881 132.104 219.317 132.166C218.646 132.239 218.285 132.749 218.363 133.465L218.623 135.845ZM228.659 132.042L226.226 132.308L226.518 134.983L225.373 135.108L224.659 128.568L228.703 128.126L228.818 129.182L225.919 129.498L226.113 131.279L228.547 131.013L228.659 132.042ZM229.445 132.418C229.295 131.04 230.185 129.983 231.553 129.834C232.922 129.684 234.019 130.524 234.169 131.902C234.32 133.28 233.43 134.337 232.061 134.486C230.692 134.636 229.596 133.796 229.445 132.418ZM230.537 132.299C230.625 133.104 231.203 133.593 231.955 133.511C232.706 133.429 233.166 132.827 233.078 132.021C232.99 131.216 232.411 130.727 231.66 130.809C230.908 130.891 230.449 131.493 230.537 132.299ZM234.775 131.836C234.625 130.458 235.514 129.401 236.883 129.252C238.252 129.103 239.349 129.942 239.499 131.32C239.649 132.698 238.76 133.755 237.391 133.904C236.022 134.054 234.926 133.214 234.775 131.836ZM235.867 131.717C235.955 132.522 236.533 133.011 237.285 132.929C238.036 132.847 238.495 132.245 238.408 131.439C238.32 130.634 237.741 130.145 236.99 130.227C236.238 130.309 235.779 130.912 235.867 131.717ZM242.066 133.285L240.974 133.405L240.591 129.897L239.741 129.99L239.642 129.078L240.492 128.985L240.341 127.607L241.433 127.488L241.583 128.866L242.442 128.772L242.542 129.684L241.683 129.778L242.066 133.285ZM243.827 135.166L243.121 128.698L244.132 128.587L244.277 129.251C244.489 128.711 245.039 128.353 245.71 128.279C246.953 128.144 247.875 128.957 248.026 130.344C248.177 131.722 247.535 132.806 246.22 132.95C245.557 133.022 244.957 132.825 244.63 132.408L244.918 135.047L243.827 135.166ZM244.462 130.788C244.549 131.584 245.101 132.076 245.853 131.994C246.622 131.91 247.018 131.305 246.932 130.518C246.846 129.731 246.328 129.217 245.559 129.301C244.807 129.383 244.376 129.991 244.462 130.788ZM251.432 127.772L251.542 128.783L251.139 128.827C250.352 128.913 249.906 129.388 250 130.246L250.234 132.394L249.143 132.513L248.661 128.102L249.69 127.99L249.823 128.627C249.963 128.168 250.351 127.827 250.942 127.763C251.094 127.746 251.248 127.747 251.432 127.772ZM252.622 126.764C252.246 126.805 251.918 126.542 251.878 126.176C251.838 125.809 252.102 125.49 252.478 125.449C252.836 125.41 253.162 125.664 253.202 126.031C253.242 126.398 252.979 126.725 252.622 126.764ZM252.655 132.129L252.172 127.71L253.264 127.59L253.746 132.01L252.655 132.129ZM255.966 131.768L254.874 131.887L254.392 127.467L255.403 127.357L255.555 127.92C255.783 127.442 256.292 127.124 256.891 127.059C258.001 126.938 258.648 127.564 258.773 128.709L259.07 131.429L257.979 131.548L257.71 129.088C257.629 128.345 257.223 128.027 256.66 128.089C255.989 128.162 255.628 128.672 255.706 129.388L255.966 131.768ZM261.646 131.148L260.554 131.267L260.171 127.76L259.321 127.853L259.222 126.94L260.072 126.847L259.921 125.469L261.013 125.35L261.163 126.728L262.022 126.634L262.122 127.547L261.263 127.641L261.646 131.148Z" fill="#4E4E4E"/>
<rect x="197.994" y="196.706" width="21.5747" height="13.3558" rx="2.05473" transform="rotate(-6.23 197.994 196.706)" fill="#5C00E7"/>
<rect x="222.508" y="167.16" width="21.5747" height="40.0673" rx="2.05473" transform="rotate(-6.23 222.508 167.16)" fill="#5C00E7"/>
<rect x="248.581" y="151.912" width="21.5747" height="52.3957" rx="2.05473" transform="rotate(-6.23 248.581 151.912)" fill="#5C00E7"/>
<rect x="278.669" y="173.431" width="21.5747" height="27.7389" rx="2.05473" transform="rotate(-6.23 278.669 173.431)" fill="#5C00E7"/>
<rect x="33.3327" y="41.5577" width="137.781" height="164.617" rx="9.75999" transform="rotate(5.14985 33.3327 41.5577)" fill="white" stroke="#DEDEDE" stroke-width="1.02737"/>
<path d="M137.795 118.425C136.179 124.86 133.081 130.829 128.749 135.855C124.416 140.88 118.968 144.823 112.84 147.369C106.713 149.915 100.075 150.993 93.4562 150.517C86.8378 150.041 80.4223 148.025 74.7218 144.629C69.0213 141.233 64.1937 136.551 60.6243 130.957C57.0549 125.363 54.8426 119.013 54.164 112.412C53.4854 105.811 54.3593 99.1435 56.7159 92.9406C59.0726 86.7377 62.8466 81.1716 67.7369 76.6867L72.2997 81.6619C68.185 85.4356 65.0094 90.1189 63.0265 95.3381C61.0436 100.557 60.3083 106.168 60.8793 111.722C61.4503 117.276 63.3118 122.619 66.3151 127.326C69.3184 132.032 73.3804 135.972 78.1769 138.829C82.9734 141.687 88.3715 143.383 93.9403 143.784C99.5091 144.184 105.094 143.277 110.25 141.135C115.406 138.993 119.99 135.675 123.636 131.447C127.281 127.218 129.888 122.196 131.248 116.781L137.795 118.425Z" fill="#32CAFD"/>
<path d="M67.6466 76.7698C72.4867 72.305 78.2967 69.0241 84.6196 67.1849C90.9425 65.3457 97.6058 64.9986 104.086 66.1706L102.884 72.8135C97.4319 71.8273 91.8252 72.1195 86.5051 73.6669C81.1849 75.2144 76.2963 77.9751 72.2237 81.7318L67.6466 76.7698Z" fill="#7214FF"/>
<path d="M103.437 66.0586C109.272 67.0211 114.842 69.1885 119.792 72.4228C124.742 75.6571 128.964 79.8872 132.189 84.8436C135.414 89.8 137.571 95.3739 138.522 101.21C139.473 107.046 139.198 113.016 137.715 118.74L131.18 117.046C132.428 112.23 132.66 107.207 131.859 102.296C131.059 97.3855 129.244 92.6956 126.531 88.5252C123.817 84.3548 120.265 80.7955 116.099 78.0742C111.934 75.3528 107.248 73.5291 102.339 72.7192L103.437 66.0586Z" fill="#41E88D"/>
<path d="M75.8864 98.5563C76.0243 97.0265 77.387 96.077 79.2275 96.2429C80.9964 96.4023 82.0315 97.4836 81.9371 99.0655L80.4073 98.9276C80.4393 98.1714 79.9414 97.6807 79.0808 97.6032C78.1367 97.5181 77.4862 97.9173 77.4205 98.6464C77.3645 99.2678 77.6679 99.6446 78.3819 99.8776L79.7294 100.3C81.1942 100.758 81.8543 101.588 81.7369 102.891C81.5904 104.516 80.2288 105.454 78.3046 105.28C76.4401 105.112 75.3105 104.011 75.4157 102.442L76.9455 102.58C76.8907 103.322 77.4484 103.818 78.4285 103.906C79.4443 103.998 80.1296 103.614 80.1953 102.885C80.2481 102.299 79.9805 101.925 79.2774 101.705L77.919 101.27C76.4661 100.813 75.7658 99.8949 75.8864 98.5563ZM82.599 102.523C82.7638 100.694 84.0873 99.5123 85.8322 99.6695C87.4456 99.8149 88.4644 100.81 88.4916 102.247L87.0335 102.115C86.9265 101.431 86.4677 101.04 85.7745 100.978C84.8423 100.894 84.1573 101.543 84.0571 102.654C83.9569 103.766 84.4681 104.511 85.4004 104.595C86.1294 104.66 86.6756 104.348 86.8892 103.717L88.3592 103.849C88.0561 105.208 86.8236 106.048 85.2819 105.909C83.4891 105.748 82.4299 104.399 82.599 102.523ZM89.17 103.115C89.3359 101.275 90.7767 100.127 92.6053 100.292C94.4339 100.457 95.6463 101.843 95.4805 103.684C95.3146 105.524 93.8738 106.672 92.0452 106.507C90.2166 106.342 89.0042 104.956 89.17 103.115ZM90.6281 103.246C90.5312 104.322 91.1587 105.114 92.1626 105.204C93.1665 105.295 93.9254 104.628 94.0224 103.552C94.1193 102.477 93.4918 101.685 92.4879 101.595C91.484 101.504 90.7251 102.171 90.6281 103.246ZM96.1224 109.489L96.9012 100.848L98.2517 100.97L98.2665 101.875C98.6865 101.226 99.4989 100.901 100.395 100.982C102.057 101.132 103.047 102.438 102.88 104.29C102.714 106.131 101.59 107.379 99.833 107.221C98.9486 107.141 98.2149 106.725 97.8983 106.095L97.5805 109.62L96.1224 109.489ZM98.1052 103.932C98.0093 104.996 98.6009 105.784 99.6049 105.875C100.633 105.967 101.309 105.281 101.404 104.23C101.499 103.178 100.957 102.37 99.9291 102.277C98.9252 102.187 98.201 102.869 98.1052 103.932ZM106.396 107.812C104.639 107.654 103.523 106.264 103.688 104.436C103.855 102.583 105.178 101.413 106.911 101.569C108.679 101.729 109.696 103.013 109.53 104.854L109.49 105.296L105.043 104.907C105.057 105.957 105.56 106.532 106.528 106.619C107.328 106.691 107.882 106.428 108.1 105.881L109.451 106.003C109.083 107.271 107.938 107.951 106.396 107.812ZM106.815 102.765C105.954 102.688 105.386 103.107 105.163 103.978L108.127 104.245C108.2 103.433 107.687 102.844 106.815 102.765ZM116.375 104.193L115.312 104.097L115.401 103.106L117.834 101.24L114.201 100.913L114.323 99.5624L119.868 100.062L119.758 101.281L117.454 103.05C118.769 103.433 119.721 104.507 119.582 106.049C119.42 107.841 117.919 108.851 116.151 108.691C114.442 108.537 113.21 107.366 113.38 105.478L114.886 105.613C114.795 106.617 115.365 107.247 116.297 107.331C117.253 107.417 117.943 106.853 118.03 105.885C118.11 105 117.594 104.303 116.375 104.193Z" fill="#4E4E4E"/>
<path d="M83.6072 115.739C82.4758 115.637 81.7921 114.756 81.9013 113.545C82.0097 112.342 82.8334 111.581 83.9329 111.68C84.9767 111.774 85.619 112.579 85.5206 113.67L85.4962 113.941L82.4287 113.665C82.3838 114.609 82.8289 115.195 83.6576 115.27C84.287 115.326 84.7178 115.092 84.9072 114.595L85.433 114.642C85.1526 115.436 84.5156 115.821 83.6072 115.739ZM83.8905 112.15C83.1655 112.085 82.6443 112.519 82.4805 113.268L84.9824 113.493C85.0491 112.752 84.6156 112.215 83.8905 112.15ZM86.7577 115.926L86.2079 115.877L86.5555 112.021L87.0335 112.064L87.0477 112.619C87.2756 112.23 87.7281 112.022 88.2699 112.071C88.8754 112.125 89.3009 112.485 89.4389 113.003C89.6594 112.517 90.1582 112.241 90.7797 112.297C91.6163 112.372 92.1173 112.964 92.0368 113.856L91.8092 116.382L91.2754 116.334L91.493 113.919C91.5526 113.258 91.2212 112.835 90.6316 112.781C89.9862 112.723 89.56 113.175 89.5061 113.772L89.2914 116.155L88.7496 116.106L88.9679 113.684C89.0268 113.03 88.6868 112.614 88.1051 112.562C87.4598 112.504 87.0263 112.947 86.9731 113.536L86.7577 115.926ZM93.6291 111.59C93.406 111.57 93.2392 111.37 93.2593 111.147C93.2794 110.924 93.4799 110.749 93.703 110.769C93.9261 110.789 94.1001 110.998 94.08 111.221C94.0599 111.444 93.8522 111.61 93.6291 111.59ZM92.9151 116.481L93.2627 112.625L93.8124 112.675L93.4649 116.531L92.9151 116.481ZM94.3823 115.521L94.9082 115.569C94.868 116.015 95.1775 116.324 95.7193 116.373C96.3169 116.427 96.6904 116.203 96.7278 115.789C96.7565 115.47 96.6137 115.273 96.1696 115.12L95.5233 114.893C94.8691 114.665 94.574 114.285 94.6214 113.76C94.6825 113.082 95.287 112.703 96.1156 112.778C96.9283 112.851 97.414 113.345 97.3732 114.064L96.8394 114.016C96.8637 113.568 96.5766 113.277 96.0587 113.23C95.5169 113.182 95.1933 113.385 95.156 113.8C95.1294 114.095 95.3179 114.32 95.7309 114.462L96.3771 114.689C97.0313 114.917 97.3061 115.255 97.2558 115.812C97.1933 116.506 96.5628 116.907 95.6863 116.828C94.8179 116.749 94.3177 116.238 94.3823 115.521ZM97.8371 115.833L98.363 115.88C98.3227 116.326 98.6323 116.635 99.1741 116.684C99.7716 116.738 100.145 116.515 100.183 116.1C100.211 115.781 100.068 115.584 99.6243 115.431L98.9781 115.204C98.3239 114.977 98.0288 114.597 98.0762 114.071C98.1372 113.394 98.7417 113.014 99.5703 113.089C100.383 113.162 100.869 113.656 100.828 114.375L100.294 114.327C100.318 113.879 100.031 113.588 99.5135 113.542C98.9717 113.493 98.6481 113.697 98.6107 114.111C98.5842 114.406 98.7727 114.632 99.1856 114.773L99.8318 115C100.486 115.228 100.761 115.566 100.711 116.124C100.648 116.817 100.018 117.218 99.1411 117.139C98.2726 117.061 97.7725 116.55 97.8371 115.833ZM102.235 112.365C102.012 112.345 101.845 112.145 101.865 111.922C101.885 111.699 102.086 111.525 102.309 111.545C102.532 111.565 102.706 111.773 102.686 111.996C102.666 112.219 102.458 112.385 102.235 112.365ZM101.521 117.257L101.868 113.401L102.418 113.45L102.071 117.307L101.521 117.257ZM103.12 115.457C103.226 114.278 104.132 113.5 105.263 113.602C106.395 113.704 107.146 114.631 107.04 115.811C106.935 116.982 106.029 117.76 104.898 117.658C103.766 117.556 103.014 116.629 103.12 115.457ZM103.678 115.5C103.597 116.408 104.114 117.089 104.942 117.164C105.763 117.238 106.401 116.661 106.483 115.752C106.563 114.86 106.039 114.17 105.219 114.096C104.39 114.021 103.759 114.607 103.678 115.5ZM108.295 117.868L107.746 117.818L108.093 113.962L108.571 114.005L108.591 114.681C108.89 114.21 109.425 113.977 109.983 114.028C111.043 114.123 111.424 114.792 111.336 115.764L111.124 118.122L110.574 118.073L110.776 115.834C110.857 114.934 110.479 114.578 109.842 114.521C109.053 114.45 108.555 114.983 108.477 115.852L108.295 117.868Z" fill="#4E4E4E"/>
<circle cx="47.0145" cy="162.136" r="3.70155" transform="rotate(5.14985 47.0145 162.136)" fill="#32CAFD"/>
<line x1="58.5782" y1="162.713" x2="136.919" y2="169.773" stroke="#C7C7C7" stroke-width="4.62694" stroke-linecap="round"/>
<circle cx="45.7684" cy="175.961" r="3.70155" transform="rotate(5.14985 45.7684 175.961)" fill="#5C00E7"/>
<line x1="57.3282" y1="176.539" x2="102.489" y2="180.609" stroke="#C7C7C7" stroke-width="4.62694" stroke-linecap="round"/>
<circle cx="44.5223" cy="189.786" r="3.70155" transform="rotate(5.14985 44.5223 189.786)" fill="#41E88D"/>
<line x1="56.086" y1="190.363" x2="117.837" y2="195.929" stroke="#C7C7C7" stroke-width="4.62694" stroke-linecap="round"/>
</svg>
