<svg width="41" height="41" viewBox="0 0 41 41" fill="none" xmlns="http://www.w3.org/2000/svg">
<path d="M8.96743 14.7316H8.07863V9.39876C8.07863 7.45451 9.63403 5.84357 11.6338 5.84357H24.3548C25.2991 5.84357 26.1879 6.23242 26.8545 6.89901L28.3543 8.39886C29.0209 9.06546 29.4098 9.95426 29.4098 10.8986V14.7316H28.521V10.8986C28.521 10.1765 28.1877 9.50986 27.6877 9.00991L26.2434 7.56561C25.7435 7.06566 25.0769 6.73237 24.3548 6.73237H11.6338C10.134 6.73237 8.96743 7.95446 8.96743 9.39876V14.7316ZM8.07863 17.3979C6.57878 17.3979 5.41224 18.62 5.41224 20.0643V27.1747C5.41224 27.6747 5.80109 28.0635 6.30103 28.0635H8.07863V25.3971C8.07863 24.4528 8.85633 23.6195 9.85623 23.6195H16.9666C16.9666 23.9528 16.9666 24.2306 16.9666 24.5083H9.85623C9.35628 24.5083 8.96743 24.9527 8.96743 25.3971V32.5075C8.96743 33.0075 9.35628 33.3963 9.85623 33.3963H27.6322C28.0766 33.3963 28.521 33.0075 28.521 32.5075V32.1187C28.521 32.1187 28.5765 32.1187 28.6321 32.0631L29.3542 32.8408C29.2431 33.6741 28.4654 34.2851 27.6322 34.2851H9.85623C8.85633 34.2851 8.07863 33.5074 8.07863 32.5075V28.9523H6.30103C5.30114 28.9523 4.52344 28.1746 4.52344 27.1747V20.0643C4.52344 18.1201 6.07883 16.5091 8.07863 16.5091H20.4663C20.133 16.7869 19.7997 17.1202 19.4664 17.3979H8.07863ZM25.8546 17.4535C23.5771 17.4535 21.5773 18.62 20.4663 20.5643C19.2997 22.453 19.2997 24.8416 20.4663 26.7859C21.5773 28.6746 23.5771 29.8967 25.8546 29.8967C28.0766 29.8967 30.0764 28.6746 31.1874 26.7859C32.3539 24.8416 32.3539 22.453 31.1874 20.5643C30.0764 18.62 28.0766 17.4535 25.8546 17.4535ZM25.8546 30.7855C21.9106 30.7855 18.7442 27.5636 18.7442 23.6751C18.7442 19.731 21.9106 16.5647 25.8546 16.5647C29.7431 16.5647 32.965 19.731 32.965 23.6751C32.965 25.4527 32.2428 27.1192 31.1874 28.3413L36.3535 33.563C36.5202 33.7296 36.5202 34.0074 36.3535 34.174C36.1869 34.3407 35.9091 34.3407 35.7425 34.174L30.5208 29.0079C29.2987 30.0633 27.6322 30.7855 25.8546 30.7855Z" fill="#7B78FF"/>
</svg>
