<svg width="28" height="28" viewBox="0 0 28 28" fill="none" xmlns="http://www.w3.org/2000/svg">
<path d="M15.5 9.5L20.5 14M20.5 14L15.5 18.5M20.5 14L7.5 14M26.5 14C26.5 17.3152 25.183 20.4946 22.8388 22.8388C20.4946 25.183 17.3152 26.5 14 26.5C10.6848 26.5 7.50537 25.183 5.16117 22.8388C2.81696 20.4946 1.5 17.3152 1.5 14C1.5 10.6848 2.81696 7.50537 5.16117 5.16117C7.50537 2.81696 10.6848 1.5 14 1.5C17.3152 1.5 20.4946 2.81696 22.8388 5.16117C25.183 7.50537 26.5 10.6848 26.5 14Z" stroke="#6306B2" stroke-width="3" stroke-linecap="round" stroke-linejoin="round"/>
</svg>
