<svg width="127" height="128" viewBox="0 0 127 128" fill="none" xmlns="http://www.w3.org/2000/svg">
<rect x="0.504753" y="0.986199" width="125.863" height="125.863" rx="18.7136" fill="white"/>
<path d="M88.4601 54.7677V88.6634C88.4601 91.6686 86.014 94.1147 83.0088 94.1147H39.2589C36.2537 94.1147 33.8076 91.6686 33.8076 88.6634V54.7677C33.8076 51.7625 36.2537 49.3164 39.2589 49.3164H83.0088C86.014 49.3863 88.4601 51.7625 88.4601 54.7677Z" fill="#AA00FA"/>
<path d="M88.4601 81.9531V88.3129C88.4601 91.5278 86.014 94.1136 83.0088 94.1136H39.2589C36.2537 94.1136 33.8076 91.5278 33.8076 88.3129V81.9531H88.4601Z" fill="#7400AB"/>
<path d="M29.6139 75.4539H24.7223C24.303 75.4539 24.0234 75.1045 24.0234 74.7551V70.4224C24.0234 70.0032 24.3728 69.7236 24.7223 69.7236H29.6139C29.6838 69.7236 29.7537 69.7935 29.7537 69.8634V75.3141C29.7537 75.384 29.6838 75.4539 29.6139 75.4539Z" fill="#2D0456"/>
<path d="M97.5412 75.4529H92.6495C92.5797 75.4529 92.5098 75.383 92.5098 75.3132V69.8624C92.5098 69.7925 92.5797 69.7227 92.6495 69.7227H97.5412C97.9605 69.7227 98.24 70.0721 98.24 70.4215V74.7541C98.3099 75.1734 97.9605 75.4529 97.5412 75.4529Z" fill="#2D0456"/>
<path d="M94.6091 82.7223H88.459V62.2451H94.6091C95.7273 62.2451 96.6359 63.1537 96.6359 64.2719V80.7654C96.6359 81.8138 95.7273 82.7223 94.6091 82.7223Z" fill="#A560DC"/>
<path d="M33.8078 62.2451V82.7223C33.1089 82.7223 32.3401 82.6524 31.7111 82.4428C28.2167 81.5342 25.6309 78.3194 25.6309 74.5454V70.422C25.6309 68.1856 26.5394 66.089 28.007 64.6213C28.9855 63.6429 30.3134 62.8741 31.7111 62.5247C32.41 62.315 33.1089 62.2451 33.8078 62.2451Z" fill="#A560DC"/>
<path d="M47.2935 72.1694C44.5679 72.1694 42.4014 70.0029 42.4014 67.2773V64.7613C42.4014 62.0357 44.5679 59.8691 47.2935 59.8691C50.0192 59.8691 52.1857 62.0357 52.1857 64.7613V67.2773C52.1857 69.933 50.0192 72.1694 47.2935 72.1694Z" fill="#2D0456"/>
<path d="M47.2955 70.9808C45.269 70.9808 43.5918 69.3036 43.5918 67.2771V64.7613C43.5918 62.7348 45.269 61.0576 47.2955 61.0576C49.3221 61.0576 50.9992 62.7348 50.9992 64.7613V67.2771C50.9992 69.3036 49.3221 70.9808 47.2955 70.9808Z" fill="#A560DC"/>
<path d="M49.8098 64.6915V67.2072C49.8098 68.6049 48.6917 69.723 47.2941 69.723C46.3856 69.723 45.547 69.2338 45.1277 68.4651C44.9181 68.1157 44.7783 67.6964 44.7783 67.2072V64.6915C44.7783 63.2939 45.8964 62.1758 47.2941 62.1758C47.9929 62.1758 48.6218 62.4553 49.0411 62.8746C49.1809 63.0144 49.2507 63.1541 49.3905 63.2939C49.67 63.783 49.8098 64.2023 49.8098 64.6915Z" fill="#F7FFFF"/>
<path d="M49.809 64.691V67.2068C49.809 68.6044 48.6909 69.7225 47.2933 69.7225C46.3848 69.7225 45.5462 69.2333 45.127 68.4646L49.3897 63.3633C49.6692 63.7826 49.809 64.2019 49.809 64.691Z" fill="#E3E3E3"/>
<path d="M75.1842 72.1694C72.4585 72.1694 70.292 70.0029 70.292 67.2773V64.7613C70.292 62.0357 72.4585 59.8691 75.1842 59.8691C77.9098 59.8691 80.0763 62.0357 80.0763 64.7613V67.2773C80.0763 69.933 77.9098 72.1694 75.1842 72.1694Z" fill="#2D0456"/>
<path d="M75.1822 70.9808C73.1557 70.9808 71.4785 69.3036 71.4785 67.2771V64.7613C71.4785 62.7348 73.1557 61.0576 75.1822 61.0576C77.2088 61.0576 78.8859 62.7348 78.8859 64.7613V67.2771C78.8859 69.3036 77.2088 70.9808 75.1822 70.9808Z" fill="#A560DC"/>
<path d="M77.7004 64.6915V67.2072C77.7004 68.6049 76.5823 69.723 75.1847 69.723C74.2762 69.723 73.4376 69.2338 73.0184 68.4651C72.8087 68.1157 72.6689 67.6964 72.6689 67.2072V64.6915C72.6689 63.2939 73.7871 62.1758 75.1847 62.1758C75.8835 62.1758 76.5124 62.4553 76.9317 62.8746C77.0715 63.0144 77.1414 63.1541 77.2811 63.2939C77.4908 63.783 77.7004 64.2023 77.7004 64.6915Z" fill="#F7FFFF"/>
<path d="M77.6996 64.692V67.2077C77.6996 68.6054 76.5815 69.7235 75.1839 69.7235C74.2754 69.7235 73.4369 69.2343 73.0176 68.4656L77.2803 63.3643C77.49 63.7835 77.6996 64.2028 77.6996 64.692Z" fill="#E3E3E3"/>
<path d="M62.1141 35.9678H60.1572V49.3164H62.1141V35.9678Z" fill="#A560DC"/>
<path d="M68.7493 98.5168H53.4439C53.1643 98.5168 52.8848 98.2372 52.8848 97.9577V94.6031C52.8848 94.3235 53.1643 94.0439 53.4439 94.0439H68.7493C69.0289 94.0439 69.3085 94.3235 69.3085 94.6031V97.9577C69.3085 98.2372 69.0988 98.5168 68.7493 98.5168Z" fill="#2D0456"/>
<path d="M68.7493 102.92H53.4439C53.1643 102.92 52.8848 102.641 52.8848 102.361V99.0064C52.8848 98.7268 53.1643 98.4473 53.4439 98.4473H68.7493C69.0289 98.4473 69.3085 98.7268 69.3085 99.0064V102.361C69.3085 102.641 69.0988 102.92 68.7493 102.92Z" fill="#A560DC"/>
<path d="M39.5383 89.6412C39.5383 90.34 38.9793 90.969 38.2106 90.969C37.5118 90.969 36.8828 90.4099 36.8828 89.6412C36.8828 88.8725 37.4419 88.3135 38.2106 88.3135C38.9793 88.3834 39.5383 88.9424 39.5383 89.6412Z" fill="#2D0456"/>
<path d="M39.5383 53.5094C39.5383 54.2082 38.9793 54.8371 38.2106 54.8371C37.5118 54.8371 36.8828 54.2781 36.8828 53.5094C36.8828 52.8106 37.4419 52.1816 38.2106 52.1816C38.9793 52.2515 39.5383 52.8106 39.5383 53.5094Z" fill="#2D0456"/>
<path d="M85.4524 89.6412C85.4524 90.34 84.8933 90.969 84.1246 90.969C83.4258 90.969 82.7969 90.4099 82.7969 89.6412C82.7969 88.8725 83.3559 88.3135 84.1246 88.3135C84.8234 88.3834 85.4524 88.9424 85.4524 89.6412Z" fill="#2D0456"/>
<path d="M85.4524 53.5094C85.4524 54.2082 84.8933 54.8371 84.1246 54.8371C83.4258 54.8371 82.7969 54.2781 82.7969 53.5094C82.7969 52.8106 83.3559 52.1816 84.1246 52.1816C84.8234 52.2515 85.4524 52.8106 85.4524 53.5094Z" fill="#2D0456"/>
<path d="M33.8095 62.2451V82.7223C33.1107 82.7223 32.3419 82.6524 31.7129 82.4428V62.4548C32.4118 62.315 33.1107 62.2451 33.8095 62.2451Z" fill="#2D0456"/>
<path d="M88.459 62.2451V82.7223C89.1579 82.7223 89.9266 82.6524 90.5556 82.4428V62.4548C89.8567 62.315 89.1579 62.2451 88.459 62.2451Z" fill="#2D0456"/>
<path d="M61.2746 38.6224C63.706 38.6224 65.6771 36.6514 65.6771 34.2199C65.6771 31.7885 63.706 29.8174 61.2746 29.8174C58.8432 29.8174 56.8721 31.7885 56.8721 34.2199C56.8721 36.6514 58.8432 38.6224 61.2746 38.6224Z" fill="#A560DC"/>
<path d="M63.5814 36.4564C62.3235 37.7143 60.297 37.7143 59.0391 36.4564C57.7812 35.1985 57.7812 33.172 59.0391 31.9141C60.297 30.6562 62.3235 30.6562 63.5814 31.9141C64.7694 33.172 64.7694 35.1985 63.5814 36.4564Z" fill="#AA00FA"/>
<path d="M63.5843 36.4564C62.3264 37.7142 60.2999 37.7142 59.042 36.4564L63.5843 31.9141C64.7723 33.1719 64.7723 35.1985 63.5843 36.4564Z" fill="#522E83"/>
<path d="M61.2753 88.9431C52.3297 88.9431 48.4858 84.4703 47.0182 81.7447C46.5988 80.9759 46.5989 79.9975 47.0881 79.2287C47.5773 78.4599 48.346 77.9707 49.2546 77.9707H73.2262C74.1347 77.9707 74.9035 78.4599 75.3927 79.2287C75.8819 79.9975 75.8819 80.906 75.4626 81.7447C73.995 84.4703 70.2909 88.9431 61.2753 88.9431Z" fill="#A560DC"/>
<path d="M74.5536 80.4865C74.5536 80.6962 74.5535 80.9757 74.4138 81.1854C74.1342 81.6746 73.8547 82.1638 73.4353 82.7229C71.6183 85.0991 68.054 87.7549 61.2748 87.7549C54.4957 87.7549 50.9314 85.0991 49.1143 82.7229C48.695 82.1638 48.3455 81.6746 48.1359 81.1854C47.9961 80.9757 47.9961 80.6962 47.9961 80.4865C47.9961 79.8575 48.5552 79.2285 49.324 79.2285H73.2956C73.9944 79.2984 74.4837 79.8575 74.5536 80.4865Z" fill="#F7FFFF"/>
<path d="M74.5522 80.4865H47.9248C47.9248 79.8575 48.4839 79.2285 49.2527 79.2285H73.2243C73.993 79.2984 74.4823 79.8575 74.5522 80.4865Z" fill="#E3E3E3"/>
<path d="M87.2024 61.1272V54.8373C87.2024 52.531 85.3154 50.7139 83.079 50.7139H39.7484C37.4421 50.7139 35.625 52.6009 35.625 54.8373V63.0142H87.2723V61.1272H87.2024Z" fill="url(#paint0_linear_542_7126)"/>
<path d="M89.3784 24.5049H86.0238V27.4402C85.0454 27.6499 84.0669 27.9993 83.2283 28.5584L80.9919 26.322L78.6157 28.6982L80.922 31.0045C80.5725 31.5636 80.293 32.1926 80.1532 32.8914H77.0781V36.2461H80.0134C80.2231 37.2245 80.5725 38.2029 81.1316 39.0416L79.1748 40.9985L81.551 43.3747L83.5777 41.3479C84.3465 41.7672 85.1153 42.1167 86.0238 42.2565V45.1918H89.3784V42.0468C90.287 41.7672 91.1955 41.3479 91.8944 40.7888L94.1308 43.0252L96.507 40.649L94.0609 38.2029C94.4104 37.574 94.62 36.8751 94.7598 36.1063H97.6951V32.7517H94.62C94.4104 32.0528 94.2007 31.4937 93.8513 30.8647L96.1576 28.5584L93.7814 26.1822L91.5449 28.4186C90.8461 27.9993 90.1472 27.6499 89.3085 27.4402V24.5049H89.3784ZM90.4966 34.7784C90.4966 36.4557 89.0989 37.8535 87.4216 37.8535C85.7442 37.8535 84.3465 36.4557 84.3465 34.7784C84.3465 33.1011 85.7442 31.7034 87.4216 31.7034C89.1688 31.7034 90.4966 33.1011 90.4966 34.7784Z" fill="#A560DC"/>
<path d="M99.7249 43.3057H98.0476V44.7733C97.5584 44.8432 97.0692 45.0529 96.6498 45.3324L95.5316 44.2142L94.3435 45.4023L95.4617 46.5205C95.322 46.8001 95.1822 47.1495 95.0424 47.4291H93.5049V49.1064H94.9725C95.0424 49.5956 95.2521 50.0848 95.5316 50.5041L94.5532 51.4826L95.7413 52.6707L96.7197 51.6922C97.0692 51.9019 97.4885 52.0417 97.9078 52.1814V53.6491H99.5851V52.1116C100.074 51.9718 100.494 51.7621 100.843 51.4826L101.961 52.6008L103.149 51.4127L101.961 50.2246C102.101 49.8751 102.241 49.5257 102.311 49.1763H103.778V47.4989H102.241C102.171 47.1495 102.031 46.87 101.822 46.5904L102.94 45.4722L101.752 44.2841L100.633 45.4023C100.284 45.1926 99.9346 44.983 99.5152 44.9131V43.3057H99.7249ZM100.284 48.4774C100.284 49.316 99.5851 50.0149 98.7465 50.0149C97.9078 50.0149 97.2089 49.316 97.2089 48.4774C97.2089 47.6387 97.9078 46.9398 98.7465 46.9398C99.5851 46.9398 100.284 47.6387 100.284 48.4774Z" fill="#2D0456"/>
<rect x="0.504753" y="0.986199" width="125.863" height="125.863" rx="18.7136" stroke="#DEDEDE" stroke-width="1.02318"/>
<defs>
<linearGradient id="paint0_linear_542_7126" x1="61.3607" y1="37.0162" x2="61.3607" y2="61.6336" gradientUnits="userSpaceOnUse">
<stop stop-color="white"/>
<stop offset="1" stop-color="white" stop-opacity="0"/>
</linearGradient>
</defs>
</svg>
