<svg width="128" height="128" viewBox="0 0 128 128" fill="none" xmlns="http://www.w3.org/2000/svg">
<rect x="1.20788" y="0.986321" width="125.863" height="125.863" rx="18.7136" fill="#1D1C20"/>
<rect x="1.20788" y="0.986321" width="125.863" height="125.863" rx="18.7136" fill="#0E1330"/>
<path d="M94.6972 52.6122V63.1653H36.5504C33.8247 63.1653 31.6582 60.9988 31.6582 58.2732V54.9185C31.6582 54.7089 31.6582 54.4992 31.6582 54.3594C31.6582 53.8003 31.6582 53.2412 31.7281 52.752C31.798 51.7736 31.9378 50.7252 32.0775 49.7468C32.1474 49.1877 32.2872 48.6286 32.427 48.1394C32.8463 46.4621 33.3355 44.9245 34.0344 43.387C34.2441 42.8279 34.5236 42.2688 34.8032 41.7796C35.7816 39.8227 37.0396 37.9357 38.4373 36.2584C38.9266 35.6993 39.4158 35.1402 39.905 34.651C40.7436 33.7424 41.6522 32.9038 42.6306 32.135C43.3994 31.506 44.2381 30.9469 45.0767 30.3878C45.9853 29.7588 46.9637 29.2696 48.012 28.7804C50.4581 27.5923 53.1138 26.7536 55.8395 26.2644C56.3986 26.1945 56.9577 26.1246 57.4469 26.0548C58.4952 25.915 59.6134 25.8451 60.7316 25.8451H67.7903C68.5591 25.8451 69.3279 25.8451 70.0966 25.9849C70.6557 26.0548 71.2148 26.0548 71.7041 26.1945C77.994 27.1031 83.585 30.248 87.6385 34.7209C88.1278 35.2101 88.617 35.7692 89.0363 36.3283C90.0147 37.6562 90.9233 39.0539 91.692 40.5216C91.9716 41.0807 92.2511 41.5699 92.4608 42.129C93.6489 44.7848 94.3478 47.7201 94.5574 50.7252C94.6273 51.2843 94.6273 51.8435 94.6273 52.3327C94.6972 52.3327 94.6972 52.4724 94.6972 52.6122Z" fill="#AC08FA"/>
<path d="M94.6974 63.1649C94.6974 64.7024 94.0684 65.8905 93.0201 67.3581C92.9502 67.428 92.9502 67.4979 92.8803 67.5678L87.4989 72.9492C84.9131 75.535 81.3488 77.0027 77.6447 77.0027C74.9191 77.0027 72.8923 76.2339 71.2849 75.1157C69.6076 73.9975 68.2797 72.46 66.7422 70.9224L66.4626 70.6429H60.8716C58.2857 70.6429 55.9794 69.315 54.6515 67.2883C53.8828 66.1002 53.3936 64.6325 53.3936 63.095H94.6974V63.1649Z" fill="#AA00FA"/>
<path d="M94.6974 63.1649C94.6974 64.7024 94.0684 65.8905 93.0201 67.3581C92.9502 67.428 92.9502 67.4979 92.8803 67.5678L87.4989 72.9492C84.9131 75.535 81.3488 77.0027 77.6447 77.0027C74.9191 77.0027 72.8923 76.2339 71.2849 75.1157C69.6076 73.9975 68.2797 72.46 66.7422 70.9224L66.4626 70.6429H60.8716C58.2857 70.6429 55.9794 69.315 54.6515 67.2883C53.8828 66.1002 53.3936 64.6325 53.3936 63.095H94.6974V63.1649Z" fill="#522E83"/>
<path d="M89.7337 70.6434L87.4972 72.8798C84.9114 75.4657 81.3471 76.9333 77.643 76.9333C74.9174 76.9333 72.8906 76.1645 71.2832 75.0463C69.6059 73.9281 68.278 72.3906 66.7405 70.853L66.4609 70.5735H89.7337V70.6434Z" fill="#482167"/>
<path d="M41.2304 58.0626H39.6232C39.6232 55.9662 37.946 54.289 35.8496 54.289H31.7266C31.7266 53.73 31.7266 53.1709 31.7964 52.6818H35.8496C38.7846 52.6818 41.2304 55.0577 41.2304 58.0626Z" fill="#482167"/>
<path d="M48.8566 40.3118C48.8566 41.4999 48.6469 42.688 48.1577 43.8062C47.948 44.3653 47.6685 44.9244 47.319 45.4136C45.6417 47.9995 42.7763 49.6768 39.4916 49.6768H32.1533C32.2232 49.1177 32.363 48.5586 32.5028 48.0693H39.4916C43.7547 48.0693 47.2491 44.5749 47.2491 40.3118H48.8566Z" fill="#482167"/>
<path d="M94.7004 57.2942V58.9016H83.7279C79.954 58.8318 76.8789 55.7567 76.8789 51.9128H78.4863C78.4863 54.8481 80.8625 57.2942 83.8677 57.2942H94.7004Z" fill="#482167"/>
<path d="M41.7953 41.6395V43.2468H34.1084C34.318 42.6877 34.5976 42.1287 34.8771 41.6395H41.7953Z" fill="#482167"/>
<path d="M89.0363 36.1182H78.6929C74.5695 36.1182 71.2148 39.4729 71.2148 43.5264H69.6074C69.6074 41.9189 70.0267 40.4513 70.7256 39.1234C71.0052 38.5643 71.3546 38.0751 71.774 37.6558C73.4513 35.6989 75.8973 34.4409 78.6929 34.4409H87.7084C88.1976 35 88.617 35.5591 89.0363 36.1182Z" fill="#482167"/>
<path d="M92.5294 41.9192H80.6484V40.3118H91.6907C92.0402 40.801 92.2499 41.3601 92.5294 41.9192Z" fill="#482167"/>
<path d="M57.5874 51.0748V52.6823C55.2811 52.6823 53.3242 54.5692 53.3242 56.9454V63.0956H51.7168V56.9454C51.7168 56.8755 51.7168 56.8056 51.7168 56.7358C51.7168 56.1767 51.8566 55.6176 51.9964 55.1283C52.7651 52.822 55.0015 51.0748 57.5874 51.0748Z" fill="#482167"/>
<path d="M62.6179 35.0698V36.6773C58.9837 36.6773 55.9785 33.742 55.9785 30.0379V26.0543C56.5376 25.9844 57.0967 25.9145 57.5859 25.8446V30.1078C57.5859 32.8334 59.8224 35.0698 62.6179 35.0698Z" fill="#482167"/>
<path d="M71.7017 25.9844C71.3523 29.3387 68.557 31.9942 65.1328 31.9942V30.3869C67.7184 30.3869 69.8847 28.3603 70.0944 25.8446C70.6534 25.8446 71.2125 25.8446 71.7017 25.9844Z" fill="#482167"/>
<path d="M55.1402 41.7097H53.5328C53.5328 38.6346 51.0168 36.1186 47.9417 36.1186H38.5068C38.9961 35.5595 39.4853 35.0004 39.9745 34.5112H47.9417C51.9253 34.4413 55.1402 37.7261 55.1402 41.7097Z" fill="#482167"/>
<path d="M72.1974 39.3325H72.0576C69.1226 39.3325 66.6768 36.9566 66.6768 33.9517H68.284C68.284 35.9782 69.9612 37.6554 71.9877 37.6554H72.1275V39.3325H72.1974Z" fill="#482167"/>
<path d="M52.6249 56.8748C50.1091 56.8748 48.0127 54.7783 48.0127 52.2626V49.3975H49.62V52.2626C49.62 53.9398 50.9477 55.2675 52.6249 55.2675V56.8748Z" fill="#482167"/>
<path d="M69.9561 70.643H68.3487V61.8371C68.3487 60.649 67.3703 59.6706 66.1822 59.6706C64.0855 59.6706 62.4082 57.9932 62.4082 55.8966V52.6818H64.0156V55.8966C64.0156 57.0847 64.9941 58.0631 66.1822 58.0631C68.2788 58.0631 69.9561 59.7404 69.9561 61.8371V70.643Z" fill="#482167"/>
<path d="M69.1191 66.5889V64.9816C71.2156 64.9816 72.8927 63.3045 72.8927 61.208V60.2996H74.5V61.208C74.5699 64.143 72.124 66.5889 69.1191 66.5889Z" fill="#482167"/>
<path d="M67.3028 51.3547H65.6954C65.6954 48.07 63.0396 45.3444 59.685 45.3444H46.8955V43.7369H59.7549C63.8783 43.7369 67.3028 47.1614 67.3028 51.3547Z" fill="#482167"/>
<path d="M71.283 48.0693H65.1328V46.4618H71.283C73.6592 46.4618 75.616 44.505 75.616 42.1288H77.2234C77.2933 45.4135 74.5677 48.0693 71.283 48.0693Z" fill="#482167"/>
<path d="M89.4549 64.772C86.3102 64.772 83.7246 62.1864 83.7246 59.0417V58.0634H85.3319V59.0417C85.3319 61.2779 87.1488 63.0948 89.385 63.0948V64.772H89.4549Z" fill="#482167"/>
<path d="M83.4484 46.8111H82.0508V45.2039H83.4484C85.6846 45.2039 87.5015 43.387 87.5015 41.1508H89.1088C89.1787 44.2255 86.5931 46.8111 83.4484 46.8111Z" fill="#482167"/>
<path d="M94.6952 52.1923H86.4492V50.5851H94.6253C94.6952 51.0743 94.6952 51.6333 94.6952 52.1923Z" fill="#482167"/>
<path d="M53.1852 32.7628H51.578C51.578 31.3652 50.4599 30.2471 49.0622 30.2471H45.2188C46.1272 29.6182 47.1055 29.129 48.1538 28.6398H49.0622C51.3683 28.5699 53.1852 30.4567 53.1852 32.7628Z" fill="#482167"/>
<path d="M36.4834 63.1652V67.9171C36.4834 68.4063 36.8328 68.7557 37.322 68.7557C37.7413 68.7557 38.0907 68.4063 38.0907 67.9171V63.1652H36.4834Z" fill="#482167"/>
<path d="M39.626 63.1656V67.9176C39.626 68.4067 39.9754 68.7562 40.4646 68.7562C40.8838 68.7562 41.2332 68.4067 41.2332 67.9176V63.1656H39.626Z" fill="#482167"/>
<path d="M42.7012 63.1656V67.9176C42.7012 68.4067 43.0506 68.7562 43.5397 68.7562C43.959 68.7562 44.3084 68.4067 44.3084 67.9176V63.1656H42.7012Z" fill="#482167"/>
<path d="M45.8477 63.1656V67.9176C45.8477 68.4067 46.1971 68.7562 46.6862 68.7562C47.1055 68.7562 47.4549 68.4067 47.4549 67.9176V63.1656H45.8477Z" fill="#482167"/>
<path d="M48.9932 63.1656V67.9176C48.9932 68.4067 49.3426 68.7562 49.8317 68.7562C50.251 68.7562 50.6004 68.4067 50.6004 67.9176V63.1656H48.9932Z" fill="#482167"/>
<path d="M39.2041 38.3549C39.2041 38.3549 46.8918 27.1029 63.1757 27.1029C83.1637 27.1029 87.8462 37.8657 87.8462 37.8657L39.2041 38.3549Z" fill="url(#paint0_linear_481_2576)"/>
<path d="M23.833 90.2824V95.3144C23.833 96.4326 24.6018 97.411 25.6501 97.6207C30.4724 98.7389 44.45 101.395 63.809 101.395C84.8453 101.395 98.753 98.8786 103.436 97.9002C104.484 97.6905 105.183 96.782 105.183 95.7337V90.2125H23.833V90.2824Z" fill="#18033B"/>
<path d="M64.5059 86.2982C42.0718 86.2982 23.8311 88.0454 23.8311 90.2818H105.181C105.181 88.1153 86.94 86.2982 64.5059 86.2982Z" fill="#AA00FA"/>
<path d="M64.5059 94.2654C86.94 94.2654 105.181 92.5182 105.181 90.2817H23.8311C23.8311 92.4483 42.002 94.2654 64.5059 94.2654Z" fill="#522E83"/>
<path d="M88.9682 91.1213C91.1348 90.8417 92.3927 90.5622 92.3927 90.2826C92.3927 89.3042 79.8828 88.5354 64.5074 88.5354C49.132 88.5354 36.6221 89.3042 36.6221 90.2826C36.6221 90.632 38.0897 90.9116 40.7455 91.1912C45.4979 90.6321 54.6532 90.2826 65.2762 90.2826C75.2702 90.2826 84.0761 90.6321 88.9682 91.1213Z" fill="#18033B"/>
<path d="M88.968 91.1214C84.0758 90.6322 75.2699 90.2827 65.1362 90.2827C54.5831 90.2827 45.3579 90.6322 40.6055 91.1913C45.4976 91.6805 54.3035 92.0299 64.4373 92.0299C75.0603 92.0299 84.2855 91.6106 88.968 91.1214Z" fill="#F7FFF2"/>
<path d="M40.6768 91.1908L16.0762 42.8982H112.452L88.9694 91.1908H40.6768Z" fill="url(#paint1_linear_481_2576)" fill-opacity="0.5"/>
<rect x="1.20788" y="0.986321" width="125.863" height="125.863" rx="18.7136" stroke="white" stroke-opacity="0.08" stroke-width="1.02318"/>
<rect x="1.20788" y="0.986321" width="125.863" height="125.863" rx="18.7136" stroke="#282D45" stroke-width="1.02318"/>
<defs>
<linearGradient id="paint0_linear_481_2576" x1="62.5323" y1="17.8764" x2="63.6062" y2="39.2355" gradientUnits="userSpaceOnUse">
<stop stop-color="white"/>
<stop offset="1" stop-color="white" stop-opacity="0.13"/>
</linearGradient>
<linearGradient id="paint1_linear_481_2576" x1="59.18" y1="114.475" x2="63.8688" y2="48.4726" gradientUnits="userSpaceOnUse">
<stop stop-color="#DF9AFF"/>
<stop offset="1" stop-color="#D783FF" stop-opacity="0"/>
</linearGradient>
</defs>
</svg>
