<svg width="409" height="392" viewBox="0 0 409 392" fill="none" xmlns="http://www.w3.org/2000/svg">
<g clip-path="url(#clip0_542_7074)">
<rect x="1" y="1" width="407" height="390" rx="16" fill="#F3F3F3"/>
<g opacity="0.3">
<path d="M191.113 160.15C191.48 159.967 191.664 159.967 192.031 159.784C192.397 159.784 192.581 159.784 192.948 159.784C193.498 159.967 194.048 159.967 194.415 159.417C192.948 159.6 192.581 158.499 191.48 157.949C191.847 157.766 192.031 157.766 192.214 157.766C192.764 157.766 192.948 157.399 193.315 157.032C193.865 156.665 194.415 156.298 195.149 156.115C195.516 155.931 195.7 155.748 196.066 155.748C196.433 155.748 196.8 155.564 197.167 155.748C198.635 156.665 200.286 156.298 201.937 156.665C202.854 156.848 203.771 157.215 204.689 157.399C204.872 157.399 205.239 157.582 205.422 157.399C206.706 156.481 208.174 156.665 209.642 156.848C210.375 156.848 211.109 157.399 211.843 156.848C212.026 156.848 212.21 156.848 212.393 157.032C213.127 157.215 214.044 157.399 214.778 157.766C214.962 157.766 215.145 157.766 215.329 157.949C215.879 158.683 216.613 158.683 217.53 158.683C217.713 158.683 218.08 158.866 218.08 159.05C218.447 158.683 218.814 158.133 219.181 157.582C218.998 157.582 218.814 157.399 218.631 157.399C218.08 157.582 217.713 157.766 217.163 157.766C216.613 157.949 216.062 157.949 215.512 157.582C215.329 157.399 215.145 157.399 214.962 157.399C214.044 157.215 213.127 156.298 213.127 155.381C213.127 155.197 213.311 155.014 213.311 154.83C213.494 154.647 213.677 154.464 214.044 154.097C213.311 154.097 212.944 154.647 212.577 155.014C212.026 155.748 211.476 155.931 210.742 155.381C210.559 155.381 210.559 155.197 210.375 155.197C210.008 155.014 209.642 155.014 209.642 154.464C209.642 153.913 209.825 153.179 210.375 152.996C211.109 152.813 211.66 152.812 212.393 152.812C212.944 152.812 213.311 152.996 213.861 152.996C213.861 153.363 213.861 153.546 213.861 153.913C214.411 153.913 214.962 153.913 215.329 153.913C215.695 153.913 216.062 154.28 216.429 154.464C216.613 154.647 216.98 154.83 217.163 154.83C217.163 154.464 217.346 154.28 217.346 153.913V153.73C218.631 153.546 218.998 153.913 219.364 155.381C219.364 155.931 219.364 156.481 219.915 156.848C220.282 157.215 220.098 157.399 219.548 158.316C220.465 158.499 221.382 158.866 222.3 158.133C222.3 158.133 222.85 158.316 223.033 158.499C223.217 158.499 223.217 158.866 223.217 159.05C223.584 158.683 223.767 158.316 224.134 157.949C223.951 157.582 223.767 157.215 223.4 156.848C222.85 156.298 223.033 155.381 223.767 155.197C223.951 155.197 224.318 155.197 224.501 155.381C224.868 155.931 225.235 156.665 225.602 157.215C225.785 157.399 225.785 157.582 225.969 157.949C226.152 157.582 226.335 157.399 226.335 157.215C226.702 157.215 226.886 157.582 226.886 157.949C226.886 158.316 227.069 158.683 227.253 158.866H227.436C227.62 158.499 227.986 157.949 228.17 157.582C228.353 157.032 227.987 156.298 227.62 156.298C226.702 156.115 226.152 155.748 226.152 154.83C226.152 154.097 226.702 153.363 227.436 153.179C227.803 153.179 228.353 153.179 228.72 153.179C229.454 153.179 230.371 153.363 231.105 153.363C231.655 153.363 232.022 153.546 232.206 154.097C232.389 155.014 233.123 155.381 234.04 155.564C234.407 155.564 234.591 155.748 234.958 155.748C236.058 156.115 236.242 156.481 235.691 157.582C236.792 158.133 237.709 158.683 238.993 159.233C238.81 159.6 238.627 159.967 238.26 160.15C237.893 160.517 237.526 160.517 237.342 159.967C237.159 159.784 236.976 159.6 236.792 159.233C236.058 159.967 236.058 159.967 236.792 160.517C237.342 161.068 238.076 161.435 237.893 162.535C237.526 162.535 237.342 162.535 237.159 162.352V162.535C236.975 162.535 236.609 162.719 236.609 162.719C235.875 162.352 235.324 161.985 234.591 161.618C234.04 161.251 233.49 160.701 232.756 161.068C232.389 161.251 232.206 161.068 231.655 161.068C231.839 160.517 232.022 160.15 232.389 160.334C232.756 160.334 233.123 160.334 233.306 160.334C233.49 159.967 233.49 159.6 233.673 159.417C233.857 159.233 234.224 159.05 234.407 158.866C233.673 157.949 230.738 156.665 229.638 156.665C229.638 157.215 230.371 157.582 229.821 157.949C229.821 158.499 229.821 158.866 229.821 159.233C229.638 159.6 229.271 159.784 228.904 159.6C228.72 159.6 228.537 159.417 228.537 159.6C228.353 159.6 228.17 159.784 227.986 159.967C228.17 160.15 228.17 160.334 228.353 160.334C228.72 160.701 229.271 161.068 229.638 161.435C228.72 162.168 228.17 162.168 227.436 161.618C227.253 161.618 227.069 161.435 227.069 161.435C225.969 161.985 224.868 162.719 224.318 164.003C224.134 164.553 223.767 165.104 224.684 165.654C224.868 165.837 225.051 166.204 225.235 166.388C225.969 166.755 226.519 166.938 227.253 167.305C227.986 167.672 228.72 167.855 229.638 168.222C229.638 168.956 229.821 170.057 230.738 170.607C231.105 170.424 231.289 170.24 231.289 169.69C231.289 169.323 231.105 169.139 231.105 168.956C230.922 168.589 230.922 168.406 231.472 168.222C232.756 167.488 232.756 166.938 231.655 165.837C231.655 165.837 231.472 165.654 231.655 165.654C231.655 164.737 231.655 163.819 231.655 162.719C232.573 163.086 233.857 162.535 234.591 163.636C234.958 164.186 235.691 164.37 235.508 165.287C235.508 165.47 235.875 165.837 236.058 165.837C236.425 165.654 236.975 165.47 237.159 165.287C237.342 165.104 237.526 164.737 237.709 164.186C238.26 165.287 239.177 165.837 238.993 167.121C238.993 167.305 239.177 167.488 239.177 167.672C239.544 168.039 240.094 168.222 240.644 168.589C241.011 168.956 241.378 169.139 241.562 169.506C241.929 170.057 241.745 170.424 241.011 170.607C239.911 171.341 238.81 171.524 237.709 171.157C237.526 171.157 237.342 171.157 237.342 171.341C237.342 171.524 237.342 171.708 237.526 171.891C237.709 172.075 237.893 172.075 237.893 172.075C237.893 172.625 237.893 173.359 238.076 173.726C238.26 174.093 238.993 174.093 239.544 174.459C239.177 174.643 238.81 174.826 238.443 175.01C238.076 175.193 237.709 175.377 237.342 175.56C237.159 175.377 236.976 175.193 236.792 174.826C235.141 175.377 234.958 175.56 235.141 176.661C233.673 176.477 233.307 177.578 232.94 178.679C232.756 178.495 232.573 178.312 232.389 178.128H232.206C232.206 178.495 232.389 178.679 232.573 179.046C232.94 179.596 232.756 180.146 232.206 180.513C231.839 180.88 231.289 181.247 230.922 181.614C230.371 181.981 230.188 182.531 230.555 183.265C230.738 183.815 230.922 184.549 230.922 185.099C230.922 185.283 230.922 185.283 230.922 185.466C230.922 185.466 230.738 185.466 230.738 185.65C230.555 185.283 230.004 184.733 230.004 184.366C230.004 183.082 228.904 183.082 228.17 182.898C227.62 182.898 227.069 182.531 226.702 183.265C226.702 183.448 225.969 183.448 225.785 183.265C225.051 182.898 224.684 183.448 224.134 183.632C223.584 183.999 223.4 184.366 223.4 185.099C223.4 185.65 223.217 186.384 223.217 187.117C223.217 187.484 223.4 187.851 223.584 188.218C223.767 188.768 224.317 189.135 225.051 189.135C225.785 189.135 226.335 188.952 226.519 188.218C226.702 187.484 227.436 187.668 228.17 187.484C227.803 188.585 227.62 189.502 227.253 190.419C227.803 190.419 228.17 190.419 228.537 190.419C229.454 190.419 229.821 190.603 229.638 191.52C229.454 192.437 229.821 193.355 230.555 193.905C231.472 193.355 232.022 193.355 232.756 194.272C233.123 194.639 233.49 194.822 233.857 194.272C234.407 193.722 234.958 193.171 235.691 192.621C235.691 193.355 235.691 193.905 235.691 194.455C235.691 194.455 235.875 194.455 235.875 194.639C236.058 194.088 236.425 193.722 236.609 193.171C237.526 193.905 238.627 194.088 239.36 193.538C239.727 193.722 240.094 193.905 240.461 194.088C240.461 194.272 240.461 194.455 240.278 194.639C241.011 194.822 241.745 195.189 242.112 195.923C242.112 196.106 242.479 196.106 242.846 196.106C243.58 196.106 244.313 196.29 244.68 197.024C244.864 197.391 245.414 197.941 245.781 198.308C245.414 198.491 244.864 198.858 244.497 199.042C244.864 199.408 244.864 199.408 246.148 198.858C245.781 199.408 245.598 199.775 245.414 200.326C245.414 200.326 245.598 200.326 245.598 200.509C245.781 200.326 246.148 200.142 246.331 199.959C246.698 199.408 247.249 199.408 247.616 199.775C248.349 200.326 249.083 200.509 250 200.693C250.918 200.876 251.651 201.426 252.385 201.977C252.569 202.16 252.569 202.711 252.569 202.894C252.202 203.628 251.835 204.362 251.284 204.912C250.918 205.279 250.734 205.646 250.734 206.196C250.551 207.297 250.551 208.397 249.817 209.498C249.633 209.865 249.267 210.048 248.9 210.232C248.166 210.415 247.432 210.782 246.882 211.149C246.331 211.333 246.148 211.883 246.331 212.433C246.515 212.984 245.964 213.901 245.231 214.084C245.047 214.084 244.864 214.451 244.864 214.635C244.68 215.552 244.13 215.919 243.396 216.286C242.662 216.653 242.295 216.102 241.929 215.735C241.929 216.102 242.112 216.286 242.112 216.469C242.662 217.386 242.112 218.304 241.011 218.304C240.644 218.304 240.278 218.304 239.911 218.304C239.911 218.671 239.911 219.037 239.911 219.221C239.544 219.221 239.177 219.037 238.81 219.037C238.26 219.588 238.81 219.771 239.177 220.138C238.627 220.872 237.709 221.239 237.709 222.156C237.893 222.34 238.26 222.34 238.627 222.523C238.26 222.89 237.893 223.257 237.526 223.44C237.159 223.807 236.792 224.174 236.975 224.724C237.159 225.275 237.526 225.642 238.076 225.825C238.26 225.825 238.443 226.009 238.627 226.192C237.893 226.192 237.342 226.192 236.609 226.375C236.242 226.009 237.159 225.458 236.242 225.275C236.058 225.458 236.058 225.642 235.875 226.192C235.508 225.825 235.141 225.458 234.958 225.091C234.774 224.541 234.407 223.991 234.407 223.44C234.407 222.706 234.224 221.973 234.774 221.239C235.141 220.872 235.141 220.322 235.141 219.771C235.141 218.671 234.958 217.386 235.508 216.286C235.691 215.919 235.691 215.185 235.875 214.818C235.875 214.451 235.875 213.901 236.058 213.534C236.792 211.883 236.609 210.048 236.609 208.214C236.609 207.847 236.242 207.48 236.058 207.297C234.407 206.563 233.673 205.279 233.123 203.628C232.756 202.711 232.206 201.977 231.655 201.059C232.206 200.693 232.206 199.959 232.022 199.225C232.022 199.042 232.022 198.675 232.206 198.491C232.389 198.308 232.756 197.941 232.94 197.757C233.673 197.024 233.673 195.923 233.123 195.189C232.756 194.639 232.389 194.272 232.022 193.722C230.922 194.455 230.738 194.455 229.821 193.722C229.271 193.355 228.72 192.804 228.353 192.254C228.17 191.887 227.62 191.52 227.069 191.337C226.519 190.97 225.785 190.603 225.235 190.236C224.868 190.053 224.501 189.869 224.134 190.053C223.951 190.053 223.584 190.236 223.4 190.053C222.3 189.502 221.382 189.135 220.282 188.585C219.915 188.402 219.548 188.035 219.731 187.484C219.731 187.117 219.548 186.75 219.364 186.384C218.631 185.466 217.713 184.549 216.98 183.632C216.796 183.265 216.613 182.898 216.429 182.531C216.246 182.348 216.062 181.981 215.695 181.797C215.512 181.797 215.512 181.981 215.329 181.981C216.246 183.448 216.98 184.733 217.897 186.2C217.897 186.2 217.897 186.2 217.713 186.384C217.53 186.2 217.346 186.2 217.346 186.017C216.613 185.466 216.613 184.366 215.695 184.182C215.879 183.265 214.962 182.715 214.595 181.981C214.411 181.247 214.044 180.697 213.127 180.33C212.944 180.33 212.76 180.146 212.76 179.963C211.66 178.312 210.742 176.661 211.293 174.643C211.476 173.909 211.293 172.992 211.293 172.075C211.476 172.258 211.843 172.258 212.21 172.441C212.026 172.075 212.026 171.708 211.843 171.524C211.293 170.974 210.742 170.424 210.192 170.057C209.275 169.506 208.724 168.773 208.174 167.855C206.89 165.654 204.872 164.737 202.671 164.186C201.937 164.003 201.386 163.636 200.653 163.453C200.469 164.553 199.735 164.553 198.818 164.737C199.002 164.37 199.185 163.819 199.368 163.636C198.635 163.819 197.901 164.553 197.901 165.47C197.901 165.654 197.901 165.654 197.717 165.837C196.617 166.755 195.516 167.672 193.865 167.855C194.599 167.121 196.066 166.938 196.25 165.47C195.333 165.654 194.232 166.021 193.865 164.737C193.131 164.737 192.397 164.186 192.397 163.453C192.397 163.086 193.131 162.352 193.682 162.168C194.232 161.985 194.599 161.801 194.599 161.251C192.948 161.251 191.664 161.618 191.113 160.15Z" fill="url(#paint0_linear_542_7074)"/>
<path d="M243.58 161.618C243.764 161.434 243.947 161.251 244.131 161.067C244.131 161.067 244.131 161.067 243.947 160.884C243.58 161.067 243.213 161.251 243.03 161.434C241.929 159.783 242.296 158.316 243.764 156.848C243.03 155.931 242.296 154.83 241.746 153.913C241.562 153.729 241.379 153.363 241.379 152.996C240.828 151.528 238.994 150.611 237.526 150.978C237.343 150.978 237.159 151.161 236.976 151.161C235.142 151.528 233.857 150.611 234.041 148.593C234.958 148.409 235.692 148.043 236.609 148.043C237.159 148.043 237.71 147.676 237.893 147.125C238.26 146.208 238.994 145.658 239.728 145.291C241.746 144.374 243.764 144.007 245.965 144.374C245.965 144.19 245.782 144.007 245.782 143.64C245.965 143.64 246.148 143.823 246.515 143.823C246.515 144.007 246.332 144.19 246.332 144.374H246.515C246.515 144.007 246.699 143.823 246.882 143.456C248.9 143.089 251.102 142.723 253.303 142.539C254.587 142.356 255.688 142.906 256.605 143.823C257.155 144.374 257.155 144.924 256.605 145.474C256.422 145.658 256.422 145.658 256.238 146.025C257.155 145.474 257.706 144.74 258.806 144.74C258.99 145.658 258.256 146.208 257.889 146.942C258.256 146.942 258.623 146.942 258.99 146.758C258.806 147.125 258.623 147.309 258.44 147.492C258.256 147.676 258.256 147.859 258.256 148.043C258.44 148.96 257.889 149.51 257.339 149.877C257.155 150.06 256.972 150.06 256.788 150.244C257.155 150.427 257.522 150.611 257.889 150.794C258.073 150.978 258.256 151.161 258.44 151.528C257.706 151.711 257.706 151.895 257.522 152.629C257.339 154.096 256.972 155.564 256.055 156.848C255.137 157.949 253.67 158.499 252.753 158.132C252.202 158.683 251.652 159.233 251.102 159.783C250.918 159.967 250.368 159.967 250.001 159.967C249.634 159.967 248.9 160.7 248.717 161.067C248.533 161.434 248.35 161.985 248.166 162.351C248.166 162.535 247.983 162.535 247.983 162.718C247.799 163.269 247.8 163.819 247.616 164.553C245.598 163.819 243.947 163.452 243.58 161.618Z" fill="url(#paint1_linear_542_7074)"/>
<path d="M223.769 144.557C224.686 145.291 225.42 146.025 226.154 146.575C226.337 146.759 226.704 146.575 226.887 146.575C227.254 146.025 227.071 145.841 226.521 145.658C225.97 145.291 225.236 145.107 225.053 144.374C225.603 143.823 226.337 144.007 226.887 144.007C227.254 144.007 227.805 144.007 227.988 143.823C229.089 142.906 230.189 142.539 231.657 142.723C232.941 142.906 234.225 142.723 235.51 142.906C236.06 142.906 236.61 143.273 237.161 143.64C237.527 143.823 237.527 144.007 237.161 144.374C236.977 144.557 236.794 144.741 236.61 144.741C236.06 145.474 235.326 146.208 234.225 145.841C234.409 146.942 233.858 146.942 233.125 147.125C232.391 147.125 231.841 147.309 232.024 148.226C232.024 148.41 231.841 148.593 231.657 148.776C231.107 148.96 230.923 149.51 231.107 150.061C231.107 150.427 231.107 150.978 230.74 151.161L230.556 151.345C230.556 152.445 229.823 152.262 228.905 152.262C228.355 152.262 227.805 152.262 227.254 152.262C225.787 152.445 224.87 151.712 223.952 150.794C223.769 150.611 223.769 150.427 223.585 150.244C223.402 149.51 223.035 148.776 222.852 147.859C223.402 148.226 223.769 148.41 224.136 148.776C224.686 149.327 225.42 149.877 225.787 150.427C226.154 150.978 226.704 151.161 227.438 150.978C227.621 150.978 227.805 150.794 227.805 150.794C227.805 150.611 227.621 150.427 227.621 150.427C227.071 150.061 226.704 149.51 226.337 149.143C225.787 148.41 224.869 148.043 224.136 147.676C223.952 147.492 223.769 147.492 223.585 147.492C223.218 147.309 223.035 147.125 223.402 146.758C223.218 145.658 223.402 145.107 223.769 144.557Z" fill="url(#paint2_linear_542_7074)"/>
<path d="M216.43 150.61C216.614 150.427 216.614 150.244 216.797 150.244C216.981 150.06 217.348 149.693 217.531 149.693C218.265 149.693 218.815 150.06 219.182 150.794C219.182 150.977 218.999 151.161 218.999 151.161C218.815 151.161 218.448 151.161 218.265 151.161C217.531 150.977 216.981 151.161 216.43 151.711C216.063 152.078 215.696 152.262 215.146 151.711C214.596 151.161 213.679 150.977 213.128 150.61C212.761 150.427 212.394 150.06 212.211 149.877C212.578 149.693 212.945 149.326 213.312 149.143C214.596 148.593 215.696 149.326 216.43 150.61Z" fill="url(#paint3_linear_542_7074)"/>
<path d="M253.668 159.783C254.952 159.783 255.869 159.967 256.603 158.866C256.97 159.417 257.154 159.783 257.52 160.334C257.154 160.701 256.787 161.068 256.236 161.434C256.053 161.618 255.869 161.434 255.686 161.434C255.136 161.251 254.585 161.068 254.035 160.701C253.851 160.517 253.851 160.15 253.668 159.783Z" fill="url(#paint4_linear_542_7074)"/>
<path d="M235.325 188.769C234.958 188.769 234.591 188.952 234.224 188.952C234.041 188.952 234.041 188.952 233.857 188.769C232.94 188.035 232.756 188.035 232.023 188.952C231.656 186.751 230.188 186.934 228.537 186.934C228.721 186.567 229.087 186.384 229.638 186.384C230.372 186.567 231.105 186.751 231.656 186.934C232.573 187.301 233.307 187.851 234.407 188.035C234.774 188.218 235.141 188.585 235.325 188.769Z" fill="url(#paint5_linear_542_7074)"/>
<path d="M221.564 155.381C221.014 155.197 219.913 154.28 220.097 153.913C220.097 153.73 220.463 153.363 220.647 153.179C221.197 152.996 222.665 153.913 222.481 154.463C222.481 155.014 221.931 155.197 221.564 155.381Z" fill="url(#paint6_linear_542_7074)"/>
<path d="M219.184 149.51C219.917 150.427 220.651 150.244 221.385 149.877C221.752 149.693 222.119 149.877 222.119 150.244C222.302 150.977 222.669 151.161 223.403 151.161C223.403 151.161 223.586 151.161 223.586 151.344C223.219 151.895 221.935 151.895 221.568 151.344C221.202 150.977 220.835 150.794 220.468 150.794C219.917 150.61 219.184 150.427 219.184 149.51Z" fill="url(#paint7_linear_542_7074)"/>
<path d="M242.664 172.808C241.563 172.625 240.646 172.625 239.728 172.441C239.728 172.441 239.728 172.258 239.545 172.258C239.912 171.891 240.279 171.524 240.462 171.157C241.379 171.524 242.297 171.708 242.664 172.808Z" fill="url(#paint8_linear_542_7074)"/>
<path d="M218.996 147.309C219.546 147.125 220.097 146.758 220.28 146.942C220.831 147.308 221.197 147.859 221.564 148.409C221.564 148.409 221.381 148.776 221.198 148.776C220.831 148.776 220.464 148.96 220.28 148.776C219.913 148.409 219.546 147.859 218.996 147.309Z" fill="url(#paint9_linear_542_7074)"/>
<path d="M225.785 152.995C225.601 153.545 225.418 153.912 224.684 154.096C224.317 154.096 224.134 154.463 223.95 154.83C223.584 154.279 223.217 153.729 223.767 153.178C224.134 152.445 224.868 152.995 225.785 152.995Z" fill="url(#paint10_linear_542_7074)"/>
<path d="M215.145 148.593C215.511 148.226 215.878 147.859 216.429 147.675C216.429 147.492 216.245 147.492 216.245 147.309C216.612 147.675 217.163 148.042 217.529 148.593C216.796 148.96 216.062 148.96 215.145 148.593Z" fill="url(#paint11_linear_542_7074)"/>
<path d="M221.382 147.125C221.382 146.758 221.199 146.391 221.382 146.024C221.382 145.841 221.749 145.657 221.933 145.474C222.116 145.474 222.483 145.657 222.483 145.657C222.483 145.841 222.3 146.024 222.3 146.207C221.933 146.758 221.749 146.941 221.382 147.125C221.566 147.125 221.566 147.125 221.382 147.125Z" fill="url(#paint12_linear_542_7074)"/>
<path d="M233.489 232.062C262.77 232.062 286.506 208.325 286.506 179.045C286.506 149.765 262.77 126.028 233.489 126.028C204.209 126.028 180.473 149.765 180.473 179.045C180.473 208.325 204.209 232.062 233.489 232.062Z" fill="url(#paint13_radial_542_7074)"/>
<path d="M254.091 227.892C281.058 216.488 293.674 185.381 282.27 158.414C270.865 131.447 239.758 118.831 212.791 130.236C185.824 141.64 173.208 172.747 184.613 199.714C196.018 226.681 227.124 239.297 254.091 227.892Z" stroke="url(#paint14_radial_542_7074)" stroke-width="1.2957" stroke-miterlimit="10"/>
<path d="M286.136 151.345C272.378 122.543 237.889 110.252 209.088 123.828C180.287 137.586 167.996 172.075 181.571 200.876C195.329 229.677 229.818 241.969 258.619 228.393C287.604 214.635 299.895 180.146 286.136 151.345ZM198.998 192.621C189.826 173.359 198.081 150.244 217.343 141.072C236.605 131.899 259.72 140.155 268.892 159.417C278.065 178.679 269.81 201.793 250.547 210.966C231.285 220.138 208.171 212.066 198.998 192.621Z" fill="url(#paint15_linear_542_7074)"/>
<path d="M245.228 204.729C232.754 210.049 218.262 205.463 210.924 194.272L198.266 200.326C208.906 218.488 231.653 225.826 251.099 217.387L245.228 204.729Z" fill="url(#paint16_linear_542_7074)"/>
<path d="M286.136 151.345C272.378 122.543 237.889 110.252 209.088 123.828C180.287 137.586 167.996 172.075 181.571 200.876C195.329 229.677 229.818 241.969 258.619 228.393C287.604 214.635 299.895 180.146 286.136 151.345ZM198.998 192.621C189.826 173.359 198.081 150.244 217.343 141.072C236.605 131.899 259.72 140.155 268.892 159.417C278.065 178.679 269.81 201.793 250.547 210.966C231.285 220.138 208.171 212.066 198.998 192.621Z" fill="url(#paint17_linear_542_7074)"/>
<path d="M297.144 146.025C280.634 111.17 238.808 96.1268 203.769 112.821C168.914 129.331 153.871 171.157 170.565 206.196C187.259 241.235 228.901 256.094 263.94 239.4C298.979 222.706 313.838 181.064 297.144 146.025ZM191.661 196.106C180.654 172.808 190.561 144.741 213.859 133.734C237.157 122.727 265.224 132.633 276.231 155.931C287.238 179.229 277.332 207.297 254.034 218.304C230.736 229.494 202.668 219.588 191.661 196.106Z" stroke="url(#paint18_linear_542_7074)" stroke-width="1.68644" stroke-miterlimit="10"/>
<path d="M245.228 204.729C232.754 210.049 218.262 205.463 210.924 194.272L198.266 200.326C208.906 218.488 231.653 225.826 251.099 217.387L245.228 204.729Z" fill="url(#paint19_linear_542_7074)"/>
<path d="M271.643 153.363C260.636 135.202 238.072 127.13 217.893 134.468L224.313 148.043C236.971 144.007 250.73 148.96 258.068 159.784L271.643 153.363Z" fill="url(#paint20_linear_542_7074)"/>
</g>
<path d="M159.812 191.431L121.798 229.445C100.734 208.381 100.734 174.481 121.798 153.417L159.812 191.431Z" stroke="#AA00FA" stroke-width="2.08057" stroke-miterlimit="10"/>
<path d="M168.371 191.431L206.385 229.445C227.449 208.381 227.449 174.481 206.385 153.417L168.371 191.431Z" stroke="#AA00FA" stroke-width="2.08057" stroke-miterlimit="10"/>
<path d="M164.09 187.152L126.076 149.138C147.14 128.074 181.04 128.074 202.104 149.138L164.09 187.152Z" stroke="#AA00FA" stroke-width="2.08057" stroke-miterlimit="10"/>
<path d="M164.09 195.545L126.076 233.559C147.14 254.623 181.04 254.623 202.104 233.559L164.09 195.545Z" stroke="#AA00FA" stroke-width="2.08057" stroke-miterlimit="10"/>
<path d="M168.366 249.357C168.366 251.661 166.391 253.635 164.087 253.635C161.783 253.635 159.809 251.661 159.809 249.357C159.809 247.053 161.783 245.078 164.087 245.078C166.391 245.078 168.366 247.053 168.366 249.357Z" fill="#AA00FA"/>
<path d="M164.09 249.357V263.509L174.786 274.206H243.08V188.962" stroke="#AA00FA" stroke-width="1.35271" stroke-miterlimit="10"/>
<path d="M234.031 188.963H251.146" stroke="#AA00FA" stroke-width="1.35271" stroke-miterlimit="10"/>
<path d="M185.652 284.819C184.39 284.819 183.573 283.942 183.573 282.586C183.573 281.241 184.42 280.347 185.688 280.347C186.712 280.347 187.476 280.945 187.625 281.875H186.825C186.677 281.372 186.244 281.075 185.67 281.075C184.87 281.075 184.367 281.656 184.367 282.58C184.367 283.498 184.876 284.091 185.67 284.091C186.256 284.091 186.706 283.783 186.849 283.303H187.636C187.471 284.215 186.677 284.819 185.652 284.819ZM192.741 282.58C192.741 283.895 191.876 284.819 190.632 284.819C189.394 284.819 188.541 283.901 188.541 282.58C188.541 281.265 189.4 280.341 190.638 280.341C191.876 280.341 192.741 281.259 192.741 282.58ZM191.942 282.58C191.942 281.656 191.432 281.07 190.638 281.07C189.845 281.07 189.335 281.656 189.335 282.58C189.335 283.504 189.845 284.091 190.638 284.091C191.432 284.091 191.942 283.492 191.942 282.58ZM194.667 284.748H193.921V280.418H194.673L196.705 283.486V280.418H197.451V284.748H196.705L194.667 281.68V284.748ZM198.589 281.626C198.589 280.868 199.216 280.341 200.129 280.341C201.005 280.341 201.562 280.827 201.586 281.609H200.828C200.81 281.235 200.543 281.016 200.117 281.016C199.649 281.016 199.347 281.241 199.347 281.603C199.347 281.911 199.513 282.082 199.874 282.165L200.555 282.313C201.296 282.473 201.657 282.853 201.657 283.498C201.657 284.304 201.029 284.825 200.075 284.825C199.151 284.825 198.547 284.333 198.529 283.557H199.288C199.293 283.925 199.59 284.144 200.075 284.144C200.579 284.144 200.899 283.925 200.899 283.563C200.899 283.273 200.751 283.101 200.395 283.024L199.708 282.87C198.974 282.71 198.589 282.29 198.589 281.626ZM202.787 283.166V280.418H203.545V283.119C203.545 283.741 203.883 284.085 204.499 284.085C205.115 284.085 205.459 283.735 205.459 283.119V280.418H206.217V283.166C206.217 284.179 205.553 284.819 204.499 284.819C203.451 284.819 202.787 284.185 202.787 283.166ZM208.382 280.418V284.049H210.194V284.748H207.623V280.418H208.382ZM210.449 281.117V280.418H213.742V281.117H212.474V284.748H211.716V281.117H210.449ZM214.781 284.748H213.993L215.557 280.418H216.333L217.897 284.748H217.097L216.748 283.747H215.131L214.781 284.748ZM215.847 281.709L215.356 283.107H216.529L216.031 281.709C215.995 281.597 215.954 281.466 215.942 281.378C215.924 281.46 215.889 281.591 215.847 281.709ZM219.66 284.748H218.914V280.418H219.666L221.698 283.486V280.418H222.444V284.748H221.698L219.66 281.68V284.748ZM225.707 284.819C224.445 284.819 223.628 283.942 223.628 282.586C223.628 281.241 224.475 280.347 225.742 280.347C226.767 280.347 227.531 280.945 227.679 281.875H226.88C226.732 281.372 226.299 281.075 225.725 281.075C224.925 281.075 224.422 281.656 224.422 282.58C224.422 283.498 224.931 284.091 225.725 284.091C226.311 284.091 226.761 283.783 226.903 283.303H227.691C227.525 284.215 226.732 284.819 225.707 284.819ZM229.668 283.042L228.205 280.418H229.052L229.905 281.994C229.97 282.112 230.011 282.207 230.059 282.313C230.112 282.207 230.136 282.136 230.213 281.994L231.06 280.418H231.883L230.426 283.042V284.748H229.668V283.042Z" fill="#E3A6FF"/>
<path opacity="0.3" d="M362.468 390.297C377.932 404.271 401.892 402.956 415.985 387.361C430.078 371.765 428.967 347.795 413.503 333.821C398.04 319.848 374.079 321.162 359.987 336.757C345.894 352.352 347.005 376.323 362.468 390.297Z" stroke="url(#paint21_linear_542_7074)" stroke-width="0.487469" stroke-miterlimit="10"/>
<path opacity="0.3" d="M348.722 404.774C372.5 426.262 409.359 424.553 431.047 400.958C452.736 377.363 451.042 340.815 427.264 319.328C403.485 297.84 366.626 299.548 344.938 323.144C323.249 346.739 324.943 383.286 348.722 404.774Z" stroke="url(#paint22_linear_542_7074)" stroke-width="0.544043" stroke-miterlimit="10"/>
<path opacity="0.3" d="M335.113 419.582C367.133 448.518 416.768 446.217 445.974 414.443C475.181 382.669 472.9 333.454 440.879 304.518C408.858 275.582 359.224 277.883 330.017 309.657C300.811 341.431 303.092 390.646 335.113 419.582Z" stroke="url(#paint23_linear_542_7074)" stroke-width="0.581492" stroke-miterlimit="10"/>
<path opacity="0.3" d="M320.728 436.489C361.089 472.962 423.628 469.531 460.411 428.826C497.195 388.121 494.294 325.556 453.934 289.084C413.573 252.611 351.035 256.042 314.251 296.747C277.468 337.452 280.367 400.017 320.728 436.489Z" stroke="url(#paint24_linear_542_7074)" stroke-width="0.562137" stroke-miterlimit="10"/>
<path opacity="0.3" d="M306.934 451.752C356.052 496.138 432.157 491.963 476.921 442.427C521.685 392.891 518.156 316.753 469.038 272.367C419.921 227.982 343.815 232.157 299.051 281.693C254.288 331.228 257.817 407.367 306.934 451.752Z" stroke="url(#paint25_linear_542_7074)" stroke-width="0.505129" stroke-miterlimit="10"/>
</g>
<rect x="0.5" y="0.5" width="408" height="391" rx="16.5" stroke="#D0D0D0"/>
<defs>
<linearGradient id="paint0_linear_542_7074" x1="221.544" y1="246.219" x2="221.544" y2="126.451" gradientUnits="userSpaceOnUse">
<stop stop-opacity="0"/>
<stop offset="1" stop-color="white"/>
</linearGradient>
<linearGradient id="paint1_linear_542_7074" x1="246.271" y1="246.219" x2="246.271" y2="126.45" gradientUnits="userSpaceOnUse">
<stop stop-opacity="0"/>
<stop offset="1" stop-color="white"/>
</linearGradient>
<linearGradient id="paint2_linear_542_7074" x1="229.966" y1="246.218" x2="229.966" y2="126.45" gradientUnits="userSpaceOnUse">
<stop stop-opacity="0"/>
<stop offset="1" stop-color="white"/>
</linearGradient>
<linearGradient id="paint3_linear_542_7074" x1="215.599" y1="246.215" x2="215.599" y2="126.451" gradientUnits="userSpaceOnUse">
<stop stop-opacity="0"/>
<stop offset="1" stop-color="white"/>
</linearGradient>
<linearGradient id="paint4_linear_542_7074" x1="255.62" y1="246.222" x2="255.62" y2="126.449" gradientUnits="userSpaceOnUse">
<stop stop-opacity="0"/>
<stop offset="1" stop-color="white"/>
</linearGradient>
<linearGradient id="paint5_linear_542_7074" x1="232.034" y1="246.22" x2="232.034" y2="126.45" gradientUnits="userSpaceOnUse">
<stop stop-opacity="0"/>
<stop offset="1" stop-color="white"/>
</linearGradient>
<linearGradient id="paint6_linear_542_7074" x1="221.334" y1="246.217" x2="221.334" y2="126.451" gradientUnits="userSpaceOnUse">
<stop stop-opacity="0"/>
<stop offset="1" stop-color="white"/>
</linearGradient>
<linearGradient id="paint7_linear_542_7074" x1="221.429" y1="246.219" x2="221.429" y2="126.45" gradientUnits="userSpaceOnUse">
<stop stop-opacity="0"/>
<stop offset="1" stop-color="white"/>
</linearGradient>
<linearGradient id="paint8_linear_542_7074" x1="241.109" y1="246.223" x2="241.109" y2="126.448" gradientUnits="userSpaceOnUse">
<stop stop-opacity="0"/>
<stop offset="1" stop-color="white"/>
</linearGradient>
<linearGradient id="paint9_linear_542_7074" x1="220.272" y1="246.217" x2="220.272" y2="126.45" gradientUnits="userSpaceOnUse">
<stop stop-opacity="0"/>
<stop offset="1" stop-color="white"/>
</linearGradient>
<linearGradient id="paint10_linear_542_7074" x1="224.567" y1="246.217" x2="224.567" y2="126.45" gradientUnits="userSpaceOnUse">
<stop stop-opacity="0"/>
<stop offset="1" stop-color="white"/>
</linearGradient>
<linearGradient id="paint11_linear_542_7074" x1="216.407" y1="246.219" x2="216.407" y2="126.45" gradientUnits="userSpaceOnUse">
<stop stop-opacity="0"/>
<stop offset="1" stop-color="white"/>
</linearGradient>
<linearGradient id="paint12_linear_542_7074" x1="221.874" y1="246.223" x2="221.874" y2="126.449" gradientUnits="userSpaceOnUse">
<stop stop-opacity="0"/>
<stop offset="1" stop-color="white"/>
</linearGradient>
<radialGradient id="paint13_radial_542_7074" cx="0" cy="0" r="1" gradientUnits="userSpaceOnUse" gradientTransform="translate(203.514 132.27) scale(116.93)">
<stop stop-opacity="0"/>
<stop offset="1" stop-color="white"/>
</radialGradient>
<radialGradient id="paint14_radial_542_7074" cx="0" cy="0" r="1" gradientUnits="userSpaceOnUse" gradientTransform="translate(233.513 179.12) rotate(-22.924) scale(53.6547)">
<stop stop-opacity="0"/>
<stop offset="1" stop-color="white"/>
</radialGradient>
<linearGradient id="paint15_linear_542_7074" x1="367.085" y1="123.738" x2="136.352" y2="214.514" gradientUnits="userSpaceOnUse">
<stop stop-opacity="0"/>
<stop offset="1" stop-color="white"/>
</linearGradient>
<linearGradient id="paint16_linear_542_7074" x1="253.719" y1="282.306" x2="188.176" y2="115.687" gradientUnits="userSpaceOnUse">
<stop stop-opacity="0"/>
<stop offset="1" stop-color="white"/>
</linearGradient>
<linearGradient id="paint17_linear_542_7074" x1="367.085" y1="123.738" x2="136.352" y2="214.514" gradientUnits="userSpaceOnUse">
<stop stop-opacity="0"/>
<stop offset="1" stop-color="white"/>
</linearGradient>
<linearGradient id="paint18_linear_542_7074" x1="299.913" y1="150.167" x2="168.008" y2="202.058" gradientUnits="userSpaceOnUse">
<stop stop-opacity="0"/>
<stop offset="1" stop-color="white"/>
</linearGradient>
<linearGradient id="paint19_linear_542_7074" x1="253.719" y1="282.306" x2="188.176" y2="115.687" gradientUnits="userSpaceOnUse">
<stop stop-opacity="0"/>
<stop offset="1" stop-color="white"/>
</linearGradient>
<linearGradient id="paint20_linear_542_7074" x1="294.926" y1="271.464" x2="224.597" y2="92.6794" gradientUnits="userSpaceOnUse">
<stop stop-opacity="0"/>
<stop offset="1" stop-color="white"/>
</linearGradient>
<linearGradient id="paint21_linear_542_7074" x1="413.596" y1="333.7" x2="362.366" y2="390.391" gradientUnits="userSpaceOnUse">
<stop stop-color="white" stop-opacity="0"/>
<stop offset="0.492" stop-color="white"/>
<stop offset="1" stop-color="white" stop-opacity="0"/>
</linearGradient>
<linearGradient id="paint22_linear_542_7074" x1="427.358" y1="319.205" x2="349.35" y2="405.528" gradientUnits="userSpaceOnUse">
<stop stop-color="white" stop-opacity="0"/>
<stop offset="0.492" stop-color="white"/>
<stop offset="1" stop-color="white" stop-opacity="0"/>
</linearGradient>
<linearGradient id="paint23_linear_542_7074" x1="440.992" y1="304.373" x2="335.975" y2="420.586" gradientUnits="userSpaceOnUse">
<stop stop-color="white" stop-opacity="0"/>
<stop offset="0.492" stop-color="white"/>
<stop offset="1" stop-color="white" stop-opacity="0"/>
</linearGradient>
<linearGradient id="paint24_linear_542_7074" x1="454.044" y1="288.94" x2="320.608" y2="436.601" gradientUnits="userSpaceOnUse">
<stop stop-color="white" stop-opacity="0"/>
<stop offset="0.492" stop-color="white"/>
<stop offset="1" stop-color="white" stop-opacity="0"/>
</linearGradient>
<linearGradient id="paint25_linear_542_7074" x1="469.133" y1="272.243" x2="306.831" y2="451.848" gradientUnits="userSpaceOnUse">
<stop stop-color="white" stop-opacity="0"/>
<stop offset="0.492" stop-color="white"/>
<stop offset="1" stop-color="white" stop-opacity="0"/>
</linearGradient>
<clipPath id="clip0_542_7074">
<rect x="1" y="1" width="407" height="390" rx="16" fill="white"/>
</clipPath>
</defs>
</svg>
