<svg width="128" height="128" viewBox="0 0 128 128" fill="none" xmlns="http://www.w3.org/2000/svg">
<rect x="1.20788" y="1.15417" width="125.863" height="125.863" rx="18.7136" fill="white"/>
<path d="M106.322 34.5223V77.5227H21.3887V34.5223C21.3887 32.2624 23.2091 30.442 25.469 30.442H102.179C104.502 30.3792 106.322 32.2624 106.322 34.5223Z" fill="#AA00FA"/>
<path d="M106.322 56.0537H21.3887V77.4598H106.322V56.0537Z" fill="#522E83"/>
<path d="M103.438 35.0881V72.3761C103.438 72.8783 102.998 73.3177 102.496 73.3177H25.1581C24.9698 73.3177 24.7815 73.2549 24.6559 73.1294C24.4048 72.941 24.2793 72.6899 24.2793 72.3761V35.0881C24.2793 34.5859 24.7187 34.1465 25.2209 34.1465H102.559C102.873 34.1465 103.187 34.3348 103.312 34.5859C103.375 34.7115 103.438 34.8998 103.438 35.0881Z" fill="#161847"/>
<path d="M106.322 77.5237C106.322 78.4026 106.134 79.2814 105.82 80.0347C105.757 80.223 105.632 80.4113 105.569 80.5997C105.506 80.6624 105.506 80.788 105.444 80.8507C105.13 81.3529 104.816 81.8551 104.376 82.2318C103.184 83.4245 101.489 84.1778 99.6056 84.1778H28.1055C25.5946 84.1778 23.4602 82.7968 22.2675 80.788C22.2047 80.7252 22.2047 80.5997 22.142 80.5369C22.0164 80.3486 21.9536 80.1602 21.8909 79.9719C21.577 79.2186 21.3887 78.3398 21.3887 77.4609H106.322V77.5237Z" fill="#EAEAEA"/>
<path d="M76.3773 84.2402H51.2676V94.7236H76.3773V84.2402Z" fill="#A560DC"/>
<path d="M76.3773 84.2402H51.2676V88.0695H76.3773V84.2402Z" fill="#2D0456"/>
<path d="M85.2952 98.3008H42.1064C42.1064 96.292 43.7386 94.7227 45.6846 94.7227H81.6543C83.7259 94.7227 85.2952 96.3548 85.2952 98.3008Z" fill="#2D0456"/>
<path d="M64.6408 32.2633C64.6408 32.326 64.6408 32.326 64.6408 32.3888C64.578 32.7654 64.2642 33.0792 63.8248 33.0792C63.4482 33.0792 63.0716 32.7654 63.0088 32.3888C63.0088 32.326 63.0088 32.326 63.0088 32.2633C63.0088 31.8239 63.3854 31.4473 63.8248 31.4473C64.2642 31.51 64.6408 31.8239 64.6408 32.2633Z" fill="#CECECE"/>
<path d="M64.6408 32.3887C64.578 32.7653 64.2642 33.0791 63.8248 33.0791C63.4482 33.0791 63.0716 32.7653 63.0088 32.3887C63.0716 32.0121 63.3854 31.6982 63.8248 31.6982C64.2642 31.6982 64.578 32.0121 64.6408 32.3887Z" fill="#FFFFF2"/>
<path d="M16.8665 44.4398C16.8665 46.7623 15.9878 48.0804 14.4813 48.0804C13.1004 48.0804 12.2217 46.825 12.2217 44.5026C12.2217 42.1802 13.226 40.9248 14.6069 40.9248C16.0506 40.9248 16.8665 42.2429 16.8665 44.4398ZM13.1004 44.5654C13.1004 46.3857 13.6654 47.3899 14.4813 47.3899C15.4229 47.3899 15.925 46.2601 15.925 44.5026C15.925 42.8079 15.4856 41.678 14.5441 41.678C13.7281 41.678 13.1004 42.6823 13.1004 44.5654Z" fill="#A0A0A0"/>
<path d="M19.7559 41.9295L18.5633 42.5572L18.375 41.8668L19.8814 41.0508H20.6974V47.9553H19.8187V41.9295H19.7559Z" fill="#A0A0A0"/>
<path d="M27.7884 44.4398C27.7884 46.7623 26.9097 48.0804 25.4032 48.0804C24.0223 48.0804 23.1436 46.825 23.1436 44.5026C23.1436 42.1802 24.1479 40.9248 25.5288 40.9248C26.9724 40.9248 27.7884 42.2429 27.7884 44.4398ZM24.0223 44.5654C24.0223 46.3857 24.5872 47.3899 25.4032 47.3899C26.3447 47.3899 26.8469 46.2601 26.8469 44.5026C26.8469 42.8079 26.4075 41.678 25.466 41.678C24.65 41.678 24.0223 42.6823 24.0223 44.5654Z" fill="#A0A0A0"/>
<path d="M30.6788 41.9295L29.4861 42.5572L29.2979 41.8668L30.8043 41.0508H31.6203V47.9553H30.7415V41.9295H30.6788Z" fill="#A0A0A0"/>
<path d="M36.1407 41.9295L34.9481 42.5572L34.7598 41.8668L36.2662 41.0508H37.0822V47.9553H36.2034V41.9295H36.1407Z" fill="#A0A0A0"/>
<path d="M44.1732 44.4398C44.1732 46.7623 43.2944 48.0804 41.788 48.0804C40.4071 48.0804 39.5283 46.825 39.5283 44.5026C39.5283 42.1802 40.5326 40.9248 41.9135 40.9248C43.3572 40.9248 44.1732 42.2429 44.1732 44.4398ZM40.4071 44.5654C40.4071 46.3857 40.972 47.3899 41.788 47.3899C42.7295 47.3899 43.2317 46.2601 43.2317 44.5026C43.2317 42.8079 42.7923 41.678 41.8508 41.678C41.0348 41.678 40.4071 42.6823 40.4071 44.5654Z" fill="#A0A0A0"/>
<path d="M49.6322 44.4398C49.6322 46.7623 48.7534 48.0804 47.247 48.0804C45.8661 48.0804 44.9873 46.825 44.9873 44.5026C44.9873 42.1802 45.9916 40.9248 47.3725 40.9248C48.8162 40.9248 49.6322 42.2429 49.6322 44.4398ZM45.8661 44.5654C45.8661 46.3857 46.431 47.3899 47.247 47.3899C48.1885 47.3899 48.6906 46.2601 48.6906 44.5026C48.6906 42.8079 48.2513 41.678 47.3097 41.678C46.4937 41.678 45.8661 42.6823 45.8661 44.5654Z" fill="#A0A0A0"/>
<path d="M52.5247 41.9295L51.2694 42.5572L51.0811 41.8668L52.5875 41.0508H53.4035V47.9553H52.5247V41.9295Z" fill="#A0A0A0"/>
<path d="M60.5579 44.4398C60.5579 46.7623 59.6792 48.0804 58.1728 48.0804C56.7918 48.0804 55.9131 46.825 55.9131 44.5026C55.9131 42.1802 56.9174 40.9248 58.2983 40.9248C59.742 40.9248 60.5579 42.2429 60.5579 44.4398ZM56.7918 44.5654C56.7918 46.3857 57.3568 47.3899 58.1728 47.3899C59.1143 47.3899 59.6164 46.2601 59.6164 44.5026C59.6164 42.8079 59.177 41.678 58.2355 41.678C57.3568 41.678 56.7918 42.6823 56.7918 44.5654Z" fill="#A0A0A0"/>
<path d="M63.4466 41.9295L62.1912 42.5572L62.0029 41.8668L63.5094 41.0508H64.3254V47.9553H63.4466V41.9295Z" fill="#A0A0A0"/>
<path d="M68.9056 41.9295L67.6502 42.5572L67.4619 41.8668L68.9684 41.0508H69.7844V47.9553H68.9056V41.9295Z" fill="#A0A0A0"/>
<path d="M76.9427 44.4398C76.9427 46.7623 76.0639 48.0804 74.5575 48.0804C73.1766 48.0804 72.2979 46.825 72.2979 44.5026C72.2979 42.1802 73.3021 40.9248 74.683 40.9248C76.0639 40.9248 76.9427 42.2429 76.9427 44.4398ZM73.1766 44.5654C73.1766 46.3857 73.7415 47.3899 74.5575 47.3899C75.499 47.3899 76.0012 46.2601 76.0012 44.5026C76.0012 42.8079 75.5618 41.678 74.6203 41.678C73.7415 41.678 73.1766 42.6823 73.1766 44.5654Z" fill="#A0A0A0"/>
<path d="M79.8314 41.9295L78.576 42.5572L78.3877 41.8668L79.8941 41.0508H80.7101V47.9553H79.8314V41.9295Z" fill="#A0A0A0"/>
<path d="M85.2913 41.9295L84.036 42.5572L83.8477 41.8668L85.3541 41.0508H86.1701V47.9553H85.2913V41.9295Z" fill="#A0A0A0"/>
<path d="M90.7503 41.9295L89.4949 42.5572L89.3066 41.8668L90.8131 41.0508H91.6291V47.9553H90.7503V41.9295Z" fill="#A0A0A0"/>
<path d="M96.2171 41.9295L94.9618 42.5572L94.7734 41.8668L96.2799 41.0508H97.0959V47.9553H96.2171V41.9295Z" fill="#A0A0A0"/>
<path d="M104.186 44.4398C104.186 46.7623 103.307 48.0804 101.801 48.0804C100.42 48.0804 99.541 46.825 99.541 44.5026C99.541 42.1802 100.545 40.9248 101.926 40.9248C103.37 40.9248 104.186 42.2429 104.186 44.4398ZM100.483 44.5654C100.483 46.3857 101.047 47.3899 101.863 47.3899C102.805 47.3899 103.307 46.2601 103.307 44.5026C103.307 42.8079 102.868 41.678 101.926 41.678C101.047 41.678 100.483 42.6823 100.483 44.5654Z" fill="#A0A0A0"/>
<path d="M109.645 44.4398C109.645 46.7623 108.766 48.0804 107.26 48.0804C105.879 48.0804 105 46.825 105 44.5026C105 42.1802 106.004 40.9248 107.385 40.9248C108.829 40.9248 109.645 42.2429 109.645 44.4398ZM105.942 44.5654C105.942 46.3857 106.506 47.3899 107.322 47.3899C108.264 47.3899 108.766 46.2601 108.766 44.5026C108.766 42.8079 108.327 41.678 107.385 41.678C106.506 41.678 105.942 42.6823 105.942 44.5654Z" fill="#A0A0A0"/>
<path d="M115.108 44.4398C115.108 46.7623 114.229 48.0804 112.723 48.0804C111.342 48.0804 110.463 46.825 110.463 44.5026C110.463 42.1802 111.467 40.9248 112.848 40.9248C114.292 40.9248 115.108 42.2429 115.108 44.4398ZM111.342 44.5654C111.342 46.3857 111.907 47.3899 112.723 47.3899C113.664 47.3899 114.166 46.2601 114.166 44.5026C114.166 42.8079 113.727 41.678 112.785 41.678C111.969 41.678 111.342 42.6823 111.342 44.5654Z" fill="#A0A0A0"/>
<path d="M19.637 54.9242C19.637 57.2466 18.7583 58.5648 17.2518 58.5648C15.8709 58.5648 14.9922 57.3094 14.9922 54.987C14.9922 52.6645 15.9965 51.4092 17.3774 51.4092C18.7583 51.4092 19.637 52.7273 19.637 54.9242ZM15.8709 55.0497C15.8709 56.87 16.4359 57.8743 17.2518 57.8743C18.1934 57.8743 18.6955 56.7445 18.6955 54.987C18.6955 53.2922 18.2561 52.1624 17.3146 52.1624C16.4359 52.1624 15.8709 53.1667 15.8709 55.0497Z" fill="#A0A0A0"/>
<path d="M22.5235 52.4139L21.3309 53.0416L21.1426 52.3511L22.649 51.5352H23.465V58.4397H22.5862V52.4139H22.5235Z" fill="#A0A0A0"/>
<path d="M27.9864 52.4139L26.7938 53.0416L26.6055 52.3511L28.1119 51.5352H28.9279V58.4397H28.0491V52.4139H27.9864Z" fill="#A0A0A0"/>
<path d="M36.0218 54.9242C36.0218 57.2466 35.1431 58.5648 33.6366 58.5648C32.2557 58.5648 31.377 57.3094 31.377 54.987C31.377 52.6645 32.3812 51.4092 33.7622 51.4092C35.1431 51.4092 36.0218 52.7273 36.0218 54.9242ZM32.2557 55.0497C32.2557 56.87 32.8206 57.8743 33.6366 57.8743C34.5781 57.8743 35.0803 56.7445 35.0803 54.987C35.0803 53.2922 34.6409 52.1624 33.6994 52.1624C32.8206 52.1624 32.2557 53.1667 32.2557 55.0497Z" fill="#A0A0A0"/>
<path d="M38.9082 52.4139L37.7157 53.0416L37.5273 52.3511L39.0338 51.5352H39.8498V58.4397H38.971V52.4139H38.9082Z" fill="#A0A0A0"/>
<path d="M46.8802 54.9242C46.8802 57.2466 46.0015 58.5648 44.495 58.5648C43.1141 58.5648 42.2354 57.3094 42.2354 54.987C42.2354 52.6645 43.2396 51.4092 44.6206 51.4092C46.0642 51.4092 46.8802 52.7273 46.8802 54.9242ZM43.1769 55.0497C43.1769 56.87 43.7418 57.8743 44.5578 57.8743C45.4993 57.8743 46.0015 56.7445 46.0015 54.987C46.0015 53.2922 45.5621 52.1624 44.6206 52.1624C43.7418 52.1624 43.1769 53.1667 43.1769 55.0497Z" fill="#A0A0A0"/>
<path d="M49.8323 52.4139L48.577 53.0416L48.3887 52.3511L49.8951 51.5352H50.7111V58.4397H49.8323V52.4139Z" fill="#A0A0A0"/>
<path d="M55.2278 52.4139L53.9725 53.0416L53.7842 52.3511L55.2906 51.5352H56.1066V58.4397H55.2278V52.4139Z" fill="#A0A0A0"/>
<path d="M63.265 54.9242C63.265 57.2466 62.3862 58.5648 60.8798 58.5648C59.4989 58.5648 58.6201 57.3094 58.6201 54.987C58.6201 52.6645 59.6244 51.4092 61.0053 51.4092C62.449 51.4092 63.265 52.7273 63.265 54.9242ZM59.4989 55.0497C59.4989 56.87 60.0638 57.8743 60.8798 57.8743C61.8213 57.8743 62.3234 56.7445 62.3234 54.987C62.3234 53.2922 61.8841 52.1624 60.9425 52.1624C60.1266 52.1624 59.4989 53.1667 59.4989 55.0497Z" fill="#A0A0A0"/>
<path d="M68.7279 54.9242C68.7279 57.2466 67.8491 58.5648 66.3427 58.5648C64.9618 58.5648 64.083 57.3094 64.083 54.987C64.083 52.6645 65.0873 51.4092 66.4682 51.4092C67.9119 51.4092 68.7279 52.7273 68.7279 54.9242ZM64.9618 55.0497C64.9618 56.87 65.5267 57.8743 66.3427 57.8743C67.2842 57.8743 67.7863 56.7445 67.7863 54.987C67.7863 53.2922 67.347 52.1624 66.4054 52.1624C65.5894 52.1624 64.9618 53.1667 64.9618 55.0497Z" fill="#A0A0A0"/>
<path d="M74.1869 54.9242C74.1869 57.2466 73.3081 58.5648 71.8017 58.5648C70.4208 58.5648 69.542 57.3094 69.542 54.987C69.542 52.6645 70.5463 51.4092 71.9272 51.4092C73.3709 51.4092 74.1869 52.7273 74.1869 54.9242ZM70.4208 55.0497C70.4208 56.87 70.9857 57.8743 71.8017 57.8743C72.7432 57.8743 73.2453 56.7445 73.2453 54.987C73.2453 53.2922 72.8059 52.1624 71.8644 52.1624C71.0484 52.1624 70.4208 53.1667 70.4208 55.0497Z" fill="#A0A0A0"/>
<path d="M77.0755 52.4139L75.8201 53.0416L75.6318 52.3511L77.1383 51.5352H77.9543V58.4397H77.0755V52.4139Z" fill="#A0A0A0"/>
<path d="M82.5345 52.4139L81.2791 53.0416L81.0908 52.3511L82.5973 51.5352H83.4132V58.4397H82.5345V52.4139Z" fill="#A0A0A0"/>
<path d="M90.5716 54.9242C90.5716 57.2466 89.6929 58.5648 88.1864 58.5648C86.8055 58.5648 85.9268 57.3094 85.9268 54.987C85.9268 52.6645 86.9311 51.4092 88.312 51.4092C89.7556 51.4092 90.5716 52.7273 90.5716 54.9242ZM86.8055 55.0497C86.8055 56.87 87.3704 57.8743 88.1864 57.8743C89.1279 57.8743 89.6301 56.7445 89.6301 54.987C89.6301 53.2922 89.1907 52.1624 88.2492 52.1624C87.4332 52.1624 86.8055 53.1667 86.8055 55.0497Z" fill="#A0A0A0"/>
<path d="M96.0345 54.9242C96.0345 57.2466 95.1558 58.5648 93.6493 58.5648C92.2684 58.5648 91.3896 57.3094 91.3896 54.987C91.3896 52.6645 92.3939 51.4092 93.7748 51.4092C95.2185 51.4092 96.0345 52.7273 96.0345 54.9242ZM92.2684 55.0497C92.2684 56.87 92.8333 57.8743 93.6493 57.8743C94.5908 57.8743 95.093 56.7445 95.093 54.987C95.093 53.2922 94.6536 52.1624 93.7121 52.1624C92.8961 52.1624 92.2684 53.1667 92.2684 55.0497Z" fill="#A0A0A0"/>
<path d="M98.9232 52.4139L97.6678 53.0416L97.4795 52.3511L98.9859 51.5352H99.8019V58.4397H98.9232V52.4139Z" fill="#A0A0A0"/>
<path d="M106.952 54.9242C106.952 57.2466 106.074 58.5648 104.567 58.5648C103.186 58.5648 102.308 57.3094 102.308 54.987C102.308 52.6645 103.312 51.4092 104.693 51.4092C106.136 51.4092 106.952 52.7273 106.952 54.9242ZM103.186 55.0497C103.186 56.87 103.751 57.8743 104.567 57.8743C105.509 57.8743 106.011 56.7445 106.011 54.987C106.011 53.2922 105.572 52.1624 104.63 52.1624C103.814 52.1624 103.186 53.1667 103.186 55.0497Z" fill="#A0A0A0"/>
<path d="M112.419 54.9242C112.419 57.2466 111.541 58.5648 110.034 58.5648C108.653 58.5648 107.774 57.3094 107.774 54.987C107.774 52.6645 108.779 51.4092 110.16 51.4092C111.603 51.4092 112.419 52.7273 112.419 54.9242ZM108.653 55.0497C108.653 56.87 109.218 57.8743 110.034 57.8743C110.976 57.8743 111.478 56.7445 111.478 54.987C111.478 53.2922 111.038 52.1624 110.097 52.1624C109.218 52.1624 108.653 53.1667 108.653 55.0497Z" fill="#A0A0A0"/>
<path d="M16.8665 66.475C16.8665 68.7974 15.9878 70.1156 14.4813 70.1156C13.1004 70.1156 12.2217 68.8602 12.2217 66.5378C12.2217 64.2153 13.226 62.96 14.6069 62.96C16.0506 62.96 16.8665 64.2781 16.8665 66.475ZM13.1004 66.5378C13.1004 68.358 13.6654 69.3623 14.4813 69.3623C15.4229 69.3623 15.925 68.2325 15.925 66.475C15.925 64.7802 15.4856 63.6504 14.5441 63.6504C13.7281 63.6504 13.1004 64.6547 13.1004 66.5378Z" fill="#A0A0A0"/>
<path d="M19.7559 63.9647L18.5633 64.5924L18.375 63.9019L19.8814 63.0859H20.6974V69.9905H19.8187V63.9647H19.7559Z" fill="#A0A0A0"/>
<path d="M27.7884 66.475C27.7884 68.7974 26.9097 70.1156 25.4032 70.1156C24.0223 70.1156 23.1436 68.8602 23.1436 66.5378C23.1436 64.2153 24.1479 62.96 25.5288 62.96C26.9724 62.96 27.7884 64.2781 27.7884 66.475ZM24.0223 66.5378C24.0223 68.358 24.5872 69.3623 25.4032 69.3623C26.3447 69.3623 26.8469 68.2325 26.8469 66.475C26.8469 64.7802 26.4075 63.6504 25.466 63.6504C24.65 63.6504 24.0223 64.6547 24.0223 66.5378Z" fill="#A0A0A0"/>
<path d="M30.6788 63.9647L29.4861 64.5924L29.2979 63.9019L30.8043 63.0859H31.6203V69.9905H30.7415V63.9647H30.6788Z" fill="#A0A0A0"/>
<path d="M36.1407 63.9647L34.9481 64.5924L34.7598 63.9019L36.2662 63.0859H37.0822V69.9905H36.2034V63.9647H36.1407Z" fill="#A0A0A0"/>
<path d="M44.1732 66.475C44.1732 68.7974 43.2944 70.1156 41.788 70.1156C40.4071 70.1156 39.5283 68.8602 39.5283 66.5378C39.5283 64.2153 40.5326 62.96 41.9135 62.96C43.3572 62.96 44.1732 64.2781 44.1732 66.475ZM40.4071 66.5378C40.4071 68.358 40.972 69.3623 41.788 69.3623C42.7295 69.3623 43.2317 68.2325 43.2317 66.475C43.2317 64.7802 42.7923 63.6504 41.8508 63.6504C41.0348 63.6504 40.4071 64.6547 40.4071 66.5378Z" fill="#A0A0A0"/>
<path d="M49.6322 66.475C49.6322 68.7974 48.7534 70.1156 47.247 70.1156C45.8661 70.1156 44.9873 68.8602 44.9873 66.5378C44.9873 64.2153 45.9916 62.96 47.3725 62.96C48.8162 62.96 49.6322 64.2781 49.6322 66.475ZM45.8661 66.5378C45.8661 68.358 46.431 69.3623 47.247 69.3623C48.1885 69.3623 48.6906 68.2325 48.6906 66.475C48.6906 64.7802 48.2513 63.6504 47.3097 63.6504C46.4937 63.6504 45.8661 64.6547 45.8661 66.5378Z" fill="#A0A0A0"/>
<path d="M52.5247 63.9647L51.2694 64.5924L51.0811 63.9019L52.5875 63.0859H53.4035V69.9905H52.5247V63.9647Z" fill="#A0A0A0"/>
<path d="M60.5579 66.475C60.5579 68.7974 59.6792 70.1156 58.1728 70.1156C56.7918 70.1156 55.9131 68.8602 55.9131 66.5378C55.9131 64.2153 56.9174 62.96 58.2983 62.96C59.742 62.96 60.5579 64.2781 60.5579 66.475ZM56.7918 66.5378C56.7918 68.358 57.3568 69.3623 58.1728 69.3623C59.1143 69.3623 59.6164 68.2325 59.6164 66.475C59.6164 64.7802 59.177 63.6504 58.2355 63.6504C57.3568 63.6504 56.7918 64.6547 56.7918 66.5378Z" fill="#A0A0A0"/>
<path d="M63.4466 63.9647L62.1912 64.5924L62.0029 63.9019L63.5094 63.0859H64.3254V69.9905H63.4466V63.9647Z" fill="#A0A0A0"/>
<path d="M68.9056 63.9647L67.6502 64.5924L67.4619 63.9019L68.9684 63.0859H69.7844V69.9905H68.9056V63.9647Z" fill="#A0A0A0"/>
<path d="M76.9427 66.475C76.9427 68.7974 76.0639 70.1156 74.5575 70.1156C73.1766 70.1156 72.2979 68.8602 72.2979 66.5378C72.2979 64.2153 73.3021 62.96 74.683 62.96C76.0639 62.96 76.9427 64.2781 76.9427 66.475ZM73.1766 66.5378C73.1766 68.358 73.7415 69.3623 74.5575 69.3623C75.499 69.3623 76.0012 68.2325 76.0012 66.475C76.0012 64.7802 75.5618 63.6504 74.6203 63.6504C73.7415 63.6504 73.1766 64.6547 73.1766 66.5378Z" fill="#A0A0A0"/>
<path d="M79.8314 63.9647L78.576 64.5924L78.3877 63.9019L79.8941 63.0859H80.7101V69.9905H79.8314V63.9647Z" fill="#A0A0A0"/>
<path d="M85.2913 63.9647L84.036 64.5924L83.8477 63.9019L85.3541 63.0859H86.1701V69.9905H85.2913V63.9647Z" fill="#A0A0A0"/>
<path d="M90.7503 63.9647L89.4949 64.5924L89.3066 63.9019L90.8131 63.0859H91.6291V69.9905H90.7503V63.9647Z" fill="#A0A0A0"/>
<path d="M96.2171 63.9647L94.9618 64.5924L94.7734 63.9019L96.2799 63.0859H97.0959V69.9905H96.2171V63.9647Z" fill="#A0A0A0"/>
<path d="M104.186 66.475C104.186 68.7974 103.307 70.1156 101.801 70.1156C100.42 70.1156 99.541 68.8602 99.541 66.5378C99.541 64.2153 100.545 62.96 101.926 62.96C103.37 62.96 104.186 64.2781 104.186 66.475ZM100.483 66.5378C100.483 68.358 101.047 69.3623 101.863 69.3623C102.805 69.3623 103.307 68.2325 103.307 66.475C103.307 64.7802 102.868 63.6504 101.926 63.6504C101.047 63.6504 100.483 64.6547 100.483 66.5378Z" fill="#A0A0A0"/>
<path d="M109.645 66.475C109.645 68.7974 108.766 70.1156 107.26 70.1156C105.879 70.1156 105 68.8602 105 66.5378C105 64.2153 106.004 62.96 107.385 62.96C108.829 62.96 109.645 64.2781 109.645 66.475ZM105.942 66.5378C105.942 68.358 106.506 69.3623 107.322 69.3623C108.264 69.3623 108.766 68.2325 108.766 66.475C108.766 64.7802 108.327 63.6504 107.385 63.6504C106.506 63.6504 105.942 64.6547 105.942 66.5378Z" fill="#A0A0A0"/>
<path d="M115.108 66.475C115.108 68.7974 114.229 70.1156 112.723 70.1156C111.342 70.1156 110.463 68.8602 110.463 66.5378C110.463 64.2153 111.467 62.96 112.848 62.96C114.292 62.96 115.108 64.2781 115.108 66.475ZM111.342 66.5378C111.342 68.358 111.907 69.3623 112.723 69.3623C113.664 69.3623 114.166 68.2325 114.166 66.475C114.166 64.7802 113.727 63.6504 112.785 63.6504C111.969 63.6504 111.342 64.6547 111.342 66.5378Z" fill="#A0A0A0"/>
<path d="M105.824 80.0345C105.761 80.2228 105.636 80.4111 105.573 80.5994C105.51 80.6622 105.51 80.7877 105.447 80.8505C105.133 81.3527 104.819 81.8549 104.38 82.2316C103.187 83.4243 101.492 84.1776 99.6092 84.1776H28.1092C25.5982 84.1776 23.4639 82.7965 22.2712 80.7877C22.2084 80.725 22.2084 80.5994 22.1456 80.5366C22.0201 80.3483 21.9573 80.16 21.8945 79.9717H105.824V80.0345Z" fill="#D6D6D6"/>
<path d="M24.9746 48.8976V35.4638C24.9746 35.2127 25.1629 35.0244 25.414 35.0244H102.187C102.438 35.0244 102.627 35.2127 102.627 35.4638V48.8976H24.9746Z" fill="url(#paint0_linear_542_7297)"/>
<rect x="1.20788" y="1.15417" width="125.863" height="125.863" rx="18.7136" stroke="#DEDEDE" stroke-width="1.02318"/>
<defs>
<linearGradient id="paint0_linear_542_7297" x1="63.78" y1="14.9853" x2="63.78" y2="44.8372" gradientUnits="userSpaceOnUse">
<stop stop-color="white"/>
<stop offset="1" stop-color="white" stop-opacity="0"/>
</linearGradient>
</defs>
</svg>
