<svg width="551" height="551" viewBox="0 0 551 551" fill="none" xmlns="http://www.w3.org/2000/svg">
<path opacity="0.2" d="M231.575 71.4523C235.58 73.7408 238.758 79.3347 238.758 83.9116V124.223L275.182 145.264V203.825C275.182 208.402 271.94 210.245 267.999 207.957C263.994 205.668 260.816 200.074 260.816 195.497V153.527L224.328 132.55V75.5842C224.328 71.0073 227.57 69.1639 231.575 71.4523Z" fill="url(#paint0_linear_542_7606)"/>
<path opacity="0.2" d="M251.406 478.119C255.411 480.408 258.589 478.564 258.589 473.987V381.941L295.013 402.982V352.616C295.013 348.039 291.771 342.445 287.83 340.157C283.825 337.868 280.647 339.712 280.647 344.289V378.063L244.223 357.022V465.66C244.223 470.237 247.465 475.831 251.406 478.119Z" fill="url(#paint1_linear_542_7606)"/>
<path opacity="0.2" d="M307.41 125.612C311.415 126.993 314.593 130.368 314.593 133.129V202.48C314.593 205.241 311.351 206.353 307.41 204.973C303.405 203.592 300.227 200.217 300.227 197.456V128.105C300.227 125.344 303.469 124.232 307.41 125.612Z" fill="url(#paint2_linear_542_7606)"/>
<path d="M264.115 447.233C264.115 457.917 257.856 462.989 250.14 458.51C242.423 454.086 236.164 441.783 236.164 431.099C236.164 420.415 242.423 415.343 250.14 419.821C257.856 424.246 264.115 436.549 264.115 447.233Z" fill="#7D79FF"/>
<path opacity="0.2" d="M387.569 120.595C383.564 118.307 380.385 120.15 380.385 124.727V186.77L343.961 165.729V241.946C343.961 246.523 347.203 252.117 351.144 254.406C355.149 256.694 358.327 254.851 358.327 250.274V190.647L394.752 211.688V133.055C394.752 128.478 391.51 122.884 387.569 120.595Z" fill="url(#paint3_linear_542_7606)"/>
<path d="M403.719 142.526C403.719 154.985 396.408 160.833 387.445 155.684C378.482 150.472 371.172 136.233 371.172 123.773C371.172 111.314 378.419 105.466 387.445 110.615C396.472 115.827 403.719 130.067 403.719 142.526Z" fill="#5F5AFF"/>
<path opacity="0.2" d="M457.237 459.857C457.237 455.28 453.995 449.686 450.054 447.398L393.479 414.724V367.366L337.285 334.946C333.28 332.658 330.102 334.501 330.102 339.078C330.102 343.655 333.344 349.249 337.285 351.537L379.112 375.693V423.051L450.118 463.989C454.059 466.277 457.237 464.434 457.237 459.857Z" fill="url(#paint4_linear_542_7606)"/>
<path opacity="0.2" d="M320.699 479.833C316.694 478.21 313.516 474.243 313.516 470.998V364.162C313.516 360.916 316.758 359.609 320.699 361.232C324.704 362.855 327.882 366.822 327.882 370.067V476.903C327.882 480.148 324.64 481.456 320.699 479.833Z" fill="url(#paint5_linear_542_7606)"/>
<path d="M465.052 464.769C465.052 476.62 458.109 482.247 449.55 477.279C440.99 472.371 434.047 458.724 434.047 446.872C434.047 435.021 440.99 429.394 449.55 434.362C458.109 439.27 465.052 452.918 465.052 464.769Z" fill="#5F5AFF"/>
<path opacity="0.2" d="M113.91 212.451L217.399 272.205V463.926L113.91 404.172V212.451Z" fill="url(#paint6_linear_542_7606)"/>
<path opacity="0.8" d="M130.312 334.374L191.973 369.972V377.537L130.312 341.939V334.374Z" fill="white"/>
<path opacity="0.8" d="M136.73 353L185.614 381.224V388.788L136.73 360.564V353Z" fill="white"/>
<path d="M153.385 387.136L81.4258 345.562V366.985L153.448 408.558L153.385 387.136Z" fill="#7D79FF"/>
<path opacity="0.8" d="M188.095 291.338L172.013 304.052L161.206 290.194L147.094 302.399L141.5 298.331L162.287 280.85L172.839 294.707L184.472 286.062L188.095 291.338Z" fill="white"/>
<path d="M200.169 291.021C200.169 298.205 195.974 301.574 190.825 298.586C185.676 295.598 181.48 287.398 181.48 280.215C181.48 273.032 185.676 269.663 190.825 272.65C195.974 275.638 200.169 283.902 200.169 291.021Z" fill="#7D79FF"/>
<path d="M151.99 304.878C151.99 312.061 147.794 315.431 142.645 312.443C137.496 309.455 133.301 301.255 133.301 294.072C133.301 286.889 137.496 283.52 142.645 286.507C147.794 289.495 151.99 297.695 151.99 304.878Z" fill="#7D79FF"/>
<path opacity="0.2" d="M469.575 337.807L371.172 280.977V332.213L469.575 389.042V337.807Z" fill="url(#paint7_linear_542_7606)"/>
<path opacity="0.8" d="M396.34 307.93L425.963 325.03V331.196L396.34 314.033V307.93Z" fill="white"/>
<path opacity="0.8" d="M396.406 320.262L459.466 356.623V362.853L396.406 326.492V320.262Z" fill="white"/>
<path d="M391.192 309.71C391.192 313.905 388.713 315.939 385.598 314.159C382.483 312.38 380.004 307.485 380.004 303.289C380.004 299.094 382.483 297.06 385.598 298.84C388.713 300.619 391.192 305.514 391.192 309.71Z" fill="#5F5AFF"/>
<path opacity="0.2" d="M217.083 181.112L118.68 124.282V175.518L217.083 232.348V181.112Z" fill="url(#paint8_linear_542_7606)"/>
<path opacity="0.8" d="M143.852 151.235L173.474 168.335V174.501L143.852 157.401V151.235Z" fill="white"/>
<path opacity="0.8" d="M143.918 163.567L206.977 199.928V206.157L143.918 169.797V163.567Z" fill="white"/>
<path d="M138.704 153.015C138.704 157.21 136.224 159.245 133.11 157.465C129.995 155.685 127.516 150.79 127.516 146.595C127.516 142.399 129.995 140.365 133.11 142.145C136.161 143.925 138.704 148.819 138.704 153.015Z" fill="#5F5AFF"/>
<path opacity="0.2" d="M347.074 292.482C347.074 323.631 328.83 338.379 306.39 325.411C283.887 312.443 265.707 276.654 265.707 245.506C265.707 214.358 283.951 199.61 306.39 212.578C328.894 225.545 347.074 261.334 347.074 292.482Z" fill="url(#paint9_linear_542_7606)"/>
<path opacity="0.2" d="M287.457 225.292C264.954 212.324 246.773 227.072 246.773 258.22C246.773 289.368 265.017 325.157 287.457 338.125C309.96 351.093 328.14 336.345 328.14 305.197C328.14 274.049 309.896 238.26 287.457 225.292Z" fill="url(#paint10_linear_542_7606)"/>
<path d="M278.573 247.31C286.64 256.271 295.332 265.194 301.01 276.186C301.378 277.108 303.979 283.877 304.035 284.818C305.922 295.407 301.737 304.155 292.267 308.496C291.954 308.515 291.492 306.025 292.392 305.342C300.555 300.133 303.584 293.028 300.815 283.437C298.083 274.472 292.317 267.262 286.552 260.053C283.844 256.752 280.824 253.47 277.472 249.893C272.942 263.383 269.331 276.502 272.03 290.19C273.324 296.093 275.813 300.98 281.022 304.132C281.666 304.408 281.247 307.895 278.282 305.554C277.619 304.964 276.957 304.374 275.981 303.803C275.981 303.803 270.697 299.397 268.385 286.945C266.016 273.553 270.271 260.709 274.858 248.161C275.665 245.909 277.229 245.816 278.573 247.31Z" fill="#262249"/>
<path d="M280.998 261.632C284.217 278.75 285.246 296 284.693 313.029C284.749 313.969 287.269 314.134 287.213 313.193C288.191 298.027 287.312 283.287 283.305 268.733C283.174 266.538 282.086 264.085 280.998 261.632Z" fill="#262249"/>
<defs>
<linearGradient id="paint0_linear_542_7606" x1="255.478" y1="132.88" x2="201.296" y2="174.546" gradientUnits="userSpaceOnUse">
<stop stop-color="#5C00E7"/>
<stop offset="1" stop-color="#5C00E7" stop-opacity="0.2"/>
</linearGradient>
<linearGradient id="paint1_linear_542_7606" x1="275.334" y1="358.592" x2="242.958" y2="379.464" gradientUnits="userSpaceOnUse">
<stop stop-color="#5C00E7"/>
<stop offset="1" stop-color="#5C00E7" stop-opacity="0.2"/>
</linearGradient>
<linearGradient id="paint2_linear_542_7606" x1="307.41" y1="135.175" x2="278.753" y2="144.234" gradientUnits="userSpaceOnUse">
<stop stop-color="#5C00E7"/>
<stop offset="1" stop-color="#5C00E7" stop-opacity="0.2"/>
</linearGradient>
<linearGradient id="paint3_linear_542_7606" x1="375.072" y1="163.361" x2="344.641" y2="185.01" gradientUnits="userSpaceOnUse">
<stop stop-color="#5C00E7"/>
<stop offset="1" stop-color="#5C00E7" stop-opacity="0.2"/>
</linearGradient>
<linearGradient id="paint4_linear_542_7606" x1="407.976" y1="376.176" x2="381.939" y2="424.23" gradientUnits="userSpaceOnUse">
<stop stop-color="#5C00E7"/>
<stop offset="1" stop-color="#5C00E7" stop-opacity="0.2"/>
</linearGradient>
<linearGradient id="paint5_linear_542_7606" x1="322.315" y1="399.199" x2="309.991" y2="402.005" gradientUnits="userSpaceOnUse">
<stop stop-color="#5C00E7"/>
<stop offset="1" stop-color="#5C00E7" stop-opacity="0.2"/>
</linearGradient>
<linearGradient id="paint6_linear_542_7606" x1="177.3" y1="293.479" x2="119.387" y2="338.804" gradientUnits="userSpaceOnUse">
<stop stop-color="#5C00E7"/>
<stop offset="1" stop-color="#5C00E7" stop-opacity="0.2"/>
</linearGradient>
<linearGradient id="paint7_linear_542_7606" x1="431.447" y1="315.797" x2="409.242" y2="354.251" gradientUnits="userSpaceOnUse">
<stop stop-color="#5C00E7"/>
<stop offset="1" stop-color="#5C00E7" stop-opacity="0.2"/>
</linearGradient>
<linearGradient id="paint8_linear_542_7606" x1="178.955" y1="159.102" x2="156.75" y2="197.556" gradientUnits="userSpaceOnUse">
<stop stop-color="#5C00E7"/>
<stop offset="1" stop-color="#5C00E7" stop-opacity="0.2"/>
</linearGradient>
<linearGradient id="paint9_linear_542_7606" x1="315.547" y1="247.26" x2="287.332" y2="282.975" gradientUnits="userSpaceOnUse">
<stop stop-color="#5C00E7"/>
<stop offset="1" stop-color="#5C00E7" stop-opacity="0.2"/>
</linearGradient>
<linearGradient id="paint10_linear_542_7606" x1="296.613" y1="259.975" x2="268.398" y2="295.689" gradientUnits="userSpaceOnUse">
<stop stop-color="#5C00E7"/>
<stop offset="1" stop-color="#5C00E7" stop-opacity="0.2"/>
</linearGradient>
</defs>
</svg>
