<svg width="145" height="145" viewBox="0 0 145 145" fill="none" xmlns="http://www.w3.org/2000/svg">
<path opacity="0.1" d="M72.5007 14.192C80.8678 14.192 87.652 20.5239 88.5565 28.6649H90.5918C95.1145 28.6649 99.185 31.8308 100.768 35.9013H101.446C109.361 35.9013 115.919 42.4594 115.919 50.3742V115.502C115.919 123.643 109.361 129.975 101.446 129.975H43.5549C35.4139 129.975 29.082 123.643 29.082 115.502V50.3742C29.082 42.4594 35.4139 35.9013 43.5549 35.9013H44.0072C45.5902 31.8308 49.6607 28.6649 54.4096 28.6649H56.2187C57.1232 20.5239 63.9074 14.192 72.5007 14.192ZM32.7003 50.3742V115.502C32.7003 121.608 37.4492 126.357 43.5549 126.357H101.446C107.326 126.357 112.301 121.608 112.301 115.502V50.3742C112.301 44.4946 107.326 39.5196 101.446 39.5196V43.1378C101.446 47.2083 98.0543 50.3742 94.21 50.3742H50.7913C46.7209 50.3742 43.5549 47.2083 43.5549 43.1378V39.5196C37.4492 39.5196 32.7003 44.4946 32.7003 50.3742ZM59.8369 30.474C59.8369 31.6047 58.9323 32.2831 58.0278 32.2831H54.4096C50.3391 32.2831 47.1731 35.6752 47.1731 39.5196V43.1378C47.1731 45.173 48.7561 46.756 50.7913 46.756H94.21C96.0191 46.756 97.8282 45.173 97.8282 43.1378V39.5196C97.8282 35.6752 94.4361 32.2831 90.5918 32.2831H86.9735C85.8428 32.2831 85.1644 31.6047 85.1644 30.474C85.1644 23.6898 79.2848 17.8102 72.5007 17.8102C65.4904 17.8102 59.8369 23.6898 59.8369 30.474ZM72.5007 35.9013C70.4654 35.9013 68.8824 34.3184 68.8824 32.2831C68.8824 30.474 70.4654 28.6649 72.5007 28.6649C74.3098 28.6649 76.1189 30.474 76.1189 32.2831C76.1189 34.3184 74.3098 35.9013 72.5007 35.9013ZM64.5858 68.013L51.922 80.6768C51.2436 81.3552 50.1129 81.3552 49.4345 80.6768L44.0072 75.2495C43.3288 74.5711 43.3288 73.4404 44.0072 72.7619C44.6856 72.0835 45.8163 72.0835 46.4947 72.7619L50.7913 76.8324L62.0983 65.5255C62.7767 64.8471 63.9074 64.8471 64.5858 65.5255C65.2642 66.2039 65.2642 67.3346 64.5858 68.013ZM72.5007 73.8926C72.5007 72.9881 73.1791 72.0835 74.3098 72.0835H99.6373C100.542 72.0835 101.446 72.9881 101.446 73.8926C101.446 75.0233 100.542 75.7017 99.6373 75.7017H74.3098C73.1791 75.7017 72.5007 75.0233 72.5007 73.8926ZM65.2642 101.029C65.2642 100.125 65.9426 99.2202 67.0733 99.2202H99.6373C100.542 99.2202 101.446 100.125 101.446 101.029C101.446 102.16 100.542 102.838 99.6373 102.838H67.0733C65.9426 102.838 65.2642 102.16 65.2642 101.029ZM50.7913 104.647C48.7561 104.647 47.1731 103.065 47.1731 101.029C47.1731 99.2202 48.7561 97.4111 50.7913 97.4111C52.6005 97.4111 54.4096 99.2202 54.4096 101.029C54.4096 103.065 52.6005 104.647 50.7913 104.647Z" fill="#7B78FF"/>
</svg>
