<svg width="41" height="41" viewBox="0 0 41 41" fill="none" xmlns="http://www.w3.org/2000/svg">
<path d="M20.5 4.5835C22.8125 4.5835 24.6875 6.3335 24.9375 8.5835H25.5C26.75 8.5835 27.875 9.4585 28.3125 10.5835H28.5C30.6875 10.5835 32.5 12.396 32.5 14.5835V32.5835C32.5 34.8335 30.6875 36.5835 28.5 36.5835H12.5C10.25 36.5835 8.5 34.8335 8.5 32.5835V14.5835C8.5 12.396 10.25 10.5835 12.5 10.5835H12.625C13.0625 9.4585 14.1875 8.5835 15.5 8.5835H16C16.25 6.3335 18.125 4.5835 20.5 4.5835ZM9.5 14.5835V32.5835C9.5 34.271 10.8125 35.5835 12.5 35.5835H28.5C30.125 35.5835 31.5 34.271 31.5 32.5835V14.5835C31.5 12.9585 30.125 11.5835 28.5 11.5835V12.5835C28.5 13.7085 27.5625 14.5835 26.5 14.5835H14.5C13.375 14.5835 12.5 13.7085 12.5 12.5835V11.5835C10.8125 11.5835 9.5 12.9585 9.5 14.5835ZM17 9.0835C17 9.396 16.75 9.5835 16.5 9.5835H15.5C14.375 9.5835 13.5 10.521 13.5 11.5835V12.5835C13.5 13.146 13.9375 13.5835 14.5 13.5835H26.5C27 13.5835 27.5 13.146 27.5 12.5835V11.5835C27.5 10.521 26.5625 9.5835 25.5 9.5835H24.5C24.1875 9.5835 24 9.396 24 9.0835C24 7.2085 22.375 5.5835 20.5 5.5835C18.5625 5.5835 17 7.2085 17 9.0835ZM20.5 10.5835C19.9375 10.5835 19.5 10.146 19.5 9.5835C19.5 9.0835 19.9375 8.5835 20.5 8.5835C21 8.5835 21.5 9.0835 21.5 9.5835C21.5 10.146 21 10.5835 20.5 10.5835ZM18.3125 19.4585L14.8125 22.9585C14.625 23.146 14.3125 23.146 14.125 22.9585L12.625 21.4585C12.4375 21.271 12.4375 20.9585 12.625 20.771C12.8125 20.5835 13.125 20.5835 13.3125 20.771L14.5 21.896L17.625 18.771C17.8125 18.5835 18.125 18.5835 18.3125 18.771C18.5 18.9585 18.5 19.271 18.3125 19.4585ZM20.5 21.0835C20.5 20.8335 20.6875 20.5835 21 20.5835H28C28.25 20.5835 28.5 20.8335 28.5 21.0835C28.5 21.396 28.25 21.5835 28 21.5835H21C20.6875 21.5835 20.5 21.396 20.5 21.0835ZM18.5 28.5835C18.5 28.3335 18.6875 28.0835 19 28.0835H28C28.25 28.0835 28.5 28.3335 28.5 28.5835C28.5 28.896 28.25 29.0835 28 29.0835H19C18.6875 29.0835 18.5 28.896 18.5 28.5835ZM14.5 29.5835C13.9375 29.5835 13.5 29.146 13.5 28.5835C13.5 28.0835 13.9375 27.5835 14.5 27.5835C15 27.5835 15.5 28.0835 15.5 28.5835C15.5 29.146 15 29.5835 14.5 29.5835Z" fill="#7B78FF"/>
</svg>
