<svg width="19" height="15" viewBox="0 0 19 15" fill="none" xmlns="http://www.w3.org/2000/svg">
<path d="M18.0336 2.09821C17.5351 2.82738 16.9324 3.44866 16.2256 3.96205C16.233 4.06622 16.2367 4.22247 16.2367 4.4308C16.2367 5.39807 16.0954 6.36347 15.8126 7.32701C15.5299 8.29055 15.1002 9.21503 14.5236 10.1004C13.9469 10.9859 13.2606 11.769 12.4644 12.4498C11.6683 13.1306 10.7085 13.6737 9.58496 14.0792C8.46145 14.4847 7.25981 14.6875 5.98005 14.6875C3.96368 14.6875 2.11844 14.1481 0.444336 13.0692C0.704753 13.099 0.994931 13.1138 1.31487 13.1138C2.98898 13.1138 4.48079 12.6004 5.79032 11.5737C5.00907 11.5588 4.30966 11.3188 3.6921 10.8538C3.07454 10.3888 2.65044 9.79539 2.41978 9.07366C2.66532 9.11086 2.89225 9.12946 3.10059 9.12946C3.42053 9.12946 3.73675 9.08854 4.04925 9.0067C3.21591 8.83557 2.52581 8.42076 1.97893 7.76228C1.43206 7.10379 1.15862 6.33929 1.15862 5.46875V5.42411C1.66457 5.70685 2.20773 5.85938 2.78809 5.8817C2.29701 5.55432 1.90639 5.12649 1.61621 4.59821C1.32603 4.06994 1.18094 3.49702 1.18094 2.87946C1.18094 2.2247 1.34463 1.6183 1.67201 1.06027C2.57231 2.1689 3.66792 3.05618 4.95885 3.7221C6.24977 4.38802 7.63184 4.75818 9.10505 4.83259C9.04553 4.54985 9.01576 4.27455 9.01576 4.0067C9.01576 3.00967 9.36733 2.1596 10.0705 1.45647C10.7736 0.753348 11.6237 0.401785 12.6207 0.401785C13.6623 0.401785 14.5403 0.78125 15.2546 1.54018C16.0656 1.38393 16.8283 1.09375 17.5426 0.669642C17.2673 1.5253 16.739 2.1875 15.9577 2.65625C16.6497 2.58185 17.3417 2.39583 18.0336 2.09821Z" fill="#4E4E4E"/>
<path d="M18.0336 2.09821C17.5351 2.82738 16.9324 3.44866 16.2256 3.96205C16.233 4.06622 16.2367 4.22247 16.2367 4.4308C16.2367 5.39807 16.0954 6.36347 15.8126 7.32701C15.5299 8.29055 15.1002 9.21503 14.5236 10.1004C13.9469 10.9859 13.2606 11.769 12.4644 12.4498C11.6683 13.1306 10.7085 13.6737 9.58496 14.0792C8.46145 14.4847 7.25981 14.6875 5.98005 14.6875C3.96368 14.6875 2.11844 14.1481 0.444336 13.0692C0.704753 13.099 0.994931 13.1138 1.31487 13.1138C2.98898 13.1138 4.48079 12.6004 5.79032 11.5737C5.00907 11.5588 4.30966 11.3188 3.6921 10.8538C3.07454 10.3888 2.65044 9.79539 2.41978 9.07366C2.66532 9.11086 2.89225 9.12946 3.10059 9.12946C3.42053 9.12946 3.73675 9.08854 4.04925 9.0067C3.21591 8.83557 2.52581 8.42076 1.97893 7.76228C1.43206 7.10379 1.15862 6.33929 1.15862 5.46875V5.42411C1.66457 5.70685 2.20773 5.85938 2.78809 5.8817C2.29701 5.55432 1.90639 5.12649 1.61621 4.59821C1.32603 4.06994 1.18094 3.49702 1.18094 2.87946C1.18094 2.2247 1.34463 1.6183 1.67201 1.06027C2.57231 2.1689 3.66792 3.05618 4.95885 3.7221C6.24977 4.38802 7.63184 4.75818 9.10505 4.83259C9.04553 4.54985 9.01576 4.27455 9.01576 4.0067C9.01576 3.00967 9.36733 2.1596 10.0705 1.45647C10.7736 0.753348 11.6237 0.401785 12.6207 0.401785C13.6623 0.401785 14.5403 0.78125 15.2546 1.54018C16.0656 1.38393 16.8283 1.09375 17.5426 0.669642C17.2673 1.5253 16.739 2.1875 15.9577 2.65625C16.6497 2.58185 17.3417 2.39583 18.0336 2.09821Z" fill="#4E4E4E"/>
</svg>
